<svg width="400" height="591" viewBox="0 0 400 591" fill="none" xmlns="http://www.w3.org/2000/svg">
<g opacity="0.25" filter="url(#filter0_b_12_255)">
<path fill-rule="evenodd" clip-rule="evenodd" d="M208.751 588.596L207.818 307.279L206.768 308.56C206.708 307.016 207.003 305.478 207.63 304.065C208.257 302.651 209.199 301.4 210.385 300.406L397.078 160.622C398.361 159.69 399.878 160.855 399.878 162.602V283.283C399.929 284.809 399.629 286.327 399.002 287.72C398.375 289.113 397.438 290.344 396.261 291.32L287.629 372.861C287.059 373.349 286.606 373.958 286.303 374.643C286 375.329 285.855 376.073 285.879 376.822V392.781C285.762 394.761 287.396 395.693 288.563 394.761L397.194 313.22C398.478 312.288 399.995 313.453 399.995 315.2V444.268C400.045 445.794 399.746 447.312 399.119 448.705C398.492 450.098 397.554 451.33 396.378 452.306L211.435 590.576C210.268 591.508 208.751 590.343 208.751 588.596ZM100.12 210.687C99.4376 210.687 98.7769 210.448 98.2527 210.012L10.3906 144.663C10.0951 144.411 9.85785 144.099 9.69519 143.747C9.53253 143.395 9.4483 143.012 9.4483 142.624C9.4483 142.237 9.53253 141.854 9.69519 141.502C9.85785 141.15 10.0951 140.837 10.3906 140.586L195.216 1.50013C196.265 0.678242 197.559 0.231384 198.892 0.231384C200.225 0.231384 201.519 0.678242 202.567 1.50013L388.56 140.586C388.855 140.837 389.092 141.15 389.255 141.502C389.418 141.854 389.502 142.237 389.502 142.624C389.502 143.012 389.418 143.395 389.255 143.747C389.092 144.099 388.855 144.411 388.56 144.663L299.414 211.41C298.89 211.846 298.229 212.085 297.547 212.085C296.865 212.085 296.204 211.846 295.68 211.41L258.692 183.57C257.408 182.638 255.891 183.803 255.891 185.55V239.833C255.933 240.601 255.797 241.368 255.493 242.075C255.19 242.782 254.727 243.41 254.141 243.91L202.567 282.467C201.519 283.289 200.225 283.736 198.892 283.736C197.559 283.736 196.265 283.289 195.216 282.467L143.759 243.91C143.173 243.41 142.711 242.782 142.407 242.075C142.104 241.368 141.967 240.601 142.009 239.833V184.152C142.009 182.172 140.375 181.24 139.208 182.172L101.987 210.012C101.462 210.448 100.802 210.687 100.12 210.687ZM193.116 308.211L191.833 588.596L191.599 588.479C191.599 590.46 190.082 591.391 188.915 590.46L120.773 540.603C119.596 539.627 118.658 538.396 118.031 537.002C117.404 535.609 117.105 534.092 117.155 532.565V511.132C117.188 510.365 117.048 509.6 116.745 508.894C116.442 508.189 115.984 507.56 115.405 507.055L69.8988 473.04C69.1987 472.458 68.2653 473.157 68.2653 474.205V497.503C68.2653 499.483 66.6317 500.415 65.4649 499.483L3.62292 452.888C2.44617 451.912 1.50854 450.681 0.881652 449.288C0.254699 447.895 -0.0448618 446.377 0.00573635 444.851V162.252C0.00573635 160.272 1.63928 159.34 2.80615 160.272L189.499 300.057C190.692 301.045 191.639 302.295 192.266 303.71C192.894 305.125 193.185 306.665 193.116 308.211ZM114.238 384.277C115.522 385.209 117.039 384.044 117.039 382.297L117.272 382.18V366.688C117.3 365.91 117.145 365.137 116.821 364.429C116.497 363.721 116.012 363.099 115.405 362.611L70.1322 329.179C69.4321 328.596 68.4987 329.295 68.4987 330.344V347.234C68.4572 348.002 68.5935 348.77 68.897 349.477C69.2006 350.184 69.6631 350.811 70.2488 351.311L114.238 384.277Z" fill="#C5C6E5"/>
</g>
<defs>
<filter id="filter0_b_12_255" x="-3.99976" y="-3.76862" width="408" height="598.674" filterUnits="userSpaceOnUse" color-interpolation-filters="sRGB">
<feFlood flood-opacity="0" result="BackgroundImageFix"/>
<feGaussianBlur in="BackgroundImage" stdDeviation="2"/>
<feComposite in2="SourceAlpha" operator="in" result="effect1_backgroundBlur_12_255"/>
<feBlend mode="normal" in="SourceGraphic" in2="effect1_backgroundBlur_12_255" result="shape"/>
</filter>
</defs>
</svg>
