<svg width="438" height="161" viewBox="0 0 438 161" fill="none" xmlns="http://www.w3.org/2000/svg">
<g clip-path="url(#clip0_213_10)">
<mask id="mask0_213_10" style="mask-type:alpha" maskUnits="userSpaceOnUse" x="-159" y="-996" width="598" height="1263">
<path d="M319.029 251.438V222.002L338.827 207.283M319.029 251.438L338.827 236.873M319.029 251.438V221.848L338.827 207.283M319.029 251.438V163.283L338.827 148.564M159.863 222.308L139.909 236.873M159.863 222.308V192.719M159.863 222.308L179.662 236.873L159.863 222.155M159.863 222.308L140.065 236.873M159.863 222.308L179.817 236.873M139.909 236.873L120.111 222.002M139.909 236.873L159.863 251.438M139.909 236.873L159.863 222.155M139.909 236.873L120.111 221.848M120.111 222.002L159.863 192.719M120.111 222.002L140.065 236.873M120.111 222.002L140.065 236.566V266.002M120.111 222.002V251.438M120.111 222.002L100.313 207.283M159.863 192.719L199.616 222.002M159.863 192.719L199.772 222.002L159.863 251.438M159.863 192.719L120.111 221.848M159.863 192.719V222.155M159.863 192.719L199.616 221.848L159.863 251.438M159.863 192.719L140.065 178.154M159.863 192.719L179.817 178.154M159.863 192.719L199.772 221.848L159.863 251.438M199.616 222.002L159.863 251.438M199.616 222.002V251.438L219.57 236.873M199.616 222.002L219.57 207.283M199.616 222.002V251.591L219.57 237.026M199.616 222.002L219.57 207.437M159.863 251.438L140.065 236.873M378.579 236.873L398.533 222.308V192.719M378.579 236.873L358.781 222.002M378.579 236.873L398.533 251.438M378.579 236.873L398.533 222.155V192.719M378.579 236.873L358.781 221.848M358.781 222.002L398.533 192.719M358.781 222.002L378.579 236.566V266.002M358.781 222.002V251.438M358.781 222.002L338.827 207.283M398.533 192.719L378.579 178.154M398.533 192.719L418.487 178.154M398.533 192.719L358.781 221.848M368.914 229.667L389.959 214.183L369.381 229.207M438.441 222.002L398.533 251.438M398.533 251.438L438.441 221.848M338.827 236.873V207.283M338.827 236.873L358.781 251.438M338.827 207.283L358.781 221.848M358.781 251.438V221.848M279.276 222.308L259.322 236.873M279.276 222.308V192.719M279.276 222.308L299.074 236.873V178.154M259.322 236.873V207.437L279.276 192.719M259.322 236.873V207.283M279.276 192.719L259.322 178.154M279.276 192.719L299.074 178.154M279.276 192.719L259.322 207.283M279.276 192.719V222.155L259.322 236.72V207.283M299.074 178.154V148.564L319.029 134M299.074 178.154V236.72M299.074 178.154L279.276 163.589M259.322 236.566L239.524 222.002M239.524 222.002V251.438L219.57 236.873M239.524 222.002L219.57 207.283M239.524 222.002V251.591L219.57 237.026M239.524 222.002L219.57 207.437M219.57 236.873V207.283M219.57 207.283L239.524 192.719M219.57 207.283L199.616 192.719V163.283L219.57 148.564M80.3586 251.438V222.002L100.313 207.283M80.3586 251.438L100.313 236.873M80.3586 251.438V221.848L100.313 207.283M80.3586 251.438V163.283L100.313 148.564M-78.8066 222.308L-98.7607 236.873M-78.8066 222.308V192.719M-78.8066 222.308L-58.8525 236.873M-98.7607 236.873L-118.559 222.002L-78.8066 192.719M-98.7607 236.873L-78.8066 251.438M-98.7607 236.873L-78.8066 222.155M-98.7607 236.873L-118.559 221.848L-78.8066 192.719M-78.8066 192.719L-38.8984 222.002M-78.8066 192.719V222.155M-78.8066 192.719L-38.8984 221.848L-78.8066 251.438M-38.8984 222.002L-78.8066 251.438M-38.8984 222.002V251.438L-19.1002 236.873M-38.8984 222.002L-19.1002 207.283M-38.8984 222.002V251.591L-19.1002 237.026M-38.8984 222.002L-19.1002 207.437M-58.8525 236.873L-78.8066 222.155M-58.8525 236.873L-38.8984 222.308M140.065 236.873L159.863 222.155M140.065 236.873L120.111 221.848M130.244 229.667L151.289 214.183L130.867 229.207M179.817 236.873L199.616 222.308M179.817 236.873L159.863 222.155M100.313 236.873V207.283M100.313 236.873L120.111 251.438M100.313 207.283L120.111 221.848M120.111 251.438V221.848M40.6063 222.308L20.6522 236.873M40.6063 222.308V192.719M40.6063 222.308L60.5604 236.873V178.154M20.6522 236.873V207.437L40.6063 192.719M20.6522 236.873V207.283M40.6063 192.719L20.6522 178.154M40.6063 192.719L60.5604 178.154M40.6063 192.719L20.6522 207.283M40.6063 192.719V222.155L20.6522 236.72V207.283M60.5604 178.154V148.564L80.3586 134M60.5604 178.154V236.72M60.5604 178.154L40.6063 163.589M20.6522 236.566L0.853941 222.002M0.853941 222.002V251.438L-19.1002 236.873M0.853941 222.002L-19.1002 207.283M0.853941 222.002V251.591L-19.1002 237.026M0.853941 222.002L-19.1002 207.437M-19.1002 236.873V207.283M-19.1002 207.283L0.853941 192.719M-19.1002 207.283L-38.8984 192.719V163.283L-19.1002 148.564M259.322 148.564V178.154M259.322 148.564L239.524 163.129M259.322 148.564V119.128M259.322 178.154L279.276 163.589M279.276 104.87L259.322 119.435L239.524 104.563M279.276 104.87V75.4339M279.276 104.87L299.074 119.435L319.029 134M279.276 104.87V163.589M239.524 104.563L279.276 75.4339M239.524 104.563L259.322 119.128M239.524 104.563V45.9978L219.57 31.433M279.276 75.4339L299.074 89.9987L319.029 104.563M279.276 75.4339L259.322 60.8692M279.276 75.4339L299.074 60.8692M249.657 112.229L270.702 96.7445M319.029 134V104.563M319.029 134L338.827 119.435M319.029 134L338.827 148.564M319.029 104.563L338.827 89.9987M378.579 178.154L398.533 163.589V134L378.579 148.718V178.154ZM378.579 148.564L358.781 163.129M358.781 163.129V221.848M358.781 163.129L338.827 148.564M378.579 119.128L358.781 104.563M358.781 104.563V134M358.781 104.563L338.827 89.9987M338.827 119.435V89.9987M338.827 119.435L358.781 134M338.827 148.564L358.781 134M279.276 46.1511L259.322 60.8692M279.276 46.1511V16.7149M279.276 46.1511L299.074 60.8692M259.322 60.8692V31.2797M259.322 31.2797L279.276 16.7149M259.322 31.2797L239.524 45.8444M279.276 16.7149L299.074 31.2797M279.276 16.7149L299.074 2.15014M299.074 60.8692V31.2797M299.074 60.8692L338.827 90.152L377.488 60.7159M299.074 60.8692L338.827 31.2797M299.074 31.2797L319.029 16.7149M319.029 16.7149V-12.8746M319.029 16.7149L338.827 2.15014M319.029 16.7149V-12.7212M319.029 16.7149L338.827 31.2797M398.533 46.1511L378.579 60.8692M378.579 60.8692L398.533 75.4339M378.579 60.8692L358.781 45.8444L338.827 31.2797M378.579 60.8692V1.84354L358.781 -12.8746M398.533 75.4339L418.487 60.8692M398.533 75.4339L378.579 89.9987V119.435L398.533 104.87V75.4339ZM159.863 -12.4146L139.909 2.15014M159.863 -12.4146V-42.0041M159.863 -12.4146L179.662 2.15014M159.863 -12.4146L140.065 2.15014M159.863 -12.4146L179.817 2.15014M159.863 -12.4146L139.909 2.30346M159.863 -12.4146V-41.8508M159.863 -12.4146L179.662 2.30346M159.863 -12.4146L140.065 2.30346M159.863 -12.4146L179.817 2.30346L199.616 -12.2613M139.909 2.15014L120.111 -12.8746M139.909 2.15014L159.863 16.7149M120.111 -12.8746L159.863 -42.0041M120.111 -12.8746L140.065 2.15014M120.111 -12.8746L140.065 1.84354V60.8692M120.111 -12.8746V16.7149M120.111 -12.8746L100.313 -27.4393M159.863 -42.0041L199.616 -12.7212M159.863 -42.0041L199.772 -12.7212M199.616 -12.7212L159.863 16.7149M199.616 -12.7212V16.7149M199.616 -12.7212L219.57 -27.4393M199.616 -12.7212L159.863 16.8682M199.616 -12.7212L159.863 -41.8508M159.863 16.7149V46.1511M159.863 16.7149L199.772 -12.7212M159.863 16.7149L140.065 2.15014M120.111 221.848V163.129M398.533 -12.4146L378.579 2.15014M398.533 -12.4146V-42.0041L358.781 -12.8746M398.533 -12.4146L378.579 2.30346M398.533 -12.4146V-41.8508M378.579 2.15014L358.781 -12.8746M378.579 2.15014L398.533 16.7149L438.441 -12.7212L398.533 16.8682L378.579 2.30346M358.781 -12.8746V16.7149M358.781 -12.8746L338.827 -27.4393M389.959 -20.5402L368.914 -5.20889M338.827 2.15014V-27.4393M338.827 2.15014L358.781 16.7149M319.029 -12.7212L338.827 -27.4393M319.029 -12.7212V16.8682M319.029 -12.7212L338.827 -27.286M338.827 31.2797L358.781 16.7149M159.863 163.589L140.065 178.154M159.863 163.589V134M159.863 163.589L179.817 178.154M140.065 178.154V148.718L159.863 134M159.863 134L179.817 148.564M159.863 134L179.817 119.435M179.817 178.154V148.564M179.817 148.564L199.616 134M159.863 104.87L140.065 119.435V89.9987L159.863 75.4339M159.863 104.87V75.4339M159.863 104.87L179.817 119.435M159.863 75.4339L140.065 60.8692M159.863 75.4339L179.817 60.8692M179.817 119.435V60.8692M179.817 60.8692L159.863 46.1511M179.817 60.8692V31.2797L199.616 16.7149M173.114 100.884L167.502 96.7445M259.322 207.283L239.524 192.719M292.371 218.169L286.759 214.029M279.276 -12.4146L259.322 2.15014M279.276 -12.4146V-42.0041L259.322 -27.4393V2.15014M279.276 -12.4146L299.074 2.15014M279.276 -12.4146V-41.8508M259.322 2.15014V-27.286M299.074 2.15014V-56.5689M299.074 2.15014V-56.4156M199.616 134L213.334 144.118M199.616 134V45.9978L219.57 31.433M239.524 163.129V192.719M239.524 163.129L219.57 148.564M259.322 119.128L225.805 144.118M219.57 31.433L213.334 36.0324V144.118M219.57 31.433L225.805 36.0324V144.118M219.57 148.564L225.805 144.118M219.57 148.564L213.334 144.118M213.334 153.164V187.353L199.772 177.541M225.805 153.164V187.506L239.524 177.387M219.57 237.026V207.437M159.863 46.1511L140.065 60.8692M140.065 60.8692L120.267 45.8444L100.313 31.2797M199.616 16.7149V-12.8746M199.616 16.7149L219.57 2.15014M199.616 16.7149L219.57 31.2797L239.524 16.7149M259.322 1.84354L239.524 -12.8746M239.524 -12.8746V16.7149M239.524 -12.8746L219.57 -27.4393M219.57 2.15014V-27.4393M219.57 2.15014L239.524 16.7149M20.6522 148.564V178.154M20.6522 148.564L0.853941 163.129M20.6522 148.564V119.128M20.6522 178.154L40.6063 163.589M40.6063 104.87L20.6522 119.435L0.853941 104.563M40.6063 104.87V75.4339M40.6063 104.87L60.5604 119.435L80.3586 134M40.6063 104.87V163.589M0.853941 104.563L40.6063 75.4339M0.853941 104.563L20.6522 119.128M0.853941 104.563V45.9978L-19.1002 31.433M40.6063 75.4339L60.5604 89.9987L80.3586 104.563M40.6063 75.4339L20.6522 60.8692M40.6063 75.4339L60.5604 60.8692M10.9869 112.229L32.0322 96.7445M80.3586 134V104.563M80.3586 134L100.313 119.435M80.3586 134L100.313 148.564M80.3586 104.563L100.313 89.9987M140.065 148.564L120.111 163.129M120.111 163.129L100.313 148.564M140.065 119.128L120.111 104.563M120.111 104.563V134M120.111 104.563L100.313 89.9987M100.313 119.435V89.9987M100.313 119.435L120.111 134M100.313 148.564L120.111 134M40.6063 46.1511L20.6522 60.8692M40.6063 46.1511V16.7149M40.6063 46.1511L60.5604 60.8692M20.6522 60.8692V31.2797M20.6522 31.2797L40.6063 16.7149M20.6522 31.2797L0.853941 45.8444M40.6063 16.7149L60.5604 31.2797M40.6063 16.7149L60.5604 2.15014M60.5604 60.8692V31.2797M60.5604 60.8692L100.313 90.152L138.974 60.7159M60.5604 60.8692L100.313 31.2797M60.5604 31.2797L80.3586 16.7149M80.3586 16.7149V-12.8746M80.3586 16.7149L100.313 2.15014M80.3586 16.7149V-12.7212M80.3586 16.7149L100.313 31.2797M-78.8066 -12.4146L-98.7607 2.15014M-78.8066 -12.4146V-42.0041M-78.8066 -12.4146L-58.8525 2.15014M-78.8066 -12.4146L-98.7607 2.30346M-78.8066 -12.4146V-41.8508M-78.8066 -12.4146L-58.8525 2.30346L-38.8984 -12.2613M-98.7607 2.15014L-118.559 -12.8746L-78.8066 -42.0041M-98.7607 2.15014L-78.8066 16.7149L-38.8984 -12.7212M-78.8066 -42.0041L-38.8984 -12.7212M-38.8984 -12.7212V16.7149M-38.8984 -12.7212L-19.1002 -27.4393M-38.8984 -12.7212L-78.8066 16.8682L-98.7607 2.30346M-38.8984 -12.7212L-78.8066 -41.8508M151.289 -20.5402L130.244 -5.20889M199.772 -12.7212L159.863 16.8682M199.772 -12.7212L159.863 -41.8508M100.313 2.15014V-27.4393M100.313 2.15014L120.111 16.7149M80.3586 -12.7212L100.313 -27.4393M80.3586 -12.7212V16.8682M80.3586 -12.7212L100.313 -27.286M100.313 31.2797L120.111 16.7149M-78.6507 163.589L-98.6048 178.154M-78.6507 163.589V134M-78.6507 163.589L-58.8525 178.154M-98.6048 178.154V148.718L-78.6507 134M-98.6048 178.154L-78.6507 192.719L-58.8525 178.154M-78.6507 134L-58.8525 148.564M-78.6507 134L-58.8525 119.435M-58.8525 178.154V148.564M-58.8525 148.564L-38.8984 134M-78.6507 104.87L-98.6048 119.435V89.9987L-78.6507 75.4339M-78.6507 104.87V75.4339M-78.6507 104.87L-58.8525 119.435M-78.6507 75.4339L-98.6048 60.8692M-78.6507 75.4339L-58.8525 60.8692M-58.8525 119.435V60.8692M-58.8525 60.8692L-78.6507 46.1511M-58.8525 60.8692V31.2797L-38.8984 16.7149M-65.5558 100.884L-71.1679 96.7445M20.6522 207.283L0.853941 192.719M53.8571 218.169L48.245 214.029M40.6063 -12.4146L20.6522 2.15014M40.6063 -12.4146V-42.0041L20.6522 -27.4393V2.15014M40.6063 -12.4146L60.5604 2.15014M40.6063 -12.4146V-41.8508M20.6522 2.15014V-27.286M60.5604 2.15014V-56.5689M60.5604 2.15014V-56.4156M-38.8984 134L-25.3358 144.118M-38.8984 134V45.9978L-19.1002 31.433M0.853941 163.129V192.719M0.853941 163.129L-19.1002 148.564M20.6522 119.128L-12.8645 144.118M-19.1002 31.433L-25.3358 36.0324V144.118M-19.1002 31.433L-12.8645 36.0324V144.118M-19.1002 148.564L-12.8645 144.118M-19.1002 148.564L-25.3358 144.118M-25.3358 153.164V187.353L-38.8984 177.541M-12.8645 153.164V187.506L0.853941 177.387M-19.1002 237.026V207.437M-78.6507 16.7149V46.1511M-78.6507 46.1511L-98.6048 60.8692M-98.6048 60.8692V31.2797M-38.8984 16.7149V-12.8746M-38.8984 16.7149L-19.1002 2.15014M-38.8984 16.7149L-19.1002 31.2797L0.853941 16.7149M20.6522 1.84354L0.853941 -12.8746M0.853941 -12.8746V16.7149M0.853941 -12.8746L-19.1002 -27.4393M-19.1002 2.15014V-27.4393M-19.1002 2.15014L0.853941 16.7149M-157.999 251.438L-138.201 236.873M-157.999 251.438V221.848L-138.201 207.283M-157.999 251.438V163.283L-138.201 148.564M-78.4948 163.589L-98.4489 178.154M-78.4948 163.589V134M-78.4948 163.589L-58.6966 178.154M-98.4489 178.154V148.718L-78.4948 134M-98.4489 178.154L-78.4948 192.719L-58.6966 178.154M-78.4948 134L-58.6966 148.564V178.154M-98.4489 148.564L-118.247 163.129M-118.247 163.129V221.848M-118.247 163.129L-138.201 148.564M-98.4489 119.128L-118.247 104.563M-118.247 104.563V134M-118.247 104.563L-138.201 89.9987M-138.201 119.435L-157.999 134M-138.201 119.435V89.9987M-138.201 119.435L-118.247 134M-157.999 134V104.563L-138.201 89.9987M-157.999 134L-138.201 148.564M-138.201 148.564L-118.247 134M-138.201 236.873V207.283M-138.201 236.873L-118.247 251.438V221.848M-138.201 207.283L-118.247 221.848M-157.999 16.7149L-138.201 31.2797M-138.201 31.2797L-118.247 16.7149M-138.201 31.2797L-118.247 45.8444L-98.4489 60.8692M-99.5402 60.7159L-138.201 90.152M259.322 -86.005V-56.4156M259.322 -86.005L239.524 -71.4403M259.322 -86.005V-115.441M259.322 -56.4156L279.276 -41.8508M259.322 -56.4156L279.276 -70.9804M279.276 -41.8508L299.074 -56.4156M279.276 -41.8508L259.322 -27.286M299.074 -56.4156V-86.005L319.029 -100.57M299.074 -56.4156L279.276 -70.9804M279.276 -129.699L259.322 -115.135L239.524 -130.006M279.276 -129.699V-159.136M279.276 -129.699L299.074 -115.135L319.029 -100.57M279.276 -129.699V-70.9804M239.524 -130.006L279.276 -159.136M239.524 -130.006L259.322 -115.441M239.524 -130.006V-188.572L219.57 -203.136M279.276 -159.136L299.074 -144.571L319.029 -130.006M279.276 -159.136L259.322 -173.7M279.276 -159.136L299.074 -173.7M249.657 -122.34L270.702 -137.825M319.029 -100.57V-130.006M319.029 -100.57L338.827 -115.135M319.029 -100.57L338.827 -86.005M319.029 -130.006L338.827 -144.571M319.029 16.8682L338.827 2.30346M319.029 16.8682V-71.287L338.827 -86.005M378.579 -56.4156L398.533 -70.9804V-100.57L378.579 -85.8517V-56.4156ZM378.579 -56.4156L398.533 -41.8508M398.533 -41.8508L418.487 -56.4156M398.533 -41.8508L358.781 -12.7212M378.579 -86.005L358.781 -71.4403M358.781 -71.4403V-12.7212M358.781 -71.4403L338.827 -86.005M378.579 -115.441L358.781 -130.006M358.781 -130.006V-100.57M358.781 -130.006L338.827 -144.571M338.827 -115.135V-144.571M338.827 -115.135L358.781 -100.57M338.827 -86.005L358.781 -100.57M338.827 2.30346V-27.286M338.827 2.30346L358.781 16.8682V-12.7212M338.827 -27.286L358.781 -12.7212M358.781 -12.7212L378.579 2.30346M279.276 -188.418L259.322 -173.7M279.276 -188.418V-217.855M279.276 -188.418L299.074 -173.7M259.322 -173.7V-203.29M259.322 -203.29L279.276 -217.855M259.322 -203.29L239.524 -188.725M279.276 -217.855L299.074 -203.29M279.276 -217.855L299.074 -232.419M299.074 -173.7V-203.29M299.074 -173.7L338.827 -144.417L377.488 -173.854M299.074 -173.7L338.827 -203.29M299.074 -203.29L319.029 -217.855M319.029 -217.855V-247.444L338.827 -262.009M319.029 -217.855L338.827 -232.419M319.029 -217.855V-247.291L338.827 -262.009M319.029 -217.855L338.827 -203.29M319.029 -217.855V-306.01L338.827 -320.728M398.533 -188.418L378.579 -173.7M378.579 -173.7L398.533 -159.136M378.579 -173.7L358.781 -188.725L338.827 -203.29M378.579 -173.7V-232.726M398.533 -159.136L418.487 -173.7M398.533 -159.136L378.579 -144.571V-115.135L398.533 -129.699V-159.136ZM159.863 -246.984L139.909 -232.419M159.863 -246.984V-276.574M159.863 -246.984L179.662 -232.419L159.863 -247.137M159.863 -246.984L140.065 -232.419M159.863 -246.984L179.817 -232.419M139.909 -232.419L120.111 -247.444M139.909 -232.419L159.863 -217.855M139.909 -232.419L120.111 -247.291M139.909 -232.419L159.863 -247.137M120.111 -247.444L159.863 -276.574M120.111 -247.444L140.065 -232.419M120.111 -247.444L140.065 -232.726M120.111 -247.444V-217.855M120.111 -247.444L100.313 -262.009M120.111 -247.444V-306.163M159.863 -276.574L120.111 -247.291M159.863 -276.574L199.616 -247.291M159.863 -276.574L199.772 -247.291L159.863 -217.855M159.863 -276.574V-247.137M159.863 -276.574L199.616 -247.444M159.863 -276.574L140.065 -291.138M159.863 -276.574L179.817 -291.138M159.863 -276.574L199.772 -247.444L159.863 -217.855M199.616 -247.291L159.863 -217.855M199.616 -247.291V-217.855M199.616 -247.291L219.57 -262.009M199.616 -247.291V-217.701L219.57 -232.266M199.616 -247.291L219.57 -261.855M159.863 -217.855V-188.418M159.863 -217.855L140.065 -232.419M159.863 -217.855L199.616 -247.444M139.909 2.30346L120.111 -12.7212M139.909 2.30346L159.863 16.8682M120.111 -12.7212L159.863 -41.8508M120.111 -12.7212V16.8682L100.313 2.30346M120.111 -12.7212L100.313 -27.286M120.111 -12.7212L140.065 2.30346M120.111 -12.7212V-71.4403M159.863 -41.8508L140.065 -56.4156M159.863 -41.8508L179.817 -56.4156M159.863 16.8682L140.065 2.30346M389.959 -20.3869L369.381 -5.36221M378.579 -232.419L398.533 -246.984V-276.574M378.579 -232.419L358.781 -247.444M378.579 -232.419L398.533 -217.855M378.579 -232.419L358.781 -247.291M378.579 -232.419L398.533 -247.137V-276.574M358.781 -247.444L398.533 -276.574M358.781 -247.444L378.579 -232.726M358.781 -247.444V-217.855M358.781 -247.444L338.827 -262.009M358.781 -247.444V-306.163M398.533 -276.574L358.781 -247.291M398.533 -276.574L378.579 -291.138M398.533 -276.574L418.487 -291.138M389.959 -255.11L368.914 -239.778M389.959 -255.11L368.914 -239.625M389.959 -255.11L369.381 -240.085M438.441 -247.291L398.533 -217.855M398.533 -217.855L438.441 -247.444M378.579 -232.726V-203.29M378.579 -232.726L358.781 -247.291M338.827 -232.419V-262.009M338.827 -232.419L358.781 -217.855M338.827 -262.009L358.781 -247.291M338.827 -203.29L358.781 -217.855M358.781 -217.855V-247.291M159.863 -70.9804L140.065 -56.4156M159.863 -70.9804V-100.57M159.863 -70.9804L179.817 -56.4156M140.065 -56.4156V-85.8517L159.863 -100.57M159.863 -100.57L179.817 -86.005M159.863 -100.57L179.817 -115.135M179.817 -56.4156V-86.005M179.817 -86.005L199.616 -100.57M159.863 -129.699L140.065 -115.135V-144.571L159.863 -159.136M159.863 -129.699V-159.136M159.863 -129.699L179.817 -115.135M159.863 -159.136L140.065 -173.7M159.863 -159.136L179.817 -173.7M179.817 -115.135V-173.7M179.817 -173.7L159.863 -188.418M179.817 -173.7V-203.29L199.616 -217.855M173.114 -133.686L167.502 -137.825M259.322 -27.286V2.30346M259.322 -27.286L239.524 -41.8508M292.371 -16.4008L286.759 -20.5402M279.276 -246.984L259.322 -232.419M279.276 -246.984V-276.574M279.276 -246.984L299.074 -232.419M259.322 -232.419V-262.009M259.322 -232.419V-261.855L279.276 -276.574M259.322 -262.009L279.276 -276.574M259.322 -262.009V-232.573L279.276 -247.137V-276.574M259.322 -262.009L239.524 -276.574M279.276 -276.574L259.322 -291.138M279.276 -276.574L299.074 -291.138M299.074 -232.419V-291.138M299.074 -291.138V-320.728L319.029 -335.293M299.074 -291.138V-232.573M299.074 -291.138L279.276 -305.703M199.616 -100.57L213.334 -90.4511M199.616 -100.57V-188.572L219.57 -203.136M239.524 -71.4403V-41.8508M239.524 -71.4403L219.57 -86.005M259.322 -115.441L225.805 -90.4511M239.524 -41.8508L219.57 -27.286L199.616 -41.8508V-71.287L219.57 -86.005M219.57 -203.136L213.334 -198.537V-90.4511M219.57 -203.136L225.805 -198.537V-90.4511M219.57 -86.005L225.805 -90.4511M219.57 -86.005L213.334 -90.4511M213.334 -81.4056V-47.2168L199.772 -57.0288M225.805 -81.4056V-47.0635L239.524 -57.1822M219.57 2.45678L199.616 17.0215V-12.568L219.57 -27.1327M219.57 2.45678V-27.1327M219.57 2.45678L239.524 17.0215V-12.568L219.57 -27.1327M159.863 -188.418L140.065 -173.7M140.065 -173.7L120.267 -188.725L100.313 -203.29M140.065 -173.7V-232.726M199.616 -217.855V-247.444M199.616 -217.855L219.57 -232.419M199.616 -217.855L219.57 -203.29L239.524 -217.855M239.524 -247.444L259.322 -232.726L239.524 -247.291M239.524 -247.444V-217.855M239.524 -247.444L219.57 -262.009M219.57 -232.419V-262.009M219.57 -232.419L239.524 -217.855M219.57 -262.009L239.524 -247.291M219.57 -262.009L239.524 -276.574M219.57 -262.009L199.616 -276.574V-306.01L219.57 -320.728M239.524 -217.855V-247.291M20.6522 -86.005V-56.4156M20.6522 -86.005L0.853941 -71.4403M20.6522 -86.005V-115.441M20.6522 -56.4156L40.6063 -41.8508M20.6522 -56.4156L40.6063 -70.9804M40.6063 -41.8508L60.5604 -56.4156M40.6063 -41.8508L20.6522 -27.286M60.5604 -56.4156V-86.005L80.3586 -100.57M60.5604 -56.4156L40.6063 -70.9804M40.6063 -129.699L20.6522 -115.135L0.853941 -130.006M40.6063 -129.699V-159.136M40.6063 -129.699L60.5604 -115.135L80.3586 -100.57M40.6063 -129.699V-70.9804M0.853941 -130.006L40.6063 -159.136M0.853941 -130.006L20.6522 -115.441M0.853941 -130.006V-188.572L-19.1002 -203.136M40.6063 -159.136L60.5604 -144.571L80.3586 -130.006M40.6063 -159.136L20.6522 -173.7M40.6063 -159.136L60.5604 -173.7M10.9869 -122.34L32.0322 -137.825M80.3586 -100.57V-130.006M80.3586 -100.57L100.313 -115.135M80.3586 -100.57L100.313 -86.005M80.3586 -130.006L100.313 -144.571M80.3586 16.8682L100.313 2.30346M80.3586 16.8682V-71.287L100.313 -86.005M140.065 -86.005L120.111 -71.4403M120.111 -71.4403L100.313 -86.005M140.065 -115.441L120.111 -130.006M120.111 -130.006V-100.57M120.111 -130.006L100.313 -144.571M100.313 -115.135V-144.571M100.313 -115.135L120.111 -100.57M100.313 -86.005L120.111 -100.57M100.313 2.30346V-27.286M40.6063 -188.418L20.6522 -173.7M40.6063 -188.418V-217.855M40.6063 -188.418L60.5604 -173.7M20.6522 -173.7V-203.29M20.6522 -203.29L40.6063 -217.855M20.6522 -203.29L0.853941 -188.725M40.6063 -217.855L60.5604 -203.29M40.6063 -217.855L60.5604 -232.419M60.5604 -173.7V-203.29M60.5604 -173.7L100.313 -144.417L138.974 -173.854M60.5604 -173.7L100.313 -203.29M60.5604 -203.29L80.3586 -217.855M80.3586 -217.855V-247.444L100.313 -262.009M80.3586 -217.855L100.313 -232.419M80.3586 -217.855V-247.291L100.313 -262.009M80.3586 -217.855L100.313 -203.29M80.3586 -217.855V-306.01L100.313 -320.728M-78.8066 -246.984L-98.7607 -232.419M-78.8066 -246.984V-276.574M-78.8066 -246.984L-58.8525 -232.419M-98.7607 -232.419L-118.559 -247.444L-78.8066 -276.574M-98.7607 -232.419L-78.8066 -217.855M-98.7607 -232.419L-118.559 -247.291L-78.8066 -276.574M-98.7607 -232.419L-78.8066 -247.137M-78.8066 -276.574L-38.8984 -247.291M-78.8066 -276.574V-247.137M-78.8066 -276.574L-38.8984 -247.444M-38.8984 -247.291L-78.8066 -217.855M-38.8984 -247.291V-217.855M-38.8984 -247.291L-19.1002 -262.009M-38.8984 -247.291V-217.701L-19.1002 -232.266M-38.8984 -247.291L-19.1002 -261.855M-78.8066 -217.855L-38.8984 -247.444M-58.8525 -232.419L-78.8066 -247.137M-58.8525 -232.419L-38.8984 -246.984M-98.7607 2.30346L-118.559 -12.7212L-78.8066 -41.8508M151.289 -20.3869L130.867 -5.36221M140.065 -232.419L120.111 -247.291M140.065 -232.419L159.863 -247.137M151.289 -255.11L130.244 -239.778M151.289 -255.11L130.244 -239.625M151.289 -255.11L130.867 -240.085M179.817 -232.419L199.616 -246.984M179.817 -232.419L159.863 -247.137M140.065 -232.726V-203.29M140.065 -232.726L120.111 -247.291M100.313 -232.419V-262.009M100.313 -232.419L120.111 -217.855M100.313 -262.009L120.111 -247.291M100.313 -203.29L120.111 -217.855M120.111 -217.855V-247.291M-78.6507 -70.9804L-98.6048 -56.4156M-78.6507 -70.9804V-100.57M-78.6507 -70.9804L-58.8525 -56.4156M-98.6048 -56.4156V-85.8517L-78.6507 -100.57M-98.6048 -56.4156L-78.6507 -41.8508L-58.8525 -56.4156M-78.6507 -100.57L-58.8525 -86.005M-78.6507 -100.57L-58.8525 -115.135M-58.8525 -56.4156V-86.005M-58.8525 -86.005L-38.8984 -100.57M-78.6507 -129.699L-98.6048 -115.135V-144.571L-78.6507 -159.136M-78.6507 -129.699V-159.136M-78.6507 -129.699L-58.8525 -115.135M-78.6507 -159.136L-98.6048 -173.7M-78.6507 -159.136L-58.8525 -173.7M-58.8525 -115.135V-173.7M-58.8525 -173.7L-78.6507 -188.418M-58.8525 -173.7V-203.29L-38.8984 -217.855M-65.5558 -133.686L-71.1679 -137.825M20.6522 -27.286V2.30346M20.6522 -27.286L0.853941 -41.8508M53.8571 -16.4008L48.245 -20.5402M40.6063 -246.984L20.6522 -232.419M40.6063 -246.984V-276.574M40.6063 -246.984L60.5604 -232.419M20.6522 -232.419V-262.009M20.6522 -232.419V-261.855L40.6063 -276.574M20.6522 -262.009L40.6063 -276.574M20.6522 -262.009V-232.573L40.6063 -247.137V-276.574M20.6522 -262.009L0.853941 -276.574M40.6063 -276.574L20.6522 -291.138M40.6063 -276.574L60.5604 -291.138M60.5604 -232.419V-291.138M60.5604 -291.138V-320.728L80.3586 -335.293M60.5604 -291.138V-232.573M60.5604 -291.138L40.6063 -305.703M-38.8984 -100.57L-25.3358 -90.4511M-38.8984 -100.57V-188.572L-19.1002 -203.136M0.853941 -71.4403V-41.8508M0.853941 -71.4403L-19.1002 -86.005M20.6522 -115.441L-12.8645 -90.4511M0.853941 -41.8508L-19.1002 -27.286L-38.8984 -41.8508V-71.287L-19.1002 -86.005M-19.1002 -203.136L-25.3358 -198.537V-90.4511M-19.1002 -203.136L-12.8645 -198.537V-90.4511M-19.1002 -86.005L-12.8645 -90.4511M-19.1002 -86.005L-25.3358 -90.4511M-25.3358 -81.4056V-47.2168L-38.8984 -57.0288M-12.8645 -81.4056V-47.0635L0.853941 -57.1822M-19.1002 2.45678L-38.8984 17.0215V-12.568L-19.1002 -27.1327M-19.1002 2.45678V-27.1327M-19.1002 2.45678L0.853941 17.0215V-12.568L-19.1002 -27.1327M-78.6507 -217.855V-188.418M-78.6507 -188.418L-98.6048 -173.7M-98.6048 -173.7V-203.29M-38.8984 -217.855V-247.444M-38.8984 -217.855L-19.1002 -232.419M-38.8984 -217.855L-19.1002 -203.29L0.853941 -217.855M0.853941 -247.444L20.6522 -232.726L0.853941 -247.291M0.853941 -247.444V-217.855M0.853941 -247.444L-19.1002 -262.009M-19.1002 -232.419V-262.009M-19.1002 -232.419L0.853941 -217.855M-19.1002 -262.009L0.853941 -247.291M-19.1002 -262.009L0.853941 -276.574M-19.1002 -262.009L-38.8984 -276.574V-306.01L-19.1002 -320.728M0.853941 -217.855V-247.291M-157.999 16.8682L-138.201 2.30346M-157.999 16.8682V-12.7212L-138.201 -27.286M-157.999 16.8682V-71.287L-138.201 -86.005M-78.4948 -70.9804L-98.4489 -56.4156M-78.4948 -70.9804V-100.57M-78.4948 -70.9804L-58.6966 -56.4156M-98.4489 -56.4156V-85.8517L-78.4948 -100.57M-98.4489 -56.4156L-78.4948 -41.8508L-58.6966 -56.4156M-78.4948 -100.57L-58.6966 -86.005V-56.4156M-98.4489 -86.005L-118.247 -71.4403M-118.247 -71.4403V-12.7212M-118.247 -71.4403L-138.201 -86.005M-98.4489 -115.441L-118.247 -130.006M-118.247 -130.006V-100.57M-118.247 -130.006L-138.201 -144.571M-138.201 -115.135L-157.999 -100.57M-138.201 -115.135V-144.571M-138.201 -115.135L-118.247 -100.57M-157.999 -100.57V-130.006L-138.201 -144.571M-157.999 -100.57L-138.201 -86.005M-138.201 -86.005L-118.247 -100.57M-138.201 2.30346V-27.286M-138.201 2.30346L-118.247 16.8682V-12.7212M-138.201 -27.286L-118.247 -12.7212M-157.999 -217.855L-138.201 -203.29M-157.999 -217.855L-138.201 -232.419M-157.999 -217.855V-247.444L-138.201 -262.009M-157.999 -217.855V-306.01L-138.201 -320.728M-138.201 -203.29L-118.247 -217.855M-138.201 -203.29L-118.247 -188.725L-98.4489 -173.7M-118.247 -217.855L-138.201 -232.419M-118.247 -217.855V-247.444M-99.5402 -173.854L-138.201 -144.417M239.524 -247.291V-217.701L219.57 -232.266M239.524 -247.291L219.57 -261.855M0.853941 -247.291V-217.701L-19.1002 -232.266M0.853941 -247.291L-19.1002 -261.855M259.322 -320.728V-291.138M259.322 -320.728L239.524 -306.163M259.322 -320.728V-350.164M259.322 -291.138L279.276 -305.703M279.276 -364.422L259.322 -349.857L239.524 -364.729M279.276 -364.422V-393.858M279.276 -364.422L299.074 -349.857L319.029 -335.293M279.276 -364.422V-305.703M239.524 -364.729L279.276 -393.858M239.524 -364.729L259.322 -350.164M239.524 -364.729V-423.294L219.57 -437.859M279.276 -393.858L299.074 -379.293L319.029 -364.729M279.276 -393.858L259.322 -408.423M279.276 -393.858L299.074 -408.423M249.657 -357.063L270.702 -372.548M319.029 -335.293V-364.729M319.029 -335.293L338.827 -349.857M319.029 -335.293L338.827 -320.728M319.029 -364.729L338.827 -379.293M378.579 -291.138L398.533 -305.703V-335.293L378.579 -320.574V-291.138ZM378.579 -320.728L358.781 -306.163M358.781 -306.163L338.827 -320.728M378.579 -350.164L358.781 -364.729M358.781 -364.729V-335.293M358.781 -364.729L338.827 -379.293M338.827 -349.857V-379.293M338.827 -349.857L358.781 -335.293M338.827 -320.728L358.781 -335.293M279.276 -423.141L259.322 -408.423M279.276 -423.141V-452.577M279.276 -423.141L299.074 -408.423M259.322 -408.423V-438.013M259.322 -438.013L279.276 -452.577M259.322 -438.013L239.524 -423.448M279.276 -452.577L299.074 -438.013M279.276 -452.577L299.074 -467.142M299.074 -408.423V-438.013M299.074 -408.423L338.827 -379.14L377.488 -408.576M299.074 -408.423L338.827 -438.013M299.074 -438.013L319.029 -452.577M319.029 -452.577V-482.167M319.029 -452.577L338.827 -467.142M319.029 -452.577V-482.013M319.029 -452.577L338.827 -438.013M398.533 -423.141L378.579 -408.423M378.579 -408.423L398.533 -393.858M378.579 -408.423L358.781 -423.448L338.827 -438.013M378.579 -408.423V-467.449L358.781 -482.167M398.533 -393.858L418.487 -408.423M398.533 -393.858L378.579 -379.293V-349.857L398.533 -364.422V-393.858ZM159.863 -481.707L139.909 -467.142M159.863 -481.707V-511.296M159.863 -481.707L179.662 -467.142M159.863 -481.707L140.065 -467.142M159.863 -481.707L179.817 -467.142M159.863 -481.707L139.909 -466.989M159.863 -481.707V-511.143M159.863 -481.707L179.662 -466.989L159.863 -481.554M159.863 -481.707L140.065 -466.989M159.863 -481.707L179.817 -466.989M139.909 -467.142L120.111 -482.167M139.909 -467.142L159.863 -452.577M120.111 -482.167L159.863 -511.296M120.111 -482.167L140.065 -467.142M120.111 -482.167L140.065 -467.449V-408.423M120.111 -482.167V-452.577M120.111 -482.167L100.313 -496.732M159.863 -511.296L199.616 -482.013M159.863 -511.296L199.772 -482.013M199.616 -482.013L159.863 -452.577M199.616 -482.013V-452.577M199.616 -482.013L219.57 -496.732M199.616 -482.013L159.863 -452.424M199.616 -482.013L159.863 -511.143M159.863 -452.577V-423.141M159.863 -452.577L199.772 -482.013M159.863 -452.577L140.065 -467.142M398.533 -481.707L378.579 -467.142M398.533 -481.707V-511.296L358.781 -482.167M398.533 -481.707L378.579 -466.989M398.533 -481.707V-511.143M378.579 -467.142L358.781 -482.167M378.579 -467.142L398.533 -452.577L438.441 -482.013L398.533 -452.424M358.781 -482.167V-452.577M358.781 -482.167L338.827 -496.732M389.959 -489.832L368.914 -474.501M338.827 -467.142V-496.732M338.827 -467.142L358.781 -452.577M319.029 -482.013L338.827 -496.732M319.029 -482.013V-452.424M319.029 -482.013L338.827 -496.578M338.827 -438.013L358.781 -452.577M159.863 -305.703L140.065 -291.138M159.863 -305.703V-335.293M159.863 -305.703L179.817 -291.138M140.065 -291.138V-320.574L159.863 -335.293M159.863 -335.293L179.817 -320.728M159.863 -335.293L179.817 -349.857M179.817 -291.138V-320.728M179.817 -320.728L199.616 -335.293M159.863 -364.422L140.065 -349.857V-379.293L159.863 -393.858M159.863 -364.422V-393.858M159.863 -364.422L179.817 -349.857M159.863 -393.858L140.065 -408.423M159.863 -393.858L179.817 -408.423M179.817 -349.857V-408.423M179.817 -408.423L159.863 -423.141M179.817 -408.423V-438.013L199.616 -452.577M173.114 -368.408L167.502 -372.548M292.371 -251.124L286.759 -255.263M279.276 -481.707L259.322 -467.142M279.276 -481.707V-511.296L259.322 -496.732V-467.142M279.276 -481.707L299.074 -467.142M279.276 -481.707V-511.143M259.322 -467.142V-496.578M299.074 -467.142V-525.861M299.074 -467.142V-525.708M199.616 -335.293L213.334 -325.174M199.616 -335.293V-423.294L219.57 -437.859M239.524 -306.163V-276.574M239.524 -306.163L219.57 -320.728M259.322 -350.164L225.805 -325.174M219.57 -437.859L213.334 -433.26V-325.174M219.57 -437.859L225.805 -433.26V-325.174M219.57 -320.728L225.805 -325.174M219.57 -320.728L213.334 -325.174M213.334 -316.128V-281.94L199.772 -291.752M225.805 -316.128V-281.786L239.524 -291.905M219.57 -232.266V-261.855M159.863 -423.141L140.065 -408.423M140.065 -408.423L120.267 -423.448L100.313 -438.013M199.616 -452.577V-482.167M199.616 -452.577L219.57 -467.142M199.616 -452.577L219.57 -438.013L239.524 -452.577M259.322 -467.449L239.524 -482.167M239.524 -482.167V-452.577M239.524 -482.167L219.57 -496.732M219.57 -467.142V-496.732M219.57 -467.142L239.524 -452.577M20.6522 -320.728V-291.138M20.6522 -320.728L0.853941 -306.163M20.6522 -320.728V-350.164M20.6522 -291.138L40.6063 -305.703M40.6063 -364.422L20.6522 -349.857L0.853941 -364.729M40.6063 -364.422V-393.858M40.6063 -364.422L60.5604 -349.857L80.3586 -335.293M40.6063 -364.422V-305.703M0.853941 -364.729L40.6063 -393.858M0.853941 -364.729L20.6522 -350.164M0.853941 -364.729V-423.294L-19.1002 -437.859M40.6063 -393.858L60.5604 -379.293L80.3586 -364.729M40.6063 -393.858L20.6522 -408.423M40.6063 -393.858L60.5604 -408.423M10.9869 -357.063L32.0322 -372.548M80.3586 -335.293V-364.729M80.3586 -335.293L100.313 -349.857M80.3586 -335.293L100.313 -320.728M80.3586 -364.729L100.313 -379.293M140.065 -320.728L120.111 -306.163M120.111 -306.163L100.313 -320.728M140.065 -350.164L120.111 -364.729M120.111 -364.729V-335.293M120.111 -364.729L100.313 -379.293M100.313 -349.857V-379.293M100.313 -349.857L120.111 -335.293M100.313 -320.728L120.111 -335.293M40.6063 -423.141L20.6522 -408.423M40.6063 -423.141V-452.577M40.6063 -423.141L60.5604 -408.423M20.6522 -408.423V-438.013M20.6522 -438.013L40.6063 -452.577M20.6522 -438.013L0.853941 -423.448M40.6063 -452.577L60.5604 -438.013M40.6063 -452.577L60.5604 -467.142M60.5604 -408.423V-438.013M60.5604 -408.423L100.313 -379.14L138.974 -408.576M60.5604 -408.423L100.313 -438.013M60.5604 -438.013L80.3586 -452.577M80.3586 -452.577V-482.167M80.3586 -452.577L100.313 -467.142M80.3586 -452.577V-482.013M80.3586 -452.577L100.313 -438.013M-78.8066 -481.707L-98.7607 -467.142M-78.8066 -481.707V-511.296M-78.8066 -481.707L-58.8525 -467.142M-78.8066 -481.707L-98.7607 -466.989M-78.8066 -481.707V-511.143M-78.8066 -481.707L-58.8525 -466.989M-98.7607 -467.142L-118.559 -482.167L-78.8066 -511.296M-98.7607 -467.142L-78.8066 -452.577L-38.8984 -482.013M-78.8066 -511.296L-38.8984 -482.013M-38.8984 -482.013V-452.577M-38.8984 -482.013L-19.1002 -496.732M-38.8984 -482.013L-78.8066 -452.424M-38.8984 -482.013L-78.8066 -511.143M151.289 -489.832L130.244 -474.501M199.772 -482.013L159.863 -452.424M199.772 -482.013L159.863 -511.143M100.313 -467.142V-496.732M100.313 -467.142L120.111 -452.577M80.3586 -482.013L100.313 -496.732M80.3586 -482.013V-452.424M80.3586 -482.013L100.313 -496.578M100.313 -438.013L120.111 -452.577M-78.6507 -305.703L-98.6048 -291.138M-78.6507 -305.703V-335.293M-78.6507 -305.703L-58.8525 -291.138M-98.6048 -291.138V-320.574L-78.6507 -335.293M-98.6048 -291.138L-78.6507 -276.574L-58.8525 -291.138M-78.6507 -335.293L-58.8525 -320.728M-78.6507 -335.293L-58.8525 -349.857M-58.8525 -291.138V-320.728M-58.8525 -320.728L-38.8984 -335.293M-78.6507 -364.422L-98.6048 -349.857V-379.293L-78.6507 -393.858M-78.6507 -364.422V-393.858M-78.6507 -364.422L-58.8525 -349.857M-78.6507 -393.858L-98.6048 -408.423M-78.6507 -393.858L-58.8525 -408.423M-58.8525 -349.857V-408.423M-58.8525 -408.423L-78.6507 -423.141M-58.8525 -408.423V-438.013L-38.8984 -452.577M-65.5558 -368.408L-71.1679 -372.548M53.8571 -251.124L48.245 -255.263M40.6063 -481.707L20.6522 -467.142M40.6063 -481.707V-511.296L20.6522 -496.732V-467.142M40.6063 -481.707L60.5604 -467.142M40.6063 -481.707V-511.143M20.6522 -467.142V-496.578M60.5604 -467.142V-525.861M60.5604 -467.142V-525.708M-38.8984 -335.293L-25.3358 -325.174M-38.8984 -335.293V-423.294L-19.1002 -437.859M0.853941 -306.163V-276.574M0.853941 -306.163L-19.1002 -320.728M20.6522 -350.164L-12.8645 -325.174M-19.1002 -437.859L-25.3358 -433.26V-325.174M-19.1002 -437.859L-12.8645 -433.26V-325.174M-19.1002 -320.728L-12.8645 -325.174M-19.1002 -320.728L-25.3358 -325.174M-25.3358 -316.128V-281.94L-38.8984 -291.752M-12.8645 -316.128V-281.786L0.853941 -291.905M-19.1002 -232.266V-261.855M-78.6507 -452.577V-423.141M-78.6507 -423.141L-98.6048 -408.423M-98.6048 -408.423V-438.013M-38.8984 -452.577V-482.167M-38.8984 -452.577L-19.1002 -467.142M-38.8984 -452.577L-19.1002 -438.013L0.853941 -452.577M20.6522 -467.449L0.853941 -482.167M0.853941 -482.167V-452.577M0.853941 -482.167L-19.1002 -496.732M-19.1002 -467.142V-496.732M-19.1002 -467.142L0.853941 -452.577M-78.4948 -305.703L-98.4489 -291.138M-78.4948 -305.703V-335.293M-78.4948 -305.703L-58.6966 -291.138M-98.4489 -291.138V-320.574L-78.4948 -335.293M-98.4489 -291.138L-78.4948 -276.574L-58.6966 -291.138M-78.4948 -335.293L-58.6966 -320.728V-291.138M-98.4489 -320.728L-118.247 -306.163M-118.247 -306.163V-247.444M-118.247 -306.163L-138.201 -320.728M-98.4489 -350.164L-118.247 -364.729M-118.247 -364.729V-335.293M-118.247 -364.729L-138.201 -379.293M-138.201 -349.857L-157.999 -335.293M-138.201 -349.857V-379.293M-138.201 -349.857L-118.247 -335.293M-157.999 -335.293V-364.729L-138.201 -379.293M-157.999 -335.293L-138.201 -320.728M-138.201 -320.728L-118.247 -335.293M-138.201 -232.419V-262.009M-138.201 -262.009L-118.247 -247.444M-157.999 -452.577L-138.201 -438.013M-138.201 -438.013L-118.247 -452.577M-138.201 -438.013L-118.247 -423.448L-98.4489 -408.423M-99.5402 -408.576L-138.201 -379.14M259.322 -555.297V-525.708M259.322 -555.297L239.524 -540.732M259.322 -555.297V-584.733M259.322 -525.708L279.276 -511.143M259.322 -525.708L279.276 -540.273M279.276 -511.143L299.074 -525.708M279.276 -511.143L259.322 -496.578M279.276 -511.143L259.322 -496.425V-466.989M279.276 -511.143V-481.554M299.074 -525.708V-555.297L319.029 -569.862M299.074 -525.708L279.276 -540.273M299.074 -525.708V-466.989L279.276 -481.554M279.276 -598.992L259.322 -584.427L239.524 -599.298M279.276 -598.992V-628.428M279.276 -598.992L299.074 -584.427L319.029 -569.862M279.276 -598.992V-540.273M239.524 -599.298L279.276 -628.428M239.524 -599.298L259.322 -584.733M239.524 -599.298V-657.864L219.57 -672.429M279.276 -628.428L299.074 -613.863L319.029 -599.298M279.276 -628.428L259.322 -642.993M279.276 -628.428L299.074 -642.993M249.657 -591.633L270.702 -607.117M319.029 -569.862V-599.298M319.029 -569.862L338.827 -584.427M319.029 -569.862L338.827 -555.297M319.029 -599.298L338.827 -613.863M319.029 -452.424L338.827 -466.989M319.029 -452.424V-540.579L338.827 -555.297M319.029 -452.424V-481.86L338.827 -496.578M378.579 -525.708L398.533 -540.273V-569.862L378.579 -555.144V-525.708ZM378.579 -525.708L398.533 -511.143M398.533 -511.143L418.487 -525.708M398.533 -511.143L358.781 -482.013M398.533 -511.143L358.781 -481.86M398.533 -511.143V-481.554L378.579 -466.989M378.579 -555.297L358.781 -540.732M358.781 -540.732V-482.013M358.781 -540.732L338.827 -555.297M378.579 -584.733L358.781 -599.298M358.781 -599.298V-569.862M358.781 -599.298L338.827 -613.863M338.827 -584.427V-613.863M338.827 -584.427L358.781 -569.862M338.827 -555.297L358.781 -569.862M338.827 -466.989V-496.578M338.827 -466.989L358.781 -452.424M338.827 -496.578L358.781 -482.013M338.827 -496.578L358.781 -481.86M358.781 -452.424V-482.013M358.781 -452.424V-481.86M358.781 -482.013L378.579 -466.989M279.276 -657.711L259.322 -642.993M279.276 -657.711V-687.147M279.276 -657.711L299.074 -642.993M259.322 -642.993V-672.582M259.322 -672.582L279.276 -687.147M259.322 -672.582L239.524 -658.017M279.276 -687.147L299.074 -672.582M279.276 -687.147L299.074 -701.712M299.074 -642.993V-672.582M299.074 -642.993L338.827 -613.71L377.488 -643.146M299.074 -642.993L338.827 -672.582M299.074 -672.582L319.029 -687.147M319.029 -687.147V-716.736M319.029 -687.147L338.827 -701.712M319.029 -687.147V-716.583M319.029 -687.147L338.827 -672.582M398.533 -657.711L378.579 -642.993M378.579 -642.993L398.533 -628.428M378.579 -642.993L358.781 -658.017L338.827 -672.582M378.579 -642.993V-702.018L358.781 -716.736M398.533 -628.428L418.487 -642.993M398.533 -628.428L378.579 -613.863V-584.427L398.533 -598.992V-628.428ZM159.863 -716.276L139.909 -701.712M159.863 -716.276V-745.866M159.863 -716.276L179.662 -701.712M159.863 -716.276L140.065 -701.712M159.863 -716.276L179.817 -701.712M159.863 -716.276L139.909 -701.558M159.863 -716.276V-745.712M159.863 -716.276L179.662 -701.558M159.863 -716.276L140.065 -701.558M159.863 -716.276L179.817 -701.558L199.616 -716.123M139.909 -701.712L120.111 -716.736M139.909 -701.712L159.863 -687.147M120.111 -716.736L159.863 -745.866M120.111 -716.736L140.065 -701.712M120.111 -716.736L140.065 -702.018V-642.993M120.111 -716.736V-687.147M120.111 -716.736L100.313 -731.301M159.863 -745.866L199.616 -716.583M159.863 -745.866L199.772 -716.583M199.616 -716.583L159.863 -687.147M199.616 -716.583V-687.147M199.616 -716.583L219.57 -731.301M199.616 -716.583L159.863 -686.993M199.616 -716.583L159.863 -745.712M159.863 -687.147V-657.711M159.863 -687.147L199.772 -716.583M159.863 -687.147L140.065 -701.712M139.909 -466.989L120.111 -482.013M139.909 -466.989L159.863 -452.424M139.909 -466.989L159.863 -481.554M139.909 -466.989L120.111 -481.86M120.111 -482.013L159.863 -511.143M120.111 -482.013V-452.424M120.111 -482.013L100.313 -496.578M120.111 -482.013L140.065 -466.989M120.111 -482.013V-540.732M159.863 -511.143L140.065 -525.708M159.863 -511.143L179.817 -525.708M159.863 -511.143L120.111 -481.86M159.863 -511.143V-481.554M159.863 -511.143L199.616 -481.86M159.863 -511.143L199.772 -481.86L159.863 -452.424M159.863 -452.424L140.065 -466.989M159.863 -452.424L199.616 -481.86M378.579 -466.989L398.533 -452.424M378.579 -466.989L358.781 -481.86M369.381 -474.654L389.959 -489.679L368.914 -474.194M398.533 -452.424L438.441 -481.86M398.533 -716.276L378.579 -701.712M398.533 -716.276V-745.866L358.781 -716.736M398.533 -716.276L378.579 -701.558M398.533 -716.276V-745.712M378.579 -701.712L358.781 -716.736M378.579 -701.712L398.533 -687.147L438.441 -716.583L398.533 -686.993L378.579 -701.558M358.781 -716.736V-687.147M358.781 -716.736L338.827 -731.301M389.959 -724.402L368.914 -709.071M338.827 -701.712V-731.301M338.827 -701.712L358.781 -687.147M319.029 -716.583L338.827 -731.301M319.029 -716.583V-686.993M319.029 -716.583L338.827 -731.148M338.827 -672.582L358.781 -687.147M159.863 -540.273L140.065 -525.708M159.863 -540.273V-569.862M159.863 -540.273L179.817 -525.708M140.065 -525.708V-555.144L159.863 -569.862M159.863 -569.862L179.817 -555.297M159.863 -569.862L179.817 -584.427M179.817 -525.708V-555.297M179.817 -555.297L199.616 -569.862M159.863 -598.992L140.065 -584.427V-613.863L159.863 -628.428M159.863 -598.992V-628.428M159.863 -598.992L179.817 -584.427M159.863 -628.428L140.065 -642.993M159.863 -628.428L179.817 -642.993M179.817 -584.427V-642.993M179.817 -642.993L159.863 -657.711M179.817 -642.993V-672.582L199.616 -687.147M173.114 -602.978L167.502 -607.117M259.322 -496.578V-466.989M259.322 -496.578L239.524 -511.143M292.371 -485.693L286.759 -489.832M279.276 -716.276L259.322 -701.712M279.276 -716.276V-745.866L259.322 -731.301V-701.712M279.276 -716.276L299.074 -701.712M279.276 -716.276V-745.712M259.322 -701.712V-731.148M299.074 -701.712V-760.431M299.074 -701.712V-760.277M199.616 -569.862L213.334 -559.743M199.616 -569.862V-657.864L219.57 -672.429M199.616 -481.554L179.817 -466.989M179.817 -466.989L159.863 -481.554M239.524 -540.732V-511.143M239.524 -540.732L219.57 -555.297M259.322 -584.733L225.805 -559.743M259.322 -466.989L279.276 -481.554M239.524 -511.143L219.57 -496.578M219.57 -672.429L213.334 -667.829V-559.743M219.57 -672.429L225.805 -667.829V-559.743M219.57 -555.297L199.616 -540.579V-511.143L219.57 -496.578M219.57 -555.297L225.805 -559.743M219.57 -555.297L213.334 -559.743M219.57 -496.578L199.616 -481.86M219.57 -496.578V-466.989M219.57 -496.578L239.524 -481.86M213.334 -550.698V-516.509L199.772 -526.321M225.805 -550.698V-516.356L239.524 -526.474M219.57 -466.835L199.616 -452.271V-481.86M219.57 -466.835V-496.425M219.57 -466.835L239.524 -452.271V-481.86M199.616 -481.86L219.57 -496.425M199.616 -481.86V-452.424L219.57 -466.989M219.57 -496.425L239.524 -481.86M239.524 -481.86L259.322 -467.295M239.524 -481.86V-452.424L219.57 -466.989M159.863 -657.711L140.065 -642.993M140.065 -642.993L120.267 -658.017L100.313 -672.582M199.616 -687.147V-716.736M199.616 -687.147L219.57 -701.712M199.616 -687.147L219.57 -672.582L239.524 -687.147M259.322 -702.018L239.524 -716.736M239.524 -716.736V-687.147M239.524 -716.736L219.57 -731.301M219.57 -701.712V-731.301M219.57 -701.712L239.524 -687.147M20.6522 -555.297V-525.708M20.6522 -555.297L0.853941 -540.732M20.6522 -555.297V-584.733M20.6522 -525.708L40.6063 -511.143M20.6522 -525.708L40.6063 -540.273M40.6063 -511.143L60.5604 -525.708M40.6063 -511.143L20.6522 -496.578M40.6063 -511.143L20.6522 -496.425V-466.989M40.6063 -511.143V-481.554M60.5604 -525.708V-555.297L80.3586 -569.862M60.5604 -525.708L40.6063 -540.273M60.5604 -525.708V-466.989L40.6063 -481.554M40.6063 -598.992L20.6522 -584.427L0.853941 -599.298M40.6063 -598.992V-628.428M40.6063 -598.992L60.5604 -584.427L80.3586 -569.862M40.6063 -598.992V-540.273M0.853941 -599.298L40.6063 -628.428M0.853941 -599.298L20.6522 -584.733M0.853941 -599.298V-657.864L-19.1002 -672.429M40.6063 -628.428L60.5604 -613.863L80.3586 -599.298M40.6063 -628.428L20.6522 -642.993M40.6063 -628.428L60.5604 -642.993M10.9869 -591.633L32.0322 -607.117M80.3586 -569.862V-599.298M80.3586 -569.862L100.313 -584.427M80.3586 -569.862L100.313 -555.297M80.3586 -599.298L100.313 -613.863M80.3586 -452.424L100.313 -466.989M80.3586 -452.424V-540.579L100.313 -555.297M80.3586 -452.424V-481.86L100.313 -496.578M140.065 -555.297L120.111 -540.732M120.111 -540.732L100.313 -555.297M140.065 -584.733L120.111 -599.298M120.111 -599.298V-569.862M120.111 -599.298L100.313 -613.863M100.313 -584.427V-613.863M100.313 -584.427L120.111 -569.862M100.313 -555.297L120.111 -569.862M100.313 -466.989V-496.578M100.313 -466.989L120.111 -452.424M100.313 -496.578L120.111 -481.86M120.111 -452.424V-481.86M40.6063 -657.711L20.6522 -642.993M40.6063 -657.711V-687.147M40.6063 -657.711L60.5604 -642.993M20.6522 -642.993V-672.582M20.6522 -672.582L40.6063 -687.147M20.6522 -672.582L0.853941 -658.017M40.6063 -687.147L60.5604 -672.582M40.6063 -687.147L60.5604 -701.712M60.5604 -642.993V-672.582M60.5604 -642.993L100.313 -613.71L138.974 -643.146M60.5604 -642.993L100.313 -672.582M60.5604 -672.582L80.3586 -687.147M80.3586 -687.147V-716.736M80.3586 -687.147L100.313 -701.712M80.3586 -687.147V-716.583M80.3586 -687.147L100.313 -672.582M-78.8066 -716.276L-98.7607 -701.712M-78.8066 -716.276V-745.866M-78.8066 -716.276L-58.8525 -701.712M-78.8066 -716.276L-98.7607 -701.558M-78.8066 -716.276V-745.712M-78.8066 -716.276L-58.8525 -701.558L-38.8984 -716.123M-98.7607 -701.712L-118.559 -716.736L-78.8066 -745.866M-98.7607 -701.712L-78.8066 -687.147L-38.8984 -716.583M-78.8066 -745.866L-38.8984 -716.583M-38.8984 -716.583V-687.147M-38.8984 -716.583L-19.1002 -731.301M-38.8984 -716.583L-78.8066 -686.993L-98.7607 -701.558M-38.8984 -716.583L-78.8066 -745.712M-98.7607 -466.989L-118.559 -482.013L-78.8066 -511.143M-98.7607 -466.989L-78.8066 -452.424M-98.7607 -466.989L-78.8066 -481.554M-98.7607 -466.989L-118.559 -481.86L-78.8066 -511.143M-78.8066 -511.143V-481.554M-78.8066 -511.143L-38.8984 -481.86M-78.8066 -452.424L-38.8984 -481.86M-58.8525 -466.989L-38.8984 -481.554M-58.8525 -466.989L-78.8066 -481.554M140.065 -466.989L159.863 -481.554M140.065 -466.989L120.111 -481.86M130.867 -474.654L151.289 -489.679L130.244 -474.194M151.289 -724.402L130.244 -709.071M199.772 -716.583L159.863 -686.993M199.772 -716.583L159.863 -745.712M100.313 -701.712V-731.301M100.313 -701.712L120.111 -687.147M80.3586 -716.583L100.313 -731.301M80.3586 -716.583V-686.993M80.3586 -716.583L100.313 -731.148M100.313 -672.582L120.111 -687.147M-78.6507 -540.273L-98.6048 -525.708M-78.6507 -540.273V-569.862M-78.6507 -540.273L-58.8525 -525.708M-98.6048 -525.708V-555.144L-78.6507 -569.862M-98.6048 -525.708L-78.6507 -511.143L-58.8525 -525.708M-78.6507 -569.862L-58.8525 -555.297M-78.6507 -569.862L-58.8525 -584.427M-58.8525 -525.708V-555.297M-58.8525 -555.297L-38.8984 -569.862M-78.6507 -598.992L-98.6048 -584.427V-613.863L-78.6507 -628.428M-78.6507 -598.992V-628.428M-78.6507 -598.992L-58.8525 -584.427M-78.6507 -628.428L-98.6048 -642.993M-78.6507 -628.428L-58.8525 -642.993M-58.8525 -584.427V-642.993M-58.8525 -642.993L-78.6507 -657.711M-58.8525 -642.993V-672.582L-38.8984 -687.147M-65.5558 -602.978L-71.1679 -607.117M20.6522 -496.578V-466.989M20.6522 -496.578L0.853941 -511.143M53.8571 -485.693L48.245 -489.832M40.6063 -716.276L20.6522 -701.712M40.6063 -716.276V-745.866L20.6522 -731.301V-701.712M40.6063 -716.276L60.5604 -701.712M40.6063 -716.276V-745.712M20.6522 -701.712V-731.148M60.5604 -701.712V-760.431M60.5604 -701.712V-760.277M-38.8984 -569.862L-25.3358 -559.743M-38.8984 -569.862V-657.864L-19.1002 -672.429M0.853941 -540.732V-511.143M0.853941 -540.732L-19.1002 -555.297M20.6522 -584.733L-12.8645 -559.743M20.6522 -466.989L40.6063 -481.554M0.853941 -511.143L-19.1002 -496.578M-19.1002 -672.429L-25.3358 -667.829V-559.743M-19.1002 -672.429L-12.8645 -667.829V-559.743M-19.1002 -555.297L-38.8984 -540.579V-511.143L-19.1002 -496.578M-19.1002 -555.297L-12.8645 -559.743M-19.1002 -555.297L-25.3358 -559.743M-19.1002 -496.578L-38.8984 -481.86M-19.1002 -496.578V-466.989M-19.1002 -496.578L0.853941 -481.86M-25.3358 -550.698V-516.509L-38.8984 -526.321M-12.8645 -550.698V-516.356L0.853941 -526.474M-19.1002 -466.835L-38.8984 -452.271V-481.86M-19.1002 -466.835V-496.425M-19.1002 -466.835L0.853941 -452.271V-481.86M-38.8984 -481.86L-19.1002 -496.425M-38.8984 -481.86V-452.424L-19.1002 -466.989M-19.1002 -496.425L0.853941 -481.86M0.853941 -481.86L20.6522 -467.295M0.853941 -481.86V-452.424L-19.1002 -466.989M-78.6507 -687.147V-657.711M-78.6507 -657.711L-98.6048 -642.993M-98.6048 -642.993V-672.582M-38.8984 -687.147V-716.736M-38.8984 -687.147L-19.1002 -701.712M-38.8984 -687.147L-19.1002 -672.582L0.853941 -687.147M20.6522 -702.018L0.853941 -716.736M0.853941 -716.736V-687.147M0.853941 -716.736L-19.1002 -731.301M-19.1002 -701.712V-731.301M-19.1002 -701.712L0.853941 -687.147M-157.999 -452.424L-138.201 -466.989M-157.999 -452.424V-482.013L-138.201 -496.578M-157.999 -452.424V-540.579L-138.201 -555.297M-78.4948 -540.273L-98.4489 -525.708M-78.4948 -540.273V-569.862M-78.4948 -540.273L-58.6966 -525.708M-98.4489 -525.708V-555.144L-78.4948 -569.862M-98.4489 -525.708L-78.4948 -511.143L-58.6966 -525.708M-78.4948 -569.862L-58.6966 -555.297V-525.708M-98.4489 -555.297L-118.247 -540.732M-118.247 -540.732V-482.013M-118.247 -540.732L-138.201 -555.297M-98.4489 -584.733L-118.247 -599.298M-118.247 -599.298V-569.862M-118.247 -599.298L-138.201 -613.863M-138.201 -584.427L-157.999 -569.862M-138.201 -584.427V-613.863M-138.201 -584.427L-118.247 -569.862M-157.999 -569.862V-599.298L-138.201 -613.863M-157.999 -569.862L-138.201 -555.297M-138.201 -555.297L-118.247 -569.862M-138.201 -466.989V-496.578M-138.201 -466.989L-118.247 -452.424V-482.013M-138.201 -496.578L-118.247 -482.013M-157.999 -687.147L-138.201 -672.582M-138.201 -672.582L-118.247 -687.147M-138.201 -672.582L-118.247 -658.017L-98.4489 -642.993M-99.5402 -643.146L-138.201 -613.71M120.111 -481.86L140.065 -467.295V-437.859M358.781 -481.86L378.579 -467.295V-437.859M259.322 -789.867V-760.277M259.322 -789.867L239.524 -775.302M259.322 -789.867V-819.303M259.322 -760.277L279.276 -745.712M259.322 -760.277L279.276 -774.842M279.276 -745.712L299.074 -760.277M279.276 -745.712L259.322 -731.148M299.074 -760.277V-789.867L319.029 -804.431M299.074 -760.277L279.276 -774.842M279.276 -833.561L259.322 -818.996L239.524 -833.868M279.276 -833.561V-862.997M279.276 -833.561L299.074 -818.996L319.029 -804.431M279.276 -833.561V-774.842M239.524 -833.868L279.276 -862.997M239.524 -833.868L259.322 -819.303M239.524 -833.868V-892.433L219.57 -906.998M279.276 -862.997L299.074 -848.432L319.029 -833.868M279.276 -862.997L259.322 -877.562M279.276 -862.997L299.074 -877.562M249.657 -826.202L270.702 -841.687M319.029 -804.431V-833.868M319.029 -804.431L338.827 -818.996M319.029 -804.431L338.827 -789.867M319.029 -833.868L338.827 -848.432M319.029 -686.993L338.827 -701.558M319.029 -686.993V-775.149L338.827 -789.867M378.579 -760.277L398.533 -774.842V-804.431L378.579 -789.713V-760.277ZM378.579 -760.277L398.533 -745.712M398.533 -745.712L418.487 -760.277M398.533 -745.712L358.781 -716.583M378.579 -789.867L358.781 -775.302M358.781 -775.302V-716.583M358.781 -775.302L338.827 -789.867M378.579 -819.303L358.781 -833.868M358.781 -833.868V-804.431M358.781 -833.868L338.827 -848.432M338.827 -818.996V-848.432M338.827 -818.996L358.781 -804.431M338.827 -789.867L358.781 -804.431M338.827 -701.558V-731.148M338.827 -701.558L358.781 -686.993V-716.583M338.827 -731.148L358.781 -716.583M358.781 -716.583L378.579 -701.558M279.276 -892.28L259.322 -877.562M279.276 -892.28V-921.716M279.276 -892.28L299.074 -877.562M259.322 -877.562V-907.151M259.322 -907.151L279.276 -921.716M259.322 -907.151L239.524 -892.587M279.276 -921.716L299.074 -907.151M279.276 -921.716L299.074 -936.281M299.074 -877.562V-907.151M299.074 -877.562L338.827 -848.279L377.488 -877.715M299.074 -877.562L338.827 -907.151M299.074 -907.151L319.029 -921.716M319.029 -921.716V-951.306M319.029 -921.716L338.827 -936.281M319.029 -921.716V-951.152L338.827 -965.87M319.029 -921.716L338.827 -907.151M398.533 -892.28L378.579 -877.562M378.579 -877.562L398.533 -862.997M378.579 -877.562L358.781 -892.587L338.827 -907.151M378.579 -877.562V-936.588L358.781 -951.306M398.533 -862.997L418.487 -877.562M398.533 -862.997L378.579 -848.432V-818.996L398.533 -833.561V-862.997ZM159.863 -950.846L139.909 -936.281M159.863 -950.846V-980.435L120.111 -951.306M159.863 -950.846L179.662 -936.281M159.863 -950.846L140.065 -936.281M159.863 -950.846L179.817 -936.281M139.909 -936.281L120.111 -951.306M139.909 -936.281L159.863 -921.716M120.111 -951.306L140.065 -936.281M120.111 -951.306L140.065 -936.588V-877.562M120.111 -951.306V-921.716M120.111 -951.306L100.313 -965.87M199.616 -951.152L159.863 -921.716M199.616 -951.152V-921.716M199.616 -951.152L219.57 -965.87M159.863 -921.716V-892.28M159.863 -921.716L199.772 -951.152M159.863 -921.716L140.065 -936.281M139.909 -701.558L120.111 -716.583M139.909 -701.558L159.863 -686.993M120.111 -716.583L159.863 -745.712M120.111 -716.583V-686.993L100.313 -701.558M120.111 -716.583L100.313 -731.148M120.111 -716.583L140.065 -701.558M120.111 -716.583V-775.302M159.863 -745.712L140.065 -760.277M159.863 -745.712L179.817 -760.277M159.863 -686.993L140.065 -701.558M389.959 -724.249L369.381 -709.224M378.579 -936.281L398.533 -950.846V-980.435L358.781 -951.306M378.579 -936.281L358.781 -951.306M378.579 -936.281L398.533 -921.716L438.441 -951.152M358.781 -951.306V-921.716M358.781 -951.306L338.827 -965.87M389.959 -958.971L368.914 -943.64M338.827 -936.281V-965.87M338.827 -936.281L358.781 -921.716M338.827 -907.151L358.781 -921.716M159.863 -774.842L140.065 -760.277M159.863 -774.842V-804.431M159.863 -774.842L179.817 -760.277M140.065 -760.277V-789.713L159.863 -804.431M159.863 -804.431L179.817 -789.867M159.863 -804.431L179.817 -818.996M179.817 -760.277V-789.867M179.817 -789.867L199.616 -804.431M159.863 -833.561L140.065 -818.996V-848.432L159.863 -862.997M159.863 -833.561V-862.997M159.863 -833.561L179.817 -818.996M159.863 -862.997L140.065 -877.562M159.863 -862.997L179.817 -877.562M179.817 -818.996V-877.562M179.817 -877.562L159.863 -892.28M179.817 -877.562V-907.151L199.616 -921.716M173.114 -837.547L167.502 -841.687M259.322 -731.148V-701.558M259.322 -731.148L239.524 -745.712M292.371 -720.262L286.759 -724.402M279.276 -950.846L259.322 -936.281V-965.87L279.276 -980.435V-950.846ZM279.276 -950.846L299.074 -936.281M299.074 -936.281V-995M199.616 -804.431L213.334 -794.313M199.616 -804.431V-892.433L219.57 -906.998M239.524 -775.302V-745.712M239.524 -775.302L219.57 -789.867M259.322 -819.303L225.805 -794.313M239.524 -745.712L219.57 -731.148L199.616 -745.712V-775.149L219.57 -789.867M219.57 -906.998L213.334 -902.399V-794.313M219.57 -906.998L225.805 -902.399V-794.313M219.57 -789.867L225.805 -794.313M219.57 -789.867L213.334 -794.313M213.334 -785.267V-751.078L199.772 -760.89M225.805 -785.267V-750.925L239.524 -761.044M219.57 -701.405L199.616 -686.84V-716.43L219.57 -730.994M219.57 -701.405V-730.994M219.57 -701.405L239.524 -686.84V-716.43L219.57 -730.994M159.863 -892.28L140.065 -877.562M140.065 -877.562L120.267 -892.587L100.313 -907.151M199.616 -921.716V-951.306M199.616 -921.716L219.57 -936.281M199.616 -921.716L219.57 -907.151L239.524 -921.716M259.322 -936.588L239.524 -951.306M239.524 -951.306V-921.716M239.524 -951.306L219.57 -965.87M219.57 -936.281V-965.87M219.57 -936.281L239.524 -921.716M20.6522 -789.867V-760.277M20.6522 -789.867L0.853941 -775.302M20.6522 -789.867V-819.303M20.6522 -760.277L40.6063 -745.712M20.6522 -760.277L40.6063 -774.842M40.6063 -745.712L60.5604 -760.277M40.6063 -745.712L20.6522 -731.148M60.5604 -760.277V-789.867L80.3586 -804.431M60.5604 -760.277L40.6063 -774.842M40.6063 -833.561L20.6522 -818.996L0.853941 -833.868M40.6063 -833.561V-862.997M40.6063 -833.561L60.5604 -818.996L80.3586 -804.431M40.6063 -833.561V-774.842M0.853941 -833.868L40.6063 -862.997M0.853941 -833.868L20.6522 -819.303M0.853941 -833.868V-892.433L-19.1002 -906.998M40.6063 -862.997L60.5604 -848.432L80.3586 -833.868M40.6063 -862.997L20.6522 -877.562M40.6063 -862.997L60.5604 -877.562M10.9869 -826.202L32.0322 -841.687M80.3586 -804.431V-833.868M80.3586 -804.431L100.313 -818.996M80.3586 -804.431L100.313 -789.867M80.3586 -833.868L100.313 -848.432M80.3586 -686.993L100.313 -701.558M80.3586 -686.993V-775.149L100.313 -789.867M140.065 -789.867L120.111 -775.302M120.111 -775.302L100.313 -789.867M140.065 -819.303L120.111 -833.868M120.111 -833.868V-804.431M120.111 -833.868L100.313 -848.432M100.313 -818.996V-848.432M100.313 -818.996L120.111 -804.431M100.313 -789.867L120.111 -804.431M100.313 -701.558V-731.148M40.6063 -892.28L20.6522 -877.562M40.6063 -892.28V-921.716M40.6063 -892.28L60.5604 -877.562M20.6522 -877.562V-907.151M20.6522 -907.151L40.6063 -921.716M20.6522 -907.151L0.853941 -892.587M40.6063 -921.716L60.5604 -907.151M40.6063 -921.716L60.5604 -936.281M60.5604 -877.562V-907.151M60.5604 -877.562L100.313 -848.279L138.974 -877.715M60.5604 -877.562L100.313 -907.151M60.5604 -907.151L80.3586 -921.716M80.3586 -921.716V-951.306M80.3586 -921.716L100.313 -936.281M80.3586 -921.716V-951.152L100.313 -965.87M80.3586 -921.716L100.313 -907.151M-78.8066 -950.846L-98.7607 -936.281M-78.8066 -950.846V-980.435L-118.559 -951.306L-98.7607 -936.281M-78.8066 -950.846L-58.8525 -936.281M-98.7607 -936.281L-78.8066 -921.716L-38.8984 -951.152M-38.8984 -951.152V-921.716M-38.8984 -951.152L-19.1002 -965.87M-98.7607 -701.558L-118.559 -716.583L-78.8066 -745.712M151.289 -724.249L130.867 -709.224M151.289 -958.971L130.244 -943.64M100.313 -936.281V-965.87M100.313 -936.281L120.111 -921.716M100.313 -907.151L120.111 -921.716M-78.6507 -774.842L-98.6048 -760.277M-78.6507 -774.842V-804.431M-78.6507 -774.842L-58.8525 -760.277M-98.6048 -760.277V-789.713L-78.6507 -804.431M-98.6048 -760.277L-78.6507 -745.712L-58.8525 -760.277M-78.6507 -804.431L-58.8525 -789.867M-78.6507 -804.431L-58.8525 -818.996M-58.8525 -760.277V-789.867M-58.8525 -789.867L-38.8984 -804.431M-78.6507 -833.561L-98.6048 -818.996V-848.432L-78.6507 -862.997M-78.6507 -833.561V-862.997M-78.6507 -833.561L-58.8525 -818.996M-78.6507 -862.997L-98.6048 -877.562M-78.6507 -862.997L-58.8525 -877.562M-58.8525 -818.996V-877.562M-58.8525 -877.562L-78.6507 -892.28M-58.8525 -877.562V-907.151L-38.8984 -921.716M-65.5558 -837.547L-71.1679 -841.687M20.6522 -731.148V-701.558M20.6522 -731.148L0.853941 -745.712M53.8571 -720.262L48.245 -724.402M40.6063 -950.846L20.6522 -936.281V-965.87L40.6063 -980.435V-950.846ZM40.6063 -950.846L60.5604 -936.281M60.5604 -936.281V-995M-38.8984 -804.431L-25.3358 -794.313M-38.8984 -804.431V-892.433L-19.1002 -906.998M0.853941 -775.302V-745.712M0.853941 -775.302L-19.1002 -789.867M20.6522 -819.303L-12.8645 -794.313M0.853941 -745.712L-19.1002 -731.148L-38.8984 -745.712V-775.149L-19.1002 -789.867M-19.1002 -906.998L-25.3358 -902.399V-794.313M-19.1002 -906.998L-12.8645 -902.399V-794.313M-19.1002 -789.867L-12.8645 -794.313M-19.1002 -789.867L-25.3358 -794.313M-25.3358 -785.267V-751.078L-38.8984 -760.89M-12.8645 -785.267V-750.925L0.853941 -761.044M-19.1002 -701.405L-38.8984 -686.84V-716.43L-19.1002 -730.994M-19.1002 -701.405V-730.994M-19.1002 -701.405L0.853941 -686.84V-716.43L-19.1002 -730.994M-78.6507 -921.716V-892.28M-78.6507 -892.28L-98.6048 -877.562M-98.6048 -877.562V-907.151M-38.8984 -921.716V-951.306M-38.8984 -921.716L-19.1002 -936.281M-38.8984 -921.716L-19.1002 -907.151L0.853941 -921.716M20.6522 -936.588L0.853941 -951.306M0.853941 -951.306V-921.716M0.853941 -951.306L-19.1002 -965.87M-19.1002 -936.281V-965.87M-19.1002 -936.281L0.853941 -921.716M-157.999 -686.993L-138.201 -701.558M-157.999 -686.993V-716.583L-138.201 -731.148M-157.999 -686.993V-775.149L-138.201 -789.867M-78.4948 -774.842L-98.4489 -760.277M-78.4948 -774.842V-804.431M-78.4948 -774.842L-58.6966 -760.277M-98.4489 -760.277V-789.713L-78.4948 -804.431M-98.4489 -760.277L-78.4948 -745.712L-58.6966 -760.277M-78.4948 -804.431L-58.6966 -789.867V-760.277M-98.4489 -789.867L-118.247 -775.302M-118.247 -775.302V-716.583M-118.247 -775.302L-138.201 -789.867M-98.4489 -819.303L-118.247 -833.868M-118.247 -833.868V-804.431M-118.247 -833.868L-138.201 -848.432M-138.201 -818.996L-157.999 -804.431M-138.201 -818.996V-848.432M-138.201 -818.996L-118.247 -804.431M-157.999 -804.431V-833.868L-138.201 -848.432M-157.999 -804.431L-138.201 -789.867M-138.201 -789.867L-118.247 -804.431M-138.201 -701.558V-731.148M-138.201 -701.558L-118.247 -686.993V-716.583M-138.201 -731.148L-118.247 -716.583M-157.999 -921.716L-138.201 -907.151M-138.201 -907.151L-118.247 -921.716M-138.201 -907.151L-118.247 -892.587L-98.4489 -877.562M-99.5402 -877.715L-138.201 -848.279" stroke="#C5C6E5" stroke-width="0.670889" stroke-miterlimit="10" stroke-linecap="round" stroke-linejoin="round"/>
</mask>
<g mask="url(#mask0_213_10)">
<path d="M219.139 1.23697L379.943 118.287L438.281 161.667H1.8667L219.139 1.23697Z" fill="white" fill-opacity="0.5"/>
</g>
</g>
<defs>
<clipPath id="clip0_213_10">
<rect width="438" height="161" fill="white"/>
</clipPath>
</defs>
</svg>
