<svg width="189" height="112" viewBox="0 0 189 112" fill="none" xmlns="http://www.w3.org/2000/svg">
<path d="M63.566 107.86C63.1459 107.638 62.6711 107.538 62.1966 107.573H61.4298V105.96H60.3617V110.061H62.2514C63.4291 110.061 64.0179 109.638 64.0179 108.79C64.03 108.616 63.9959 108.443 63.9189 108.287C63.8419 108.131 63.7249 107.998 63.5797 107.901L63.566 107.86ZM62.2103 109.268H61.4572V108.325H62.1966C62.3854 108.317 62.5734 108.354 62.7444 108.435C62.8042 108.466 62.8539 108.513 62.8878 108.571C62.9218 108.629 62.9385 108.695 62.9361 108.763C62.9361 109.091 62.6896 109.268 62.2103 109.268ZM56.1577 107.901C56.1169 108.234 56.034 108.56 55.9113 108.872C55.8881 108.948 55.8434 109.015 55.7826 109.066C55.7219 109.117 55.6476 109.149 55.5689 109.159C55.4469 109.16 55.3258 109.137 55.2129 109.091V109.966C55.408 110.046 55.6182 110.083 55.8291 110.075C55.9614 110.081 56.0934 110.058 56.2162 110.008C56.3389 109.959 56.4497 109.884 56.5412 109.788C56.7635 109.51 56.914 109.181 56.9794 108.831C57.1189 108.173 57.2105 107.506 57.2532 106.835H58.2666V110.061H59.3621V105.96H56.3494C56.3494 106.753 56.2399 107.327 56.1577 107.833V107.901ZM95.2669 36.0345L95.3764 69.0492C95.3764 69.2543 95.5544 69.391 95.6914 69.2817L117.396 53.0545C117.534 52.94 117.644 52.7955 117.718 52.632C117.791 52.4685 117.826 52.2904 117.82 52.1112V36.9641C117.82 36.759 117.642 36.6223 117.492 36.7317L104.743 46.3012C104.606 46.4106 104.414 46.3012 104.428 46.0688V44.1959C104.425 44.108 104.442 44.0207 104.478 43.9402C104.513 43.8598 104.566 43.7883 104.633 43.7311L117.382 34.1616C117.52 34.0471 117.63 33.9026 117.704 33.7391C117.777 33.5756 117.813 33.3974 117.807 33.2183V19.0555C117.807 18.8504 117.629 18.7137 117.478 18.8231L95.5681 35.2279C95.4289 35.3445 95.3183 35.4914 95.2448 35.6573C95.1712 35.8231 95.1366 36.0036 95.1436 36.1849L95.2669 36.0345ZM23.6079 91.8793C23.167 92.0275 22.7035 92.0969 22.2385 92.0844C21.6944 92.1038 21.1551 91.9763 20.6774 91.7153C20.268 91.4774 19.9536 91.1055 19.7874 90.6626H28.2774C28.2774 89.9518 28.2774 89.5553 28.2774 89.487C28.3109 88.2891 27.9971 87.107 27.3736 86.083C26.7893 85.1464 25.9481 84.3968 24.9499 83.923C23.8772 83.4261 22.7089 83.1687 21.5264 83.1687C20.344 83.1687 19.1757 83.4261 18.103 83.923C17.092 84.4256 16.2392 85.1966 15.6382 86.1513C15.0449 87.1307 14.7313 88.2535 14.7313 89.3981C14.7313 90.5427 15.0449 91.6654 15.6382 92.6449C16.2534 93.675 17.1581 94.5021 18.24 95.0236C19.4531 95.5845 20.7788 95.8604 22.1153 95.8302C23.0893 95.9015 24.0674 95.7639 24.9838 95.4267C25.9002 95.0896 26.7337 94.5606 27.4284 93.8753L24.7992 91.2368C24.4371 91.5206 24.0358 91.7508 23.6079 91.9203V91.8793ZM20.3899 87.0809C20.7547 86.7912 21.2112 86.6409 21.6771 86.6571C22.1451 86.6423 22.6025 86.7978 22.9643 87.0946C23.3183 87.4022 23.5553 87.8223 23.6353 88.2839H19.7326C19.8074 87.8166 20.045 87.3905 20.4036 87.0809H20.3899ZM148.289 94.7912C148.71 95.1597 149.201 95.4413 149.732 95.6196C150.263 95.7979 150.824 95.8695 151.383 95.8302C152.396 95.8144 153.387 95.5365 154.259 95.0236C155.164 94.504 155.904 93.7414 156.395 92.8226C156.913 91.7916 157.183 90.6541 157.183 89.5006C157.183 88.3472 156.913 87.2097 156.395 86.1786C155.91 85.2517 155.169 84.4831 154.259 83.964C153.363 83.4539 152.347 83.1898 151.315 83.1984C150.703 83.147 150.087 83.2292 149.51 83.4393C148.933 83.6494 148.409 83.9824 147.974 84.4151V83.4172H143.304V99.822H148.33V94.6955L148.289 94.7912ZM148.754 87.7918C148.934 87.5927 149.154 87.4334 149.399 87.3245C149.644 87.2155 149.91 87.1591 150.178 87.1591C150.447 87.1591 150.713 87.2155 150.958 87.3245C151.203 87.4334 151.423 87.5927 151.603 87.7918C151.995 88.2928 152.19 88.9203 152.15 89.5553C152.192 90.1863 151.997 90.8102 151.603 91.3052C151.421 91.5006 151.2 91.6565 150.955 91.7631C150.71 91.8696 150.446 91.9247 150.178 91.9247C149.911 91.9247 149.647 91.8696 149.402 91.7631C149.157 91.6565 148.936 91.5006 148.754 91.3052C148.355 90.8121 148.155 90.1881 148.193 89.5553C148.156 88.9184 148.355 88.2903 148.754 87.7918ZM72.3574 107.915C71.938 107.69 71.4626 107.59 70.988 107.628H70.4676V105.96H69.3584V110.061H71.0154C71.4938 110.106 71.9741 109.996 72.3847 109.747C72.5315 109.636 72.6485 109.491 72.725 109.324C72.8015 109.157 72.8351 108.973 72.8229 108.79C72.8337 108.617 72.7989 108.443 72.7221 108.288C72.6452 108.132 72.5289 107.999 72.3847 107.901L72.3574 107.915ZM71.0154 109.268H70.5087V108.325H71.0017C71.1904 108.317 71.3784 108.354 71.5494 108.435C71.6092 108.466 71.6589 108.513 71.6929 108.571C71.7268 108.629 71.7435 108.695 71.7411 108.763C71.7411 109.091 71.4946 109.268 71.0154 109.268ZM67.3455 107.573H65.8255V105.96H64.7437V110.061H65.8255V108.421H67.3455V110.061H68.441V105.96H67.3455V107.491V107.573ZM73.4118 110.02H74.4936V105.96H73.4118V110.061V110.02ZM39.0543 105.919C38.8002 105.907 38.5465 105.95 38.3103 106.044C38.0741 106.139 37.8608 106.282 37.685 106.466C37.3248 106.897 37.1436 107.45 37.1783 108.011C37.1616 108.286 37.2016 108.561 37.2958 108.819C37.39 109.078 37.5365 109.315 37.7261 109.515C37.9287 109.699 38.1664 109.842 38.4251 109.933C38.6839 110.025 38.9583 110.064 39.2324 110.048C39.4988 110.053 39.765 110.03 40.0266 109.979C40.24 109.938 40.4471 109.869 40.6428 109.774V108.94C40.4279 109.041 40.203 109.119 39.9718 109.173C39.7469 109.221 39.5172 109.244 39.2871 109.241C39.1548 109.25 39.0222 109.231 38.8974 109.186C38.7726 109.141 38.6582 109.072 38.5614 108.981C38.38 108.784 38.2818 108.525 38.2875 108.257H40.8619V107.724C40.8819 107.476 40.851 107.227 40.7709 106.992C40.6908 106.757 40.5633 106.541 40.3963 106.357C40.2155 106.184 39.9998 106.052 39.7636 105.969C39.5274 105.887 39.2762 105.856 39.027 105.878L39.0543 105.919ZM38.2601 107.491C38.261 107.263 38.3381 107.042 38.4792 106.862C38.5484 106.788 38.6335 106.729 38.7283 106.691C38.823 106.653 38.9251 106.637 39.027 106.644C39.1286 106.639 39.2301 106.656 39.3246 106.694C39.4191 106.731 39.5044 106.789 39.5747 106.862C39.7192 107.039 39.7925 107.263 39.7801 107.491H38.2464H38.2601ZM42.2861 95.4884L43.0392 93.7796L39.7116 89.2409L44.1895 83.3351H38.8763L37.0551 85.9052L35.316 83.3351H29.6468L34.1246 89.5553L29.5236 95.5704H35.001L36.8771 92.973L38.5477 95.5704H42.3134L42.2861 95.4884ZM32.7005 109.938H33.7823V106.767H35.2201V110.061H36.3156V105.96H32.7416V110.061L32.7005 109.938ZM54.3502 106.22C53.9929 105.963 53.5574 105.837 53.1177 105.864C52.585 105.855 52.0581 105.977 51.584 106.22L51.9401 106.958C52.2906 106.786 52.6729 106.688 53.063 106.671C53.1453 106.66 53.229 106.668 53.3077 106.694C53.3865 106.721 53.4583 106.764 53.5176 106.822C53.577 106.88 53.6224 106.951 53.6504 107.029C53.6783 107.107 53.6882 107.19 53.6792 107.273V107.45H52.9808C52.5026 107.43 52.0282 107.543 51.6114 107.778C51.4624 107.881 51.3425 108.021 51.2634 108.184C51.1842 108.347 51.1485 108.527 51.1595 108.708C51.1488 108.877 51.1724 109.047 51.2288 109.206C51.2853 109.366 51.3735 109.513 51.4882 109.638C51.6091 109.75 51.7514 109.837 51.9067 109.893C52.062 109.95 52.227 109.974 52.392 109.966C52.6499 109.974 52.9066 109.927 53.1451 109.829C53.367 109.715 53.5593 109.551 53.7066 109.35L53.912 109.897H54.6788V107.327C54.6957 107.129 54.6661 106.929 54.5924 106.744C54.5187 106.559 54.403 106.394 54.2543 106.261L54.3502 106.22ZM53.597 108.462C53.6004 108.569 53.5815 108.675 53.5414 108.774C53.5013 108.872 53.441 108.962 53.3642 109.036C53.2832 109.11 53.1882 109.168 53.0848 109.205C52.9814 109.243 52.8716 109.26 52.7617 109.255C52.6944 109.27 52.6243 109.269 52.5573 109.253C52.4903 109.236 52.4283 109.203 52.3762 109.158C52.3241 109.113 52.2835 109.056 52.2577 108.992C52.2319 108.928 52.2216 108.859 52.2277 108.79C52.2211 108.697 52.2392 108.604 52.28 108.52C52.3209 108.436 52.3831 108.364 52.4605 108.312C52.6785 108.193 52.9247 108.137 53.1725 108.147H53.597V108.476V108.462ZM45.2987 105.96H44.2032V109.132H42.6147V105.96H41.5329V110.061H44.9015V111.428H45.8738V109.2H45.2987V105.96ZM30.5369 105.577C30.7334 105.582 30.9277 105.619 31.112 105.687L31.7008 105.96L32.0569 105.058C31.5845 104.822 31.0649 104.696 30.5369 104.689C30.0814 104.678 29.6317 104.791 29.236 105.017C28.8663 105.235 28.5706 105.559 28.387 105.946C28.188 106.375 28.0852 106.841 28.0857 107.314C28.0377 108.026 28.252 108.731 28.6882 109.296C28.9097 109.531 29.1805 109.714 29.4811 109.832C29.7818 109.95 30.1049 110 30.4273 109.979C30.897 109.976 31.3617 109.883 31.7967 109.706V108.776C31.3592 108.945 30.8961 109.037 30.4273 109.05C29.5144 109.05 29.058 108.471 29.058 107.314C29.0179 106.833 29.1383 106.352 29.4003 105.946C29.5103 105.794 29.657 105.671 29.8269 105.59C29.9968 105.509 30.1845 105.472 30.3726 105.482L30.5369 105.577ZM82.4085 24.6195C82.47 24.6706 82.5475 24.6986 82.6276 24.6986C82.7077 24.6986 82.7852 24.6706 82.8467 24.6195L87.215 21.3522C87.3519 21.2428 87.5436 21.3522 87.5436 21.5846V28.1192C87.5388 28.2093 87.5548 28.2993 87.5904 28.3823C87.626 28.4653 87.6803 28.539 87.749 28.5976L93.7879 33.1226C93.911 33.2191 94.0629 33.2715 94.2193 33.2715C94.3757 33.2715 94.5276 33.2191 94.6506 33.1226L100.703 28.5976C100.772 28.539 100.826 28.4653 100.862 28.3823C100.898 28.2993 100.913 28.2093 100.909 28.1192V21.7486C100.909 21.5435 101.087 21.4068 101.237 21.5162L105.578 24.7835C105.64 24.8346 105.717 24.8627 105.797 24.8627C105.877 24.8627 105.955 24.8346 106.016 24.7835L116.478 16.9502C116.513 16.9207 116.541 16.884 116.56 16.8427C116.579 16.8014 116.589 16.7564 116.589 16.7109C116.589 16.6655 116.579 16.6205 116.56 16.5792C116.541 16.5379 116.513 16.5012 116.478 16.4717L94.6506 0.148898C94.5276 0.0524423 94.3757 0 94.2193 0C94.0629 0 93.911 0.0524423 93.7879 0.148898L72.0972 16.4717C72.0625 16.5012 72.0347 16.5379 72.0156 16.5792C71.9965 16.6205 71.9866 16.6655 71.9866 16.7109C71.9866 16.7564 71.9965 16.8014 72.0156 16.8427C72.0347 16.884 72.0625 16.9207 72.0972 16.9502L82.4085 24.6195ZM66.7566 95.5567H71.7548V87.3543H75.4658V83.4445H63.032V87.3543H66.7429V95.5567H66.7566ZM57.5408 95.5567H63.0183L56.1714 80.0132H51.0089L44.1621 95.5567H49.5026L50.5433 92.8226H56.459L57.5408 95.5567ZM52.0633 89.0768L53.5833 85.167L55.0896 89.0768H52.0222H52.0633ZM0.027388 84.087H4.58738V95.5704H9.7499V84.087H14.3099V79.9858H0V84.087H0.027388ZM47.4075 108.831C47.4075 108.188 47.4896 107.778 47.4896 107.614V105.96H46.4078V110.061H47.7772L49.6122 107.327C49.6122 107.847 49.5437 108.243 49.5437 108.53V110.061H50.5981V105.96H49.2287L47.4075 108.831ZM185.796 80.1225V76.158L182.318 78.1539L178.853 76.158V80.1635L182.318 82.1595L185.796 80.1225ZM138.717 105.96C138.492 105.948 138.268 105.996 138.068 106.099C137.868 106.203 137.7 106.358 137.58 106.548L137.43 106.029H136.457V111.757H137.539V110.143C137.539 110.143 137.539 109.897 137.539 109.569C137.672 109.733 137.842 109.864 138.034 109.952C138.227 110.04 138.437 110.082 138.648 110.075C138.937 110.08 139.22 109.994 139.456 109.829C139.7 109.649 139.885 109.402 139.99 109.118C140.124 108.764 140.189 108.389 140.182 108.011C140.215 107.476 140.076 106.944 139.785 106.493C139.661 106.317 139.494 106.174 139.3 106.078C139.107 105.983 138.892 105.937 138.676 105.946L138.717 105.96ZM138.347 109.2C138.232 109.209 138.116 109.189 138.011 109.141C137.905 109.093 137.814 109.019 137.745 108.927C137.596 108.645 137.529 108.328 137.553 108.011V107.888C137.529 107.601 137.596 107.314 137.745 107.067C137.815 106.982 137.906 106.915 138.009 106.872C138.111 106.829 138.223 106.812 138.333 106.821C138.444 106.814 138.555 106.837 138.654 106.888C138.753 106.938 138.836 107.015 138.895 107.108C139.033 107.384 139.094 107.69 139.073 107.997C139.073 108.799 138.831 109.2 138.347 109.2ZM132.212 105.96C131.958 105.948 131.705 105.991 131.468 106.085C131.232 106.18 131.019 106.323 130.843 106.507C130.484 106.939 130.303 107.491 130.336 108.052C130.32 108.327 130.36 108.602 130.454 108.86C130.548 109.119 130.694 109.356 130.884 109.556C131.087 109.74 131.324 109.883 131.583 109.974C131.842 110.066 132.116 110.105 132.39 110.089C132.657 110.094 132.923 110.071 133.185 110.02C133.398 109.979 133.605 109.91 133.801 109.815V108.981C133.586 109.082 133.361 109.16 133.13 109.214C132.905 109.262 132.675 109.285 132.445 109.282C132.313 109.291 132.18 109.272 132.055 109.227C131.931 109.182 131.816 109.113 131.719 109.022C131.539 108.824 131.441 108.565 131.446 108.298H134.02V107.765C134.04 107.517 134.009 107.268 133.929 107.033C133.849 106.798 133.721 106.582 133.554 106.398C133.374 106.225 133.158 106.093 132.922 106.01C132.685 105.928 132.434 105.897 132.185 105.919L132.212 105.96ZM131.432 107.532C131.433 107.304 131.51 107.083 131.651 106.903C131.72 106.829 131.805 106.77 131.9 106.732C131.995 106.694 132.097 106.678 132.199 106.685C132.3 106.68 132.402 106.697 132.496 106.735C132.591 106.772 132.676 106.83 132.746 106.903C132.892 107.08 132.966 107.304 132.952 107.532H131.432ZM143.756 106.261C143.399 106.004 142.963 105.878 142.524 105.905C141.996 105.898 141.474 106.02 141.004 106.261L141.36 106.999C141.71 106.827 142.093 106.73 142.483 106.712C142.565 106.701 142.649 106.709 142.727 106.735C142.806 106.762 142.878 106.805 142.937 106.863C142.997 106.921 143.042 106.992 143.07 107.07C143.098 107.148 143.108 107.231 143.099 107.314V107.491H142.4C141.922 107.471 141.448 107.585 141.031 107.819C140.885 107.924 140.767 108.064 140.691 108.227C140.614 108.39 140.58 108.57 140.593 108.749C140.582 108.918 140.606 109.088 140.662 109.247C140.719 109.407 140.807 109.554 140.922 109.679C141.042 109.791 141.185 109.878 141.34 109.934C141.495 109.991 141.66 110.015 141.825 110.007C142.083 110.014 142.34 109.968 142.578 109.87C142.8 109.756 142.993 109.592 143.14 109.392L143.345 109.938H144.098V107.327C144.115 107.129 144.086 106.929 144.012 106.744C143.938 106.559 143.823 106.394 143.674 106.261H143.756ZM143.017 108.462C143.02 108.569 143.001 108.675 142.961 108.774C142.921 108.872 142.861 108.962 142.784 109.036C142.703 109.11 142.608 109.168 142.504 109.205C142.401 109.243 142.291 109.26 142.181 109.255C142.115 109.268 142.047 109.265 141.981 109.247C141.916 109.229 141.856 109.196 141.806 109.151C141.755 109.106 141.716 109.05 141.691 108.988C141.666 108.925 141.656 108.857 141.661 108.79C141.654 108.697 141.673 108.604 141.713 108.52C141.754 108.436 141.816 108.364 141.894 108.312C142.112 108.193 142.358 108.137 142.606 108.147H143.03V108.476L143.017 108.462ZM131.966 95.5294H136.964V87.327H140.675V83.4172H128.241V87.327H131.952V95.5294H131.966ZM127.31 107.833C126.891 107.608 126.415 107.508 125.941 107.546H125.42V105.96H124.339V110.061H125.995C126.474 110.106 126.954 109.996 127.365 109.747C127.513 109.637 127.63 109.492 127.707 109.325C127.783 109.157 127.816 108.973 127.803 108.79C127.815 108.616 127.781 108.443 127.704 108.287C127.627 108.131 127.51 107.998 127.365 107.901L127.31 107.833ZM125.995 109.268H125.489V108.325H125.982C126.17 108.317 126.358 108.355 126.53 108.435C126.587 108.467 126.634 108.515 126.665 108.573C126.697 108.631 126.711 108.697 126.708 108.763C126.708 109.1 126.466 109.268 125.982 109.268H125.995ZM127.214 92.8636L123.9 89.9107C123.517 90.4616 123.008 90.9137 122.415 91.2298C121.822 91.5459 121.163 91.717 120.491 91.729C120.001 91.7494 119.512 91.6662 119.056 91.4848C118.601 91.3034 118.189 91.0279 117.848 90.6763C117.201 89.8745 116.848 88.876 116.848 87.8465C116.848 86.817 117.201 85.8184 117.848 85.0166C118.189 84.6651 118.601 84.3896 119.056 84.2082C119.512 84.0267 120.001 83.9435 120.491 83.964C121.163 83.976 121.822 84.1471 122.415 84.4632C123.008 84.7792 123.517 85.2313 123.9 85.7822L127.214 82.8293C126.447 81.8258 125.439 81.0313 124.284 80.519C122.988 79.9618 121.586 79.6913 120.176 79.7261C118.629 79.7047 117.102 80.0614 115.725 80.7651C114.445 81.4206 113.373 82.4195 112.63 83.6496C111.893 84.9306 111.505 86.3825 111.505 87.8601C111.505 89.3378 111.893 90.7896 112.63 92.0707C113.435 93.3027 114.575 94.2797 115.917 94.8869C117.293 95.5905 118.821 95.9472 120.367 95.9259C121.779 95.9567 123.181 95.6816 124.475 95.1193C125.632 94.608 126.64 93.8133 127.406 92.8089L127.214 92.8636ZM128.488 110.061H129.611V105.96H128.529V110.061H128.488ZM146.563 105.851C146.77 105.735 146.998 105.66 147.234 105.632L148.878 105.4L148.754 104.456L147.138 104.689C146.821 104.724 146.513 104.822 146.233 104.977C145.954 105.132 145.707 105.341 145.509 105.591C145.122 106.212 144.94 106.939 144.989 107.669C144.949 108.31 145.128 108.946 145.495 109.474C145.658 109.681 145.865 109.848 146.103 109.962C146.341 110.075 146.601 110.133 146.865 110.13C147.117 110.136 147.368 110.092 147.603 110C147.838 109.909 148.053 109.772 148.234 109.597C148.415 109.392 148.555 109.154 148.644 108.896C148.733 108.638 148.771 108.365 148.754 108.093C148.785 107.628 148.638 107.169 148.344 106.808C148.107 106.578 147.806 106.426 147.48 106.372C147.155 106.318 146.82 106.365 146.522 106.507C146.321 106.611 146.15 106.767 146.029 106.958C146.037 106.72 146.083 106.484 146.166 106.261C146.231 106.094 146.346 105.951 146.495 105.851H146.563ZM146.262 107.478C146.368 107.382 146.488 107.304 146.618 107.245C146.737 107.185 146.868 107.152 147.002 107.15C147.467 107.15 147.7 107.496 147.7 108.188C147.7 108.881 147.44 109.237 146.919 109.255C146.785 109.258 146.653 109.224 146.536 109.156C146.42 109.089 146.325 108.99 146.262 108.872C146.087 108.53 146.007 108.148 146.029 107.765C146.09 107.656 146.168 107.559 146.262 107.478ZM152.274 106.261C151.963 106.091 151.614 106.007 151.26 106.015C151.007 106.009 150.755 106.054 150.52 106.148C150.284 106.242 150.07 106.383 149.891 106.562C149.531 106.983 149.35 107.527 149.384 108.079C149.376 108.457 149.455 108.831 149.617 109.173C149.762 109.476 149.996 109.729 150.288 109.897C150.598 110.067 150.948 110.152 151.301 110.143C151.555 110.15 151.807 110.105 152.043 110.011C152.278 109.917 152.492 109.776 152.671 109.597C153.035 109.178 153.222 108.633 153.191 108.079C153.201 107.701 153.121 107.327 152.958 106.985C152.811 106.686 152.578 106.439 152.287 106.275L152.274 106.261ZM151.89 109.009C151.822 109.111 151.727 109.192 151.617 109.245C151.506 109.298 151.383 109.32 151.26 109.309C151.138 109.319 151.016 109.296 150.905 109.243C150.794 109.191 150.7 109.11 150.63 109.009C150.485 108.736 150.419 108.428 150.439 108.12C150.417 107.812 150.484 107.504 150.63 107.232C150.707 107.14 150.804 107.066 150.913 107.015C151.022 106.964 151.14 106.938 151.26 106.938C151.38 106.938 151.499 106.964 151.608 107.015C151.717 107.066 151.813 107.14 151.89 107.232C152.037 107.504 152.103 107.812 152.082 108.12C152.1 108.428 152.034 108.735 151.89 109.009ZM184.385 83.4172L180.181 88.8854V83.4172H175.183V95.5704H179.825L184.002 90.1021V95.5704H189V83.4172H184.385ZM161.887 110.061H162.968V105.96H161.887V110.061ZM169.76 84.087C168.616 83.5608 167.371 83.2883 166.111 83.2883C164.851 83.2883 163.606 83.5608 162.462 84.087C161.431 84.5826 160.559 85.354 159.942 86.3154C159.346 87.2964 159.031 88.4217 159.031 89.569C159.031 90.7163 159.346 91.8416 159.942 92.8226C160.57 93.773 161.446 94.5341 162.475 95.0236C163.618 95.557 164.864 95.8335 166.125 95.8335C167.386 95.8335 168.632 95.557 169.774 95.0236C170.807 94.5249 171.679 93.7485 172.294 92.7816C172.884 91.7986 173.196 90.674 173.196 89.528C173.196 88.3819 172.884 87.2574 172.294 86.2744C171.681 85.3096 170.807 84.5373 169.774 84.046L169.76 84.087ZM167.542 91.2915C167.362 91.4906 167.143 91.6499 166.897 91.7588C166.652 91.8678 166.386 91.9241 166.118 91.9241C165.849 91.9241 165.584 91.8678 165.339 91.7588C165.093 91.6499 164.874 91.4906 164.694 91.2915C164.295 90.793 164.095 90.1648 164.132 89.528C164.094 88.8952 164.295 88.2711 164.694 87.7781C164.875 87.5808 165.095 87.4233 165.34 87.3156C165.585 87.2078 165.85 87.1521 166.118 87.1521C166.386 87.1521 166.651 87.2078 166.896 87.3156C167.141 87.4233 167.361 87.5808 167.542 87.7781C167.941 88.2711 168.141 88.8952 168.103 89.528C168.141 90.1648 167.941 90.793 167.542 91.2915ZM160.887 107.901C160.468 107.676 159.992 107.577 159.518 107.614H158.997V105.96H157.915V110.061H159.572C160.051 110.106 160.531 109.996 160.942 109.747C161.089 109.636 161.205 109.491 161.282 109.324C161.358 109.157 161.392 108.973 161.38 108.79C161.391 108.617 161.356 108.443 161.279 108.288C161.202 108.132 161.086 107.999 160.942 107.901H160.887ZM159.572 109.268H159.066V108.325H159.559C159.747 108.317 159.935 108.354 160.106 108.435C160.166 108.466 160.216 108.513 160.25 108.571C160.284 108.629 160.3 108.695 160.298 108.763C160.298 109.091 160.052 109.268 159.572 109.268ZM153.684 106.849H155.053V110.061H156.135V106.89H157.505V105.96H153.807V106.78L153.684 106.849ZM111.357 107.915C111.316 108.248 111.233 108.574 111.11 108.886C111.087 108.961 111.043 109.029 110.982 109.08C110.921 109.131 110.847 109.163 110.768 109.173C110.646 109.174 110.525 109.151 110.412 109.104V109.979C110.607 110.06 110.817 110.097 111.028 110.089C111.161 110.094 111.293 110.071 111.415 110.022C111.538 109.972 111.649 109.897 111.74 109.802C111.963 109.523 112.113 109.195 112.179 108.845C112.317 108.187 112.409 107.52 112.452 106.849H113.452V110.061H114.548V105.96H111.535C111.535 106.753 111.425 107.327 111.343 107.833L111.357 107.915ZM122.49 107.491H120.97V105.96H119.874V110.061H120.97V108.421H122.49V110.061H123.585V105.96H122.49V107.491ZM91.0903 105.96C90.8655 105.948 90.6415 105.996 90.4416 106.099C90.2418 106.203 90.0733 106.358 89.9537 106.548L89.762 105.96H88.8719V111.688H89.8989V110.075C89.8989 110.075 89.8989 109.829 89.8989 109.501C90.0307 109.663 90.1979 109.793 90.3878 109.881C90.5778 109.968 90.7853 110.012 90.9944 110.007C91.283 110.012 91.5658 109.926 91.8024 109.761C92.0463 109.581 92.232 109.334 92.3364 109.05C92.4697 108.696 92.5348 108.32 92.5281 107.942C92.5602 107.407 92.4211 106.876 92.131 106.425C92.0021 106.253 91.8345 106.114 91.6418 106.019C91.4491 105.924 91.2367 105.876 91.0218 105.878L91.0903 105.96ZM90.6932 109.132C90.5778 109.141 90.462 109.12 90.3566 109.073C90.2513 109.025 90.1597 108.951 90.0906 108.858C89.9412 108.577 89.8747 108.26 89.8989 107.942V107.819C89.8748 107.533 89.9419 107.246 90.0906 106.999C90.1621 106.914 90.2528 106.848 90.3552 106.805C90.4577 106.762 90.5688 106.744 90.6795 106.753C90.7903 106.746 90.901 106.769 90.9998 106.819C91.0986 106.87 91.1819 106.946 91.2409 107.04C91.3786 107.315 91.4401 107.622 91.4189 107.929C91.4189 108.731 91.1724 109.132 90.6795 109.132H90.6932ZM93.3908 69.0492L93.5415 36.1438C93.5495 35.9624 93.5154 35.7817 93.4417 35.6156C93.3681 35.4496 93.2569 35.3029 93.117 35.1869L71.2071 18.7821C71.0701 18.6727 70.8784 18.7821 70.8784 19.0145V52.1796C70.8725 52.3587 70.9077 52.5368 70.9812 52.7003C71.0548 52.8638 71.1648 53.0084 71.3029 53.1229L78.5606 58.5912C78.6975 58.7005 78.8892 58.5912 78.8892 58.3587V55.6246C78.8892 55.5016 78.9988 55.4196 79.0809 55.4879L84.4215 59.4798C84.4894 59.5391 84.5432 59.6128 84.5787 59.6957C84.6143 59.7785 84.6307 59.8682 84.6269 59.9582V62.4736C84.6209 62.6528 84.6561 62.8309 84.7297 62.9944C84.8032 63.1579 84.9133 63.3024 85.0514 63.4169L93.0485 69.268C93.1854 69.3773 93.3634 69.268 93.3634 69.0356L93.3908 69.0492ZM84.6132 44.8384C84.6132 45.0435 84.4352 45.1802 84.2845 45.0708L79.122 41.202C79.0533 41.1434 78.999 41.0697 78.9634 40.9867C78.9277 40.9037 78.9118 40.8137 78.9166 40.7235V38.7413C78.9166 38.6183 79.0262 38.5362 79.1083 38.6046L84.4215 42.5281C84.4927 42.5854 84.5496 42.6584 84.5876 42.7415C84.6257 42.8245 84.6438 42.9153 84.6406 43.0065V44.8248L84.6132 44.8384ZM84.6132 106.849H85.9826V110.061H87.0643V106.89H88.4337V105.96H84.7364V106.78L84.6132 106.849ZM83.1206 106.849C83.2659 106.828 83.4134 106.828 83.5588 106.849L84.038 107.013L84.353 106.179C83.9437 106.001 83.4971 105.926 83.0521 105.96C82.7863 105.943 82.5197 105.981 82.2697 106.073C82.0196 106.165 81.7917 106.308 81.6006 106.493C81.2379 106.923 81.0563 107.477 81.0939 108.038C81.0425 108.309 81.0569 108.588 81.136 108.852C81.215 109.116 81.3564 109.358 81.5483 109.556C81.7402 109.754 81.9769 109.903 82.2385 109.991C82.5002 110.079 82.7792 110.103 83.0521 110.061C83.2796 110.087 83.5093 110.087 83.7368 110.061C83.9265 110.014 84.1071 109.936 84.2708 109.829V108.899C84.1061 109.011 83.9263 109.098 83.7368 109.159C83.5503 109.215 83.3564 109.243 83.1617 109.241C82.5956 109.241 82.3126 108.854 82.3126 108.079C82.3126 107.304 82.5956 106.903 83.1617 106.876L83.1206 106.849ZM87.4341 95.0236C88.4662 94.5243 89.3387 93.748 89.9537 92.7816C90.5438 91.7986 90.8555 90.674 90.8555 89.528C90.8555 88.3819 90.5438 87.2574 89.9537 86.2744C89.3401 85.3101 88.4669 84.5379 87.4341 84.046C86.2897 83.5198 85.0447 83.2473 83.7847 83.2473C82.5248 83.2473 81.2797 83.5198 80.1354 84.046C79.1046 84.541 78.2322 85.3125 77.6157 86.2744C77.0184 87.2548 76.7024 88.3804 76.7024 89.528C76.7024 90.6756 77.0184 91.8011 77.6157 92.7816C78.2335 93.7457 79.1052 94.5213 80.1354 95.0236C81.2777 95.557 82.5235 95.8335 83.7847 95.8335C85.0459 95.8335 86.2917 95.557 87.4341 95.0236ZM82.3537 91.2915C81.9549 90.793 81.7549 90.1648 81.7923 89.528C81.7544 88.8952 81.9546 88.2711 82.3537 87.7781C82.5346 87.5808 82.7547 87.4233 82.9998 87.3156C83.245 87.2078 83.51 87.1521 83.7779 87.1521C84.0458 87.1521 84.3107 87.2078 84.5559 87.3156C84.8011 87.4233 85.0211 87.5808 85.202 87.7781C85.6011 88.2711 85.8013 88.8952 85.7635 89.528C85.7995 90.1647 85.5997 90.7924 85.202 91.2915C85.0222 91.4906 84.8026 91.6499 84.5573 91.7588C84.3119 91.8678 84.0464 91.9241 83.7779 91.9241C83.5093 91.9241 83.2438 91.8678 82.9985 91.7588C82.7532 91.6499 82.5335 91.4906 82.3537 91.2915ZM96.1432 106.247C95.8328 106.078 95.4834 105.994 95.1299 106.001C94.8765 105.995 94.6245 106.041 94.3892 106.135C94.1538 106.229 93.94 106.369 93.7606 106.548C93.4009 106.969 93.2192 107.513 93.2539 108.065C93.2454 108.443 93.3251 108.818 93.4867 109.159C93.632 109.463 93.8659 109.715 94.1577 109.884C94.4675 110.054 94.8173 110.139 95.171 110.13C95.4245 110.136 95.6767 110.091 95.9122 109.997C96.1477 109.903 96.3614 109.762 96.5404 109.583C96.905 109.164 97.0917 108.62 97.0607 108.065C97.0707 107.688 96.991 107.313 96.8279 106.972C96.6803 106.673 96.4467 106.426 96.1569 106.261L96.1432 106.247ZM95.7598 108.995C95.6915 109.097 95.597 109.179 95.4862 109.232C95.3753 109.285 95.2523 109.307 95.1299 109.296C95.0077 109.305 94.8852 109.282 94.7746 109.23C94.664 109.177 94.5693 109.096 94.5 108.995C94.3549 108.722 94.2886 108.415 94.3083 108.106C94.2871 107.798 94.3535 107.49 94.5 107.218C94.5771 107.126 94.6735 107.052 94.7823 107.001C94.8912 106.951 95.0098 106.924 95.1299 106.924C95.25 106.924 95.3687 106.951 95.4775 107.001C95.5863 107.052 95.6827 107.126 95.7598 107.218C95.9056 107.49 95.972 107.798 95.9515 108.106C95.9699 108.415 95.9036 108.722 95.7598 108.995ZM77.0954 105.96C76.8412 105.948 76.5875 105.991 76.3513 106.085C76.1151 106.18 75.9018 106.323 75.726 106.507C75.3671 106.939 75.186 107.491 75.2193 108.052C75.2026 108.327 75.2426 108.602 75.3368 108.86C75.431 109.119 75.5775 109.356 75.7671 109.556C75.9697 109.74 76.2074 109.883 76.4662 109.974C76.7249 110.066 76.9994 110.105 77.2734 110.089C77.5398 110.094 77.806 110.071 78.0676 110.02C78.2811 109.979 78.4882 109.91 78.6838 109.815V108.981C78.469 109.082 78.2441 109.16 78.0128 109.214C77.7879 109.262 77.5582 109.285 77.3281 109.282C77.1958 109.291 77.0629 109.273 76.938 109.228C76.813 109.184 76.6988 109.114 76.6024 109.022C76.421 108.825 76.3229 108.566 76.3285 108.298H78.944V107.765C78.964 107.517 78.9331 107.268 78.853 107.033C78.7729 106.798 78.6454 106.582 78.4784 106.398C78.2976 106.225 78.0819 106.093 77.8456 106.01C77.6095 105.928 77.3583 105.897 77.1091 105.919L77.0954 105.96ZM76.3559 107.532C76.3558 107.304 76.433 107.082 76.575 106.903C76.6427 106.83 76.7256 106.773 76.8178 106.735C76.91 106.697 77.0095 106.68 77.1091 106.685C77.2107 106.68 77.3122 106.697 77.4067 106.735C77.5012 106.772 77.5865 106.83 77.6568 106.903C77.8025 107.08 77.8759 107.304 77.8622 107.532H76.3422H76.3559ZM118.656 107.86C118.235 107.638 117.761 107.538 117.286 107.573H116.519V105.96H115.424V110.061H117.327C118.505 110.061 119.094 109.638 119.094 108.79C119.106 108.616 119.072 108.443 118.995 108.287C118.918 108.131 118.801 107.998 118.656 107.901V107.86ZM117.286 109.268H116.533V108.325H117.286C117.475 108.317 117.663 108.354 117.834 108.435C117.891 108.467 117.938 108.515 117.97 108.573C118.001 108.631 118.016 108.697 118.012 108.763C118.012 109.1 117.77 109.268 117.286 109.268ZM108.385 105.96C108.131 105.948 107.878 105.991 107.641 106.085C107.405 106.18 107.192 106.323 107.016 106.507C106.657 106.939 106.476 107.491 106.509 108.052C106.493 108.327 106.533 108.602 106.627 108.86C106.721 109.119 106.868 109.356 107.057 109.556C107.26 109.74 107.497 109.883 107.756 109.974C108.015 110.066 108.289 110.105 108.563 110.089C108.83 110.094 109.096 110.071 109.358 110.02C109.571 109.979 109.778 109.91 109.974 109.815V108.981C109.759 109.082 109.534 109.16 109.303 109.214C109.078 109.262 108.848 109.285 108.618 109.282C108.486 109.291 108.353 109.273 108.228 109.228C108.103 109.184 107.989 109.114 107.892 109.022C107.711 108.825 107.613 108.566 107.619 108.298H110.193V107.765C110.213 107.517 110.182 107.268 110.102 107.033C110.022 106.798 109.894 106.582 109.727 106.398C109.547 106.225 109.331 106.093 109.095 106.01C108.858 105.928 108.607 105.897 108.358 105.919L108.385 105.96ZM107.591 107.532C107.592 107.304 107.669 107.083 107.81 106.903C107.879 106.829 107.965 106.77 108.059 106.732C108.154 106.694 108.256 106.678 108.358 106.685C108.46 106.68 108.561 106.697 108.656 106.735C108.75 106.772 108.835 106.83 108.906 106.903C109.051 107.08 109.125 107.304 109.111 107.532H107.577H107.591ZM104.962 95.5567H109.481V83.4035H104.77L101.497 89.0632L98.6081 83.4035H93.295V95.5567H97.8139V90.0064L100.306 94.5998H102.415L104.989 90.1158L104.962 95.5567ZM98.6492 108.817C98.6492 108.175 98.7314 107.765 98.7314 107.601V105.96H97.6769V110.061H99.0463L100.881 107.327C100.881 107.847 100.813 108.243 100.813 108.53V110.061H101.867V105.96H100.498L98.6492 108.817ZM102.388 106.835H103.757V110.061H104.839V106.89H106.208V105.96H102.511V106.78L102.388 106.835Z" fill="white"/>
</svg>
