<svg width="588" height="1156" viewBox="0 0 588 1156" fill="none" xmlns="http://www.w3.org/2000/svg">
<mask id="mask0_17_211" style="mask-type:alpha" maskUnits="userSpaceOnUse" x="-10" y="-1" width="598" height="1263">
<path d="M468.029 1246.44V1217L487.827 1202.28M468.029 1246.44L487.827 1231.87M468.029 1246.44V1216.85L487.827 1202.28M468.029 1246.44V1158.28L487.827 1143.56M308.863 1217.31L288.909 1231.87M308.863 1217.31V1187.72M308.863 1217.31L328.662 1231.87L308.863 1217.15M308.863 1217.31L289.065 1231.87M308.863 1217.31L328.817 1231.87M288.909 1231.87L269.111 1217M288.909 1231.87L308.863 1246.44M288.909 1231.87L308.863 1217.15M288.909 1231.87L269.111 1216.85M269.111 1217L308.863 1187.72M269.111 1217L289.065 1231.87M269.111 1217L289.065 1231.57V1261M269.111 1217V1246.44M269.111 1217L249.313 1202.28M308.863 1187.72L348.616 1217M308.863 1187.72L348.772 1217L308.863 1246.44M308.863 1187.72L269.111 1216.85M308.863 1187.72V1217.15M308.863 1187.72L348.616 1216.85L308.863 1246.44M308.863 1187.72L289.065 1173.15M308.863 1187.72L328.817 1173.15M308.863 1187.72L348.772 1216.85L308.863 1246.44M348.616 1217L308.863 1246.44M348.616 1217V1246.44L368.57 1231.87M348.616 1217L368.57 1202.28M348.616 1217V1246.59L368.57 1232.03M348.616 1217L368.57 1202.44M308.863 1246.44L289.065 1231.87M527.579 1231.87L547.533 1217.31V1187.72M527.579 1231.87L507.781 1217M527.579 1231.87L547.533 1246.44M527.579 1231.87L547.533 1217.15V1187.72M527.579 1231.87L507.781 1216.85M507.781 1217L547.533 1187.72M507.781 1217L527.579 1231.57V1261M507.781 1217V1246.44M507.781 1217L487.827 1202.28M547.533 1187.72L527.579 1173.15M547.533 1187.72L567.487 1173.15M547.533 1187.72L507.781 1216.85M517.914 1224.67L538.959 1209.18L518.381 1224.21M587.441 1217L547.533 1246.44M547.533 1246.44L587.441 1216.85M487.827 1231.87V1202.28M487.827 1231.87L507.781 1246.44M487.827 1202.28L507.781 1216.85M507.781 1246.44V1216.85M428.276 1217.31L408.322 1231.87M428.276 1217.31V1187.72M428.276 1217.31L448.074 1231.87V1173.15M408.322 1231.87V1202.44L428.276 1187.72M408.322 1231.87V1202.28M428.276 1187.72L408.322 1173.15M428.276 1187.72L448.074 1173.15M428.276 1187.72L408.322 1202.28M428.276 1187.72V1217.15L408.322 1231.72V1202.28M448.074 1173.15V1143.56L468.029 1129M448.074 1173.15V1231.72M448.074 1173.15L428.276 1158.59M408.322 1231.57L388.524 1217M388.524 1217V1246.44L368.57 1231.87M388.524 1217L368.57 1202.28M388.524 1217V1246.59L368.57 1232.03M388.524 1217L368.57 1202.44M368.57 1231.87V1202.28M368.57 1202.28L388.524 1187.72M368.57 1202.28L348.616 1187.72V1158.28L368.57 1143.56M229.359 1246.44V1217L249.313 1202.28M229.359 1246.44L249.313 1231.87M229.359 1246.44V1216.85L249.313 1202.28M229.359 1246.44V1158.28L249.313 1143.56M70.1934 1217.31L50.2393 1231.87M70.1934 1217.31V1187.72M70.1934 1217.31L90.1475 1231.87M50.2393 1231.87L30.441 1217L70.1934 1187.72M50.2393 1231.87L70.1934 1246.44M50.2393 1231.87L70.1934 1217.15M50.2393 1231.87L30.441 1216.85L70.1934 1187.72M70.1934 1187.72L110.102 1217M70.1934 1187.72V1217.15M70.1934 1187.72L110.102 1216.85L70.1934 1246.44M110.102 1217L70.1934 1246.44M110.102 1217V1246.44L129.9 1231.87M110.102 1217L129.9 1202.28M110.102 1217V1246.59L129.9 1232.03M110.102 1217L129.9 1202.44M90.1475 1231.87L70.1934 1217.15M90.1475 1231.87L110.102 1217.31M289.065 1231.87L308.863 1217.15M289.065 1231.87L269.111 1216.85M279.244 1224.67L300.289 1209.18L279.867 1224.21M328.817 1231.87L348.616 1217.31M328.817 1231.87L308.863 1217.15M249.313 1231.87V1202.28M249.313 1231.87L269.111 1246.44M249.313 1202.28L269.111 1216.85M269.111 1246.44V1216.85M189.606 1217.31L169.652 1231.87M189.606 1217.31V1187.72M189.606 1217.31L209.56 1231.87V1173.15M169.652 1231.87V1202.44L189.606 1187.72M169.652 1231.87V1202.28M189.606 1187.72L169.652 1173.15M189.606 1187.72L209.56 1173.15M189.606 1187.72L169.652 1202.28M189.606 1187.72V1217.15L169.652 1231.72V1202.28M209.56 1173.15V1143.56L229.359 1129M209.56 1173.15V1231.72M209.56 1173.15L189.606 1158.59M169.652 1231.57L149.854 1217M149.854 1217V1246.44L129.9 1231.87M149.854 1217L129.9 1202.28M149.854 1217V1246.59L129.9 1232.03M149.854 1217L129.9 1202.44M129.9 1231.87V1202.28M129.9 1202.28L149.854 1187.72M129.9 1202.28L110.102 1187.72V1158.28L129.9 1143.56M408.322 1143.56V1173.15M408.322 1143.56L388.524 1158.13M408.322 1143.56V1114.13M408.322 1173.15L428.276 1158.59M428.276 1099.87L408.322 1114.43L388.524 1099.56M428.276 1099.87V1070.43M428.276 1099.87L448.074 1114.43L468.029 1129M428.276 1099.87V1158.59M388.524 1099.56L428.276 1070.43M388.524 1099.56L408.322 1114.13M388.524 1099.56V1041L368.57 1026.43M428.276 1070.43L448.074 1085L468.029 1099.56M428.276 1070.43L408.322 1055.87M428.276 1070.43L448.074 1055.87M398.657 1107.23L419.702 1091.74M468.029 1129V1099.56M468.029 1129L487.827 1114.43M468.029 1129L487.827 1143.56M468.029 1099.56L487.827 1085M527.579 1173.15L547.533 1158.59V1129L527.579 1143.72V1173.15ZM527.579 1143.56L507.781 1158.13M507.781 1158.13V1216.85M507.781 1158.13L487.827 1143.56M527.579 1114.13L507.781 1099.56M507.781 1099.56V1129M507.781 1099.56L487.827 1085M487.827 1114.43V1085M487.827 1114.43L507.781 1129M487.827 1143.56L507.781 1129M428.276 1041.15L408.322 1055.87M428.276 1041.15V1011.71M428.276 1041.15L448.074 1055.87M408.322 1055.87V1026.28M408.322 1026.28L428.276 1011.71M408.322 1026.28L388.524 1040.84M428.276 1011.71L448.074 1026.28M428.276 1011.71L448.074 997.15M448.074 1055.87V1026.28M448.074 1055.87L487.827 1085.15L526.488 1055.72M448.074 1055.87L487.827 1026.28M448.074 1026.28L468.029 1011.71M468.029 1011.71V982.125M468.029 1011.71L487.827 997.15M468.029 1011.71V982.279M468.029 1011.71L487.827 1026.28M547.533 1041.15L527.579 1055.87M527.579 1055.87L547.533 1070.43M527.579 1055.87L507.781 1040.84L487.827 1026.28M527.579 1055.87V996.844L507.781 982.125M547.533 1070.43L567.487 1055.87M547.533 1070.43L527.579 1085V1114.43L547.533 1099.87V1070.43ZM308.863 982.585L288.909 997.15M308.863 982.585V952.996M308.863 982.585L328.662 997.15M308.863 982.585L289.065 997.15M308.863 982.585L328.817 997.15M308.863 982.585L288.909 997.303M308.863 982.585V953.149M308.863 982.585L328.662 997.303M308.863 982.585L289.065 997.303M308.863 982.585L328.817 997.303L348.616 982.739M288.909 997.15L269.111 982.125M288.909 997.15L308.863 1011.71M269.111 982.125L308.863 952.996M269.111 982.125L289.065 997.15M269.111 982.125L289.065 996.844V1055.87M269.111 982.125V1011.71M269.111 982.125L249.313 967.561M308.863 952.996L348.616 982.279M308.863 952.996L348.772 982.279M348.616 982.279L308.863 1011.71M348.616 982.279V1011.71M348.616 982.279L368.57 967.561M348.616 982.279L308.863 1011.87M348.616 982.279L308.863 953.149M308.863 1011.71V1041.15M308.863 1011.71L348.772 982.279M308.863 1011.71L289.065 997.15M269.111 1216.85V1158.13M547.533 982.585L527.579 997.15M547.533 982.585V952.996L507.781 982.125M547.533 982.585L527.579 997.303M547.533 982.585V953.149M527.579 997.15L507.781 982.125M527.579 997.15L547.533 1011.71L587.441 982.279L547.533 1011.87L527.579 997.303M507.781 982.125V1011.71M507.781 982.125L487.827 967.561M538.959 974.46L517.914 989.791M487.827 997.15V967.561M487.827 997.15L507.781 1011.71M468.029 982.279L487.827 967.561M468.029 982.279V1011.87M468.029 982.279L487.827 967.714M487.827 1026.28L507.781 1011.71M308.863 1158.59L289.065 1173.15M308.863 1158.59V1129M308.863 1158.59L328.817 1173.15M289.065 1173.15V1143.72L308.863 1129M308.863 1129L328.817 1143.56M308.863 1129L328.817 1114.43M328.817 1173.15V1143.56M328.817 1143.56L348.616 1129M308.863 1099.87L289.065 1114.43V1085L308.863 1070.43M308.863 1099.87V1070.43M308.863 1099.87L328.817 1114.43M308.863 1070.43L289.065 1055.87M308.863 1070.43L328.817 1055.87M328.817 1114.43V1055.87M328.817 1055.87L308.863 1041.15M328.817 1055.87V1026.28L348.616 1011.71M322.114 1095.88L316.502 1091.74M408.322 1202.28L388.524 1187.72M441.371 1213.17L435.759 1209.03M428.276 982.585L408.322 997.15M428.276 982.585V952.996L408.322 967.561V997.15M428.276 982.585L448.074 997.15M428.276 982.585V953.149M408.322 997.15V967.714M448.074 997.15V938.431M448.074 997.15V938.584M348.616 1129L362.334 1139.12M348.616 1129V1041L368.57 1026.43M388.524 1158.13V1187.72M388.524 1158.13L368.57 1143.56M408.322 1114.13L374.805 1139.12M368.57 1026.43L362.334 1031.03V1139.12M368.57 1026.43L374.805 1031.03V1139.12M368.57 1143.56L374.805 1139.12M368.57 1143.56L362.334 1139.12M362.334 1148.16V1182.35L348.772 1172.54M374.805 1148.16V1182.51L388.524 1172.39M368.57 1232.03V1202.44M308.863 1041.15L289.065 1055.87M289.065 1055.87L269.267 1040.84L249.313 1026.28M348.616 1011.71V982.125M348.616 1011.71L368.57 997.15M348.616 1011.71L368.57 1026.28L388.524 1011.71M408.322 996.844L388.524 982.125M388.524 982.125V1011.71M388.524 982.125L368.57 967.561M368.57 997.15V967.561M368.57 997.15L388.524 1011.71M169.652 1143.56V1173.15M169.652 1143.56L149.854 1158.13M169.652 1143.56V1114.13M169.652 1173.15L189.606 1158.59M189.606 1099.87L169.652 1114.43L149.854 1099.56M189.606 1099.87V1070.43M189.606 1099.87L209.56 1114.43L229.359 1129M189.606 1099.87V1158.59M149.854 1099.56L189.606 1070.43M149.854 1099.56L169.652 1114.13M149.854 1099.56V1041L129.9 1026.43M189.606 1070.43L209.56 1085L229.359 1099.56M189.606 1070.43L169.652 1055.87M189.606 1070.43L209.56 1055.87M159.987 1107.23L181.032 1091.74M229.359 1129V1099.56M229.359 1129L249.313 1114.43M229.359 1129L249.313 1143.56M229.359 1099.56L249.313 1085M289.065 1143.56L269.111 1158.13M269.111 1158.13L249.313 1143.56M289.065 1114.13L269.111 1099.56M269.111 1099.56V1129M269.111 1099.56L249.313 1085M249.313 1114.43V1085M249.313 1114.43L269.111 1129M249.313 1143.56L269.111 1129M189.606 1041.15L169.652 1055.87M189.606 1041.15V1011.71M189.606 1041.15L209.56 1055.87M169.652 1055.87V1026.28M169.652 1026.28L189.606 1011.71M169.652 1026.28L149.854 1040.84M189.606 1011.71L209.56 1026.28M189.606 1011.71L209.56 997.15M209.56 1055.87V1026.28M209.56 1055.87L249.313 1085.15L287.974 1055.72M209.56 1055.87L249.313 1026.28M209.56 1026.28L229.359 1011.71M229.359 1011.71V982.125M229.359 1011.71L249.313 997.15M229.359 1011.71V982.279M229.359 1011.71L249.313 1026.28M70.1934 982.585L50.2393 997.15M70.1934 982.585V952.996M70.1934 982.585L90.1475 997.15M70.1934 982.585L50.2393 997.303M70.1934 982.585V953.149M70.1934 982.585L90.1475 997.303L110.102 982.739M50.2393 997.15L30.441 982.125L70.1934 952.996M50.2393 997.15L70.1934 1011.71L110.102 982.279M70.1934 952.996L110.102 982.279M110.102 982.279V1011.71M110.102 982.279L129.9 967.561M110.102 982.279L70.1934 1011.87L50.2393 997.303M110.102 982.279L70.1934 953.149M300.289 974.46L279.244 989.791M348.772 982.279L308.863 1011.87M348.772 982.279L308.863 953.149M249.313 997.15V967.561M249.313 997.15L269.111 1011.71M229.359 982.279L249.313 967.561M229.359 982.279V1011.87M229.359 982.279L249.313 967.714M249.313 1026.28L269.111 1011.71M70.3493 1158.59L50.3952 1173.15M70.3493 1158.59V1129M70.3493 1158.59L90.1475 1173.15M50.3952 1173.15V1143.72L70.3493 1129M50.3952 1173.15L70.3493 1187.72L90.1475 1173.15M70.3493 1129L90.1475 1143.56M70.3493 1129L90.1475 1114.43M90.1475 1173.15V1143.56M90.1475 1143.56L110.102 1129M70.3493 1099.87L50.3952 1114.43V1085L70.3493 1070.43M70.3493 1099.87V1070.43M70.3493 1099.87L90.1475 1114.43M70.3493 1070.43L50.3952 1055.87M70.3493 1070.43L90.1475 1055.87M90.1475 1114.43V1055.87M90.1475 1055.87L70.3493 1041.15M90.1475 1055.87V1026.28L110.102 1011.71M83.4442 1095.88L77.8321 1091.74M169.652 1202.28L149.854 1187.72M202.857 1213.17L197.245 1209.03M189.606 982.585L169.652 997.15M189.606 982.585V952.996L169.652 967.561V997.15M189.606 982.585L209.56 997.15M189.606 982.585V953.149M169.652 997.15V967.714M209.56 997.15V938.431M209.56 997.15V938.584M110.102 1129L123.664 1139.12M110.102 1129V1041L129.9 1026.43M149.854 1158.13V1187.72M149.854 1158.13L129.9 1143.56M169.652 1114.13L136.136 1139.12M129.9 1026.43L123.664 1031.03V1139.12M129.9 1026.43L136.136 1031.03V1139.12M129.9 1143.56L136.136 1139.12M129.9 1143.56L123.664 1139.12M123.664 1148.16V1182.35L110.102 1172.54M136.136 1148.16V1182.51L149.854 1172.39M129.9 1232.03V1202.44M70.3493 1011.71V1041.15M70.3493 1041.15L50.3952 1055.87M50.3952 1055.87V1026.28M110.102 1011.71V982.125M110.102 1011.71L129.9 997.15M110.102 1011.71L129.9 1026.28L149.854 1011.71M169.652 996.844L149.854 982.125M149.854 982.125V1011.71M149.854 982.125L129.9 967.561M129.9 997.15V967.561M129.9 997.15L149.854 1011.71M-8.99949 1246.44L10.7988 1231.87M-8.99949 1246.44V1216.85L10.7988 1202.28M-8.99949 1246.44V1158.28L10.7988 1143.56M70.5052 1158.59L50.5511 1173.15M70.5052 1158.59V1129M70.5052 1158.59L90.3034 1173.15M50.5511 1173.15V1143.72L70.5052 1129M50.5511 1173.15L70.5052 1187.72L90.3034 1173.15M70.5052 1129L90.3034 1143.56V1173.15M50.5511 1143.56L30.7528 1158.13M30.7528 1158.13V1216.85M30.7528 1158.13L10.7988 1143.56M50.5511 1114.13L30.7528 1099.56M30.7528 1099.56V1129M30.7528 1099.56L10.7988 1085M10.7988 1114.43L-8.99949 1129M10.7988 1114.43V1085M10.7988 1114.43L30.7528 1129M-8.99949 1129V1099.56L10.7988 1085M-8.99949 1129L10.7988 1143.56M10.7988 1143.56L30.7528 1129M10.7988 1231.87V1202.28M10.7988 1231.87L30.7528 1246.44V1216.85M10.7988 1202.28L30.7528 1216.85M-8.99949 1011.71L10.7988 1026.28M10.7988 1026.28L30.7528 1011.71M10.7988 1026.28L30.7528 1040.84L50.5511 1055.87M49.4598 1055.72L10.7988 1085.15M408.322 908.995V938.584M408.322 908.995L388.524 923.56M408.322 908.995V879.559M408.322 938.584L428.276 953.149M408.322 938.584L428.276 924.02M428.276 953.149L448.074 938.584M428.276 953.149L408.322 967.714M448.074 938.584V908.995L468.029 894.43M448.074 938.584L428.276 924.02M428.276 865.301L408.322 879.865L388.524 864.994M428.276 865.301V835.864M428.276 865.301L448.074 879.865L468.029 894.43M428.276 865.301V924.02M388.524 864.994L428.276 835.864M388.524 864.994L408.322 879.559M388.524 864.994V806.428L368.57 791.864M428.276 835.864L448.074 850.429L468.029 864.994M428.276 835.864L408.322 821.3M428.276 835.864L448.074 821.3M398.657 872.66L419.702 857.175M468.029 894.43V864.994M468.029 894.43L487.827 879.865M468.029 894.43L487.827 908.995M468.029 864.994L487.827 850.429M468.029 1011.87L487.827 997.303M468.029 1011.87V923.713L487.827 908.995M527.579 938.584L547.533 924.02V894.43L527.579 909.148V938.584ZM527.579 938.584L547.533 953.149M547.533 953.149L567.487 938.584M547.533 953.149L507.781 982.279M527.579 908.995L507.781 923.56M507.781 923.56V982.279M507.781 923.56L487.827 908.995M527.579 879.559L507.781 864.994M507.781 864.994V894.43M507.781 864.994L487.827 850.429M487.827 879.865V850.429M487.827 879.865L507.781 894.43M487.827 908.995L507.781 894.43M487.827 997.303V967.714M487.827 997.303L507.781 1011.87V982.279M487.827 967.714L507.781 982.279M507.781 982.279L527.579 997.303M428.276 806.582L408.322 821.3M428.276 806.582V777.145M428.276 806.582L448.074 821.3M408.322 821.3V791.71M408.322 791.71L428.276 777.145M408.322 791.71L388.524 806.275M428.276 777.145L448.074 791.71M428.276 777.145L448.074 762.581M448.074 821.3V791.71M448.074 821.3L487.827 850.583L526.488 821.146M448.074 821.3L487.827 791.71M448.074 791.71L468.029 777.145M468.029 777.145V747.556L487.827 732.991M468.029 777.145L487.827 762.581M468.029 777.145V747.709L487.827 732.991M468.029 777.145L487.827 791.71M468.029 777.145V688.99L487.827 674.272M547.533 806.582L527.579 821.3M527.579 821.3L547.533 835.864M527.579 821.3L507.781 806.275L487.827 791.71M527.579 821.3V762.274M547.533 835.864L567.487 821.3M547.533 835.864L527.579 850.429V879.865L547.533 865.301V835.864ZM308.863 748.016L288.909 762.581M308.863 748.016V718.426M308.863 748.016L328.662 762.581L308.863 747.863M308.863 748.016L289.065 762.581M308.863 748.016L328.817 762.581M288.909 762.581L269.111 747.556M288.909 762.581L308.863 777.145M288.909 762.581L269.111 747.709M288.909 762.581L308.863 747.863M269.111 747.556L308.863 718.426M269.111 747.556L289.065 762.581M269.111 747.556L289.065 762.274M269.111 747.556V777.145M269.111 747.556L249.313 732.991M269.111 747.556V688.837M308.863 718.426L269.111 747.709M308.863 718.426L348.616 747.709M308.863 718.426L348.772 747.709L308.863 777.145M308.863 718.426V747.863M308.863 718.426L348.616 747.556M308.863 718.426L289.065 703.862M308.863 718.426L328.817 703.862M308.863 718.426L348.772 747.556L308.863 777.145M348.616 747.709L308.863 777.145M348.616 747.709V777.145M348.616 747.709L368.57 732.991M348.616 747.709V777.299L368.57 762.734M348.616 747.709L368.57 733.145M308.863 777.145V806.582M308.863 777.145L289.065 762.581M308.863 777.145L348.616 747.556M288.909 997.303L269.111 982.279M288.909 997.303L308.863 1011.87M269.111 982.279L308.863 953.149M269.111 982.279V1011.87L249.313 997.303M269.111 982.279L249.313 967.714M269.111 982.279L289.065 997.303M269.111 982.279V923.56M308.863 953.149L289.065 938.584M308.863 953.149L328.817 938.584M308.863 1011.87L289.065 997.303M538.959 974.613L518.381 989.638M527.579 762.581L547.533 748.016V718.426M527.579 762.581L507.781 747.556M527.579 762.581L547.533 777.145M527.579 762.581L507.781 747.709M527.579 762.581L547.533 747.863V718.426M507.781 747.556L547.533 718.426M507.781 747.556L527.579 762.274M507.781 747.556V777.145M507.781 747.556L487.827 732.991M507.781 747.556V688.837M547.533 718.426L507.781 747.709M547.533 718.426L527.579 703.862M547.533 718.426L567.487 703.862M538.959 739.89L517.914 755.222M538.959 739.89L517.914 755.375M538.959 739.89L518.381 754.915M587.441 747.709L547.533 777.145M547.533 777.145L587.441 747.556M527.579 762.274V791.71M527.579 762.274L507.781 747.709M487.827 762.581V732.991M487.827 762.581L507.781 777.145M487.827 732.991L507.781 747.709M487.827 791.71L507.781 777.145M507.781 777.145V747.709M308.863 924.02L289.065 938.584M308.863 924.02V894.43M308.863 924.02L328.817 938.584M289.065 938.584V909.148L308.863 894.43M308.863 894.43L328.817 908.995M308.863 894.43L328.817 879.865M328.817 938.584V908.995M328.817 908.995L348.616 894.43M308.863 865.301L289.065 879.865V850.429L308.863 835.864M308.863 865.301V835.864M308.863 865.301L328.817 879.865M308.863 835.864L289.065 821.3M308.863 835.864L328.817 821.3M328.817 879.865V821.3M328.817 821.3L308.863 806.582M328.817 821.3V791.71L348.616 777.145M322.114 861.314L316.502 857.175M408.322 967.714V997.303M408.322 967.714L388.524 953.149M441.371 978.599L435.759 974.46M428.276 748.016L408.322 762.581M428.276 748.016V718.426M428.276 748.016L448.074 762.581M408.322 762.581V732.991M408.322 762.581V733.145L428.276 718.426M408.322 732.991L428.276 718.426M408.322 732.991V762.427L428.276 747.863V718.426M408.322 732.991L388.524 718.426M428.276 718.426L408.322 703.862M428.276 718.426L448.074 703.862M448.074 762.581V703.862M448.074 703.862V674.272L468.029 659.707M448.074 703.862V762.427M448.074 703.862L428.276 689.297M348.616 894.43L362.334 904.549M348.616 894.43V806.428L368.57 791.864M388.524 923.56V953.149M388.524 923.56L368.57 908.995M408.322 879.559L374.805 904.549M388.524 953.149L368.57 967.714L348.616 953.149V923.713L368.57 908.995M368.57 791.864L362.334 796.463V904.549M368.57 791.864L374.805 796.463V904.549M368.57 908.995L374.805 904.549M368.57 908.995L362.334 904.549M362.334 913.594V947.783L348.772 937.971M374.805 913.594V947.937L388.524 937.818M368.57 997.457L348.616 1012.02V982.432L368.57 967.867M368.57 997.457V967.867M368.57 997.457L388.524 1012.02V982.432L368.57 967.867M308.863 806.582L289.065 821.3M289.065 821.3L269.267 806.275L249.313 791.71M289.065 821.3V762.274M348.616 777.145V747.556M348.616 777.145L368.57 762.581M348.616 777.145L368.57 791.71L388.524 777.145M388.524 747.556L408.322 762.274L388.524 747.709M388.524 747.556V777.145M388.524 747.556L368.57 732.991M368.57 762.581V732.991M368.57 762.581L388.524 777.145M368.57 732.991L388.524 747.709M368.57 732.991L388.524 718.426M368.57 732.991L348.616 718.426V688.99L368.57 674.272M388.524 777.145V747.709M169.652 908.995V938.584M169.652 908.995L149.854 923.56M169.652 908.995V879.559M169.652 938.584L189.606 953.149M169.652 938.584L189.606 924.02M189.606 953.149L209.56 938.584M189.606 953.149L169.652 967.714M209.56 938.584V908.995L229.359 894.43M209.56 938.584L189.606 924.02M189.606 865.301L169.652 879.865L149.854 864.994M189.606 865.301V835.864M189.606 865.301L209.56 879.865L229.359 894.43M189.606 865.301V924.02M149.854 864.994L189.606 835.864M149.854 864.994L169.652 879.559M149.854 864.994V806.428L129.9 791.864M189.606 835.864L209.56 850.429L229.359 864.994M189.606 835.864L169.652 821.3M189.606 835.864L209.56 821.3M159.987 872.66L181.032 857.175M229.359 894.43V864.994M229.359 894.43L249.313 879.865M229.359 894.43L249.313 908.995M229.359 864.994L249.313 850.429M229.359 1011.87L249.313 997.303M229.359 1011.87V923.713L249.313 908.995M289.065 908.995L269.111 923.56M269.111 923.56L249.313 908.995M289.065 879.559L269.111 864.994M269.111 864.994V894.43M269.111 864.994L249.313 850.429M249.313 879.865V850.429M249.313 879.865L269.111 894.43M249.313 908.995L269.111 894.43M249.313 997.303V967.714M189.606 806.582L169.652 821.3M189.606 806.582V777.145M189.606 806.582L209.56 821.3M169.652 821.3V791.71M169.652 791.71L189.606 777.145M169.652 791.71L149.854 806.275M189.606 777.145L209.56 791.71M189.606 777.145L209.56 762.581M209.56 821.3V791.71M209.56 821.3L249.313 850.583L287.974 821.146M209.56 821.3L249.313 791.71M209.56 791.71L229.359 777.145M229.359 777.145V747.556L249.313 732.991M229.359 777.145L249.313 762.581M229.359 777.145V747.709L249.313 732.991M229.359 777.145L249.313 791.71M229.359 777.145V688.99L249.313 674.272M70.1934 748.016L50.2393 762.581M70.1934 748.016V718.426M70.1934 748.016L90.1475 762.581M50.2393 762.581L30.441 747.556L70.1934 718.426M50.2393 762.581L70.1934 777.145M50.2393 762.581L30.441 747.709L70.1934 718.426M50.2393 762.581L70.1934 747.863M70.1934 718.426L110.102 747.709M70.1934 718.426V747.863M70.1934 718.426L110.102 747.556M110.102 747.709L70.1934 777.145M110.102 747.709V777.145M110.102 747.709L129.9 732.991M110.102 747.709V777.299L129.9 762.734M110.102 747.709L129.9 733.145M70.1934 777.145L110.102 747.556M90.1475 762.581L70.1934 747.863M90.1475 762.581L110.102 748.016M50.2393 997.303L30.441 982.279L70.1934 953.149M300.289 974.613L279.867 989.638M289.065 762.581L269.111 747.709M289.065 762.581L308.863 747.863M300.289 739.89L279.244 755.222M300.289 739.89L279.244 755.375M300.289 739.89L279.867 754.915M328.817 762.581L348.616 748.016M328.817 762.581L308.863 747.863M289.065 762.274V791.71M289.065 762.274L269.111 747.709M249.313 762.581V732.991M249.313 762.581L269.111 777.145M249.313 732.991L269.111 747.709M249.313 791.71L269.111 777.145M269.111 777.145V747.709M70.3493 924.02L50.3952 938.584M70.3493 924.02V894.43M70.3493 924.02L90.1475 938.584M50.3952 938.584V909.148L70.3493 894.43M50.3952 938.584L70.3493 953.149L90.1475 938.584M70.3493 894.43L90.1475 908.995M70.3493 894.43L90.1475 879.865M90.1475 938.584V908.995M90.1475 908.995L110.102 894.43M70.3493 865.301L50.3952 879.865V850.429L70.3493 835.864M70.3493 865.301V835.864M70.3493 865.301L90.1475 879.865M70.3493 835.864L50.3952 821.3M70.3493 835.864L90.1475 821.3M90.1475 879.865V821.3M90.1475 821.3L70.3493 806.582M90.1475 821.3V791.71L110.102 777.145M83.4442 861.314L77.8321 857.175M169.652 967.714V997.303M169.652 967.714L149.854 953.149M202.857 978.599L197.245 974.46M189.606 748.016L169.652 762.581M189.606 748.016V718.426M189.606 748.016L209.56 762.581M169.652 762.581V732.991M169.652 762.581V733.145L189.606 718.426M169.652 732.991L189.606 718.426M169.652 732.991V762.427L189.606 747.863V718.426M169.652 732.991L149.854 718.426M189.606 718.426L169.652 703.862M189.606 718.426L209.56 703.862M209.56 762.581V703.862M209.56 703.862V674.272L229.359 659.707M209.56 703.862V762.427M209.56 703.862L189.606 689.297M110.102 894.43L123.664 904.549M110.102 894.43V806.428L129.9 791.864M149.854 923.56V953.149M149.854 923.56L129.9 908.995M169.652 879.559L136.136 904.549M149.854 953.149L129.9 967.714L110.102 953.149V923.713L129.9 908.995M129.9 791.864L123.664 796.463V904.549M129.9 791.864L136.136 796.463V904.549M129.9 908.995L136.136 904.549M129.9 908.995L123.664 904.549M123.664 913.594V947.783L110.102 937.971M136.136 913.594V947.937L149.854 937.818M129.9 997.457L110.102 1012.02V982.432L129.9 967.867M129.9 997.457V967.867M129.9 997.457L149.854 1012.02V982.432L129.9 967.867M70.3493 777.145V806.582M70.3493 806.582L50.3952 821.3M50.3952 821.3V791.71M110.102 777.145V747.556M110.102 777.145L129.9 762.581M110.102 777.145L129.9 791.71L149.854 777.145M149.854 747.556L169.652 762.274L149.854 747.709M149.854 747.556V777.145M149.854 747.556L129.9 732.991M129.9 762.581V732.991M129.9 762.581L149.854 777.145M129.9 732.991L149.854 747.709M129.9 732.991L149.854 718.426M129.9 732.991L110.102 718.426V688.99L129.9 674.272M149.854 777.145V747.709M-8.99949 1011.87L10.7988 997.303M-8.99949 1011.87V982.279L10.7988 967.714M-8.99949 1011.87V923.713L10.7988 908.995M70.5052 924.02L50.5511 938.584M70.5052 924.02V894.43M70.5052 924.02L90.3034 938.584M50.5511 938.584V909.148L70.5052 894.43M50.5511 938.584L70.5052 953.149L90.3034 938.584M70.5052 894.43L90.3034 908.995V938.584M50.5511 908.995L30.7528 923.56M30.7528 923.56V982.279M30.7528 923.56L10.7988 908.995M50.5511 879.559L30.7528 864.994M30.7528 864.994V894.43M30.7528 864.994L10.7988 850.429M10.7988 879.865L-8.99949 894.43M10.7988 879.865V850.429M10.7988 879.865L30.7528 894.43M-8.99949 894.43V864.994L10.7988 850.429M-8.99949 894.43L10.7988 908.995M10.7988 908.995L30.7528 894.43M10.7988 997.303V967.714M10.7988 997.303L30.7528 1011.87V982.279M10.7988 967.714L30.7528 982.279M-8.99949 777.145L10.7988 791.71M-8.99949 777.145L10.7988 762.581M-8.99949 777.145V747.556L10.7988 732.991M-8.99949 777.145V688.99L10.7988 674.272M10.7988 791.71L30.7528 777.145M10.7988 791.71L30.7528 806.275L50.5511 821.3M30.7528 777.145L10.7988 762.581M30.7528 777.145V747.556M49.4598 821.146L10.7988 850.583M388.524 747.709V777.299L368.57 762.734M388.524 747.709L368.57 733.145M149.854 747.709V777.299L129.9 762.734M149.854 747.709L129.9 733.145M408.322 674.272V703.862M408.322 674.272L388.524 688.837M408.322 674.272V644.836M408.322 703.862L428.276 689.297M428.276 630.578L408.322 645.143L388.524 630.271M428.276 630.578V601.142M428.276 630.578L448.074 645.143L468.029 659.707M428.276 630.578V689.297M388.524 630.271L428.276 601.142M388.524 630.271L408.322 644.836M388.524 630.271V571.706L368.57 557.141M428.276 601.142L448.074 615.707L468.029 630.271M428.276 601.142L408.322 586.577M428.276 601.142L448.074 586.577M398.657 637.937L419.702 622.452M468.029 659.707V630.271M468.029 659.707L487.827 645.143M468.029 659.707L487.827 674.272M468.029 630.271L487.827 615.707M527.579 703.862L547.533 689.297V659.707L527.579 674.426V703.862ZM527.579 674.272L507.781 688.837M507.781 688.837L487.827 674.272M527.579 644.836L507.781 630.271M507.781 630.271V659.707M507.781 630.271L487.827 615.707M487.827 645.143V615.707M487.827 645.143L507.781 659.707M487.827 674.272L507.781 659.707M428.276 571.859L408.322 586.577M428.276 571.859V542.423M428.276 571.859L448.074 586.577M408.322 586.577V556.987M408.322 556.987L428.276 542.423M408.322 556.987L388.524 571.552M428.276 542.423L448.074 556.987M428.276 542.423L448.074 527.858M448.074 586.577V556.987M448.074 586.577L487.827 615.86L526.488 586.424M448.074 586.577L487.827 556.987M448.074 556.987L468.029 542.423M468.029 542.423V512.833M468.029 542.423L487.827 527.858M468.029 542.423V512.987M468.029 542.423L487.827 556.987M547.533 571.859L527.579 586.577M527.579 586.577L547.533 601.142M527.579 586.577L507.781 571.552L487.827 556.987M527.579 586.577V527.551L507.781 512.833M547.533 601.142L567.487 586.577M547.533 601.142L527.579 615.707V645.143L547.533 630.578V601.142ZM308.863 513.293L288.909 527.858M308.863 513.293V483.704M308.863 513.293L328.662 527.858M308.863 513.293L289.065 527.858M308.863 513.293L328.817 527.858M308.863 513.293L288.909 528.011M308.863 513.293V483.857M308.863 513.293L328.662 528.011L308.863 513.446M308.863 513.293L289.065 528.011M308.863 513.293L328.817 528.011M288.909 527.858L269.111 512.833M288.909 527.858L308.863 542.423M269.111 512.833L308.863 483.704M269.111 512.833L289.065 527.858M269.111 512.833L289.065 527.551V586.577M269.111 512.833V542.423M269.111 512.833L249.313 498.268M308.863 483.704L348.616 512.987M308.863 483.704L348.772 512.987M348.616 512.987L308.863 542.423M348.616 512.987V542.423M348.616 512.987L368.57 498.268M348.616 512.987L308.863 542.576M348.616 512.987L308.863 483.857M308.863 542.423V571.859M308.863 542.423L348.772 512.987M308.863 542.423L289.065 527.858M547.533 513.293L527.579 527.858M547.533 513.293V483.704L507.781 512.833M547.533 513.293L527.579 528.011M547.533 513.293V483.857M527.579 527.858L507.781 512.833M527.579 527.858L547.533 542.423L587.441 512.987L547.533 542.576M507.781 512.833V542.423M507.781 512.833L487.827 498.268M538.959 505.168L517.914 520.499M487.827 527.858V498.268M487.827 527.858L507.781 542.423M468.029 512.987L487.827 498.268M468.029 512.987V542.576M468.029 512.987L487.827 498.422M487.827 556.987L507.781 542.423M308.863 689.297L289.065 703.862M308.863 689.297V659.707M308.863 689.297L328.817 703.862M289.065 703.862V674.426L308.863 659.707M308.863 659.707L328.817 674.272M308.863 659.707L328.817 645.143M328.817 703.862V674.272M328.817 674.272L348.616 659.707M308.863 630.578L289.065 645.143V615.707L308.863 601.142M308.863 630.578V601.142M308.863 630.578L328.817 645.143M308.863 601.142L289.065 586.577M308.863 601.142L328.817 586.577M328.817 645.143V586.577M328.817 586.577L308.863 571.859M328.817 586.577V556.987L348.616 542.423M322.114 626.592L316.502 622.452M441.371 743.876L435.759 739.737M428.276 513.293L408.322 527.858M428.276 513.293V483.704L408.322 498.268V527.858M428.276 513.293L448.074 527.858M428.276 513.293V483.857M408.322 527.858V498.422M448.074 527.858V469.139M448.074 527.858V469.292M348.616 659.707L362.334 669.826M348.616 659.707V571.706L368.57 557.141M388.524 688.837V718.426M388.524 688.837L368.57 674.272M408.322 644.836L374.805 669.826M368.57 557.141L362.334 561.74V669.826M368.57 557.141L374.805 561.74V669.826M368.57 674.272L374.805 669.826M368.57 674.272L362.334 669.826M362.334 678.872V713.06L348.772 703.248M374.805 678.872V713.214L388.524 703.095M368.57 762.734V733.145M308.863 571.859L289.065 586.577M289.065 586.577L269.267 571.552L249.313 556.987M348.616 542.423V512.833M348.616 542.423L368.57 527.858M348.616 542.423L368.57 556.987L388.524 542.423M408.322 527.551L388.524 512.833M388.524 512.833V542.423M388.524 512.833L368.57 498.268M368.57 527.858V498.268M368.57 527.858L388.524 542.423M169.652 674.272V703.862M169.652 674.272L149.854 688.837M169.652 674.272V644.836M169.652 703.862L189.606 689.297M189.606 630.578L169.652 645.143L149.854 630.271M189.606 630.578V601.142M189.606 630.578L209.56 645.143L229.359 659.707M189.606 630.578V689.297M149.854 630.271L189.606 601.142M149.854 630.271L169.652 644.836M149.854 630.271V571.706L129.9 557.141M189.606 601.142L209.56 615.707L229.359 630.271M189.606 601.142L169.652 586.577M189.606 601.142L209.56 586.577M159.987 637.937L181.032 622.452M229.359 659.707V630.271M229.359 659.707L249.313 645.143M229.359 659.707L249.313 674.272M229.359 630.271L249.313 615.707M289.065 674.272L269.111 688.837M269.111 688.837L249.313 674.272M289.065 644.836L269.111 630.271M269.111 630.271V659.707M269.111 630.271L249.313 615.707M249.313 645.143V615.707M249.313 645.143L269.111 659.707M249.313 674.272L269.111 659.707M189.606 571.859L169.652 586.577M189.606 571.859V542.423M189.606 571.859L209.56 586.577M169.652 586.577V556.987M169.652 556.987L189.606 542.423M169.652 556.987L149.854 571.552M189.606 542.423L209.56 556.987M189.606 542.423L209.56 527.858M209.56 586.577V556.987M209.56 586.577L249.313 615.86L287.974 586.424M209.56 586.577L249.313 556.987M209.56 556.987L229.359 542.423M229.359 542.423V512.833M229.359 542.423L249.313 527.858M229.359 542.423V512.987M229.359 542.423L249.313 556.987M70.1934 513.293L50.2393 527.858M70.1934 513.293V483.704M70.1934 513.293L90.1475 527.858M70.1934 513.293L50.2393 528.011M70.1934 513.293V483.857M70.1934 513.293L90.1475 528.011M50.2393 527.858L30.441 512.833L70.1934 483.704M50.2393 527.858L70.1934 542.423L110.102 512.987M70.1934 483.704L110.102 512.987M110.102 512.987V542.423M110.102 512.987L129.9 498.268M110.102 512.987L70.1934 542.576M110.102 512.987L70.1934 483.857M300.289 505.168L279.244 520.499M348.772 512.987L308.863 542.576M348.772 512.987L308.863 483.857M249.313 527.858V498.268M249.313 527.858L269.111 542.423M229.359 512.987L249.313 498.268M229.359 512.987V542.576M229.359 512.987L249.313 498.422M249.313 556.987L269.111 542.423M70.3493 689.297L50.3952 703.862M70.3493 689.297V659.707M70.3493 689.297L90.1475 703.862M50.3952 703.862V674.426L70.3493 659.707M50.3952 703.862L70.3493 718.426L90.1475 703.862M70.3493 659.707L90.1475 674.272M70.3493 659.707L90.1475 645.143M90.1475 703.862V674.272M90.1475 674.272L110.102 659.707M70.3493 630.578L50.3952 645.143V615.707L70.3493 601.142M70.3493 630.578V601.142M70.3493 630.578L90.1475 645.143M70.3493 601.142L50.3952 586.577M70.3493 601.142L90.1475 586.577M90.1475 645.143V586.577M90.1475 586.577L70.3493 571.859M90.1475 586.577V556.987L110.102 542.423M83.4442 626.592L77.8321 622.452M202.857 743.876L197.245 739.737M189.606 513.293L169.652 527.858M189.606 513.293V483.704L169.652 498.268V527.858M189.606 513.293L209.56 527.858M189.606 513.293V483.857M169.652 527.858V498.422M209.56 527.858V469.139M209.56 527.858V469.292M110.102 659.707L123.664 669.826M110.102 659.707V571.706L129.9 557.141M149.854 688.837V718.426M149.854 688.837L129.9 674.272M169.652 644.836L136.136 669.826M129.9 557.141L123.664 561.74V669.826M129.9 557.141L136.136 561.74V669.826M129.9 674.272L136.136 669.826M129.9 674.272L123.664 669.826M123.664 678.872V713.06L110.102 703.248M136.136 678.872V713.214L149.854 703.095M129.9 762.734V733.145M70.3493 542.423V571.859M70.3493 571.859L50.3952 586.577M50.3952 586.577V556.987M110.102 542.423V512.833M110.102 542.423L129.9 527.858M110.102 542.423L129.9 556.987L149.854 542.423M169.652 527.551L149.854 512.833M149.854 512.833V542.423M149.854 512.833L129.9 498.268M129.9 527.858V498.268M129.9 527.858L149.854 542.423M70.5052 689.297L50.5511 703.862M70.5052 689.297V659.707M70.5052 689.297L90.3034 703.862M50.5511 703.862V674.426L70.5052 659.707M50.5511 703.862L70.5052 718.426L90.3034 703.862M70.5052 659.707L90.3034 674.272V703.862M50.5511 674.272L30.7528 688.837M30.7528 688.837V747.556M30.7528 688.837L10.7988 674.272M50.5511 644.836L30.7528 630.271M30.7528 630.271V659.707M30.7528 630.271L10.7988 615.707M10.7988 645.143L-8.99949 659.707M10.7988 645.143V615.707M10.7988 645.143L30.7528 659.707M-8.99949 659.707V630.271L10.7988 615.707M-8.99949 659.707L10.7988 674.272M10.7988 674.272L30.7528 659.707M10.7988 762.581V732.991M10.7988 732.991L30.7528 747.556M-8.99949 542.423L10.7988 556.987M10.7988 556.987L30.7528 542.423M10.7988 556.987L30.7528 571.552L50.5511 586.577M49.4598 586.424L10.7988 615.86M408.322 439.703V469.292M408.322 439.703L388.524 454.268M408.322 439.703V410.267M408.322 469.292L428.276 483.857M408.322 469.292L428.276 454.727M428.276 483.857L448.074 469.292M428.276 483.857L408.322 498.422M428.276 483.857L408.322 498.575V528.011M428.276 483.857V513.446M448.074 469.292V439.703L468.029 425.138M448.074 469.292L428.276 454.727M448.074 469.292V528.011L428.276 513.446M428.276 396.008L408.322 410.573L388.524 395.702M428.276 396.008V366.572M428.276 396.008L448.074 410.573L468.029 425.138M428.276 396.008V454.727M388.524 395.702L428.276 366.572M388.524 395.702L408.322 410.267M388.524 395.702V337.136L368.57 322.571M428.276 366.572L448.074 381.137L468.029 395.702M428.276 366.572L408.322 352.007M428.276 366.572L448.074 352.007M398.657 403.367L419.702 387.883M468.029 425.138V395.702M468.029 425.138L487.827 410.573M468.029 425.138L487.827 439.703M468.029 395.702L487.827 381.137M468.029 542.576L487.827 528.011M468.029 542.576V454.421L487.827 439.703M468.029 542.576V513.14L487.827 498.422M527.579 469.292L547.533 454.727V425.138L527.579 439.856V469.292ZM527.579 469.292L547.533 483.857M547.533 483.857L567.487 469.292M547.533 483.857L507.781 512.987M547.533 483.857L507.781 513.14M547.533 483.857V513.446L527.579 528.011M527.579 439.703L507.781 454.268M507.781 454.268V512.987M507.781 454.268L487.827 439.703M527.579 410.267L507.781 395.702M507.781 395.702V425.138M507.781 395.702L487.827 381.137M487.827 410.573V381.137M487.827 410.573L507.781 425.138M487.827 439.703L507.781 425.138M487.827 528.011V498.422M487.827 528.011L507.781 542.576M487.827 498.422L507.781 512.987M487.827 498.422L507.781 513.14M507.781 542.576V512.987M507.781 542.576V513.14M507.781 512.987L527.579 528.011M428.276 337.289L408.322 352.007M428.276 337.289V307.853M428.276 337.289L448.074 352.007M408.322 352.007V322.418M408.322 322.418L428.276 307.853M408.322 322.418L388.524 336.983M428.276 307.853L448.074 322.418M428.276 307.853L448.074 293.288M448.074 352.007V322.418M448.074 352.007L487.827 381.29L526.488 351.854M448.074 352.007L487.827 322.418M448.074 322.418L468.029 307.853M468.029 307.853V278.264M468.029 307.853L487.827 293.288M468.029 307.853V278.417M468.029 307.853L487.827 322.418M547.533 337.289L527.579 352.007M527.579 352.007L547.533 366.572M527.579 352.007L507.781 336.983L487.827 322.418M527.579 352.007V292.982L507.781 278.264M547.533 366.572L567.487 352.007M547.533 366.572L527.579 381.137V410.573L547.533 396.008V366.572ZM308.863 278.724L288.909 293.288M308.863 278.724V249.134M308.863 278.724L328.662 293.288M308.863 278.724L289.065 293.288M308.863 278.724L328.817 293.288M308.863 278.724L288.909 293.442M308.863 278.724V249.288M308.863 278.724L328.662 293.442M308.863 278.724L289.065 293.442M308.863 278.724L328.817 293.442L348.616 278.877M288.909 293.288L269.111 278.264M288.909 293.288L308.863 307.853M269.111 278.264L308.863 249.134M269.111 278.264L289.065 293.288M269.111 278.264L289.065 292.982V352.007M269.111 278.264V307.853M269.111 278.264L249.313 263.699M308.863 249.134L348.616 278.417M308.863 249.134L348.772 278.417M348.616 278.417L308.863 307.853M348.616 278.417V307.853M348.616 278.417L368.57 263.699M348.616 278.417L308.863 308.007M348.616 278.417L308.863 249.288M308.863 307.853V337.289M308.863 307.853L348.772 278.417M308.863 307.853L289.065 293.288M288.909 528.011L269.111 512.987M288.909 528.011L308.863 542.576M288.909 528.011L308.863 513.446M288.909 528.011L269.111 513.14M269.111 512.987L308.863 483.857M269.111 512.987V542.576M269.111 512.987L249.313 498.422M269.111 512.987L289.065 528.011M269.111 512.987V454.268M308.863 483.857L289.065 469.292M308.863 483.857L328.817 469.292M308.863 483.857L269.111 513.14M308.863 483.857V513.446M308.863 483.857L348.616 513.14M308.863 483.857L348.772 513.14L308.863 542.576M308.863 542.576L289.065 528.011M308.863 542.576L348.616 513.14M527.579 528.011L547.533 542.576M527.579 528.011L507.781 513.14M518.381 520.346L538.959 505.321L517.914 520.806M547.533 542.576L587.441 513.14M547.533 278.724L527.579 293.288M547.533 278.724V249.134L507.781 278.264M547.533 278.724L527.579 293.442M547.533 278.724V249.288M527.579 293.288L507.781 278.264M527.579 293.288L547.533 307.853L587.441 278.417L547.533 308.007L527.579 293.442M507.781 278.264V307.853M507.781 278.264L487.827 263.699M538.959 270.598L517.914 285.929M487.827 293.288V263.699M487.827 293.288L507.781 307.853M468.029 278.417L487.827 263.699M468.029 278.417V308.007M468.029 278.417L487.827 263.852M487.827 322.418L507.781 307.853M308.863 454.727L289.065 469.292M308.863 454.727V425.138M308.863 454.727L328.817 469.292M289.065 469.292V439.856L308.863 425.138M308.863 425.138L328.817 439.703M308.863 425.138L328.817 410.573M328.817 469.292V439.703M328.817 439.703L348.616 425.138M308.863 396.008L289.065 410.573V381.137L308.863 366.572M308.863 396.008V366.572M308.863 396.008L328.817 410.573M308.863 366.572L289.065 352.007M308.863 366.572L328.817 352.007M328.817 410.573V352.007M328.817 352.007L308.863 337.289M328.817 352.007V322.418L348.616 307.853M322.114 392.022L316.502 387.883M408.322 498.422V528.011M408.322 498.422L388.524 483.857M441.371 509.307L435.759 505.168M428.276 278.724L408.322 293.288M428.276 278.724V249.134L408.322 263.699V293.288M428.276 278.724L448.074 293.288M428.276 278.724V249.288M408.322 293.288V263.852M448.074 293.288V234.569M448.074 293.288V234.723M348.616 425.138L362.334 435.257M348.616 425.138V337.136L368.57 322.571M348.616 513.446L328.817 528.011M328.817 528.011L308.863 513.446M388.524 454.268V483.857M388.524 454.268L368.57 439.703M408.322 410.267L374.805 435.257M408.322 528.011L428.276 513.446M388.524 483.857L368.57 498.422M368.57 322.571L362.334 327.171V435.257M368.57 322.571L374.805 327.171V435.257M368.57 439.703L348.616 454.421V483.857L368.57 498.422M368.57 439.703L374.805 435.257M368.57 439.703L362.334 435.257M368.57 498.422L348.616 513.14M368.57 498.422V528.011M368.57 498.422L388.524 513.14M362.334 444.302V478.491L348.772 468.679M374.805 444.302V478.644L388.524 468.526M368.57 528.165L348.616 542.729V513.14M368.57 528.165V498.575M368.57 528.165L388.524 542.729V513.14M348.616 513.14L368.57 498.575M348.616 513.14V542.576L368.57 528.011M368.57 498.575L388.524 513.14M388.524 513.14L408.322 527.705M388.524 513.14V542.576L368.57 528.011M308.863 337.289L289.065 352.007M289.065 352.007L269.267 336.983L249.313 322.418M348.616 307.853V278.264M348.616 307.853L368.57 293.288M348.616 307.853L368.57 322.418L388.524 307.853M408.322 292.982L388.524 278.264M388.524 278.264V307.853M388.524 278.264L368.57 263.699M368.57 293.288V263.699M368.57 293.288L388.524 307.853M169.652 439.703V469.292M169.652 439.703L149.854 454.268M169.652 439.703V410.267M169.652 469.292L189.606 483.857M169.652 469.292L189.606 454.727M189.606 483.857L209.56 469.292M189.606 483.857L169.652 498.422M189.606 483.857L169.652 498.575V528.011M189.606 483.857V513.446M209.56 469.292V439.703L229.359 425.138M209.56 469.292L189.606 454.727M209.56 469.292V528.011L189.606 513.446M189.606 396.008L169.652 410.573L149.854 395.702M189.606 396.008V366.572M189.606 396.008L209.56 410.573L229.359 425.138M189.606 396.008V454.727M149.854 395.702L189.606 366.572M149.854 395.702L169.652 410.267M149.854 395.702V337.136L129.9 322.571M189.606 366.572L209.56 381.137L229.359 395.702M189.606 366.572L169.652 352.007M189.606 366.572L209.56 352.007M159.987 403.367L181.032 387.883M229.359 425.138V395.702M229.359 425.138L249.313 410.573M229.359 425.138L249.313 439.703M229.359 395.702L249.313 381.137M229.359 542.576L249.313 528.011M229.359 542.576V454.421L249.313 439.703M229.359 542.576V513.14L249.313 498.422M289.065 439.703L269.111 454.268M269.111 454.268L249.313 439.703M289.065 410.267L269.111 395.702M269.111 395.702V425.138M269.111 395.702L249.313 381.137M249.313 410.573V381.137M249.313 410.573L269.111 425.138M249.313 439.703L269.111 425.138M249.313 528.011V498.422M249.313 528.011L269.111 542.576M249.313 498.422L269.111 513.14M269.111 542.576V513.14M189.606 337.289L169.652 352.007M189.606 337.289V307.853M189.606 337.289L209.56 352.007M169.652 352.007V322.418M169.652 322.418L189.606 307.853M169.652 322.418L149.854 336.983M189.606 307.853L209.56 322.418M189.606 307.853L209.56 293.288M209.56 352.007V322.418M209.56 352.007L249.313 381.29L287.974 351.854M209.56 352.007L249.313 322.418M209.56 322.418L229.359 307.853M229.359 307.853V278.264M229.359 307.853L249.313 293.288M229.359 307.853V278.417M229.359 307.853L249.313 322.418M70.1934 278.724L50.2393 293.288M70.1934 278.724V249.134M70.1934 278.724L90.1475 293.288M70.1934 278.724L50.2393 293.442M70.1934 278.724V249.288M70.1934 278.724L90.1475 293.442L110.102 278.877M50.2393 293.288L30.441 278.264L70.1934 249.134M50.2393 293.288L70.1934 307.853L110.102 278.417M70.1934 249.134L110.102 278.417M110.102 278.417V307.853M110.102 278.417L129.9 263.699M110.102 278.417L70.1934 308.007L50.2393 293.442M110.102 278.417L70.1934 249.288M50.2393 528.011L30.441 512.987L70.1934 483.857M50.2393 528.011L70.1934 542.576M50.2393 528.011L70.1934 513.446M50.2393 528.011L30.441 513.14L70.1934 483.857M70.1934 483.857V513.446M70.1934 483.857L110.102 513.14M70.1934 542.576L110.102 513.14M90.1475 528.011L110.102 513.446M90.1475 528.011L70.1934 513.446M289.065 528.011L308.863 513.446M289.065 528.011L269.111 513.14M279.867 520.346L300.289 505.321L279.244 520.806M300.289 270.598L279.244 285.929M348.772 278.417L308.863 308.007M348.772 278.417L308.863 249.288M249.313 293.288V263.699M249.313 293.288L269.111 307.853M229.359 278.417L249.313 263.699M229.359 278.417V308.007M229.359 278.417L249.313 263.852M249.313 322.418L269.111 307.853M70.3493 454.727L50.3952 469.292M70.3493 454.727V425.138M70.3493 454.727L90.1475 469.292M50.3952 469.292V439.856L70.3493 425.138M50.3952 469.292L70.3493 483.857L90.1475 469.292M70.3493 425.138L90.1475 439.703M70.3493 425.138L90.1475 410.573M90.1475 469.292V439.703M90.1475 439.703L110.102 425.138M70.3493 396.008L50.3952 410.573V381.137L70.3493 366.572M70.3493 396.008V366.572M70.3493 396.008L90.1475 410.573M70.3493 366.572L50.3952 352.007M70.3493 366.572L90.1475 352.007M90.1475 410.573V352.007M90.1475 352.007L70.3493 337.289M90.1475 352.007V322.418L110.102 307.853M83.4442 392.022L77.8321 387.883M169.652 498.422V528.011M169.652 498.422L149.854 483.857M202.857 509.307L197.245 505.168M189.606 278.724L169.652 293.288M189.606 278.724V249.134L169.652 263.699V293.288M189.606 278.724L209.56 293.288M189.606 278.724V249.288M169.652 293.288V263.852M209.56 293.288V234.569M209.56 293.288V234.723M110.102 425.138L123.664 435.257M110.102 425.138V337.136L129.9 322.571M149.854 454.268V483.857M149.854 454.268L129.9 439.703M169.652 410.267L136.136 435.257M169.652 528.011L189.606 513.446M149.854 483.857L129.9 498.422M129.9 322.571L123.664 327.171V435.257M129.9 322.571L136.136 327.171V435.257M129.9 439.703L110.102 454.421V483.857L129.9 498.422M129.9 439.703L136.136 435.257M129.9 439.703L123.664 435.257M129.9 498.422L110.102 513.14M129.9 498.422V528.011M129.9 498.422L149.854 513.14M123.664 444.302V478.491L110.102 468.679M136.136 444.302V478.644L149.854 468.526M129.9 528.165L110.102 542.729V513.14M129.9 528.165V498.575M129.9 528.165L149.854 542.729V513.14M110.102 513.14L129.9 498.575M110.102 513.14V542.576L129.9 528.011M129.9 498.575L149.854 513.14M149.854 513.14L169.652 527.705M149.854 513.14V542.576L129.9 528.011M70.3493 307.853V337.289M70.3493 337.289L50.3952 352.007M50.3952 352.007V322.418M110.102 307.853V278.264M110.102 307.853L129.9 293.288M110.102 307.853L129.9 322.418L149.854 307.853M169.652 292.982L149.854 278.264M149.854 278.264V307.853M149.854 278.264L129.9 263.699M129.9 293.288V263.699M129.9 293.288L149.854 307.853M-8.99949 542.576L10.7988 528.011M-8.99949 542.576V512.987L10.7988 498.422M-8.99949 542.576V454.421L10.7988 439.703M70.5052 454.727L50.5511 469.292M70.5052 454.727V425.138M70.5052 454.727L90.3034 469.292M50.5511 469.292V439.856L70.5052 425.138M50.5511 469.292L70.5052 483.857L90.3034 469.292M70.5052 425.138L90.3034 439.703V469.292M50.5511 439.703L30.7528 454.268M30.7528 454.268V512.987M30.7528 454.268L10.7988 439.703M50.5511 410.267L30.7528 395.702M30.7528 395.702V425.138M30.7528 395.702L10.7988 381.137M10.7988 410.573L-8.99949 425.138M10.7988 410.573V381.137M10.7988 410.573L30.7528 425.138M-8.99949 425.138V395.702L10.7988 381.137M-8.99949 425.138L10.7988 439.703M10.7988 439.703L30.7528 425.138M10.7988 528.011V498.422M10.7988 528.011L30.7528 542.576V512.987M10.7988 498.422L30.7528 512.987M-8.99949 307.853L10.7988 322.418M10.7988 322.418L30.7528 307.853M10.7988 322.418L30.7528 336.983L50.5511 352.007M49.4598 351.854L10.7988 381.29M269.111 513.14L289.065 527.705V557.141M507.781 513.14L527.579 527.705V557.141M408.322 205.133V234.723M408.322 205.133L388.524 219.698M408.322 205.133V175.697M408.322 234.723L428.276 249.288M408.322 234.723L428.276 220.158M428.276 249.288L448.074 234.723M428.276 249.288L408.322 263.852M448.074 234.723V205.133L468.029 190.569M448.074 234.723L428.276 220.158M428.276 161.439L408.322 176.004L388.524 161.132M428.276 161.439V132.003M428.276 161.439L448.074 176.004L468.029 190.569M428.276 161.439V220.158M388.524 161.132L428.276 132.003M388.524 161.132L408.322 175.697M388.524 161.132V102.567L368.57 88.0019M428.276 132.003L448.074 146.568L468.029 161.132M428.276 132.003L408.322 117.438M428.276 132.003L448.074 117.438M398.657 168.798L419.702 153.313M468.029 190.569V161.132M468.029 190.569L487.827 176.004M468.029 190.569L487.827 205.133M468.029 161.132L487.827 146.568M468.029 308.007L487.827 293.442M468.029 308.007V219.851L487.827 205.133M527.579 234.723L547.533 220.158V190.569L527.579 205.287V234.723ZM527.579 234.723L547.533 249.288M547.533 249.288L567.487 234.723M547.533 249.288L507.781 278.417M527.579 205.133L507.781 219.698M507.781 219.698V278.417M507.781 219.698L487.827 205.133M527.579 175.697L507.781 161.132M507.781 161.132V190.569M507.781 161.132L487.827 146.568M487.827 176.004V146.568M487.827 176.004L507.781 190.569M487.827 205.133L507.781 190.569M487.827 293.442V263.852M487.827 293.442L507.781 308.007V278.417M487.827 263.852L507.781 278.417M507.781 278.417L527.579 293.442M428.276 102.72L408.322 117.438M428.276 102.72V73.2838M428.276 102.72L448.074 117.438M408.322 117.438V87.8486M408.322 87.8486L428.276 73.2838M408.322 87.8486L388.524 102.413M428.276 73.2838L448.074 87.8486M428.276 73.2838L448.074 58.719M448.074 117.438V87.8486M448.074 117.438L487.827 146.721L526.488 117.285M448.074 117.438L487.827 87.8486M448.074 87.8486L468.029 73.2838M468.029 73.2838V43.6943M468.029 73.2838L487.827 58.719M468.029 73.2838V43.8476L487.827 29.1296M468.029 73.2838L487.827 87.8486M547.533 102.72L527.579 117.438M527.579 117.438L547.533 132.003M527.579 117.438L507.781 102.413L487.827 87.8486M527.579 117.438V58.4124L507.781 43.6943M547.533 132.003L567.487 117.438M547.533 132.003L527.579 146.568V176.004L547.533 161.439V132.003ZM308.863 44.1543L288.909 58.719M308.863 44.1543V14.5648L269.111 43.6943M308.863 44.1543L328.662 58.719M308.863 44.1543L289.065 58.719M308.863 44.1543L328.817 58.719M288.909 58.719L269.111 43.6943M288.909 58.719L308.863 73.2838M269.111 43.6943L289.065 58.719M269.111 43.6943L289.065 58.4124V117.438M269.111 43.6943V73.2838M269.111 43.6943L249.313 29.1296M348.616 43.8476L308.863 73.2838M348.616 43.8476V73.2838M348.616 43.8476L368.57 29.1296M308.863 73.2838V102.72M308.863 73.2838L348.772 43.8476M308.863 73.2838L289.065 58.719M288.909 293.442L269.111 278.417M288.909 293.442L308.863 308.007M269.111 278.417L308.863 249.288M269.111 278.417V308.007L249.313 293.442M269.111 278.417L249.313 263.852M269.111 278.417L289.065 293.442M269.111 278.417V219.698M308.863 249.288L289.065 234.723M308.863 249.288L328.817 234.723M308.863 308.007L289.065 293.442M538.959 270.751L518.381 285.776M527.579 58.719L547.533 44.1543V14.5648L507.781 43.6943M527.579 58.719L507.781 43.6943M527.579 58.719L547.533 73.2838L587.441 43.8476M507.781 43.6943V73.2838M507.781 43.6943L487.827 29.1296M538.959 36.0287L517.914 51.36M487.827 58.719V29.1296M487.827 58.719L507.781 73.2838M487.827 87.8486L507.781 73.2838M308.863 220.158L289.065 234.723M308.863 220.158V190.569M308.863 220.158L328.817 234.723M289.065 234.723V205.287L308.863 190.569M308.863 190.569L328.817 205.133M308.863 190.569L328.817 176.004M328.817 234.723V205.133M328.817 205.133L348.616 190.569M308.863 161.439L289.065 176.004V146.568L308.863 132.003M308.863 161.439V132.003M308.863 161.439L328.817 176.004M308.863 132.003L289.065 117.438M308.863 132.003L328.817 117.438M328.817 176.004V117.438M328.817 117.438L308.863 102.72M328.817 117.438V87.8486L348.616 73.2838M322.114 157.453L316.502 153.313M408.322 263.852V293.442M408.322 263.852L388.524 249.288M441.371 274.738L435.759 270.598M428.276 44.1543L408.322 58.719V29.1296L428.276 14.5648V44.1543ZM428.276 44.1543L448.074 58.719M448.074 58.719V3.40343e-05M348.616 190.569L362.334 200.687M348.616 190.569V102.567L368.57 88.0019M388.524 219.698V249.288M388.524 219.698L368.57 205.133M408.322 175.697L374.805 200.687M388.524 249.288L368.57 263.852L348.616 249.288V219.851L368.57 205.133M368.57 88.0019L362.334 92.6013V200.687M368.57 88.0019L374.805 92.6013V200.687M368.57 205.133L374.805 200.687M368.57 205.133L362.334 200.687M362.334 209.733V243.922L348.772 234.11M374.805 209.733V244.075L388.524 233.956M368.57 293.595L348.616 308.16V278.57L368.57 264.006M368.57 293.595V264.006M368.57 293.595L388.524 308.16V278.57L368.57 264.006M308.863 102.72L289.065 117.438M289.065 117.438L269.267 102.413L249.313 87.8486M348.616 73.2838V43.6943M348.616 73.2838L368.57 58.719M348.616 73.2838L368.57 87.8486L388.524 73.2838M408.322 58.4124L388.524 43.6943M388.524 43.6943V73.2838M388.524 43.6943L368.57 29.1296M368.57 58.719V29.1296M368.57 58.719L388.524 73.2838M169.652 205.133V234.723M169.652 205.133L149.854 219.698M169.652 205.133V175.697M169.652 234.723L189.606 249.288M169.652 234.723L189.606 220.158M189.606 249.288L209.56 234.723M189.606 249.288L169.652 263.852M209.56 234.723V205.133L229.359 190.569M209.56 234.723L189.606 220.158M189.606 161.439L169.652 176.004L149.854 161.132M189.606 161.439V132.003M189.606 161.439L209.56 176.004L229.359 190.569M189.606 161.439V220.158M149.854 161.132L189.606 132.003M149.854 161.132L169.652 175.697M149.854 161.132V102.567L129.9 88.0019M189.606 132.003L209.56 146.568L229.359 161.132M189.606 132.003L169.652 117.438M189.606 132.003L209.56 117.438M159.987 168.798L181.032 153.313M229.359 190.569V161.132M229.359 190.569L249.313 176.004M229.359 190.569L249.313 205.133M229.359 161.132L249.313 146.568M229.359 308.007L249.313 293.442M229.359 308.007V219.851L249.313 205.133M289.065 205.133L269.111 219.698M269.111 219.698L249.313 205.133M289.065 175.697L269.111 161.132M269.111 161.132V190.569M269.111 161.132L249.313 146.568M249.313 176.004V146.568M249.313 176.004L269.111 190.569M249.313 205.133L269.111 190.569M249.313 293.442V263.852M189.606 102.72L169.652 117.438M189.606 102.72V73.2838M189.606 102.72L209.56 117.438M169.652 117.438V87.8486M169.652 87.8486L189.606 73.2838M169.652 87.8486L149.854 102.413M189.606 73.2838L209.56 87.8486M189.606 73.2838L209.56 58.719M209.56 117.438V87.8486M209.56 117.438L249.313 146.721L287.974 117.285M209.56 117.438L249.313 87.8486M209.56 87.8486L229.359 73.2838M229.359 73.2838V43.6943M229.359 73.2838L249.313 58.719M229.359 73.2838V43.8476L249.313 29.1296M229.359 73.2838L249.313 87.8486M70.1934 44.1543L50.2393 58.719M70.1934 44.1543V14.5648L30.441 43.6943L50.2393 58.719M70.1934 44.1543L90.1475 58.719M50.2393 58.719L70.1934 73.2838L110.102 43.8476M110.102 43.8476V73.2838M110.102 43.8476L129.9 29.1296M50.2393 293.442L30.441 278.417L70.1934 249.288M300.289 270.751L279.867 285.776M300.289 36.0287L279.244 51.36M249.313 58.719V29.1296M249.313 58.719L269.111 73.2838M249.313 87.8486L269.111 73.2838M70.3493 220.158L50.3952 234.723M70.3493 220.158V190.569M70.3493 220.158L90.1475 234.723M50.3952 234.723V205.287L70.3493 190.569M50.3952 234.723L70.3493 249.288L90.1475 234.723M70.3493 190.569L90.1475 205.133M70.3493 190.569L90.1475 176.004M90.1475 234.723V205.133M90.1475 205.133L110.102 190.569M70.3493 161.439L50.3952 176.004V146.568L70.3493 132.003M70.3493 161.439V132.003M70.3493 161.439L90.1475 176.004M70.3493 132.003L50.3952 117.438M70.3493 132.003L90.1475 117.438M90.1475 176.004V117.438M90.1475 117.438L70.3493 102.72M90.1475 117.438V87.8486L110.102 73.2838M83.4442 157.453L77.8321 153.313M169.652 263.852V293.442M169.652 263.852L149.854 249.288M202.857 274.738L197.245 270.598M189.606 44.1543L169.652 58.719V29.1296L189.606 14.5648V44.1543ZM189.606 44.1543L209.56 58.719M209.56 58.719V3.40343e-05M110.102 190.569L123.664 200.687M110.102 190.569V102.567L129.9 88.0019M149.854 219.698V249.288M149.854 219.698L129.9 205.133M169.652 175.697L136.136 200.687M149.854 249.288L129.9 263.852L110.102 249.288V219.851L129.9 205.133M129.9 88.0019L123.664 92.6013V200.687M129.9 88.0019L136.136 92.6013V200.687M129.9 205.133L136.136 200.687M129.9 205.133L123.664 200.687M123.664 209.733V243.922L110.102 234.11M136.136 209.733V244.075L149.854 233.956M129.9 293.595L110.102 308.16V278.57L129.9 264.006M129.9 293.595V264.006M129.9 293.595L149.854 308.16V278.57L129.9 264.006M70.3493 73.2838V102.72M70.3493 102.72L50.3952 117.438M50.3952 117.438V87.8486M110.102 73.2838V43.6943M110.102 73.2838L129.9 58.719M110.102 73.2838L129.9 87.8486L149.854 73.2838M169.652 58.4124L149.854 43.6943M149.854 43.6943V73.2838M149.854 43.6943L129.9 29.1296M129.9 58.719V29.1296M129.9 58.719L149.854 73.2838M-8.99949 308.007L10.7988 293.442M-8.99949 308.007V278.417L10.7988 263.852M-8.99949 308.007V219.851L10.7988 205.133M70.5052 220.158L50.5511 234.723M70.5052 220.158V190.569M70.5052 220.158L90.3034 234.723M50.5511 234.723V205.287L70.5052 190.569M50.5511 234.723L70.5052 249.288L90.3034 234.723M70.5052 190.569L90.3034 205.133V234.723M50.5511 205.133L30.7528 219.698M30.7528 219.698V278.417M30.7528 219.698L10.7988 205.133M50.5511 175.697L30.7528 161.132M30.7528 161.132V190.569M30.7528 161.132L10.7988 146.568M10.7988 176.004L-8.99949 190.569M10.7988 176.004V146.568M10.7988 176.004L30.7528 190.569M-8.99949 190.569V161.132L10.7988 146.568M-8.99949 190.569L10.7988 205.133M10.7988 205.133L30.7528 190.569M10.7988 293.442V263.852M10.7988 293.442L30.7528 308.007V278.417M10.7988 263.852L30.7528 278.417M-8.99949 73.2838L10.7988 87.8486M10.7988 87.8486L30.7528 73.2838M10.7988 87.8486L30.7528 102.413L50.5511 117.438M49.4598 117.285L10.7988 146.721" stroke="#C5C6E5" stroke-width="0.670889" stroke-miterlimit="10" stroke-linecap="round" stroke-linejoin="round"/>
</mask>
<g mask="url(#mask0_17_211)">
<path d="M368.139 996.237L528.943 1113.29L587.281 1156.67H150.867L368.139 996.237Z" fill="white" fill-opacity="0.5"/>
</g>
</svg>
