<svg width="38" height="55" viewBox="0 0 38 55" fill="none" xmlns="http://www.w3.org/2000/svg">
<path d="M19.8314 54.7849L19.7427 28.5904L19.6429 28.7097C19.6372 28.5659 19.6652 28.4227 19.7248 28.2911C19.7844 28.1595 19.8739 28.043 19.9866 27.9505L37.7224 14.9346C37.8443 14.8478 37.9884 14.9563 37.9884 15.1189V26.356C37.9932 26.4981 37.9647 26.6395 37.9052 26.7692C37.8456 26.8989 37.7566 27.0136 37.6448 27.1044L27.3247 34.697C27.2706 34.7424 27.2276 34.7991 27.1988 34.863C27.17 34.9268 27.1562 34.9961 27.1585 35.0658V36.5518C27.1474 36.7362 27.3026 36.823 27.4134 36.7362L37.7334 29.1436C37.8554 29.0568 37.9995 29.1653 37.9995 29.328V41.346C38.0043 41.4881 37.9758 41.6295 37.9163 41.7592C37.8567 41.8889 37.7676 42.0036 37.6558 42.0944L20.0863 54.9693C19.9755 55.0561 19.8314 54.9476 19.8314 54.7849Z" fill="#6A65A4"/>
<path d="M9.51135 19.5963C9.44654 19.5963 9.38378 19.5741 9.33399 19.5335L0.987076 13.4486C0.959012 13.4252 0.936469 13.3961 0.921015 13.3633C0.905561 13.3305 0.897568 13.2949 0.897568 13.2588C0.897568 13.2227 0.905561 13.187 0.921015 13.1542C0.936469 13.1215 0.959012 13.0924 0.987076 13.0689L18.5455 0.118138C18.6451 0.0416086 18.7681 0 18.8947 0C19.0213 0 19.1443 0.0416086 19.2439 0.118138L36.9132 13.0689C36.9412 13.0924 36.9638 13.1215 36.9792 13.1542C36.9947 13.187 37.0027 13.2227 37.0027 13.2588C37.0027 13.2949 36.9947 13.3305 36.9792 13.3633C36.9638 13.3961 36.9412 13.4252 36.9132 13.4486L28.4443 19.6637C28.3945 19.7043 28.3318 19.7265 28.267 19.7265C28.2021 19.7265 28.1394 19.7043 28.0896 19.6637L24.5757 17.0713C24.4538 16.9846 24.3096 17.093 24.3096 17.2557V22.3102C24.3136 22.3818 24.3006 22.4532 24.2718 22.519C24.243 22.5849 24.199 22.6433 24.1434 22.6899L19.2439 26.2801C19.1443 26.3566 19.0213 26.3982 18.8947 26.3982C18.7681 26.3982 18.6451 26.3566 18.5455 26.2801L13.6571 22.6899C13.6014 22.6433 13.5575 22.5849 13.5287 22.519C13.4998 22.4532 13.4869 22.3818 13.4908 22.3102V17.1256C13.4908 16.9412 13.3356 16.8544 13.2248 16.9412L9.6887 19.5335C9.63891 19.5741 9.57616 19.5963 9.51135 19.5963Z" fill="#6A65A4"/>
<path d="M18.346 28.6772L18.2241 54.7849L18.2019 54.7741C18.2019 54.9585 18.0578 55.0452 17.9469 54.9585L11.4734 50.3161C11.3616 50.2253 11.2725 50.1106 11.2129 49.9809C11.1534 49.8512 11.1249 49.7098 11.1297 49.5677V47.5719C11.1329 47.5005 11.1195 47.4293 11.0907 47.3636C11.062 47.2979 11.0185 47.2394 10.9635 47.1923L6.64036 44.0251C6.57385 43.9709 6.48518 44.0359 6.48518 44.1336V46.3029C6.48518 46.4873 6.32999 46.5741 6.21914 46.4873L0.344153 42.1487C0.232364 42.0578 0.143287 41.9431 0.0837289 41.8134C0.0241713 41.6837 -0.00428881 41.5424 0.000522676 41.4002V15.0864C0.000522676 14.902 0.155711 14.8152 0.266559 14.902L18.0024 27.9179C18.1157 28.0099 18.2057 28.1264 18.2653 28.2581C18.3249 28.3898 18.3525 28.5333 18.346 28.6772Z" fill="#6A65A4"/>
</svg>
