<svg width="738" height="272" viewBox="0 0 738 272" fill="none" xmlns="http://www.w3.org/2000/svg">
<g clip-path="url(#clip0_213_10)">
<g opacity="0.56">
<mask id="mask0_213_10" style="mask-type:alpha" maskUnits="userSpaceOnUse" x="-65" y="-175" width="1011" height="2134">
<path d="M137.934 -149.37V-99.5921L104.454 -74.703M137.934 -149.37L104.454 -124.74M137.934 -149.37V-99.3328L104.454 -74.703M137.934 -149.37V-0.29511L104.454 24.594M407.09 -100.111L440.834 -124.74M407.09 -100.111V-50.0732M407.09 -100.111L373.611 -124.74L407.09 -99.8513M407.09 -100.111L440.57 -124.74M407.09 -100.111L373.347 -124.74M440.834 -124.74L474.314 -99.5921M440.834 -124.74L407.09 -149.37M440.834 -124.74L407.09 -99.8513M440.834 -124.74L474.314 -99.3328M474.314 -99.5921L407.09 -50.0732M474.314 -99.5921L440.57 -124.74M474.314 -99.5921L440.57 -124.222V-174M474.314 -99.5921V-149.37M474.314 -99.5921L507.794 -74.703M407.09 -50.0732L339.867 -99.5921M407.09 -50.0732L339.604 -99.5921L407.09 -149.37M407.09 -50.0732L474.314 -99.3328M407.09 -50.0732V-99.8513M407.09 -50.0732L339.867 -99.3328L407.09 -149.37M407.09 -50.0732L440.57 -25.4434M407.09 -50.0732L373.347 -25.4434M407.09 -50.0732L339.604 -99.3328L407.09 -149.37M339.867 -99.5921L407.09 -149.37M339.867 -99.5921V-149.37L306.124 -124.74M339.867 -99.5921L306.124 -74.703M339.867 -99.5921V-149.629L306.124 -125M339.867 -99.5921L306.124 -74.9623M407.09 -149.37L440.57 -124.74M37.2304 -124.74L3.48693 -100.111V-50.0732M37.2304 -124.74L70.7102 -99.5921M37.2304 -124.74L3.48693 -149.37M37.2304 -124.74L3.48693 -99.8513V-50.0732M37.2304 -124.74L70.7102 -99.3328M70.7102 -99.5921L3.48693 -50.0732M70.7102 -99.5921L37.2304 -124.222V-174M70.7102 -99.5921V-149.37M70.7102 -99.5921L104.454 -74.703M3.48693 -50.0732L37.2304 -25.4434M3.48693 -50.0732L-30.2565 -25.4434M3.48693 -50.0732L70.7102 -99.3328M53.5749 -112.555L17.9861 -86.3698L52.784 -111.777M-64 -99.5921L3.48693 -149.37M3.48693 -149.37L-64 -99.3328M104.454 -124.74V-74.703M104.454 -124.74L70.7102 -149.37M104.454 -74.703L70.7102 -99.3328M70.7102 -149.37V-99.3328M205.157 -100.111L238.9 -124.74M205.157 -100.111V-50.0732M205.157 -100.111L171.677 -124.74V-25.4434M238.9 -124.74V-74.9623L205.157 -50.0732M238.9 -124.74V-74.703M205.157 -50.0732L238.9 -25.4434M205.157 -50.0732L171.677 -25.4434M205.157 -50.0732L238.9 -74.703M205.157 -50.0732V-99.8513L238.9 -124.481V-74.703M171.677 -25.4434V24.594L137.934 49.2238M171.677 -25.4434V-124.481M171.677 -25.4434L205.157 -0.813624M238.9 -124.222L272.38 -99.5921M272.38 -99.5921V-149.37L306.124 -124.74M272.38 -99.5921L306.124 -74.703M272.38 -99.5921V-149.629L306.124 -125M272.38 -99.5921L306.124 -74.9623M306.124 -124.74V-74.703M306.124 -74.703L272.38 -50.0732M306.124 -74.703L339.867 -50.0732V-0.29511L306.124 24.594M541.537 -149.37V-99.5921L507.794 -74.703M541.537 -149.37L507.794 -124.74M541.537 -149.37V-99.3328L507.794 -74.703M541.537 -149.37V-0.29511L507.794 24.594M810.694 -100.111L844.437 -124.74M810.694 -100.111V-50.0732M810.694 -100.111L776.95 -124.74M844.437 -124.74L877.917 -99.5921L810.694 -50.0732M844.437 -124.74L810.694 -149.37M844.437 -124.74L810.694 -99.8513M844.437 -124.74L877.917 -99.3328L810.694 -50.0732M810.694 -50.0732L743.207 -99.5921M810.694 -50.0732V-99.8513M810.694 -50.0732L743.207 -99.3328L810.694 -149.37M743.207 -99.5921L810.694 -149.37M743.207 -99.5921V-149.37L709.727 -124.74M743.207 -99.5921L709.727 -74.703M743.207 -99.5921V-149.629L709.727 -125M743.207 -99.5921L709.727 -74.9623M776.95 -124.74L810.694 -99.8513M776.95 -124.74L743.207 -100.111M440.57 -124.74L407.09 -99.8513M440.57 -124.74L474.314 -99.3328M457.178 -112.555L421.59 -86.3698L456.124 -111.777M373.347 -124.74L339.867 -100.111M373.347 -124.74L407.09 -99.8513M507.794 -124.74V-74.703M507.794 -124.74L474.314 -149.37M507.794 -74.703L474.314 -99.3328M474.314 -149.37V-99.3328M608.76 -100.111L642.504 -124.74M608.76 -100.111V-50.0732M608.76 -100.111L575.017 -124.74V-25.4434M642.504 -124.74V-74.9623L608.76 -50.0732M642.504 -124.74V-74.703M608.76 -50.0732L642.504 -25.4434M608.76 -50.0732L575.017 -25.4434M608.76 -50.0732L642.504 -74.703M608.76 -50.0732V-99.8513L642.504 -124.481V-74.703M575.017 -25.4434V24.594L541.537 49.2238M575.017 -25.4434V-124.481M575.017 -25.4434L608.76 -0.813624M642.504 -124.222L675.984 -99.5921M675.984 -99.5921V-149.37L709.727 -124.74M675.984 -99.5921L709.727 -74.703M675.984 -99.5921V-149.629L709.727 -125M675.984 -99.5921L709.727 -74.9623M709.727 -124.74V-74.703M709.727 -74.703L675.984 -50.0732M709.727 -74.703L743.207 -50.0732V-0.29511L709.727 24.594M238.9 24.594V-25.4434M238.9 24.594L272.38 -0.0358329M238.9 24.594V74.3721M238.9 -25.4434L205.157 -0.813624M205.157 98.4834L238.9 73.8536L272.38 99.0019M205.157 98.4834V148.261M205.157 98.4834L171.677 73.8536L137.934 49.2238M205.157 98.4834V-0.813624M272.38 99.0019L205.157 148.261M272.38 99.0019L238.9 74.3721M272.38 99.0019V198.04L306.124 222.669M205.157 148.261L171.677 123.632L137.934 99.0019M205.157 148.261L238.9 172.891M205.157 148.261L171.677 172.891M255.245 86.0388L219.656 112.224M137.934 49.2238V99.0019M137.934 49.2238L104.454 73.8536M137.934 49.2238L104.454 24.594M137.934 99.0019L104.454 123.632M37.2304 -25.4434L3.48693 -0.813624V49.2238L37.2304 24.3347V-25.4434ZM37.2304 24.594L70.7102 -0.0358329M70.7102 -0.0358329V-99.3328M70.7102 -0.0358329L104.454 24.594M37.2304 74.3721L70.7102 99.0019M70.7102 99.0019V49.2238M70.7102 99.0019L104.454 123.632M104.454 73.8536V123.632M104.454 73.8536L70.7102 49.2238M104.454 24.594L70.7102 49.2238M205.157 197.78L238.9 172.891M205.157 197.78V247.558M205.157 197.78L171.677 172.891M238.9 172.891V222.929M238.9 222.929L205.157 247.558M238.9 222.929L272.38 198.299M205.157 247.558L171.677 222.929M205.157 247.558L171.677 272.188M171.677 172.891V222.929M171.677 172.891L104.454 123.372L39.0757 173.151M171.677 172.891L104.454 222.929M171.677 222.929L137.934 247.558M137.934 247.558V297.596M137.934 247.558L104.454 272.188M137.934 247.558V297.337M137.934 247.558L104.454 222.929M3.48693 197.78L37.2304 172.891M37.2304 172.891L3.48693 148.261M37.2304 172.891L70.7102 198.299L104.454 222.929M37.2304 172.891V272.707L70.7102 297.596M3.48693 148.261L-30.2565 172.891M3.48693 148.261L37.2304 123.632V73.8536L3.48693 98.4834V148.261ZM407.09 296.818L440.834 272.188M407.09 296.818V346.855M407.09 296.818L373.611 272.188M407.09 296.818L440.57 272.188M407.09 296.818L373.347 272.188M407.09 296.818L440.834 271.929M407.09 296.818V346.596M407.09 296.818L373.611 271.929M407.09 296.818L440.57 271.929M407.09 296.818L373.347 271.929L339.867 296.559M440.834 272.188L474.314 297.596M440.834 272.188L407.09 247.558M474.314 297.596L407.09 346.855M474.314 297.596L440.57 272.188M474.314 297.596L440.57 272.707V172.891M474.314 297.596V247.558M474.314 297.596L507.794 322.226M407.09 346.855L339.867 297.337M407.09 346.855L339.604 297.337M339.867 297.337L407.09 247.558M339.867 297.337V247.558M339.867 297.337L306.124 322.226M339.867 297.337L407.09 247.299M339.867 297.337L407.09 346.596M407.09 247.558V197.78M407.09 247.558L339.604 297.337M407.09 247.558L440.57 272.188M474.314 -99.3328V-0.0358329M3.48693 296.818L37.2304 272.188M3.48693 296.818V346.855L70.7102 297.596M3.48693 296.818L37.2304 271.929M3.48693 296.818V346.596M37.2304 272.188L70.7102 297.596M37.2304 272.188L3.48693 247.558L-64 297.337L3.48693 247.299L37.2304 271.929M70.7102 297.596V247.558M70.7102 297.596L104.454 322.226M17.9861 310.559L53.5749 284.633M104.454 272.188V322.226M104.454 272.188L70.7102 247.558M137.934 297.337L104.454 322.226M137.934 297.337V247.299M137.934 297.337L104.454 321.966M104.454 222.929L70.7102 247.558M407.09 -0.813624L440.57 -25.4434M407.09 -0.813624V49.2238M407.09 -0.813624L373.347 -25.4434M440.57 -25.4434V24.3347L407.09 49.2238M407.09 49.2238L373.347 24.594M407.09 49.2238L373.347 73.8536M373.347 -25.4434V24.594M373.347 24.594L339.867 49.2238M407.09 98.4834L440.57 73.8536V123.632L407.09 148.261M407.09 98.4834V148.261M407.09 98.4834L373.347 73.8536M407.09 148.261L440.57 172.891M407.09 148.261L373.347 172.891M373.347 73.8536V172.891M373.347 172.891L407.09 197.78M373.347 172.891V222.929L339.867 247.558M384.683 105.224L394.173 112.224M238.9 -74.703L272.38 -50.0732M183.013 -93.1106L192.503 -86.1105M205.157 296.818L238.9 272.188M205.157 296.818V346.855L238.9 322.226V272.188M205.157 296.818L171.677 272.188M205.157 296.818V346.596M238.9 272.188V321.966M171.677 272.188V371.485M171.677 272.188V371.226M339.867 49.2238L316.668 32.1125M339.867 49.2238V198.04L306.124 222.669M272.38 -0.0358329V-50.0732M272.38 -0.0358329L306.124 24.594M238.9 74.3721L295.579 32.1125M306.124 222.669L316.668 214.892V32.1125M306.124 222.669L295.579 214.892V32.1125M306.124 24.594L295.579 32.1125M306.124 24.594L316.668 32.1125M316.668 16.8161V-40.9991L339.604 -24.4064M295.579 16.8161V-41.2583L272.38 -24.1471M306.124 -125V-74.9623M407.09 197.78L440.57 172.891M440.57 172.891L474.05 198.299L507.794 222.929M339.867 247.558V297.596M339.867 247.558L306.124 272.188M339.867 247.558L306.124 222.929L272.38 247.558M238.9 272.707L272.38 297.596M272.38 297.596V247.558M272.38 297.596L306.124 322.226M306.124 272.188V322.226M306.124 272.188L272.38 247.558M642.504 24.594V-25.4434M642.504 24.594L675.984 -0.0358329M642.504 24.594V74.3721M642.504 -25.4434L608.76 -0.813624M608.76 98.4834L642.504 73.8536L675.984 99.0019M608.76 98.4834V148.261M608.76 98.4834L575.017 73.8536L541.537 49.2238M608.76 98.4834V-0.813624M675.984 99.0019L608.76 148.261M675.984 99.0019L642.504 74.3721M675.984 99.0019V198.04L709.727 222.669M608.76 148.261L575.017 123.632L541.537 99.0019M608.76 148.261L642.504 172.891M608.76 148.261L575.017 172.891M658.848 86.0388L623.26 112.224M541.537 49.2238V99.0019M541.537 49.2238L507.794 73.8536M541.537 49.2238L507.794 24.594M541.537 99.0019L507.794 123.632M440.57 24.594L474.314 -0.0358329M474.314 -0.0358329L507.794 24.594M440.57 74.3721L474.314 99.0019M474.314 99.0019V49.2238M474.314 99.0019L507.794 123.632M507.794 73.8536V123.632M507.794 73.8536L474.314 49.2238M507.794 24.594L474.314 49.2238M608.76 197.78L642.504 172.891M608.76 197.78V247.558M608.76 197.78L575.017 172.891M642.504 172.891V222.929M642.504 222.929L608.76 247.558M642.504 222.929L675.984 198.299M608.76 247.558L575.017 222.929M608.76 247.558L575.017 272.188M575.017 172.891V222.929M575.017 172.891L507.794 123.372L442.416 173.151M575.017 172.891L507.794 222.929M575.017 222.929L541.537 247.558M541.537 247.558V297.596M541.537 247.558L507.794 272.188M541.537 247.558V297.337M541.537 247.558L507.794 222.929M810.694 296.818L844.437 272.188M810.694 296.818V346.855M810.694 296.818L776.95 272.188M810.694 296.818L844.437 271.929M810.694 296.818V346.596M810.694 296.818L776.95 271.929L743.207 296.559M844.437 272.188L877.917 297.596L810.694 346.855M844.437 272.188L810.694 247.558L743.207 297.337M810.694 346.855L743.207 297.337M743.207 297.337V247.558M743.207 297.337L709.727 322.226M743.207 297.337L810.694 247.299L844.437 271.929M743.207 297.337L810.694 346.596M421.59 310.559L457.178 284.633M339.604 297.337L407.09 247.299M339.604 297.337L407.09 346.596M507.794 272.188V322.226M507.794 272.188L474.314 247.558M541.537 297.337L507.794 322.226M541.537 297.337V247.299M541.537 297.337L507.794 321.966M507.794 222.929L474.314 247.558M810.43 -0.813624L844.174 -25.4434M810.43 -0.813624V49.2238M810.43 -0.813624L776.95 -25.4434M844.174 -25.4434V24.3347L810.43 49.2238M844.174 -25.4434L810.43 -50.0732L776.95 -25.4434M810.43 49.2238L776.95 24.594M810.43 49.2238L776.95 73.8536M776.95 -25.4434V24.594M776.95 24.594L743.207 49.2238M810.43 98.4834L844.174 73.8536V123.632L810.43 148.261M810.43 98.4834V148.261M810.43 98.4834L776.95 73.8536M810.43 148.261L844.174 172.891M810.43 148.261L776.95 172.891M776.95 73.8536V172.891M776.95 172.891L810.43 197.78M776.95 172.891V222.929L743.207 247.558M788.286 105.224L797.776 112.224M642.504 -74.703L675.984 -50.0732M586.353 -93.1106L595.843 -86.1105M608.76 296.818L642.504 272.188M608.76 296.818V346.855L642.504 322.226V272.188M608.76 296.818L575.017 272.188M608.76 296.818V346.596M642.504 272.188V321.966M575.017 272.188V371.485M575.017 272.188V371.226M743.207 49.2238L720.272 32.1125M743.207 49.2238V198.04L709.727 222.669M675.984 -0.0358329V-50.0732M675.984 -0.0358329L709.727 24.594M642.504 74.3721L699.182 32.1125M709.727 222.669L720.272 214.892V32.1125M709.727 222.669L699.182 214.892V32.1125M709.727 24.594L699.182 32.1125M709.727 24.594L720.272 32.1125M720.272 16.8161V-40.9991L743.207 -24.4064M699.182 16.8161V-41.2583L675.984 -24.1471M709.727 -125V-74.9623M810.43 247.558V197.78M810.43 197.78L844.174 172.891M844.174 172.891V222.929M743.207 247.558V297.596M743.207 247.558L709.727 272.188M743.207 247.558L709.727 222.929L675.984 247.558M642.504 272.707L675.984 297.596M675.984 297.596V247.558M675.984 297.596L709.727 322.226M709.727 272.188V322.226M709.727 272.188L675.984 247.558M944.613 -149.37L911.133 -124.74M944.613 -149.37V-99.3328L911.133 -74.703M944.613 -149.37V-0.29511L911.133 24.594M810.167 -0.813624L843.91 -25.4434M810.167 -0.813624V49.2238M810.167 -0.813624L776.687 -25.4434M843.91 -25.4434V24.3347L810.167 49.2238M843.91 -25.4434L810.167 -50.0732L776.687 -25.4434M810.167 49.2238L776.687 24.594V-25.4434M843.91 24.594L877.39 -0.0358329M877.39 -0.0358329V-99.3328M877.39 -0.0358329L911.133 24.594M843.91 74.3721L877.39 99.0019M877.39 99.0019V49.2238M877.39 99.0019L911.133 123.632M911.133 73.8536L944.613 49.2238M911.133 73.8536V123.632M911.133 73.8536L877.39 49.2238M944.613 49.2238V99.0019L911.133 123.632M944.613 49.2238L911.133 24.594M911.133 24.594L877.39 49.2238M911.133 -124.74V-74.703M911.133 -124.74L877.39 -149.37V-99.3328M911.133 -74.703L877.39 -99.3328M944.613 247.558L911.133 222.929M911.133 222.929L877.39 247.558M911.133 222.929L877.39 198.299L843.91 172.891M845.755 173.151L911.133 123.372M238.9 421.263V371.226M238.9 421.263L272.38 396.634M238.9 421.263V471.042M238.9 371.226L205.157 346.596M238.9 371.226L205.157 395.856M205.157 346.596L171.677 371.226M205.157 346.596L238.9 321.966M171.677 371.226V421.263L137.934 445.893M171.677 371.226L205.157 395.856M205.157 495.153L238.9 470.523L272.38 495.671M205.157 495.153V544.931M205.157 495.153L171.677 470.523L137.934 445.893M205.157 495.153V395.856M272.38 495.671L205.157 544.931M272.38 495.671L238.9 471.042M272.38 495.671V594.709L306.124 619.339M205.157 544.931L171.677 520.301L137.934 495.671M205.157 544.931L238.9 569.561M205.157 544.931L171.677 569.561M255.245 482.708L219.656 508.894M137.934 445.893V495.671M137.934 445.893L104.454 470.523M137.934 445.893L104.454 421.263M137.934 495.671L104.454 520.301M137.934 247.299L104.454 271.929M137.934 247.299V396.374L104.454 421.263M37.2304 371.226L3.48693 395.856V445.893L37.2304 421.004V371.226ZM37.2304 371.226L3.48693 346.596M3.48693 346.596L-30.2565 371.226M3.48693 346.596L70.7102 297.337M37.2304 421.263L70.7102 396.634M70.7102 396.634V297.337M70.7102 396.634L104.454 421.263M37.2304 471.042L70.7102 495.671M70.7102 495.671V445.893M70.7102 495.671L104.454 520.301M104.454 470.523V520.301M104.454 470.523L70.7102 445.893M104.454 421.263L70.7102 445.893M104.454 271.929V321.966M104.454 271.929L70.7102 247.299V297.337M104.454 321.966L70.7102 297.337M70.7102 297.337L37.2304 271.929M205.157 594.45L238.9 569.561M205.157 594.45V644.228M205.157 594.45L171.677 569.561M238.9 569.561V619.598M238.9 619.598L205.157 644.228M238.9 619.598L272.38 594.968M205.157 644.228L171.677 619.598M205.157 644.228L171.677 668.858M171.677 569.561V619.598M171.677 569.561L104.454 520.042L39.0757 569.82M171.677 569.561L104.454 619.598M171.677 619.598L137.934 644.228M137.934 644.228V694.265L104.454 718.895M137.934 644.228L104.454 668.858M137.934 644.228V694.006L104.454 718.895M137.934 644.228L104.454 619.598M137.934 644.228V793.303L104.454 818.192M3.48693 594.45L37.2304 569.561M37.2304 569.561L3.48693 544.931M37.2304 569.561L70.7102 594.968L104.454 619.598M37.2304 569.561V669.376M3.48693 544.931L-30.2565 569.561M3.48693 544.931L37.2304 520.301V470.523L3.48693 495.153V544.931ZM407.09 693.488L440.834 668.858M407.09 693.488V743.525M407.09 693.488L373.611 668.858L407.09 693.747M407.09 693.488L440.57 668.858M407.09 693.488L373.347 668.858M440.834 668.858L474.314 694.265M440.834 668.858L407.09 644.228M440.834 668.858L474.314 694.006M440.834 668.858L407.09 693.747M474.314 694.265L407.09 743.525M474.314 694.265L440.57 668.858M474.314 694.265L440.57 669.376M474.314 694.265V644.228M474.314 694.265L507.794 718.895M474.314 694.265V793.562M407.09 743.525L474.314 694.006M407.09 743.525L339.867 694.006M407.09 743.525L339.604 694.006L407.09 644.228M407.09 743.525V693.747M407.09 743.525L339.867 694.265M407.09 743.525L440.57 768.155M407.09 743.525L373.347 768.155M407.09 743.525L339.604 694.265L407.09 644.228M339.867 694.006L407.09 644.228M339.867 694.006V644.228M339.867 694.006L306.124 718.895M339.867 694.006V643.969L306.124 668.598M339.867 694.006L306.124 718.636M407.09 644.228V594.45M407.09 644.228L440.57 668.858M407.09 644.228L339.867 694.265M440.834 271.929L474.314 297.337M440.834 271.929L407.09 247.299M474.314 297.337L407.09 346.596M474.314 297.337V247.299L507.794 271.929M474.314 297.337L507.794 321.966M474.314 297.337L440.57 271.929M474.314 297.337V396.634M407.09 346.596L440.57 371.226M407.09 346.596L373.347 371.226M407.09 247.299L440.57 271.929M17.9861 310.3L52.784 284.892M37.2304 668.858L3.48693 693.488V743.525M37.2304 668.858L70.7102 694.265M37.2304 668.858L3.48693 644.228M37.2304 668.858L70.7102 694.006M37.2304 668.858L3.48693 693.747V743.525M70.7102 694.265L3.48693 743.525M70.7102 694.265L37.2304 669.376M70.7102 694.265V644.228M70.7102 694.265L104.454 718.895M70.7102 694.265V793.562M3.48693 743.525L70.7102 694.006M3.48693 743.525L37.2304 768.155M3.48693 743.525L-30.2565 768.155M17.9861 707.228L53.5749 681.302M17.9861 707.228L53.5749 681.043M17.9861 707.228L52.784 681.821M-64 694.006L3.48693 644.228M3.48693 644.228L-64 694.265M37.2304 669.376V619.598M37.2304 669.376L70.7102 694.006M104.454 668.858V718.895M104.454 668.858L70.7102 644.228M104.454 718.895L70.7102 694.006M104.454 619.598L70.7102 644.228M70.7102 644.228V694.006M407.09 395.856L440.57 371.226M407.09 395.856V445.893M407.09 395.856L373.347 371.226M440.57 371.226V421.004L407.09 445.893M407.09 445.893L373.347 421.263M407.09 445.893L373.347 470.523M373.347 371.226V421.263M373.347 421.263L339.867 445.893M407.09 495.153L440.57 470.523V520.301L407.09 544.931M407.09 495.153V544.931M407.09 495.153L373.347 470.523M407.09 544.931L440.57 569.561M407.09 544.931L373.347 569.561M373.347 470.523V569.561M373.347 569.561L407.09 594.45M373.347 569.561V619.598L339.867 644.228M384.683 501.894L394.173 508.894M238.9 321.966V271.929M238.9 321.966L272.38 346.596M183.013 303.559L192.503 310.559M205.157 693.488L238.9 668.858M205.157 693.488V743.525M205.157 693.488L171.677 668.858M238.9 668.858V718.895M238.9 668.858V718.636L205.157 743.525M238.9 718.895L205.157 743.525M238.9 718.895V669.117L205.157 693.747V743.525M238.9 718.895L272.38 743.525M205.157 743.525L238.9 768.155M205.157 743.525L171.677 768.155M171.677 668.858V768.155M171.677 768.155V818.192L137.934 842.822M171.677 768.155V669.117M171.677 768.155L205.157 792.784M339.867 445.893L316.668 428.782M339.867 445.893V594.709L306.124 619.339M272.38 396.634V346.596M272.38 396.634L306.124 421.263M238.9 471.042L295.579 428.782M272.38 346.596L306.124 321.966L339.867 346.596V396.374L306.124 421.263M306.124 619.339L316.668 611.561V428.782M306.124 619.339L295.579 611.561V428.782M306.124 421.263L295.579 428.782M306.124 421.263L316.668 428.782M316.668 413.486V355.67L339.604 372.263M295.579 413.486V355.411L272.38 372.522M306.124 271.67L339.867 247.04V297.077L306.124 321.707M306.124 271.67V321.707M306.124 271.67L272.38 247.04V297.077L306.124 321.707M407.09 594.45L440.57 569.561M440.57 569.561L474.05 594.968L507.794 619.598M440.57 569.561V669.376M339.867 644.228V694.265M339.867 644.228L306.124 668.858M339.867 644.228L306.124 619.598L272.38 644.228M272.38 694.265L238.9 669.376L272.38 694.006M272.38 694.265V644.228M272.38 694.265L306.124 718.895M306.124 668.858V718.895M306.124 668.858L272.38 644.228M306.124 718.895L272.38 694.006M306.124 718.895L272.38 743.525M306.124 718.895L339.867 743.525V793.303L306.124 818.192M272.38 644.228V694.006M642.504 421.263V371.226M642.504 421.263L675.984 396.634M642.504 421.263V471.042M642.504 371.226L608.76 346.596M642.504 371.226L608.76 395.856M608.76 346.596L575.017 371.226M608.76 346.596L642.504 321.966M575.017 371.226V421.263L541.537 445.893M575.017 371.226L608.76 395.856M608.76 495.153L642.504 470.523L675.984 495.671M608.76 495.153V544.931M608.76 495.153L575.017 470.523L541.537 445.893M608.76 495.153V395.856M675.984 495.671L608.76 544.931M675.984 495.671L642.504 471.042M675.984 495.671V594.709L709.727 619.339M608.76 544.931L575.017 520.301L541.537 495.671M608.76 544.931L642.504 569.561M608.76 544.931L575.017 569.561M658.848 482.708L623.26 508.894M541.537 445.893V495.671M541.537 445.893L507.794 470.523M541.537 445.893L507.794 421.263M541.537 495.671L507.794 520.301M541.537 247.299L507.794 271.929M541.537 247.299V396.374L507.794 421.263M440.57 421.263L474.314 396.634M474.314 396.634L507.794 421.263M440.57 471.042L474.314 495.671M474.314 495.671V445.893M474.314 495.671L507.794 520.301M507.794 470.523V520.301M507.794 470.523L474.314 445.893M507.794 421.263L474.314 445.893M507.794 271.929V321.966M608.76 594.45L642.504 569.561M608.76 594.45V644.228M608.76 594.45L575.017 569.561M642.504 569.561V619.598M642.504 619.598L608.76 644.228M642.504 619.598L675.984 594.968M608.76 644.228L575.017 619.598M608.76 644.228L575.017 668.858M575.017 569.561V619.598M575.017 569.561L507.794 520.042L442.416 569.82M575.017 569.561L507.794 619.598M575.017 619.598L541.537 644.228M541.537 644.228V694.265L507.794 718.895M541.537 644.228L507.794 668.858M541.537 644.228V694.006L507.794 718.895M541.537 644.228L507.794 619.598M541.537 644.228V793.303L507.794 818.192M810.694 693.488L844.437 668.858M810.694 693.488V743.525M810.694 693.488L776.95 668.858M844.437 668.858L877.917 694.265L810.694 743.525M844.437 668.858L810.694 644.228M844.437 668.858L877.917 694.006L810.694 743.525M844.437 668.858L810.694 693.747M810.694 743.525L743.207 694.006M810.694 743.525V693.747M810.694 743.525L743.207 694.265M743.207 694.006L810.694 644.228M743.207 694.006V644.228M743.207 694.006L709.727 718.895M743.207 694.006V643.969L709.727 668.598M743.207 694.006L709.727 718.636M810.694 644.228L743.207 694.265M776.95 668.858L810.694 693.747M776.95 668.858L743.207 693.488M844.437 271.929L877.917 297.337L810.694 346.596M421.59 310.3L456.124 284.892M440.57 668.858L474.314 694.006M440.57 668.858L407.09 693.747M421.59 707.228L457.178 681.302M421.59 707.228L457.178 681.043M421.59 707.228L456.124 681.821M373.347 668.858L339.867 693.488M373.347 668.858L407.09 693.747M440.57 669.376V619.598M440.57 669.376L474.314 694.006M507.794 668.858V718.895M507.794 668.858L474.314 644.228M507.794 718.895L474.314 694.006M507.794 619.598L474.314 644.228M474.314 644.228V694.006M810.43 395.856L844.174 371.226M810.43 395.856V445.893M810.43 395.856L776.95 371.226M844.174 371.226V421.004L810.43 445.893M844.174 371.226L810.43 346.596L776.95 371.226M810.43 445.893L776.95 421.263M810.43 445.893L776.95 470.523M776.95 371.226V421.263M776.95 421.263L743.207 445.893M810.43 495.153L844.174 470.523V520.301L810.43 544.931M810.43 495.153V544.931M810.43 495.153L776.95 470.523M810.43 544.931L844.174 569.561M810.43 544.931L776.95 569.561M776.95 470.523V569.561M776.95 569.561L810.43 594.45M776.95 569.561V619.598L743.207 644.228M788.286 501.894L797.776 508.894M642.504 321.966V271.929M642.504 321.966L675.984 346.596M586.353 303.559L595.843 310.559M608.76 693.488L642.504 668.858M608.76 693.488V743.525M608.76 693.488L575.017 668.858M642.504 668.858V718.895M642.504 668.858V718.636L608.76 743.525M642.504 718.895L608.76 743.525M642.504 718.895V669.117L608.76 693.747V743.525M642.504 718.895L675.984 743.525M608.76 743.525L642.504 768.155M608.76 743.525L575.017 768.155M575.017 668.858V768.155M575.017 768.155V818.192L541.537 842.822M575.017 768.155V669.117M575.017 768.155L608.76 792.784M743.207 445.893L720.272 428.782M743.207 445.893V594.709L709.727 619.339M675.984 396.634V346.596M675.984 396.634L709.727 421.263M642.504 471.042L699.182 428.782M675.984 346.596L709.727 321.966L743.207 346.596V396.374L709.727 421.263M709.727 619.339L720.272 611.561V428.782M709.727 619.339L699.182 611.561V428.782M709.727 421.263L699.182 428.782M709.727 421.263L720.272 428.782M720.272 413.486V355.67L743.207 372.263M699.182 413.486V355.411L675.984 372.522M709.727 271.67L743.207 247.04V297.077L709.727 321.707M709.727 271.67V321.707M709.727 271.67L675.984 247.04V297.077L709.727 321.707M810.43 644.228V594.45M810.43 594.45L844.174 569.561M844.174 569.561V619.598M743.207 644.228V694.265M743.207 644.228L709.727 668.858M743.207 644.228L709.727 619.598L675.984 644.228M675.984 694.265L642.504 669.376L675.984 694.006M675.984 694.265V644.228M675.984 694.265L709.727 718.895M709.727 668.858V718.895M709.727 668.858L675.984 644.228M709.727 718.895L675.984 694.006M709.727 718.895L675.984 743.525M709.727 718.895L743.207 743.525V793.303L709.727 818.192M675.984 644.228V694.006M944.613 247.299L911.133 271.929M944.613 247.299V297.337L911.133 321.966M944.613 247.299V396.374L911.133 421.263M810.167 395.856L843.91 371.226M810.167 395.856V445.893M810.167 395.856L776.687 371.226M843.91 371.226V421.004L810.167 445.893M843.91 371.226L810.167 346.596L776.687 371.226M810.167 445.893L776.687 421.263V371.226M843.91 421.263L877.39 396.634M877.39 396.634V297.337M877.39 396.634L911.133 421.263M843.91 471.042L877.39 495.671M877.39 495.671V445.893M877.39 495.671L911.133 520.301M911.133 470.523L944.613 445.893M911.133 470.523V520.301M911.133 470.523L877.39 445.893M944.613 445.893V495.671L911.133 520.301M944.613 445.893L911.133 421.263M911.133 421.263L877.39 445.893M911.133 271.929V321.966M911.133 271.929L877.39 247.299V297.337M911.133 321.966L877.39 297.337M944.613 644.228L911.133 619.598M944.613 644.228L911.133 668.858M944.613 644.228V694.265L911.133 718.895M944.613 644.228V793.303L911.133 818.192M911.133 619.598L877.39 644.228M911.133 619.598L877.39 594.968L843.91 569.561M877.39 644.228L911.133 668.858M877.39 644.228V694.265M845.755 569.82L911.133 520.042M272.38 694.006V643.969L306.124 668.598M272.38 694.006L306.124 718.636M675.984 694.006V643.969L709.727 668.598M675.984 694.006L709.727 718.636M238.9 818.192V768.155M238.9 818.192L272.38 793.562M238.9 818.192V867.97M238.9 768.155L205.157 792.784M205.157 892.082L238.9 867.452L272.38 892.6M205.157 892.082V941.86M205.157 892.082L171.677 867.452L137.934 842.822M205.157 892.082V792.784M272.38 892.6L205.157 941.86M272.38 892.6L238.9 867.97M272.38 892.6V991.638L306.124 1016.27M205.157 941.86L171.677 917.23L137.934 892.6M205.157 941.86L238.9 966.489M205.157 941.86L171.677 966.489M255.245 879.637L219.656 905.822M137.934 842.822V892.6M137.934 842.822L104.454 867.452M137.934 842.822L104.454 818.192M137.934 892.6L104.454 917.23M37.2304 768.155L3.48693 792.784V842.822L37.2304 817.933V768.155ZM37.2304 818.192L70.7102 793.562M70.7102 793.562L104.454 818.192M37.2304 867.97L70.7102 892.6M70.7102 892.6V842.822M70.7102 892.6L104.454 917.23M104.454 867.452V917.23M104.454 867.452L70.7102 842.822M104.454 818.192L70.7102 842.822M205.157 991.378L238.9 966.489M205.157 991.378V1041.16M205.157 991.378L171.677 966.489M238.9 966.489V1016.53M238.9 1016.53L205.157 1041.16M238.9 1016.53L272.38 991.897M205.157 1041.16L171.677 1016.53M205.157 1041.16L171.677 1065.79M171.677 966.489V1016.53M171.677 966.489L104.454 916.971L39.0757 966.749M171.677 966.489L104.454 1016.53M171.677 1016.53L137.934 1041.16M137.934 1041.16V1091.19M137.934 1041.16L104.454 1065.79M137.934 1041.16V1090.93M137.934 1041.16L104.454 1016.53M3.48693 991.378L37.2304 966.489M37.2304 966.489L3.48693 941.86M37.2304 966.489L70.7102 991.897L104.454 1016.53M37.2304 966.489V1066.3L70.7102 1091.19M3.48693 941.86L-30.2565 966.489M3.48693 941.86L37.2304 917.23V867.452L3.48693 892.082V941.86ZM407.09 1090.42L440.834 1065.79M407.09 1090.42V1140.45M407.09 1090.42L373.611 1065.79M407.09 1090.42L440.57 1065.79M407.09 1090.42L373.347 1065.79M407.09 1090.42L440.834 1065.53M407.09 1090.42V1140.19M407.09 1090.42L373.611 1065.53L407.09 1090.16M407.09 1090.42L440.57 1065.53M407.09 1090.42L373.347 1065.53M440.834 1065.79L474.314 1091.19M440.834 1065.79L407.09 1041.16M474.314 1091.19L407.09 1140.45M474.314 1091.19L440.57 1065.79M474.314 1091.19L440.57 1066.3V966.489M474.314 1091.19V1041.16M474.314 1091.19L507.794 1115.82M407.09 1140.45L339.867 1090.93M407.09 1140.45L339.604 1090.93M339.867 1090.93L407.09 1041.16M339.867 1090.93V1041.16M339.867 1090.93L306.124 1115.82M339.867 1090.93L407.09 1040.9M339.867 1090.93L407.09 1140.19M407.09 1041.16V991.378M407.09 1041.16L339.604 1090.93M407.09 1041.16L440.57 1065.79M3.48693 1090.42L37.2304 1065.79M3.48693 1090.42V1140.45L70.7102 1091.19M3.48693 1090.42L37.2304 1065.53M3.48693 1090.42V1140.19M37.2304 1065.79L70.7102 1091.19M37.2304 1065.79L3.48693 1041.16L-64 1090.93L3.48693 1040.9M70.7102 1091.19V1041.16M70.7102 1091.19L104.454 1115.82M17.9861 1104.16L53.5749 1078.23M104.454 1065.79V1115.82M104.454 1065.79L70.7102 1041.16M137.934 1090.93L104.454 1115.82M137.934 1090.93V1040.9M137.934 1090.93L104.454 1115.56M104.454 1016.53L70.7102 1041.16M407.09 792.784L440.57 768.155M407.09 792.784V842.822M407.09 792.784L373.347 768.155M440.57 768.155V817.933L407.09 842.822M407.09 842.822L373.347 818.192M407.09 842.822L373.347 867.452M373.347 768.155V818.192M373.347 818.192L339.867 842.822M407.09 892.082L440.57 867.452V917.23L407.09 941.86M407.09 892.082V941.86M407.09 892.082L373.347 867.452M407.09 941.86L440.57 966.489M407.09 941.86L373.347 966.489M373.347 867.452V966.489M373.347 966.489L407.09 991.378M373.347 966.489V1016.53L339.867 1041.16M384.683 898.822L394.173 905.822M183.013 700.488L192.503 707.488M205.157 1090.42L238.9 1065.79M205.157 1090.42V1140.45L238.9 1115.82V1065.79M205.157 1090.42L171.677 1065.79M205.157 1090.42V1140.19M238.9 1065.79V1115.56M171.677 1065.79V1165.08M171.677 1065.79V1164.82M339.867 842.822L316.668 825.711M339.867 842.822V991.638L306.124 1016.27M272.38 793.562V743.525M272.38 793.562L306.124 818.192M238.9 867.97L295.579 825.711M306.124 1016.27L316.668 1008.49V825.711M306.124 1016.27L295.579 1008.49V825.711M306.124 818.192L295.579 825.711M306.124 818.192L316.668 825.711M316.668 810.414V752.599L339.604 769.192M295.579 810.414V752.34L272.38 769.451M306.124 668.598V718.636M407.09 991.378L440.57 966.489M440.57 966.489L474.05 991.897L507.794 1016.53M339.867 1041.16V1091.19M339.867 1041.16L306.124 1065.79M339.867 1041.16L306.124 1016.53L272.38 1041.16M238.9 1066.3L272.38 1091.19M272.38 1091.19V1041.16M272.38 1091.19L306.124 1115.82M306.124 1065.79V1115.82M306.124 1065.79L272.38 1041.16M642.504 818.192V768.155M642.504 818.192L675.984 793.562M642.504 818.192V867.97M642.504 768.155L608.76 792.784M608.76 892.082L642.504 867.452L675.984 892.6M608.76 892.082V941.86M608.76 892.082L575.017 867.452L541.537 842.822M608.76 892.082V792.784M675.984 892.6L608.76 941.86M675.984 892.6L642.504 867.97M675.984 892.6V991.638L709.727 1016.27M608.76 941.86L575.017 917.23L541.537 892.6M608.76 941.86L642.504 966.489M608.76 941.86L575.017 966.489M658.848 879.637L623.26 905.822M541.537 842.822V892.6M541.537 842.822L507.794 867.452M541.537 842.822L507.794 818.192M541.537 892.6L507.794 917.23M440.57 818.192L474.314 793.562M474.314 793.562L507.794 818.192M440.57 867.97L474.314 892.6M474.314 892.6V842.822M474.314 892.6L507.794 917.23M507.794 867.452V917.23M507.794 867.452L474.314 842.822M507.794 818.192L474.314 842.822M608.76 991.378L642.504 966.489M608.76 991.378V1041.16M608.76 991.378L575.017 966.489M642.504 966.489V1016.53M642.504 1016.53L608.76 1041.16M642.504 1016.53L675.984 991.897M608.76 1041.16L575.017 1016.53M608.76 1041.16L575.017 1065.79M575.017 966.489V1016.53M575.017 966.489L507.794 916.971L442.416 966.749M575.017 966.489L507.794 1016.53M575.017 1016.53L541.537 1041.16M541.537 1041.16V1091.19M541.537 1041.16L507.794 1065.79M541.537 1041.16V1090.93M541.537 1041.16L507.794 1016.53M810.694 1090.42L844.437 1065.79M810.694 1090.42V1140.45M810.694 1090.42L776.95 1065.79M810.694 1090.42L844.437 1065.53M810.694 1090.42V1140.19M810.694 1090.42L776.95 1065.53M844.437 1065.79L877.917 1091.19L810.694 1140.45M844.437 1065.79L810.694 1041.16L743.207 1090.93M810.694 1140.45L743.207 1090.93M743.207 1090.93V1041.16M743.207 1090.93L709.727 1115.82M743.207 1090.93L810.694 1040.9M743.207 1090.93L810.694 1140.19M421.59 1104.16L457.178 1078.23M339.604 1090.93L407.09 1040.9M339.604 1090.93L407.09 1140.19M507.794 1065.79V1115.82M507.794 1065.79L474.314 1041.16M541.537 1090.93L507.794 1115.82M541.537 1090.93V1040.9M541.537 1090.93L507.794 1115.56M507.794 1016.53L474.314 1041.16M810.43 792.784L844.174 768.155M810.43 792.784V842.822M810.43 792.784L776.95 768.155M844.174 768.155V817.933L810.43 842.822M844.174 768.155L810.43 743.525L776.95 768.155M810.43 842.822L776.95 818.192M810.43 842.822L776.95 867.452M776.95 768.155V818.192M776.95 818.192L743.207 842.822M810.43 892.082L844.174 867.452V917.23L810.43 941.86M810.43 892.082V941.86M810.43 892.082L776.95 867.452M810.43 941.86L844.174 966.489M810.43 941.86L776.95 966.489M776.95 867.452V966.489M776.95 966.489L810.43 991.378M776.95 966.489V1016.53L743.207 1041.16M788.286 898.822L797.776 905.822M586.353 700.488L595.843 707.488M608.76 1090.42L642.504 1065.79M608.76 1090.42V1140.45L642.504 1115.82V1065.79M608.76 1090.42L575.017 1065.79M608.76 1090.42V1140.19M642.504 1065.79V1115.56M575.017 1065.79V1165.08M575.017 1065.79V1164.82M743.207 842.822L720.272 825.711M743.207 842.822V991.638L709.727 1016.27M675.984 793.562V743.525M675.984 793.562L709.727 818.192M642.504 867.97L699.182 825.711M709.727 1016.27L720.272 1008.49V825.711M709.727 1016.27L699.182 1008.49V825.711M709.727 818.192L699.182 825.711M709.727 818.192L720.272 825.711M720.272 810.414V752.599L743.207 769.192M699.182 810.414V752.34L675.984 769.451M709.727 668.598V718.636M810.43 1041.16V991.378M810.43 991.378L844.174 966.489M844.174 966.489V1016.53M743.207 1041.16V1091.19M743.207 1041.16L709.727 1065.79M743.207 1041.16L709.727 1016.53L675.984 1041.16M642.504 1066.3L675.984 1091.19M675.984 1091.19V1041.16M675.984 1091.19L709.727 1115.82M709.727 1065.79V1115.82M709.727 1065.79L675.984 1041.16M810.167 792.784L843.91 768.155M810.167 792.784V842.822M810.167 792.784L776.687 768.155M843.91 768.155V817.933L810.167 842.822M843.91 768.155L810.167 743.525L776.687 768.155M810.167 842.822L776.687 818.192V768.155M843.91 818.192L877.39 793.562M877.39 793.562V694.265M877.39 793.562L911.133 818.192M843.91 867.97L877.39 892.6M877.39 892.6V842.822M877.39 892.6L911.133 917.23M911.133 867.452L944.613 842.822M911.133 867.452V917.23M911.133 867.452L877.39 842.822M944.613 842.822V892.6L911.133 917.23M944.613 842.822L911.133 818.192M911.133 818.192L877.39 842.822M911.133 668.858V718.895M911.133 718.895L877.39 694.265M944.613 1041.16L911.133 1016.53M911.133 1016.53L877.39 1041.16M911.133 1016.53L877.39 991.897L843.91 966.489M845.755 966.749L911.133 916.971M238.9 1214.86V1164.82M238.9 1214.86L272.38 1190.23M238.9 1214.86V1264.64M238.9 1164.82L205.157 1140.19M238.9 1164.82L205.157 1189.45M205.157 1140.19L171.677 1164.82M205.157 1140.19L238.9 1115.56M205.157 1140.19L238.9 1115.31V1065.53M205.157 1140.19V1090.16M171.677 1164.82V1214.86L137.934 1239.49M171.677 1164.82L205.157 1189.45M171.677 1164.82V1065.53L205.157 1090.16M205.157 1288.75L238.9 1264.12L272.38 1289.27M205.157 1288.75V1338.53M205.157 1288.75L171.677 1264.12L137.934 1239.49M205.157 1288.75V1189.45M272.38 1289.27L205.157 1338.53M272.38 1289.27L238.9 1264.64M272.38 1289.27V1388.31L306.124 1412.94M205.157 1338.53L171.677 1313.9L137.934 1289.27M205.157 1338.53L238.9 1363.16M205.157 1338.53L171.677 1363.16M255.245 1276.31L219.656 1302.49M137.934 1239.49V1289.27M137.934 1239.49L104.454 1264.12M137.934 1239.49L104.454 1214.86M137.934 1289.27L104.454 1313.9M137.934 1040.9L104.454 1065.53M137.934 1040.9V1189.97L104.454 1214.86M137.934 1040.9V1090.68L104.454 1115.56M37.2304 1164.82L3.48693 1189.45V1239.49L37.2304 1214.6V1164.82ZM37.2304 1164.82L3.48693 1140.19M3.48693 1140.19L-30.2565 1164.82M3.48693 1140.19L70.7102 1090.93M3.48693 1140.19L70.7102 1090.68M3.48693 1140.19V1090.16L37.2304 1065.53M37.2304 1214.86L70.7102 1190.23M70.7102 1190.23V1090.93M70.7102 1190.23L104.454 1214.86M37.2304 1264.64L70.7102 1289.27M70.7102 1289.27V1239.49M70.7102 1289.27L104.454 1313.9M104.454 1264.12V1313.9M104.454 1264.12L70.7102 1239.49M104.454 1214.86L70.7102 1239.49M104.454 1065.53V1115.56M104.454 1065.53L70.7102 1040.9M104.454 1115.56L70.7102 1090.93M104.454 1115.56L70.7102 1090.68M70.7102 1040.9V1090.93M70.7102 1040.9V1090.68M70.7102 1090.93L37.2304 1065.53M205.157 1388.05L238.9 1363.16M205.157 1388.05V1437.83M205.157 1388.05L171.677 1363.16M238.9 1363.16V1413.2M238.9 1413.2L205.157 1437.83M238.9 1413.2L272.38 1388.57M205.157 1437.83L171.677 1413.2M205.157 1437.83L171.677 1462.46M171.677 1363.16V1413.2M171.677 1363.16L104.454 1313.64L39.0757 1363.42M171.677 1363.16L104.454 1413.2M171.677 1413.2L137.934 1437.83M137.934 1437.83V1487.86M137.934 1437.83L104.454 1462.46M137.934 1437.83V1487.6M137.934 1437.83L104.454 1413.2M3.48693 1388.05L37.2304 1363.16M37.2304 1363.16L3.48693 1338.53M37.2304 1363.16L70.7102 1388.57L104.454 1413.2M37.2304 1363.16V1462.97L70.7102 1487.86M3.48693 1338.53L-30.2565 1363.16M3.48693 1338.53L37.2304 1313.9V1264.12L3.48693 1288.75V1338.53ZM407.09 1487.09L440.834 1462.46M407.09 1487.09V1537.12M407.09 1487.09L373.611 1462.46M407.09 1487.09L440.57 1462.46M407.09 1487.09L373.347 1462.46M407.09 1487.09L440.834 1462.2M407.09 1487.09V1536.86M407.09 1487.09L373.611 1462.2M407.09 1487.09L440.57 1462.2M407.09 1487.09L373.347 1462.2L339.867 1486.83M440.834 1462.46L474.314 1487.86M440.834 1462.46L407.09 1437.83M474.314 1487.86L407.09 1537.12M474.314 1487.86L440.57 1462.46M474.314 1487.86L440.57 1462.97V1363.16M474.314 1487.86V1437.83M474.314 1487.86L507.794 1512.49M407.09 1537.12L339.867 1487.6M407.09 1537.12L339.604 1487.6M339.867 1487.6L407.09 1437.83M339.867 1487.6V1437.83M339.867 1487.6L306.124 1512.49M339.867 1487.6L407.09 1437.57M339.867 1487.6L407.09 1536.86M407.09 1437.83V1388.05M407.09 1437.83L339.604 1487.6M407.09 1437.83L440.57 1462.46M440.834 1065.53L474.314 1090.93M440.834 1065.53L407.09 1040.9M440.834 1065.53L407.09 1090.16M440.834 1065.53L474.314 1090.68M474.314 1090.93L407.09 1140.19M474.314 1090.93V1040.9M474.314 1090.93L507.794 1115.56M474.314 1090.93L440.57 1065.53M474.314 1090.93V1190.23M407.09 1140.19L440.57 1164.82M407.09 1140.19L373.347 1164.82M407.09 1140.19L474.314 1090.68M407.09 1140.19V1090.16M407.09 1140.19L339.867 1090.68M407.09 1140.19L339.604 1090.68L407.09 1040.9M407.09 1040.9L440.57 1065.53M407.09 1040.9L339.867 1090.68M37.2304 1065.53L3.48693 1040.9M37.2304 1065.53L70.7102 1090.68M52.784 1078.49L17.9861 1103.9L53.5749 1077.71M3.48693 1040.9L-64 1090.68M3.48693 1487.09L37.2304 1462.46M3.48693 1487.09V1537.12L70.7102 1487.86M3.48693 1487.09L37.2304 1462.2M3.48693 1487.09V1536.86M37.2304 1462.46L70.7102 1487.86M37.2304 1462.46L3.48693 1437.83L-64 1487.6L3.48693 1437.57L37.2304 1462.2M70.7102 1487.86V1437.83M70.7102 1487.86L104.454 1512.49M17.9861 1500.83L53.5749 1474.9M104.454 1462.46V1512.49M104.454 1462.46L70.7102 1437.83M137.934 1487.6L104.454 1512.49M137.934 1487.6V1437.57M137.934 1487.6L104.454 1512.23M104.454 1413.2L70.7102 1437.83M407.09 1189.45L440.57 1164.82M407.09 1189.45V1239.49M407.09 1189.45L373.347 1164.82M440.57 1164.82V1214.6L407.09 1239.49M407.09 1239.49L373.347 1214.86M407.09 1239.49L373.347 1264.12M373.347 1164.82V1214.86M373.347 1214.86L339.867 1239.49M407.09 1288.75L440.57 1264.12V1313.9L407.09 1338.53M407.09 1288.75V1338.53M407.09 1288.75L373.347 1264.12M407.09 1338.53L440.57 1363.16M407.09 1338.53L373.347 1363.16M373.347 1264.12V1363.16M373.347 1363.16L407.09 1388.05M373.347 1363.16V1413.2L339.867 1437.83M384.683 1295.49L394.173 1302.49M238.9 1115.56V1065.53M238.9 1115.56L272.38 1140.19M183.013 1097.16L192.503 1104.16M205.157 1487.09L238.9 1462.46M205.157 1487.09V1537.12L238.9 1512.49V1462.46M205.157 1487.09L171.677 1462.46M205.157 1487.09V1536.86M238.9 1462.46V1512.23M171.677 1462.46V1561.75M171.677 1462.46V1561.49M339.867 1239.49L316.668 1222.38M339.867 1239.49V1388.31L306.124 1412.94M339.867 1090.16L373.347 1065.53M373.347 1065.53L407.09 1090.16M272.38 1190.23V1140.19M272.38 1190.23L306.124 1214.86M238.9 1264.64L295.579 1222.38M238.9 1065.53L205.157 1090.16M272.38 1140.19L306.124 1115.56M306.124 1412.94L316.668 1405.16V1222.38M306.124 1412.94L295.579 1405.16V1222.38M306.124 1214.86L339.867 1189.97V1140.19L306.124 1115.56M306.124 1214.86L295.579 1222.38M306.124 1214.86L316.668 1222.38M306.124 1115.56L339.867 1090.68M306.124 1115.56V1065.53M306.124 1115.56L272.38 1090.68M316.668 1207.08V1149.27L339.604 1165.86M295.579 1207.08V1149.01L272.38 1166.12M306.124 1065.27L339.867 1040.64V1090.68M306.124 1065.27V1115.31M306.124 1065.27L272.38 1040.64V1090.68M339.867 1090.68L306.124 1115.31M339.867 1090.68V1040.9L306.124 1065.53M306.124 1115.31L272.38 1090.68M272.38 1090.68L238.9 1066.05M272.38 1090.68V1040.9L306.124 1065.53M407.09 1388.05L440.57 1363.16M440.57 1363.16L474.05 1388.57L507.794 1413.2M339.867 1437.83V1487.86M339.867 1437.83L306.124 1462.46M339.867 1437.83L306.124 1413.2L272.38 1437.83M238.9 1462.97L272.38 1487.86M272.38 1487.86V1437.83M272.38 1487.86L306.124 1512.49M306.124 1462.46V1512.49M306.124 1462.46L272.38 1437.83M642.504 1214.86V1164.82M642.504 1214.86L675.984 1190.23M642.504 1214.86V1264.64M642.504 1164.82L608.76 1140.19M642.504 1164.82L608.76 1189.45M608.76 1140.19L575.017 1164.82M608.76 1140.19L642.504 1115.56M608.76 1140.19L642.504 1115.31V1065.53M608.76 1140.19V1090.16M575.017 1164.82V1214.86L541.537 1239.49M575.017 1164.82L608.76 1189.45M575.017 1164.82V1065.53L608.76 1090.16M608.76 1288.75L642.504 1264.12L675.984 1289.27M608.76 1288.75V1338.53M608.76 1288.75L575.017 1264.12L541.537 1239.49M608.76 1288.75V1189.45M675.984 1289.27L608.76 1338.53M675.984 1289.27L642.504 1264.64M675.984 1289.27V1388.31L709.727 1412.94M608.76 1338.53L575.017 1313.9L541.537 1289.27M608.76 1338.53L642.504 1363.16M608.76 1338.53L575.017 1363.16M658.848 1276.31L623.26 1302.49M541.537 1239.49V1289.27M541.537 1239.49L507.794 1264.12M541.537 1239.49L507.794 1214.86M541.537 1289.27L507.794 1313.9M541.537 1040.9L507.794 1065.53M541.537 1040.9V1189.97L507.794 1214.86M541.537 1040.9V1090.68L507.794 1115.56M440.57 1214.86L474.314 1190.23M474.314 1190.23L507.794 1214.86M440.57 1264.64L474.314 1289.27M474.314 1289.27V1239.49M474.314 1289.27L507.794 1313.9M507.794 1264.12V1313.9M507.794 1264.12L474.314 1239.49M507.794 1214.86L474.314 1239.49M507.794 1065.53V1115.56M507.794 1065.53L474.314 1040.9M507.794 1115.56L474.314 1090.68M474.314 1040.9V1090.68M608.76 1388.05L642.504 1363.16M608.76 1388.05V1437.83M608.76 1388.05L575.017 1363.16M642.504 1363.16V1413.2M642.504 1413.2L608.76 1437.83M642.504 1413.2L675.984 1388.57M608.76 1437.83L575.017 1413.2M608.76 1437.83L575.017 1462.46M575.017 1363.16V1413.2M575.017 1363.16L507.794 1313.64L442.416 1363.42M575.017 1363.16L507.794 1413.2M575.017 1413.2L541.537 1437.83M541.537 1437.83V1487.86M541.537 1437.83L507.794 1462.46M541.537 1437.83V1487.6M541.537 1437.83L507.794 1413.2M810.694 1487.09L844.437 1462.46M810.694 1487.09V1537.12M810.694 1487.09L776.95 1462.46M810.694 1487.09L844.437 1462.2M810.694 1487.09V1536.86M810.694 1487.09L776.95 1462.2L743.207 1486.83M844.437 1462.46L877.917 1487.86L810.694 1537.12M844.437 1462.46L810.694 1437.83L743.207 1487.6M810.694 1537.12L743.207 1487.6M743.207 1487.6V1437.83M743.207 1487.6L709.727 1512.49M743.207 1487.6L810.694 1437.57L844.437 1462.2M743.207 1487.6L810.694 1536.86M844.437 1065.53L877.917 1090.93L810.694 1140.19M844.437 1065.53L810.694 1040.9M844.437 1065.53L810.694 1090.16M844.437 1065.53L877.917 1090.68L810.694 1140.19M810.694 1140.19V1090.16M810.694 1140.19L743.207 1090.68M810.694 1040.9L743.207 1090.68M776.95 1065.53L743.207 1090.16M776.95 1065.53L810.694 1090.16M440.57 1065.53L407.09 1090.16M440.57 1065.53L474.314 1090.68M456.124 1078.49L421.59 1103.9L457.178 1077.71M421.59 1500.83L457.178 1474.9M339.604 1487.6L407.09 1437.57M339.604 1487.6L407.09 1536.86M507.794 1462.46V1512.49M507.794 1462.46L474.314 1437.83M541.537 1487.6L507.794 1512.49M541.537 1487.6V1437.57M541.537 1487.6L507.794 1512.23M507.794 1413.2L474.314 1437.83M810.43 1189.45L844.174 1164.82M810.43 1189.45V1239.49M810.43 1189.45L776.95 1164.82M844.174 1164.82V1214.6L810.43 1239.49M844.174 1164.82L810.43 1140.19L776.95 1164.82M810.43 1239.49L776.95 1214.86M810.43 1239.49L776.95 1264.12M776.95 1164.82V1214.86M776.95 1214.86L743.207 1239.49M810.43 1288.75L844.174 1264.12V1313.9L810.43 1338.53M810.43 1288.75V1338.53M810.43 1288.75L776.95 1264.12M810.43 1338.53L844.174 1363.16M810.43 1338.53L776.95 1363.16M776.95 1264.12V1363.16M776.95 1363.16L810.43 1388.05M776.95 1363.16V1413.2L743.207 1437.83M788.286 1295.49L797.776 1302.49M642.504 1115.56V1065.53M642.504 1115.56L675.984 1140.19M586.353 1097.16L595.843 1104.16M608.76 1487.09L642.504 1462.46M608.76 1487.09V1537.12L642.504 1512.49V1462.46M608.76 1487.09L575.017 1462.46M608.76 1487.09V1536.86M642.504 1462.46V1512.23M575.017 1462.46V1561.75M575.017 1462.46V1561.49M743.207 1239.49L720.272 1222.38M743.207 1239.49V1388.31L709.727 1412.94M675.984 1190.23V1140.19M675.984 1190.23L709.727 1214.86M642.504 1264.64L699.182 1222.38M642.504 1065.53L608.76 1090.16M675.984 1140.19L709.727 1115.56M709.727 1412.94L720.272 1405.16V1222.38M709.727 1412.94L699.182 1405.16V1222.38M709.727 1214.86L743.207 1189.97V1140.19L709.727 1115.56M709.727 1214.86L699.182 1222.38M709.727 1214.86L720.272 1222.38M709.727 1115.56L743.207 1090.68M709.727 1115.56V1065.53M709.727 1115.56L675.984 1090.68M720.272 1207.08V1149.27L743.207 1165.86M699.182 1207.08V1149.01L675.984 1166.12M709.727 1065.27L743.207 1040.64V1090.68M709.727 1065.27V1115.31M709.727 1065.27L675.984 1040.64V1090.68M743.207 1090.68L709.727 1115.31M743.207 1090.68V1040.9L709.727 1065.53M709.727 1115.31L675.984 1090.68M675.984 1090.68L642.504 1066.05M675.984 1090.68V1040.9L709.727 1065.53M810.43 1437.83V1388.05M810.43 1388.05L844.174 1363.16M844.174 1363.16V1413.2M743.207 1437.83V1487.86M743.207 1437.83L709.727 1462.46M743.207 1437.83L709.727 1413.2L675.984 1437.83M642.504 1462.97L675.984 1487.86M675.984 1487.86V1437.83M675.984 1487.86L709.727 1512.49M709.727 1462.46V1512.49M709.727 1462.46L675.984 1437.83M944.613 1040.9L911.133 1065.53M944.613 1040.9V1090.93L911.133 1115.56M944.613 1040.9V1189.97L911.133 1214.86M810.167 1189.45L843.91 1164.82M810.167 1189.45V1239.49M810.167 1189.45L776.687 1164.82M843.91 1164.82V1214.6L810.167 1239.49M843.91 1164.82L810.167 1140.19L776.687 1164.82M810.167 1239.49L776.687 1214.86V1164.82M843.91 1214.86L877.39 1190.23M877.39 1190.23V1090.93M877.39 1190.23L911.133 1214.86M843.91 1264.64L877.39 1289.27M877.39 1289.27V1239.49M877.39 1289.27L911.133 1313.9M911.133 1264.12L944.613 1239.49M911.133 1264.12V1313.9M911.133 1264.12L877.39 1239.49M944.613 1239.49V1289.27L911.133 1313.9M944.613 1239.49L911.133 1214.86M911.133 1214.86L877.39 1239.49M911.133 1065.53V1115.56M911.133 1065.53L877.39 1040.9V1090.93M911.133 1115.56L877.39 1090.93M944.613 1437.83L911.133 1413.2M911.133 1413.2L877.39 1437.83M911.133 1413.2L877.39 1388.57L843.91 1363.16M845.755 1363.42L911.133 1313.64M474.314 1090.68L440.57 1066.05V1016.27M70.7102 1090.68L37.2304 1066.05V1016.27M238.9 1611.53V1561.49M238.9 1611.53L272.38 1586.9M238.9 1611.53V1661.31M238.9 1561.49L205.157 1536.86M238.9 1561.49L205.157 1586.12M205.157 1536.86L171.677 1561.49M205.157 1536.86L238.9 1512.23M171.677 1561.49V1611.53L137.934 1636.16M171.677 1561.49L205.157 1586.12M205.157 1685.42L238.9 1660.79L272.38 1685.94M205.157 1685.42V1735.2M205.157 1685.42L171.677 1660.79L137.934 1636.16M205.157 1685.42V1586.12M272.38 1685.94L205.157 1735.2M272.38 1685.94L238.9 1661.31M272.38 1685.94V1784.98L306.124 1809.61M205.157 1735.2L171.677 1710.57L137.934 1685.94M205.157 1735.2L238.9 1759.83M205.157 1735.2L171.677 1759.83M255.245 1672.98L219.656 1699.16M137.934 1636.16V1685.94M137.934 1636.16L104.454 1660.79M137.934 1636.16L104.454 1611.53M137.934 1685.94L104.454 1710.57M137.934 1437.57L104.454 1462.2M137.934 1437.57V1586.64L104.454 1611.53M37.2304 1561.49L3.48693 1586.12V1636.16L37.2304 1611.27V1561.49ZM37.2304 1561.49L3.48693 1536.86M3.48693 1536.86L-30.2565 1561.49M3.48693 1536.86L70.7102 1487.6M37.2304 1611.53L70.7102 1586.9M70.7102 1586.9V1487.6M70.7102 1586.9L104.454 1611.53M37.2304 1661.31L70.7102 1685.94M70.7102 1685.94V1636.16M70.7102 1685.94L104.454 1710.57M104.454 1660.79V1710.57M104.454 1660.79L70.7102 1636.16M104.454 1611.53L70.7102 1636.16M104.454 1462.2V1512.23M104.454 1462.2L70.7102 1437.57V1487.6M104.454 1512.23L70.7102 1487.6M70.7102 1487.6L37.2304 1462.2M205.157 1784.72L238.9 1759.83M205.157 1784.72V1834.5M205.157 1784.72L171.677 1759.83M238.9 1759.83V1809.87M238.9 1809.87L205.157 1834.5M238.9 1809.87L272.38 1785.24M205.157 1834.5L171.677 1809.87M205.157 1834.5L171.677 1859.13M171.677 1759.83V1809.87M171.677 1759.83L104.454 1710.31L39.0757 1760.09M171.677 1759.83L104.454 1809.87M171.677 1809.87L137.934 1834.5M137.934 1834.5V1884.53M137.934 1834.5L104.454 1859.13M137.934 1834.5V1884.27L104.454 1909.16M137.934 1834.5L104.454 1809.87M3.48693 1784.72L37.2304 1759.83M37.2304 1759.83L3.48693 1735.2M37.2304 1759.83L70.7102 1785.24L104.454 1809.87M37.2304 1759.83V1859.64L70.7102 1884.53M3.48693 1735.2L-30.2565 1759.83M3.48693 1735.2L37.2304 1710.57V1660.79L3.48693 1685.42V1735.2ZM407.09 1883.76L440.834 1859.13M407.09 1883.76V1933.79L474.314 1884.53M407.09 1883.76L373.611 1859.13M407.09 1883.76L440.57 1859.13M407.09 1883.76L373.347 1859.13M440.834 1859.13L474.314 1884.53M440.834 1859.13L407.09 1834.5M474.314 1884.53L440.57 1859.13M474.314 1884.53L440.57 1859.64V1759.83M474.314 1884.53V1834.5M474.314 1884.53L507.794 1909.16M339.867 1884.27L407.09 1834.5M339.867 1884.27V1834.5M339.867 1884.27L306.124 1909.16M407.09 1834.5V1784.72M407.09 1834.5L339.604 1884.27M407.09 1834.5L440.57 1859.13M440.834 1462.2L474.314 1487.6M440.834 1462.2L407.09 1437.57M474.314 1487.6L407.09 1536.86M474.314 1487.6V1437.57L507.794 1462.2M474.314 1487.6L507.794 1512.23M474.314 1487.6L440.57 1462.2M474.314 1487.6V1586.9M407.09 1536.86L440.57 1561.49M407.09 1536.86L373.347 1561.49M407.09 1437.57L440.57 1462.2M17.9861 1500.57L52.784 1475.16M37.2304 1859.13L3.48693 1883.76V1933.79L70.7102 1884.53M37.2304 1859.13L70.7102 1884.53M37.2304 1859.13L3.48693 1834.5L-64 1884.27M70.7102 1884.53V1834.5M70.7102 1884.53L104.454 1909.16M17.9861 1897.5L53.5749 1871.57M104.454 1859.13V1909.16M104.454 1859.13L70.7102 1834.5M104.454 1809.87L70.7102 1834.5M407.09 1586.12L440.57 1561.49M407.09 1586.12V1636.16M407.09 1586.12L373.347 1561.49M440.57 1561.49V1611.27L407.09 1636.16M407.09 1636.16L373.347 1611.53M407.09 1636.16L373.347 1660.79M373.347 1561.49V1611.53M373.347 1611.53L339.867 1636.16M407.09 1685.42L440.57 1660.79V1710.57L407.09 1735.2M407.09 1685.42V1735.2M407.09 1685.42L373.347 1660.79M407.09 1735.2L440.57 1759.83M407.09 1735.2L373.347 1759.83M373.347 1660.79V1759.83M373.347 1759.83L407.09 1784.72M373.347 1759.83V1809.87L339.867 1834.5M384.683 1692.16L394.173 1699.16M238.9 1512.23V1462.2M238.9 1512.23L272.38 1536.86M183.013 1493.83L192.503 1500.83M205.157 1883.76L238.9 1859.13V1909.16L205.157 1933.79V1883.76ZM205.157 1883.76L171.677 1859.13M171.677 1859.13V1958.42M339.867 1636.16L316.668 1619.05M339.867 1636.16V1784.98L306.124 1809.61M272.38 1586.9V1536.86M272.38 1586.9L306.124 1611.53M238.9 1661.31L295.579 1619.05M272.38 1536.86L306.124 1512.23L339.867 1536.86V1586.64L306.124 1611.53M306.124 1809.61L316.668 1801.83V1619.05M306.124 1809.61L295.579 1801.83V1619.05M306.124 1611.53L295.579 1619.05M306.124 1611.53L316.668 1619.05M316.668 1603.75V1545.94L339.604 1562.53M295.579 1603.75V1545.68L272.38 1562.79M306.124 1461.94L339.867 1437.31V1487.34L306.124 1511.97M306.124 1461.94V1511.97M306.124 1461.94L272.38 1437.31V1487.34L306.124 1511.97M407.09 1784.72L440.57 1759.83M440.57 1759.83L474.05 1785.24L507.794 1809.87M339.867 1834.5V1884.53M339.867 1834.5L306.124 1859.13M339.867 1834.5L306.124 1809.87L272.38 1834.5M238.9 1859.64L272.38 1884.53M272.38 1884.53V1834.5M272.38 1884.53L306.124 1909.16M306.124 1859.13V1909.16M306.124 1859.13L272.38 1834.5M642.504 1611.53V1561.49M642.504 1611.53L675.984 1586.9M642.504 1611.53V1661.31M642.504 1561.49L608.76 1536.86M642.504 1561.49L608.76 1586.12M608.76 1536.86L575.017 1561.49M608.76 1536.86L642.504 1512.23M575.017 1561.49V1611.53L541.537 1636.16M575.017 1561.49L608.76 1586.12M608.76 1685.42L642.504 1660.79L675.984 1685.94M608.76 1685.42V1735.2M608.76 1685.42L575.017 1660.79L541.537 1636.16M608.76 1685.42V1586.12M675.984 1685.94L608.76 1735.2M675.984 1685.94L642.504 1661.31M675.984 1685.94V1784.98L709.727 1809.61M608.76 1735.2L575.017 1710.57L541.537 1685.94M608.76 1735.2L642.504 1759.83M608.76 1735.2L575.017 1759.83M658.848 1672.98L623.26 1699.16M541.537 1636.16V1685.94M541.537 1636.16L507.794 1660.79M541.537 1636.16L507.794 1611.53M541.537 1685.94L507.794 1710.57M541.537 1437.57L507.794 1462.2M541.537 1437.57V1586.64L507.794 1611.53M440.57 1611.53L474.314 1586.9M474.314 1586.9L507.794 1611.53M440.57 1661.31L474.314 1685.94M474.314 1685.94V1636.16M474.314 1685.94L507.794 1710.57M507.794 1660.79V1710.57M507.794 1660.79L474.314 1636.16M507.794 1611.53L474.314 1636.16M507.794 1462.2V1512.23M608.76 1784.72L642.504 1759.83M608.76 1784.72V1834.5M608.76 1784.72L575.017 1759.83M642.504 1759.83V1809.87M642.504 1809.87L608.76 1834.5M642.504 1809.87L675.984 1785.24M608.76 1834.5L575.017 1809.87M608.76 1834.5L575.017 1859.13M575.017 1759.83V1809.87M575.017 1759.83L507.794 1710.31L442.416 1760.09M575.017 1759.83L507.794 1809.87M575.017 1809.87L541.537 1834.5M541.537 1834.5V1884.53M541.537 1834.5L507.794 1859.13M541.537 1834.5V1884.27L507.794 1909.16M541.537 1834.5L507.794 1809.87M810.694 1883.76L844.437 1859.13M810.694 1883.76V1933.79L877.917 1884.53L844.437 1859.13M810.694 1883.76L776.95 1859.13M844.437 1859.13L810.694 1834.5L743.207 1884.27M743.207 1884.27V1834.5M743.207 1884.27L709.727 1909.16M844.437 1462.2L877.917 1487.6L810.694 1536.86M421.59 1500.57L456.124 1475.16M421.59 1897.5L457.178 1871.57M507.794 1859.13V1909.16M507.794 1859.13L474.314 1834.5M507.794 1809.87L474.314 1834.5M810.43 1586.12L844.174 1561.49M810.43 1586.12V1636.16M810.43 1586.12L776.95 1561.49M844.174 1561.49V1611.27L810.43 1636.16M844.174 1561.49L810.43 1536.86L776.95 1561.49M810.43 1636.16L776.95 1611.53M810.43 1636.16L776.95 1660.79M776.95 1561.49V1611.53M776.95 1611.53L743.207 1636.16M810.43 1685.42L844.174 1660.79V1710.57L810.43 1735.2M810.43 1685.42V1735.2M810.43 1685.42L776.95 1660.79M810.43 1735.2L844.174 1759.83M810.43 1735.2L776.95 1759.83M776.95 1660.79V1759.83M776.95 1759.83L810.43 1784.72M776.95 1759.83V1809.87L743.207 1834.5M788.286 1692.16L797.776 1699.16M642.504 1512.23V1462.2M642.504 1512.23L675.984 1536.86M586.353 1493.83L595.843 1500.83M608.76 1883.76L642.504 1859.13V1909.16L608.76 1933.79V1883.76ZM608.76 1883.76L575.017 1859.13M575.017 1859.13V1958.42M743.207 1636.16L720.272 1619.05M743.207 1636.16V1784.98L709.727 1809.61M675.984 1586.9V1536.86M675.984 1586.9L709.727 1611.53M642.504 1661.31L699.182 1619.05M675.984 1536.86L709.727 1512.23L743.207 1536.86V1586.64L709.727 1611.53M709.727 1809.61L720.272 1801.83V1619.05M709.727 1809.61L699.182 1801.83V1619.05M709.727 1611.53L699.182 1619.05M709.727 1611.53L720.272 1619.05M720.272 1603.75V1545.94L743.207 1562.53M699.182 1603.75V1545.68L675.984 1562.79M709.727 1461.94L743.207 1437.31V1487.34L709.727 1511.97M709.727 1461.94V1511.97M709.727 1461.94L675.984 1437.31V1487.34L709.727 1511.97M810.43 1834.5V1784.72M810.43 1784.72L844.174 1759.83M844.174 1759.83V1809.87M743.207 1834.5V1884.53M743.207 1834.5L709.727 1859.13M743.207 1834.5L709.727 1809.87L675.984 1834.5M642.504 1859.64L675.984 1884.53M675.984 1884.53V1834.5M675.984 1884.53L709.727 1909.16M709.727 1859.13V1909.16M709.727 1859.13L675.984 1834.5M944.613 1437.57L911.133 1462.2M944.613 1437.57V1487.6L911.133 1512.23M944.613 1437.57V1586.64L911.133 1611.53M810.167 1586.12L843.91 1561.49M810.167 1586.12V1636.16M810.167 1586.12L776.687 1561.49M843.91 1561.49V1611.27L810.167 1636.16M843.91 1561.49L810.167 1536.86L776.687 1561.49M810.167 1636.16L776.687 1611.53V1561.49M843.91 1611.53L877.39 1586.9M877.39 1586.9V1487.6M877.39 1586.9L911.133 1611.53M843.91 1661.31L877.39 1685.94M877.39 1685.94V1636.16M877.39 1685.94L911.133 1710.57M911.133 1660.79L944.613 1636.16M911.133 1660.79V1710.57M911.133 1660.79L877.39 1636.16M944.613 1636.16V1685.94L911.133 1710.57M944.613 1636.16L911.133 1611.53M911.133 1611.53L877.39 1636.16M911.133 1462.2V1512.23M911.133 1462.2L877.39 1437.57V1487.6M911.133 1512.23L877.39 1487.6M944.613 1834.5L911.133 1809.87M911.133 1809.87L877.39 1834.5M911.133 1809.87L877.39 1785.24L843.91 1759.83M845.755 1760.09L911.133 1710.31" stroke="#C5C6E5" stroke-width="1.13451" stroke-miterlimit="10" stroke-linecap="round" stroke-linejoin="round"/>
</mask>
<g mask="url(#mask0_213_10)">
<path d="M306.852 273.732L34.9235 75.7941L-63.7295 2.43677H674.271L306.852 273.732Z" fill="white"/>
</g>
</g>
</g>
<defs>
<clipPath id="clip0_213_10">
<rect width="738" height="272" fill="white"/>
</clipPath>
</defs>
</svg>
