<svg width="55" height="52" viewBox="0 0 55 52" fill="none" xmlns="http://www.w3.org/2000/svg">
<path d="M49.2954 28.4542C51.2835 26.7171 52.541 24.1627 52.541 21.3146C52.541 17.1099 49.7975 13.5491 46.0048 12.3119C45.2787 7.80213 41.3791 4.35398 36.6644 4.35398C35.1604 4.35398 33.7431 4.71308 32.48 5.33674C32.3111 5.28721 32.1389 5.24555 31.9667 5.20503C30.2634 2.69234 27.3848 1.04199 24.1212 1.04199C20.8881 1.04199 18.0366 2.66306 16.3277 5.13522C15.0781 4.63538 13.717 4.35398 12.2896 4.35398C6.27244 4.35398 1.39453 9.23185 1.39453 15.249C1.39453 21.2662 6.27244 26.1441 12.2896 26.1441C16.6283 26.1441 20.3635 23.601 22.1163 19.9299C23.8353 22.3289 26.6384 23.8971 29.8142 23.8971C31.2225 23.8971 32.5554 23.5807 33.7566 23.0291C34.2598 25.7782 35.9473 28.1141 38.2709 29.4842" stroke="#6A65A4" stroke-width="2" stroke-miterlimit="79.8403"/>
<path d="M5.35059 14.9452C5.35059 18.7806 8.45993 21.8888 12.2954 21.8888" stroke="#6A65A4" stroke-width="2" stroke-miterlimit="79.8403"/>
<path d="M24.0234 13.1192C24.0234 16.3715 26.6599 19.008 29.9111 19.008" stroke="#6A65A4" stroke-width="2" stroke-miterlimit="79.8403"/>
<path d="M38.0605 23.2948C38.7878 25.1816 40.4595 26.6 42.496 26.9704" stroke="#6A65A4" stroke-width="2" stroke-miterlimit="79.8403"/>
<path d="M12.29 4.35403C15.584 4.35403 18.5357 5.81523 20.5339 8.12527" stroke="#6A65A4" stroke-width="2" stroke-miterlimit="79.8403"/>
<path d="M30.3564 3.38231C32.0226 4.84016 33.1731 6.87216 33.4995 9.1687" stroke="#6A65A4" stroke-width="2" stroke-miterlimit="79.8403"/>
<path d="M36.9923 20.5895C35.2552 22.6046 32.684 23.88 29.8145 23.88" stroke="#6A65A4" stroke-width="2" stroke-miterlimit="79.8403"/>
<path fill-rule="evenodd" clip-rule="evenodd" d="M51.7723 50.9693L47.3346 30.7057H40.1387L35.5547 50.9693H51.7723Z" stroke="#6A65A4" stroke-width="2" stroke-miterlimit="79.8403"/>
<path d="M0 50.9693H54.0362" stroke="#6A65A4" stroke-width="2" stroke-miterlimit="79.8403"/>
<path d="M38.2753 36.3345H18.0117V50.9693" stroke="#6A65A4" stroke-width="2" stroke-miterlimit="79.8403"/>
<path d="M15.7609 40.8375H6.75488V50.9693" stroke="#6A65A4" stroke-width="2" stroke-miterlimit="79.8403"/>
<path d="M21.3896 46.4663H23.6412" stroke="#6A65A4" stroke-width="2" stroke-miterlimit="79.8403"/>
<path d="M25.8926 46.4663H28.1441" stroke="#6A65A4" stroke-width="2" stroke-miterlimit="79.8403"/>
<path d="M30.3955 46.4663H32.647" stroke="#6A65A4" stroke-width="2" stroke-miterlimit="79.8403"/>
<path d="M10.1318 46.4663H12.3833" stroke="#6A65A4" stroke-width="2" stroke-miterlimit="79.8403"/>
</svg>
