<svg width="48" height="54" viewBox="0 0 48 54" fill="none" xmlns="http://www.w3.org/2000/svg">
<path fill-rule="evenodd" clip-rule="evenodd" d="M32.5212 52.7847H7.75464V31.3953H32.5212V52.7847Z" stroke="#6A65A4" stroke-width="2" stroke-miterlimit="79.8403" stroke-linejoin="round"/>
<path d="M34.7727 40.4014H46.0303V52.7847H32.5212" stroke="#6A65A4" stroke-width="2" stroke-miterlimit="79.8403" stroke-linejoin="round"/>
<path fill-rule="evenodd" clip-rule="evenodd" d="M7.75453 52.7847H1V17.8863H7.75453V52.7847Z" stroke="#6A65A4" stroke-width="2" stroke-miterlimit="79.8403" stroke-linejoin="round"/>
<path d="M12.2576 29.1436V24.6405H19.0121V29.1436" stroke="#6A65A4" stroke-width="2" stroke-miterlimit="79.8403" stroke-linejoin="round"/>
<path d="M13.3833 43.7785V49.4072" stroke="#6A65A4" stroke-width="2" stroke-miterlimit="79.8403" stroke-linejoin="round"/>
<path d="M17.8862 43.7785V49.4072" stroke="#6A65A4" stroke-width="2" stroke-miterlimit="79.8403" stroke-linejoin="round"/>
<path d="M22.3894 43.7785V49.4072" stroke="#6A65A4" stroke-width="2" stroke-miterlimit="79.8403" stroke-linejoin="round"/>
<path d="M26.8923 43.7785V49.4072" stroke="#6A65A4" stroke-width="2" stroke-miterlimit="79.8403" stroke-linejoin="round"/>
<path d="M37.0242 43.7785V49.4072" stroke="#6A65A4" stroke-width="2" stroke-miterlimit="79.8403" stroke-linejoin="round"/>
<path d="M41.5273 43.7785V49.4072" stroke="#6A65A4" stroke-width="2" stroke-miterlimit="79.8403" stroke-linejoin="round"/>
<path d="M2.12573 15.6348C2.12573 9.41722 3.81436 4.37722 11.1318 4.37722H12.2575" stroke="#6A65A4" stroke-width="2" stroke-miterlimit="79.8403" stroke-linejoin="round"/>
<path d="M11.1316 7.75464C11.1316 4.6453 13.651 2.12587 16.7604 2.12587C19.0153 2.12587 20.9617 3.45201 21.8589 5.36804" stroke="#6A65A4" stroke-width="2" stroke-miterlimit="79.8403" stroke-linejoin="round"/>
<path d="M6.62866 15.6348C6.62866 13.7694 9.65244 12.2575 13.3832 12.2575H30.2695C32.7563 12.2575 34.7725 10.2413 34.7725 7.75448C34.7725 3.6027 31.7476 0.999957 28.018 0.999957C24.2872 0.999957 21.2635 4.02373 21.2635 7.75448" stroke="#6A65A4" stroke-width="2" stroke-miterlimit="79.8403" stroke-linejoin="round"/>
<path d="M13.3833 22.3892C13.3833 19.3204 13.7942 16.5386 15.09 14.5089" stroke="#6A65A4" stroke-width="2" stroke-miterlimit="79.8403" stroke-linejoin="round"/>
<path d="M17.8862 22.3892C17.8862 20.5238 20.91 19.0119 24.6408 19.0119H41.5271C44.0139 19.0119 46.0301 16.9957 46.0301 14.5089C46.0301 10.3571 43.0052 7.75435 39.2756 7.75435C38.4853 7.75435 37.7276 7.88945 37.0229 8.13824" stroke="#6A65A4" stroke-width="2" stroke-miterlimit="79.8403" stroke-linejoin="round"/>
</svg>
