<svg width="1009" height="2133" viewBox="0 0 1009 2133" fill="none" xmlns="http://www.w3.org/2000/svg">
<mask id="mask0_180_3" style="mask-type:alpha" maskUnits="userSpaceOnUse" x="-1" y="-1" width="1011" height="2134">
<path d="M806.68 24.6298V74.4079L840.16 99.297M806.68 24.6298L840.16 49.2596M806.68 24.6298V74.6672L840.16 99.297M806.68 24.6298V173.705L840.16 198.594M537.523 73.8894L503.779 49.2596M537.523 73.8894V123.927M537.523 73.8894L571.003 49.2596L537.523 74.1487M537.523 73.8894L504.043 49.2596M537.523 73.8894L571.266 49.2596M503.779 49.2596L470.3 74.4079M503.779 49.2596L537.523 24.6298M503.779 49.2596L537.523 74.1487M503.779 49.2596L470.3 74.6672M470.3 74.4079L537.523 123.927M470.3 74.4079L504.043 49.2596M470.3 74.4079L504.043 49.7781V0M470.3 74.4079V24.6298M470.3 74.4079L436.82 99.297M537.523 123.927L604.746 74.4079M537.523 123.927L605.01 74.4079L537.523 24.6298M537.523 123.927L470.3 74.6672M537.523 123.927V74.1487M537.523 123.927L604.746 74.6672L537.523 24.6298M537.523 123.927L504.043 148.557M537.523 123.927L571.266 148.557M537.523 123.927L605.01 74.6672L537.523 24.6298M604.746 74.4079L537.523 24.6298M604.746 74.4079V24.6298L638.49 49.2596M604.746 74.4079L638.49 99.297M604.746 74.4079V24.3705L638.49 49.0003M604.746 74.4079L638.49 99.0377M537.523 24.6298L504.043 49.2596M907.383 49.2596L941.126 73.8894V123.927M907.383 49.2596L873.903 74.4079M907.383 49.2596L941.126 24.6298M907.383 49.2596L941.126 74.1487V123.927M907.383 49.2596L873.903 74.6672M873.903 74.4079L941.126 123.927M873.903 74.4079L907.383 49.7781V0M873.903 74.4079V24.6298M873.903 74.4079L840.16 99.297M941.126 123.927L907.383 148.557M941.126 123.927L974.87 148.557M941.126 123.927L873.903 74.6672M891.038 61.4449L926.627 87.6302L891.829 62.2227M1008.61 74.4079L941.126 24.6298M941.126 24.6298L1008.61 74.6672M840.16 49.2596V99.297M840.16 49.2596L873.903 24.6298M840.16 99.297L873.903 74.6672M873.903 24.6298V74.6672M739.456 73.8894L705.713 49.2596M739.456 73.8894V123.927M739.456 73.8894L772.936 49.2596V148.557M705.713 49.2596V99.0377L739.456 123.927M705.713 49.2596V99.297M739.456 123.927L705.713 148.557M739.456 123.927L772.936 148.557M739.456 123.927L705.713 99.297M739.456 123.927V74.1487L705.713 49.5189V99.297M772.936 148.557V198.594L806.68 223.224M772.936 148.557V49.5189M772.936 148.557L739.456 173.186M705.713 49.7781L672.233 74.4079M672.233 74.4079V24.6298L638.49 49.2596M672.233 74.4079L638.49 99.297M672.233 74.4079V24.3705L638.49 49.0003M672.233 74.4079L638.49 99.0377M638.49 49.2596V99.297M638.49 99.297L672.233 123.927M638.49 99.297L604.746 123.927V173.705L638.49 198.594M403.076 24.6298V74.4079L436.82 99.297M403.076 24.6298L436.82 49.2596M403.076 24.6298V74.6672L436.82 99.297M403.076 24.6298V173.705L436.82 198.594M133.919 73.8894L100.176 49.2596M133.919 73.8894V123.927M133.919 73.8894L167.663 49.2596M100.176 49.2596L66.696 74.4079L133.919 123.927M100.176 49.2596L133.919 24.6298M100.176 49.2596L133.919 74.1487M100.176 49.2596L66.696 74.6672L133.919 123.927M133.919 123.927L201.406 74.4079M133.919 123.927V74.1487M133.919 123.927L201.406 74.6672L133.919 24.6298M201.406 74.4079L133.919 24.6298M201.406 74.4079V24.6298L234.886 49.2596M201.406 74.4079L234.886 99.297M201.406 74.4079V24.3705L234.886 49.0003M201.406 74.4079L234.886 99.0377M167.663 49.2596L133.919 74.1487M167.663 49.2596L201.406 73.8894M504.043 49.2596L537.523 74.1487M504.043 49.2596L470.3 74.6672M487.435 61.4449L523.024 87.6302L488.489 62.2227M571.266 49.2596L604.746 73.8894M571.266 49.2596L537.523 74.1487M436.82 49.2596V99.297M436.82 49.2596L470.3 24.6298M436.82 99.297L470.3 74.6672M470.3 24.6298V74.6672M335.853 73.8894L302.109 49.2596M335.853 73.8894V123.927M335.853 73.8894L369.596 49.2596V148.557M302.109 49.2596V99.0377L335.853 123.927M302.109 49.2596V99.297M335.853 123.927L302.109 148.557M335.853 123.927L369.596 148.557M335.853 123.927L302.109 99.297M335.853 123.927V74.1487L302.109 49.5189V99.297M369.596 148.557V198.594L403.076 223.224M369.596 148.557V49.5189M369.596 148.557L335.853 173.186M302.109 49.7781L268.63 74.4079M268.63 74.4079V24.6298L234.886 49.2596M268.63 74.4079L234.886 99.297M268.63 74.4079V24.3705L234.886 49.0003M268.63 74.4079L234.886 99.0377M234.886 49.2596V99.297M234.886 99.297L268.63 123.927M234.886 99.297L201.406 123.927V173.705L234.886 198.594M705.713 198.594V148.557M705.713 198.594L672.233 173.964M705.713 198.594V248.372M705.713 148.557L739.456 173.186M739.456 272.483L705.713 247.854L672.233 273.002M739.456 272.483V322.261M739.456 272.483L772.936 247.854L806.68 223.224M739.456 272.483V173.186M672.233 273.002L739.456 322.261M672.233 273.002L705.713 248.372M672.233 273.002V372.04L638.49 396.669M739.456 322.261L772.936 297.632L806.68 273.002M739.456 322.261L705.713 346.891M739.456 322.261L772.936 346.891M689.368 260.039L724.957 286.224M806.68 223.224V273.002M806.68 223.224L840.16 247.854M806.68 223.224L840.16 198.594M806.68 273.002L840.16 297.632M907.383 148.557L941.126 173.186V223.224L907.383 198.335V148.557ZM907.383 198.594L873.903 173.964M873.903 173.964V74.6672M873.903 173.964L840.16 198.594M907.383 248.372L873.903 273.002M873.903 273.002V223.224M873.903 273.002L840.16 297.632M840.16 247.854V297.632M840.16 247.854L873.903 223.224M840.16 198.594L873.903 223.224M739.456 371.78L705.713 346.891M739.456 371.78V421.558M739.456 371.78L772.936 346.891M705.713 346.891V396.929M705.713 396.929L739.456 421.558M705.713 396.929L672.233 372.299M739.456 421.558L772.936 396.929M739.456 421.558L772.936 446.188M772.936 346.891V396.929M772.936 346.891L840.16 297.372L905.538 347.151M772.936 346.891L840.16 396.929M772.936 396.929L806.68 421.558M806.68 421.558V471.596M806.68 421.558L840.16 446.188M806.68 421.558V471.337M806.68 421.558L840.16 396.929M941.126 371.78L907.383 346.891M907.383 346.891L941.126 322.261M907.383 346.891L873.903 372.299L840.16 396.929M907.383 346.891V446.707L873.903 471.596M941.126 322.261L974.87 346.891M941.126 322.261L907.383 297.632V247.854L941.126 272.483V322.261ZM537.523 470.818L503.779 446.188M537.523 470.818V520.855M537.523 470.818L571.003 446.188M537.523 470.818L504.043 446.188M537.523 470.818L571.266 446.188M537.523 470.818L503.779 445.929M537.523 470.818V520.596M537.523 470.818L571.003 445.929M537.523 470.818L504.043 445.929M537.523 470.818L571.266 445.929L604.746 470.559M503.779 446.188L470.3 471.596M503.779 446.188L537.523 421.558M470.3 471.596L537.523 520.855M470.3 471.596L504.043 446.188M470.3 471.596L504.043 446.707V346.891M470.3 471.596V421.558M470.3 471.596L436.82 496.226M537.523 520.855L604.746 471.337M537.523 520.855L605.01 471.337M604.746 471.337L537.523 421.558M604.746 471.337V421.558M604.746 471.337L638.49 496.226M604.746 471.337L537.523 421.299M604.746 471.337L537.523 520.596M537.523 421.558V371.78M537.523 421.558L605.01 471.337M537.523 421.558L504.043 446.188M470.3 74.6672V173.964M941.126 470.818L907.383 446.188M941.126 470.818V520.855L873.903 471.596M941.126 470.818L907.383 445.929M941.126 470.818V520.596M907.383 446.188L873.903 471.596M907.383 446.188L941.126 421.558L1008.61 471.337L941.126 421.299L907.383 445.929M873.903 471.596V421.558M873.903 471.596L840.16 496.226M926.627 484.559L891.038 458.633M840.16 446.188V496.226M840.16 446.188L873.903 421.558M806.68 471.337L840.16 496.226M806.68 471.337V421.299M806.68 471.337L840.16 495.966M840.16 396.929L873.903 421.558M537.523 173.186L504.043 148.557M537.523 173.186V223.224M537.523 173.186L571.266 148.557M504.043 148.557V198.335L537.523 223.224M537.523 223.224L571.266 198.594M537.523 223.224L571.266 247.854M571.266 148.557V198.594M571.266 198.594L604.746 223.224M537.523 272.483L504.043 247.854V297.632L537.523 322.261M537.523 272.483V322.261M537.523 272.483L571.266 247.854M537.523 322.261L504.043 346.891M537.523 322.261L571.266 346.891M571.266 247.854V346.891M571.266 346.891L537.523 371.78M571.266 346.891V396.929L604.746 421.558M559.931 279.224L550.44 286.224M705.713 99.297L672.233 123.927M761.601 80.8894L752.11 87.8895M739.456 470.818L705.713 446.188M739.456 470.818V520.855L705.713 496.226V446.188M739.456 470.818L772.936 446.188M739.456 470.818V520.596M705.713 446.188V495.966M772.936 446.188V545.485M772.936 446.188V545.226M604.746 223.224L627.945 206.113M604.746 223.224V372.04L638.49 396.669M672.233 173.964V123.927M672.233 173.964L638.49 198.594M705.713 248.372L649.034 206.113M638.49 396.669L627.945 388.892V206.113M638.49 396.669L649.034 388.892V206.113M638.49 198.594L649.034 206.113M638.49 198.594L627.945 206.113M627.945 190.816V133.001L605.01 149.594M649.034 190.816V132.742L672.233 149.853M638.49 49.0003V99.0377M537.523 371.78L504.043 346.891M504.043 346.891L470.563 372.299L436.82 396.929M604.746 421.558V471.596M604.746 421.558L638.49 446.188M604.746 421.558L638.49 396.929L672.233 421.558M705.713 446.707L672.233 471.596M672.233 471.596V421.558M672.233 471.596L638.49 496.226M638.49 446.188V496.226M638.49 446.188L672.233 421.558M302.109 198.594V148.557M302.109 198.594L268.63 173.964M302.109 198.594V248.372M302.109 148.557L335.853 173.186M335.853 272.483L302.109 247.854L268.63 273.002M335.853 272.483V322.261M335.853 272.483L369.596 247.854L403.076 223.224M335.853 272.483V173.186M268.63 273.002L335.853 322.261M268.63 273.002L302.109 248.372M268.63 273.002V372.04L234.886 396.669M335.853 322.261L369.596 297.632L403.076 273.002M335.853 322.261L302.109 346.891M335.853 322.261L369.596 346.891M285.765 260.039L321.354 286.224M403.076 223.224V273.002M403.076 223.224L436.82 247.854M403.076 223.224L436.82 198.594M403.076 273.002L436.82 297.632M504.043 198.594L470.3 173.964M470.3 173.964L436.82 198.594M504.043 248.372L470.3 273.002M470.3 273.002V223.224M470.3 273.002L436.82 297.632M436.82 247.854V297.632M436.82 247.854L470.3 223.224M436.82 198.594L470.3 223.224M335.853 371.78L302.109 346.891M335.853 371.78V421.558M335.853 371.78L369.596 346.891M302.109 346.891V396.929M302.109 396.929L335.853 421.558M302.109 396.929L268.63 372.299M335.853 421.558L369.596 396.929M335.853 421.558L369.596 446.188M369.596 346.891V396.929M369.596 346.891L436.82 297.372L502.198 347.151M369.596 346.891L436.82 396.929M369.596 396.929L403.076 421.558M403.076 421.558V471.596M403.076 421.558L436.82 446.188M403.076 421.558V471.337M403.076 421.558L436.82 396.929M133.919 470.818L100.176 446.188M133.919 470.818V520.855M133.919 470.818L167.663 446.188M133.919 470.818L100.176 445.929M133.919 470.818V520.596M133.919 470.818L167.663 445.929L201.406 470.559M100.176 446.188L66.696 471.596L133.919 520.855M100.176 446.188L133.919 421.558L201.406 471.337M133.919 520.855L201.406 471.337M201.406 471.337V421.558M201.406 471.337L234.886 496.226M201.406 471.337L133.919 421.299L100.176 445.929M201.406 471.337L133.919 520.596M523.024 484.559L487.435 458.633M605.01 471.337L537.523 421.299M605.01 471.337L537.523 520.596M436.82 446.188V496.226M436.82 446.188L470.3 421.558M403.076 471.337L436.82 496.226M403.076 471.337V421.299M403.076 471.337L436.82 495.966M436.82 396.929L470.3 421.558M134.183 173.186L100.44 148.557M134.183 173.186V223.224M134.183 173.186L167.663 148.557M100.44 148.557V198.335L134.183 223.224M100.44 148.557L134.183 123.927L167.663 148.557M134.183 223.224L167.663 198.594M134.183 223.224L167.663 247.854M167.663 148.557V198.594M167.663 198.594L201.406 223.224M134.183 272.483L100.44 247.854V297.632L134.183 322.261M134.183 272.483V322.261M134.183 272.483L167.663 247.854M134.183 322.261L100.44 346.891M134.183 322.261L167.663 346.891M167.663 247.854V346.891M167.663 346.891L134.183 371.78M167.663 346.891V396.929L201.406 421.558M156.327 279.224L146.837 286.224M302.109 99.297L268.63 123.927M358.261 80.8894L348.77 87.8895M335.853 470.818L302.109 446.188M335.853 470.818V520.855L302.109 496.226V446.188M335.853 470.818L369.596 446.188M335.853 470.818V520.596M302.109 446.188V495.966M369.596 446.188V545.485M369.596 446.188V545.226M201.406 223.224L224.341 206.113M201.406 223.224V372.04L234.886 396.669M268.63 173.964V123.927M268.63 173.964L234.886 198.594M302.109 248.372L245.431 206.113M234.886 396.669L224.341 388.892V206.113M234.886 396.669L245.431 388.892V206.113M234.886 198.594L245.431 206.113M234.886 198.594L224.341 206.113M224.341 190.816V133.001L201.406 149.594M245.431 190.816V132.742L268.63 149.853M234.886 49.0003V99.0377M134.183 421.558V371.78M134.183 371.78L100.44 346.891M100.44 346.891V396.929M201.406 421.558V471.596M201.406 421.558L234.886 446.188M201.406 421.558L234.886 396.929L268.63 421.558M302.109 446.707L268.63 471.596M268.63 471.596V421.558M268.63 471.596L234.886 496.226M234.886 446.188V496.226M234.886 446.188L268.63 421.558M-2.88217e-05 24.6298L33.4798 49.2596M-2.88217e-05 24.6298V74.6672L33.4798 99.297M-2.88217e-05 24.6298V173.705L33.4798 198.594M134.447 173.186L100.703 148.557M134.447 173.186V223.224M134.447 173.186L167.926 148.557M100.703 148.557V198.335L134.447 223.224M100.703 148.557L134.447 123.927L167.926 148.557M134.447 223.224L167.926 198.594V148.557M100.703 198.594L67.2233 173.964M67.2233 173.964V74.6672M67.2233 173.964L33.4798 198.594M100.703 248.372L67.2233 273.002M67.2233 273.002V223.224M67.2233 273.002L33.4798 297.632M33.4798 247.854L-2.88217e-05 223.224M33.4798 247.854V297.632M33.4798 247.854L67.2233 223.224M-2.88217e-05 223.224V273.002L33.4798 297.632M-2.88217e-05 223.224L33.4798 198.594M33.4798 198.594L67.2233 223.224M33.4798 49.2596V99.297M33.4798 49.2596L67.2233 24.6298V74.6672M33.4798 99.297L67.2233 74.6672M-2.88217e-05 421.558L33.4798 396.929M33.4798 396.929L67.2233 421.558M33.4798 396.929L67.2233 372.299L100.703 346.891M98.8578 347.151L33.4798 297.372M705.713 595.263V545.226M705.713 595.263L672.233 570.634M705.713 595.263V645.042M705.713 545.226L739.456 520.596M705.713 545.226L739.456 569.856M739.456 520.596L772.936 545.226M739.456 520.596L705.713 495.966M772.936 545.226V595.263L806.68 619.893M772.936 545.226L739.456 569.856M739.456 669.153L705.713 644.523L672.233 669.671M739.456 669.153V718.931M739.456 669.153L772.936 644.523L806.68 619.893M739.456 669.153V569.856M672.233 669.671L739.456 718.931M672.233 669.671L705.713 645.042M672.233 669.671V768.709L638.49 793.339M739.456 718.931L772.936 694.301L806.68 669.671M739.456 718.931L705.713 743.561M739.456 718.931L772.936 743.561M689.368 656.708L724.957 682.894M806.68 619.893V669.671M806.68 619.893L840.16 644.523M806.68 619.893L840.16 595.263M806.68 669.671L840.16 694.301M806.68 421.299L840.16 445.929M806.68 421.299V570.374L840.16 595.263M907.383 545.226L941.126 569.856V619.893L907.383 595.004V545.226ZM907.383 545.226L941.126 520.596M941.126 520.596L974.87 545.226M941.126 520.596L873.903 471.337M907.383 595.263L873.903 570.634M873.903 570.634V471.337M873.903 570.634L840.16 595.263M907.383 645.042L873.903 669.671M873.903 669.671V619.893M873.903 669.671L840.16 694.301M840.16 644.523V694.301M840.16 644.523L873.903 619.893M840.16 595.263L873.903 619.893M840.16 445.929V495.966M840.16 445.929L873.903 421.299V471.337M840.16 495.966L873.903 471.337M873.903 471.337L907.383 445.929M739.456 768.45L705.713 743.561M739.456 768.45V818.228M739.456 768.45L772.936 743.561M705.713 743.561V793.598M705.713 793.598L739.456 818.228M705.713 793.598L672.233 768.968M739.456 818.228L772.936 793.598M739.456 818.228L772.936 842.858M772.936 743.561V793.598M772.936 743.561L840.16 694.042L905.538 743.82M772.936 743.561L840.16 793.598M772.936 793.598L806.68 818.228M806.68 818.228V868.265L840.16 892.895M806.68 818.228L840.16 842.858M806.68 818.228V868.006L840.16 892.895M806.68 818.228L840.16 793.598M806.68 818.228V967.303L840.16 992.192M941.126 768.45L907.383 743.561M907.383 743.561L941.126 718.931M907.383 743.561L873.903 768.968L840.16 793.598M907.383 743.561V843.376M941.126 718.931L974.87 743.561M941.126 718.931L907.383 694.301V644.523L941.126 669.153V718.931ZM537.523 867.488L503.779 842.858M537.523 867.488V917.525M537.523 867.488L571.003 842.858L537.523 867.747M537.523 867.488L504.043 842.858M537.523 867.488L571.266 842.858M503.779 842.858L470.3 868.265M503.779 842.858L537.523 818.228M503.779 842.858L470.3 868.006M503.779 842.858L537.523 867.747M470.3 868.265L537.523 917.525M470.3 868.265L504.043 842.858M470.3 868.265L504.043 843.376M470.3 868.265V818.228M470.3 868.265L436.82 892.895M470.3 868.265V967.562M537.523 917.525L470.3 868.006M537.523 917.525L604.746 868.006M537.523 917.525L605.01 868.006L537.523 818.228M537.523 917.525V867.747M537.523 917.525L604.746 868.265M537.523 917.525L504.043 942.155M537.523 917.525L571.266 942.155M537.523 917.525L605.01 868.265L537.523 818.228M604.746 868.006L537.523 818.228M604.746 868.006V818.228M604.746 868.006L638.49 892.895M604.746 868.006V817.969L638.49 842.598M604.746 868.006L638.49 892.636M537.523 818.228V768.45M537.523 818.228L504.043 842.858M537.523 818.228L604.746 868.265M503.779 445.929L470.3 471.337M503.779 445.929L537.523 421.299M470.3 471.337L537.523 520.596M470.3 471.337V421.299L436.82 445.929M470.3 471.337L436.82 495.966M470.3 471.337L504.043 445.929M470.3 471.337V570.634M537.523 520.596L504.043 545.226M537.523 520.596L571.266 545.226M537.523 421.299L504.043 445.929M926.627 484.3L891.829 458.892M907.383 842.858L941.126 867.488V917.525M907.383 842.858L873.903 868.265M907.383 842.858L941.126 818.228M907.383 842.858L873.903 868.006M907.383 842.858L941.126 867.747V917.525M873.903 868.265L941.126 917.525M873.903 868.265L907.383 843.376M873.903 868.265V818.228M873.903 868.265L840.16 892.895M873.903 868.265V967.562M941.126 917.525L873.903 868.006M941.126 917.525L907.383 942.155M941.126 917.525L974.87 942.155M926.627 881.228L891.038 855.302M926.627 881.228L891.038 855.043M926.627 881.228L891.829 855.821M1008.61 868.006L941.126 818.228M941.126 818.228L1008.61 868.265M907.383 843.376V793.598M907.383 843.376L873.903 868.006M840.16 842.858V892.895M840.16 842.858L873.903 818.228M840.16 892.895L873.903 868.006M840.16 793.598L873.903 818.228M873.903 818.228V868.006M537.523 569.856L504.043 545.226M537.523 569.856V619.893M537.523 569.856L571.266 545.226M504.043 545.226V595.004L537.523 619.893M537.523 619.893L571.266 595.263M537.523 619.893L571.266 644.523M571.266 545.226V595.263M571.266 595.263L604.746 619.893M537.523 669.153L504.043 644.523V694.301L537.523 718.931M537.523 669.153V718.931M537.523 669.153L571.266 644.523M537.523 718.931L504.043 743.561M537.523 718.931L571.266 743.561M571.266 644.523V743.561M571.266 743.561L537.523 768.45M571.266 743.561V793.598L604.746 818.228M559.931 675.894L550.44 682.894M705.713 495.966V445.929M705.713 495.966L672.233 520.596M761.601 477.559L752.11 484.559M739.456 867.488L705.713 842.858M739.456 867.488V917.525M739.456 867.488L772.936 842.858M705.713 842.858V892.895M705.713 842.858V892.636L739.456 917.525M705.713 892.895L739.456 917.525M705.713 892.895V843.117L739.456 867.747V917.525M705.713 892.895L672.233 917.525M739.456 917.525L705.713 942.155M739.456 917.525L772.936 942.155M772.936 842.858V942.155M772.936 942.155V992.192L806.68 1016.82M772.936 942.155V843.117M772.936 942.155L739.456 966.784M604.746 619.893L627.945 602.782M604.746 619.893V768.709L638.49 793.339M672.233 570.634V520.596M672.233 570.634L638.49 595.263M705.713 645.042L649.034 602.782M672.233 520.596L638.49 495.966L604.746 520.596V570.374L638.49 595.263M638.49 793.339L627.945 785.561V602.782M638.49 793.339L649.034 785.561V602.782M638.49 595.263L649.034 602.782M638.49 595.263L627.945 602.782M627.945 587.486V529.67L605.01 546.263M649.034 587.486V529.411L672.233 546.522M638.49 445.67L604.746 421.04V471.077L638.49 495.707M638.49 445.67V495.707M638.49 445.67L672.233 421.04V471.077L638.49 495.707M537.523 768.45L504.043 743.561M504.043 743.561L470.563 768.968L436.82 793.598M504.043 743.561V843.376M604.746 818.228V868.265M604.746 818.228L638.49 842.858M604.746 818.228L638.49 793.598L672.233 818.228M672.233 868.265L705.713 843.376L672.233 868.006M672.233 868.265V818.228M672.233 868.265L638.49 892.895M638.49 842.858V892.895M638.49 842.858L672.233 818.228M638.49 892.895L672.233 868.006M638.49 892.895L672.233 917.525M638.49 892.895L604.746 917.525V967.303L638.49 992.192M672.233 818.228V868.006M302.109 595.263V545.226M302.109 595.263L268.63 570.634M302.109 595.263V645.042M302.109 545.226L335.853 520.596M302.109 545.226L335.853 569.856M335.853 520.596L369.596 545.226M335.853 520.596L302.109 495.966M369.596 545.226V595.263L403.076 619.893M369.596 545.226L335.853 569.856M335.853 669.153L302.109 644.523L268.63 669.671M335.853 669.153V718.931M335.853 669.153L369.596 644.523L403.076 619.893M335.853 669.153V569.856M268.63 669.671L335.853 718.931M268.63 669.671L302.109 645.042M268.63 669.671V768.709L234.886 793.339M335.853 718.931L369.596 694.301L403.076 669.671M335.853 718.931L302.109 743.561M335.853 718.931L369.596 743.561M285.765 656.708L321.354 682.894M403.076 619.893V669.671M403.076 619.893L436.82 644.523M403.076 619.893L436.82 595.263M403.076 669.671L436.82 694.301M403.076 421.299L436.82 445.929M403.076 421.299V570.374L436.82 595.263M504.043 595.263L470.3 570.634M470.3 570.634L436.82 595.263M504.043 645.042L470.3 669.671M470.3 669.671V619.893M470.3 669.671L436.82 694.301M436.82 644.523V694.301M436.82 644.523L470.3 619.893M436.82 595.263L470.3 619.893M436.82 445.929V495.966M335.853 768.45L302.109 743.561M335.853 768.45V818.228M335.853 768.45L369.596 743.561M302.109 743.561V793.598M302.109 793.598L335.853 818.228M302.109 793.598L268.63 768.968M335.853 818.228L369.596 793.598M335.853 818.228L369.596 842.858M369.596 743.561V793.598M369.596 743.561L436.82 694.042L502.198 743.82M369.596 743.561L436.82 793.598M369.596 793.598L403.076 818.228M403.076 818.228V868.265L436.82 892.895M403.076 818.228L436.82 842.858M403.076 818.228V868.006L436.82 892.895M403.076 818.228L436.82 793.598M403.076 818.228V967.303L436.82 992.192M133.919 867.488L100.176 842.858M133.919 867.488V917.525M133.919 867.488L167.663 842.858M100.176 842.858L66.696 868.265L133.919 917.525M100.176 842.858L133.919 818.228M100.176 842.858L66.696 868.006L133.919 917.525M100.176 842.858L133.919 867.747M133.919 917.525L201.406 868.006M133.919 917.525V867.747M133.919 917.525L201.406 868.265M201.406 868.006L133.919 818.228M201.406 868.006V818.228M201.406 868.006L234.886 892.895M201.406 868.006V817.969L234.886 842.598M201.406 868.006L234.886 892.636M133.919 818.228L201.406 868.265M167.663 842.858L133.919 867.747M167.663 842.858L201.406 867.488M100.176 445.929L66.696 471.337L133.919 520.596M523.024 484.3L488.489 458.892M504.043 842.858L470.3 868.006M504.043 842.858L537.523 867.747M523.024 881.228L487.435 855.302M523.024 881.228L487.435 855.043M523.024 881.228L488.489 855.821M571.266 842.858L604.746 867.488M571.266 842.858L537.523 867.747M504.043 843.376V793.598M504.043 843.376L470.3 868.006M436.82 842.858V892.895M436.82 842.858L470.3 818.228M436.82 892.895L470.3 868.006M436.82 793.598L470.3 818.228M470.3 818.228V868.006M134.183 569.856L100.44 545.226M134.183 569.856V619.893M134.183 569.856L167.663 545.226M100.44 545.226V595.004L134.183 619.893M100.44 545.226L134.183 520.596L167.663 545.226M134.183 619.893L167.663 595.263M134.183 619.893L167.663 644.523M167.663 545.226V595.263M167.663 595.263L201.406 619.893M134.183 669.153L100.44 644.523V694.301L134.183 718.931M134.183 669.153V718.931M134.183 669.153L167.663 644.523M134.183 718.931L100.44 743.561M134.183 718.931L167.663 743.561M167.663 644.523V743.561M167.663 743.561L134.183 768.45M167.663 743.561V793.598L201.406 818.228M156.327 675.894L146.837 682.894M302.109 495.966V445.929M302.109 495.966L268.63 520.596M358.261 477.559L348.77 484.559M335.853 867.488L302.109 842.858M335.853 867.488V917.525M335.853 867.488L369.596 842.858M302.109 842.858V892.895M302.109 842.858V892.636L335.853 917.525M302.109 892.895L335.853 917.525M302.109 892.895V843.117L335.853 867.747V917.525M302.109 892.895L268.63 917.525M335.853 917.525L302.109 942.155M335.853 917.525L369.596 942.155M369.596 842.858V942.155M369.596 942.155V992.192L403.076 1016.82M369.596 942.155V843.117M369.596 942.155L335.853 966.784M201.406 619.893L224.341 602.782M201.406 619.893V768.709L234.886 793.339M268.63 570.634V520.596M268.63 570.634L234.886 595.263M302.109 645.042L245.431 602.782M268.63 520.596L234.886 495.966L201.406 520.596V570.374L234.886 595.263M234.886 793.339L224.341 785.561V602.782M234.886 793.339L245.431 785.561V602.782M234.886 595.263L245.431 602.782M234.886 595.263L224.341 602.782M224.341 587.486V529.67L201.406 546.263M245.431 587.486V529.411L268.63 546.522M234.886 445.67L201.406 421.04V471.077L234.886 495.707M234.886 445.67V495.707M234.886 445.67L268.63 421.04V471.077L234.886 495.707M134.183 818.228V768.45M134.183 768.45L100.44 743.561M100.44 743.561V793.598M201.406 818.228V868.265M201.406 818.228L234.886 842.858M201.406 818.228L234.886 793.598L268.63 818.228M268.63 868.265L302.109 843.376L268.63 868.006M268.63 868.265V818.228M268.63 868.265L234.886 892.895M234.886 842.858V892.895M234.886 842.858L268.63 818.228M234.886 892.895L268.63 868.006M234.886 892.895L268.63 917.525M234.886 892.895L201.406 917.525V967.303L234.886 992.192M268.63 818.228V868.006M-2.88217e-05 421.299L33.4798 445.929M-2.88217e-05 421.299V471.337L33.4798 495.966M-2.88217e-05 421.299V570.374L33.4798 595.263M134.447 569.856L100.703 545.226M134.447 569.856V619.893M134.447 569.856L167.926 545.226M100.703 545.226V595.004L134.447 619.893M100.703 545.226L134.447 520.596L167.926 545.226M134.447 619.893L167.926 595.263V545.226M100.703 595.263L67.2233 570.634M67.2233 570.634V471.337M67.2233 570.634L33.4798 595.263M100.703 645.042L67.2233 669.671M67.2233 669.671V619.893M67.2233 669.671L33.4798 694.301M33.4798 644.523L-2.88217e-05 619.893M33.4798 644.523V694.301M33.4798 644.523L67.2233 619.893M-2.88217e-05 619.893V669.671L33.4798 694.301M-2.88217e-05 619.893L33.4798 595.263M33.4798 595.263L67.2233 619.893M33.4798 445.929V495.966M33.4798 445.929L67.2233 421.299V471.337M33.4798 495.966L67.2233 471.337M-2.88217e-05 818.228L33.4798 793.598M-2.88217e-05 818.228L33.4798 842.858M-2.88217e-05 818.228V868.265L33.4798 892.895M-2.88217e-05 818.228V967.303L33.4798 992.192M33.4798 793.598L67.2233 818.228M33.4798 793.598L67.2233 768.968L100.703 743.561M67.2233 818.228L33.4798 842.858M67.2233 818.228V868.265M98.8578 743.82L33.4798 694.042M672.233 868.006V817.969L638.49 842.598M672.233 868.006L638.49 892.636M268.63 868.006V817.969L234.886 842.598M268.63 868.006L234.886 892.636M705.713 992.192V942.155M705.713 992.192L672.233 967.562M705.713 992.192V1041.97M705.713 942.155L739.456 966.784M739.456 1066.08L705.713 1041.45L672.233 1066.6M739.456 1066.08V1115.86M739.456 1066.08L772.936 1041.45L806.68 1016.82M739.456 1066.08V966.784M672.233 1066.6L739.456 1115.86M672.233 1066.6L705.713 1041.97M672.233 1066.6V1165.64L638.49 1190.27M739.456 1115.86L772.936 1091.23L806.68 1066.6M739.456 1115.86L705.713 1140.49M739.456 1115.86L772.936 1140.49M689.368 1053.64L724.957 1079.82M806.68 1016.82V1066.6M806.68 1016.82L840.16 1041.45M806.68 1016.82L840.16 992.192M806.68 1066.6L840.16 1091.23M907.383 942.155L941.126 966.784V1016.82L907.383 991.933V942.155ZM907.383 992.192L873.903 967.562M873.903 967.562L840.16 992.192M907.383 1041.97L873.903 1066.6M873.903 1066.6V1016.82M873.903 1066.6L840.16 1091.23M840.16 1041.45V1091.23M840.16 1041.45L873.903 1016.82M840.16 992.192L873.903 1016.82M739.456 1165.38L705.713 1140.49M739.456 1165.38V1215.16M739.456 1165.38L772.936 1140.49M705.713 1140.49V1190.53M705.713 1190.53L739.456 1215.16M705.713 1190.53L672.233 1165.9M739.456 1215.16L772.936 1190.53M739.456 1215.16L772.936 1239.79M772.936 1140.49V1190.53M772.936 1140.49L840.16 1090.97L905.538 1140.75M772.936 1140.49L840.16 1190.53M772.936 1190.53L806.68 1215.16M806.68 1215.16V1265.19M806.68 1215.16L840.16 1239.79M806.68 1215.16V1264.93M806.68 1215.16L840.16 1190.53M941.126 1165.38L907.383 1140.49M907.383 1140.49L941.126 1115.86M907.383 1140.49L873.903 1165.9L840.16 1190.53M907.383 1140.49V1240.3L873.903 1265.19M941.126 1115.86L974.87 1140.49M941.126 1115.86L907.383 1091.23V1041.45L941.126 1066.08V1115.86ZM537.523 1264.42L503.779 1239.79M537.523 1264.42V1314.45M537.523 1264.42L571.003 1239.79M537.523 1264.42L504.043 1239.79M537.523 1264.42L571.266 1239.79M537.523 1264.42L503.779 1239.53M537.523 1264.42V1314.19M537.523 1264.42L571.003 1239.53L537.523 1264.16M537.523 1264.42L504.043 1239.53M537.523 1264.42L571.266 1239.53M503.779 1239.79L470.3 1265.19M503.779 1239.79L537.523 1215.16M470.3 1265.19L537.523 1314.45M470.3 1265.19L504.043 1239.79M470.3 1265.19L504.043 1240.3V1140.49M470.3 1265.19V1215.16M470.3 1265.19L436.82 1289.82M537.523 1314.45L604.746 1264.93M537.523 1314.45L605.01 1264.93M604.746 1264.93L537.523 1215.16M604.746 1264.93V1215.16M604.746 1264.93L638.49 1289.82M604.746 1264.93L537.523 1214.9M604.746 1264.93L537.523 1314.19M537.523 1215.16V1165.38M537.523 1215.16L605.01 1264.93M537.523 1215.16L504.043 1239.79M941.126 1264.42L907.383 1239.79M941.126 1264.42V1314.45L873.903 1265.19M941.126 1264.42L907.383 1239.53M941.126 1264.42V1314.19M907.383 1239.79L873.903 1265.19M907.383 1239.79L941.126 1215.16L1008.61 1264.93L941.126 1214.9M873.903 1265.19V1215.16M873.903 1265.19L840.16 1289.82M926.627 1278.16L891.038 1252.23M840.16 1239.79V1289.82M840.16 1239.79L873.903 1215.16M806.68 1264.93L840.16 1289.82M806.68 1264.93V1214.9M806.68 1264.93L840.16 1289.56M840.16 1190.53L873.903 1215.16M537.523 966.784L504.043 942.155M537.523 966.784V1016.82M537.523 966.784L571.266 942.155M504.043 942.155V991.933L537.523 1016.82M537.523 1016.82L571.266 992.192M537.523 1016.82L571.266 1041.45M571.266 942.155V992.192M571.266 992.192L604.746 1016.82M537.523 1066.08L504.043 1041.45V1091.23L537.523 1115.86M537.523 1066.08V1115.86M537.523 1066.08L571.266 1041.45M537.523 1115.86L504.043 1140.49M537.523 1115.86L571.266 1140.49M571.266 1041.45V1140.49M571.266 1140.49L537.523 1165.38M571.266 1140.49V1190.53L604.746 1215.16M559.931 1072.82L550.44 1079.82M761.601 874.488L752.11 881.488M739.456 1264.42L705.713 1239.79M739.456 1264.42V1314.45L705.713 1289.82V1239.79M739.456 1264.42L772.936 1239.79M739.456 1264.42V1314.19M705.713 1239.79V1289.56M772.936 1239.79V1339.08M772.936 1239.79V1338.82M604.746 1016.82L627.945 999.711M604.746 1016.82V1165.64L638.49 1190.27M672.233 967.562V917.525M672.233 967.562L638.49 992.192M705.713 1041.97L649.034 999.711M638.49 1190.27L627.945 1182.49V999.711M638.49 1190.27L649.034 1182.49V999.711M638.49 992.192L649.034 999.711M638.49 992.192L627.945 999.711M627.945 984.414V926.599L605.01 943.192M649.034 984.414V926.34L672.233 943.451M638.49 842.598V892.636M537.523 1165.38L504.043 1140.49M504.043 1140.49L470.563 1165.9L436.82 1190.53M604.746 1215.16V1265.19M604.746 1215.16L638.49 1239.79M604.746 1215.16L638.49 1190.53L672.233 1215.16M705.713 1240.3L672.233 1265.19M672.233 1265.19V1215.16M672.233 1265.19L638.49 1289.82M638.49 1239.79V1289.82M638.49 1239.79L672.233 1215.16M302.109 992.192V942.155M302.109 992.192L268.63 967.562M302.109 992.192V1041.97M302.109 942.155L335.853 966.784M335.853 1066.08L302.109 1041.45L268.63 1066.6M335.853 1066.08V1115.86M335.853 1066.08L369.596 1041.45L403.076 1016.82M335.853 1066.08V966.784M268.63 1066.6L335.853 1115.86M268.63 1066.6L302.109 1041.97M268.63 1066.6V1165.64L234.886 1190.27M335.853 1115.86L369.596 1091.23L403.076 1066.6M335.853 1115.86L302.109 1140.49M335.853 1115.86L369.596 1140.49M285.765 1053.64L321.354 1079.82M403.076 1016.82V1066.6M403.076 1016.82L436.82 1041.45M403.076 1016.82L436.82 992.192M403.076 1066.6L436.82 1091.23M504.043 992.192L470.3 967.562M470.3 967.562L436.82 992.192M504.043 1041.97L470.3 1066.6M470.3 1066.6V1016.82M470.3 1066.6L436.82 1091.23M436.82 1041.45V1091.23M436.82 1041.45L470.3 1016.82M436.82 992.192L470.3 1016.82M335.853 1165.38L302.109 1140.49M335.853 1165.38V1215.16M335.853 1165.38L369.596 1140.49M302.109 1140.49V1190.53M302.109 1190.53L335.853 1215.16M302.109 1190.53L268.63 1165.9M335.853 1215.16L369.596 1190.53M335.853 1215.16L369.596 1239.79M369.596 1140.49V1190.53M369.596 1140.49L436.82 1090.97L502.198 1140.75M369.596 1140.49L436.82 1190.53M369.596 1190.53L403.076 1215.16M403.076 1215.16V1265.19M403.076 1215.16L436.82 1239.79M403.076 1215.16V1264.93M403.076 1215.16L436.82 1190.53M133.919 1264.42L100.176 1239.79M133.919 1264.42V1314.45M133.919 1264.42L167.663 1239.79M133.919 1264.42L100.176 1239.53M133.919 1264.42V1314.19M133.919 1264.42L167.663 1239.53M100.176 1239.79L66.696 1265.19L133.919 1314.45M100.176 1239.79L133.919 1215.16L201.406 1264.93M133.919 1314.45L201.406 1264.93M201.406 1264.93V1215.16M201.406 1264.93L234.886 1289.82M201.406 1264.93L133.919 1214.9M201.406 1264.93L133.919 1314.19M523.024 1278.16L487.435 1252.23M605.01 1264.93L537.523 1214.9M605.01 1264.93L537.523 1314.19M436.82 1239.79V1289.82M436.82 1239.79L470.3 1215.16M403.076 1264.93L436.82 1289.82M403.076 1264.93V1214.9M403.076 1264.93L436.82 1289.56M436.82 1190.53L470.3 1215.16M134.183 966.784L100.44 942.155M134.183 966.784V1016.82M134.183 966.784L167.663 942.155M100.44 942.155V991.933L134.183 1016.82M100.44 942.155L134.183 917.525L167.663 942.155M134.183 1016.82L167.663 992.192M134.183 1016.82L167.663 1041.45M167.663 942.155V992.192M167.663 992.192L201.406 1016.82M134.183 1066.08L100.44 1041.45V1091.23L134.183 1115.86M134.183 1066.08V1115.86M134.183 1066.08L167.663 1041.45M134.183 1115.86L100.44 1140.49M134.183 1115.86L167.663 1140.49M167.663 1041.45V1140.49M167.663 1140.49L134.183 1165.38M167.663 1140.49V1190.53L201.406 1215.16M156.327 1072.82L146.837 1079.82M358.261 874.488L348.77 881.488M335.853 1264.42L302.109 1239.79M335.853 1264.42V1314.45L302.109 1289.82V1239.79M335.853 1264.42L369.596 1239.79M335.853 1264.42V1314.19M302.109 1239.79V1289.56M369.596 1239.79V1339.08M369.596 1239.79V1338.82M201.406 1016.82L224.341 999.711M201.406 1016.82V1165.64L234.886 1190.27M268.63 967.562V917.525M268.63 967.562L234.886 992.192M302.109 1041.97L245.431 999.711M234.886 1190.27L224.341 1182.49V999.711M234.886 1190.27L245.431 1182.49V999.711M234.886 992.192L245.431 999.711M234.886 992.192L224.341 999.711M224.341 984.414V926.599L201.406 943.192M245.431 984.414V926.34L268.63 943.451M234.886 842.598V892.636M134.183 1215.16V1165.38M134.183 1165.38L100.44 1140.49M100.44 1140.49V1190.53M201.406 1215.16V1265.19M201.406 1215.16L234.886 1239.79M201.406 1215.16L234.886 1190.53L268.63 1215.16M302.109 1240.3L268.63 1265.19M268.63 1265.19V1215.16M268.63 1265.19L234.886 1289.82M234.886 1239.79V1289.82M234.886 1239.79L268.63 1215.16M134.447 966.784L100.703 942.155M134.447 966.784V1016.82M134.447 966.784L167.926 942.155M100.703 942.155V991.933L134.447 1016.82M100.703 942.155L134.447 917.525L167.926 942.155M134.447 1016.82L167.926 992.192V942.155M100.703 992.192L67.2233 967.562M67.2233 967.562V868.265M67.2233 967.562L33.4798 992.192M100.703 1041.97L67.2233 1066.6M67.2233 1066.6V1016.82M67.2233 1066.6L33.4798 1091.23M33.4798 1041.45L-2.88217e-05 1016.82M33.4798 1041.45V1091.23M33.4798 1041.45L67.2233 1016.82M-2.88217e-05 1016.82V1066.6L33.4798 1091.23M-2.88217e-05 1016.82L33.4798 992.192M33.4798 992.192L67.2233 1016.82M33.4798 842.858V892.895M33.4798 892.895L67.2233 868.265M-2.88217e-05 1215.16L33.4798 1190.53M33.4798 1190.53L67.2233 1215.16M33.4798 1190.53L67.2233 1165.9L100.703 1140.49M98.8578 1140.75L33.4798 1090.97M705.713 1388.86V1338.82M705.713 1388.86L672.233 1364.23M705.713 1388.86V1438.64M705.713 1338.82L739.456 1314.19M705.713 1338.82L739.456 1363.45M739.456 1314.19L772.936 1338.82M739.456 1314.19L705.713 1289.56M739.456 1314.19L705.713 1289.31V1239.53M739.456 1314.19V1264.16M772.936 1338.82V1388.86L806.68 1413.49M772.936 1338.82L739.456 1363.45M772.936 1338.82V1239.53L739.456 1264.16M739.456 1462.75L705.713 1438.12L672.233 1463.27M739.456 1462.75V1512.53M739.456 1462.75L772.936 1438.12L806.68 1413.49M739.456 1462.75V1363.45M672.233 1463.27L739.456 1512.53M672.233 1463.27L705.713 1438.64M672.233 1463.27V1562.31L638.49 1586.94M739.456 1512.53L772.936 1487.9L806.68 1463.27M739.456 1512.53L705.713 1537.16M739.456 1512.53L772.936 1537.16M689.368 1450.31L724.957 1476.49M806.68 1413.49V1463.27M806.68 1413.49L840.16 1438.12M806.68 1413.49L840.16 1388.86M806.68 1463.27L840.16 1487.9M806.68 1214.9L840.16 1239.53M806.68 1214.9V1363.97L840.16 1388.86M806.68 1214.9V1264.68L840.16 1289.56M907.383 1338.82L941.126 1363.45V1413.49L907.383 1388.6V1338.82ZM907.383 1338.82L941.126 1314.19M941.126 1314.19L974.87 1338.82M941.126 1314.19L873.903 1264.93M941.126 1314.19L873.903 1264.68M941.126 1314.19V1264.16L907.383 1239.53M907.383 1388.86L873.903 1364.23M873.903 1364.23V1264.93M873.903 1364.23L840.16 1388.86M907.383 1438.64L873.903 1463.27M873.903 1463.27V1413.49M873.903 1463.27L840.16 1487.9M840.16 1438.12V1487.9M840.16 1438.12L873.903 1413.49M840.16 1388.86L873.903 1413.49M840.16 1239.53V1289.56M840.16 1239.53L873.903 1214.9M840.16 1289.56L873.903 1264.93M840.16 1289.56L873.903 1264.68M873.903 1214.9V1264.93M873.903 1214.9V1264.68M873.903 1264.93L907.383 1239.53M739.456 1562.05L705.713 1537.16M739.456 1562.05V1611.83M739.456 1562.05L772.936 1537.16M705.713 1537.16V1587.2M705.713 1587.2L739.456 1611.83M705.713 1587.2L672.233 1562.57M739.456 1611.83L772.936 1587.2M739.456 1611.83L772.936 1636.46M772.936 1537.16V1587.2M772.936 1537.16L840.16 1487.64L905.538 1537.42M772.936 1537.16L840.16 1587.2M772.936 1587.2L806.68 1611.83M806.68 1611.83V1661.86M806.68 1611.83L840.16 1636.46M806.68 1611.83V1661.6M806.68 1611.83L840.16 1587.2M941.126 1562.05L907.383 1537.16M907.383 1537.16L941.126 1512.53M907.383 1537.16L873.903 1562.57L840.16 1587.2M907.383 1537.16V1636.97L873.903 1661.86M941.126 1512.53L974.87 1537.16M941.126 1512.53L907.383 1487.9V1438.12L941.126 1462.75V1512.53ZM537.523 1661.09L503.779 1636.46M537.523 1661.09V1711.12M537.523 1661.09L571.003 1636.46M537.523 1661.09L504.043 1636.46M537.523 1661.09L571.266 1636.46M537.523 1661.09L503.779 1636.2M537.523 1661.09V1710.86M537.523 1661.09L571.003 1636.2M537.523 1661.09L504.043 1636.2M537.523 1661.09L571.266 1636.2L604.746 1660.83M503.779 1636.46L470.3 1661.86M503.779 1636.46L537.523 1611.83M470.3 1661.86L537.523 1711.12M470.3 1661.86L504.043 1636.46M470.3 1661.86L504.043 1636.97V1537.16M470.3 1661.86V1611.83M470.3 1661.86L436.82 1686.49M537.523 1711.12L604.746 1661.6M537.523 1711.12L605.01 1661.6M604.746 1661.6L537.523 1611.83M604.746 1661.6V1611.83M604.746 1661.6L638.49 1686.49M604.746 1661.6L537.523 1611.57M604.746 1661.6L537.523 1710.86M537.523 1611.83V1562.05M537.523 1611.83L605.01 1661.6M537.523 1611.83L504.043 1636.46M503.779 1239.53L470.3 1264.93M503.779 1239.53L537.523 1214.9M503.779 1239.53L537.523 1264.16M503.779 1239.53L470.3 1264.68M470.3 1264.93L537.523 1314.19M470.3 1264.93V1214.9M470.3 1264.93L436.82 1289.56M470.3 1264.93L504.043 1239.53M470.3 1264.93V1364.23M537.523 1314.19L504.043 1338.82M537.523 1314.19L571.266 1338.82M537.523 1314.19L470.3 1264.68M537.523 1314.19V1264.16M537.523 1314.19L604.746 1264.68M537.523 1314.19L605.01 1264.68L537.523 1214.9M537.523 1214.9L504.043 1239.53M537.523 1214.9L604.746 1264.68M907.383 1239.53L941.126 1214.9M907.383 1239.53L873.903 1264.68M891.829 1252.49L926.627 1277.9L891.038 1251.71M941.126 1214.9L1008.61 1264.68M941.126 1661.09L907.383 1636.46M941.126 1661.09V1711.12L873.903 1661.86M941.126 1661.09L907.383 1636.2M941.126 1661.09V1710.86M907.383 1636.46L873.903 1661.86M907.383 1636.46L941.126 1611.83L1008.61 1661.6L941.126 1611.57L907.383 1636.2M873.903 1661.86V1611.83M873.903 1661.86L840.16 1686.49M926.627 1674.83L891.038 1648.9M840.16 1636.46V1686.49M840.16 1636.46L873.903 1611.83M806.68 1661.6L840.16 1686.49M806.68 1661.6V1611.57M806.68 1661.6L840.16 1686.23M840.16 1587.2L873.903 1611.83M537.523 1363.45L504.043 1338.82M537.523 1363.45V1413.49M537.523 1363.45L571.266 1338.82M504.043 1338.82V1388.6L537.523 1413.49M537.523 1413.49L571.266 1388.86M537.523 1413.49L571.266 1438.12M571.266 1338.82V1388.86M571.266 1388.86L604.746 1413.49M537.523 1462.75L504.043 1438.12V1487.9L537.523 1512.53M537.523 1462.75V1512.53M537.523 1462.75L571.266 1438.12M537.523 1512.53L504.043 1537.16M537.523 1512.53L571.266 1537.16M571.266 1438.12V1537.16M571.266 1537.16L537.523 1562.05M571.266 1537.16V1587.2L604.746 1611.83M559.931 1469.49L550.44 1476.49M705.713 1289.56V1239.53M705.713 1289.56L672.233 1314.19M761.601 1271.16L752.11 1278.16M739.456 1661.09L705.713 1636.46M739.456 1661.09V1711.12L705.713 1686.49V1636.46M739.456 1661.09L772.936 1636.46M739.456 1661.09V1710.86M705.713 1636.46V1686.23M772.936 1636.46V1735.75M772.936 1636.46V1735.49M604.746 1413.49L627.945 1396.38M604.746 1413.49V1562.31L638.49 1586.94M604.746 1264.16L571.266 1239.53M571.266 1239.53L537.523 1264.16M672.233 1364.23V1314.19M672.233 1364.23L638.49 1388.86M705.713 1438.64L649.034 1396.38M705.713 1239.53L739.456 1264.16M672.233 1314.19L638.49 1289.56M638.49 1586.94L627.945 1579.16V1396.38M638.49 1586.94L649.034 1579.16V1396.38M638.49 1388.86L604.746 1363.97V1314.19L638.49 1289.56M638.49 1388.86L649.034 1396.38M638.49 1388.86L627.945 1396.38M638.49 1289.56L604.746 1264.68M638.49 1289.56V1239.53M638.49 1289.56L672.233 1264.68M627.945 1381.08V1323.27L605.01 1339.86M649.034 1381.08V1323.01L672.233 1340.12M638.49 1239.27L604.746 1214.64V1264.68M638.49 1239.27V1289.31M638.49 1239.27L672.233 1214.64V1264.68M604.746 1264.68L638.49 1289.31M604.746 1264.68V1214.9L638.49 1239.53M638.49 1289.31L672.233 1264.68M672.233 1264.68L705.713 1240.05M672.233 1264.68V1214.9L638.49 1239.53M537.523 1562.05L504.043 1537.16M504.043 1537.16L470.563 1562.57L436.82 1587.2M604.746 1611.83V1661.86M604.746 1611.83L638.49 1636.46M604.746 1611.83L638.49 1587.2L672.233 1611.83M705.713 1636.97L672.233 1661.86M672.233 1661.86V1611.83M672.233 1661.86L638.49 1686.49M638.49 1636.46V1686.49M638.49 1636.46L672.233 1611.83M302.109 1388.86V1338.82M302.109 1388.86L268.63 1364.23M302.109 1388.86V1438.64M302.109 1338.82L335.853 1314.19M302.109 1338.82L335.853 1363.45M335.853 1314.19L369.596 1338.82M335.853 1314.19L302.109 1289.56M335.853 1314.19L302.109 1289.31V1239.53M335.853 1314.19V1264.16M369.596 1338.82V1388.86L403.076 1413.49M369.596 1338.82L335.853 1363.45M369.596 1338.82V1239.53L335.853 1264.16M335.853 1462.75L302.109 1438.12L268.63 1463.27M335.853 1462.75V1512.53M335.853 1462.75L369.596 1438.12L403.076 1413.49M335.853 1462.75V1363.45M268.63 1463.27L335.853 1512.53M268.63 1463.27L302.109 1438.64M268.63 1463.27V1562.31L234.886 1586.94M335.853 1512.53L369.596 1487.9L403.076 1463.27M335.853 1512.53L302.109 1537.16M335.853 1512.53L369.596 1537.16M285.765 1450.31L321.354 1476.49M403.076 1413.49V1463.27M403.076 1413.49L436.82 1438.12M403.076 1413.49L436.82 1388.86M403.076 1463.27L436.82 1487.9M403.076 1214.9L436.82 1239.53M403.076 1214.9V1363.97L436.82 1388.86M403.076 1214.9V1264.68L436.82 1289.56M504.043 1388.86L470.3 1364.23M470.3 1364.23L436.82 1388.86M504.043 1438.64L470.3 1463.27M470.3 1463.27V1413.49M470.3 1463.27L436.82 1487.9M436.82 1438.12V1487.9M436.82 1438.12L470.3 1413.49M436.82 1388.86L470.3 1413.49M436.82 1239.53V1289.56M436.82 1239.53L470.3 1214.9M436.82 1289.56L470.3 1264.68M470.3 1214.9V1264.68M335.853 1562.05L302.109 1537.16M335.853 1562.05V1611.83M335.853 1562.05L369.596 1537.16M302.109 1537.16V1587.2M302.109 1587.2L335.853 1611.83M302.109 1587.2L268.63 1562.57M335.853 1611.83L369.596 1587.2M335.853 1611.83L369.596 1636.46M369.596 1537.16V1587.2M369.596 1537.16L436.82 1487.64L502.198 1537.42M369.596 1537.16L436.82 1587.2M369.596 1587.2L403.076 1611.83M403.076 1611.83V1661.86M403.076 1611.83L436.82 1636.46M403.076 1611.83V1661.6M403.076 1611.83L436.82 1587.2M133.919 1661.09L100.176 1636.46M133.919 1661.09V1711.12M133.919 1661.09L167.663 1636.46M133.919 1661.09L100.176 1636.2M133.919 1661.09V1710.86M133.919 1661.09L167.663 1636.2L201.406 1660.83M100.176 1636.46L66.696 1661.86L133.919 1711.12M100.176 1636.46L133.919 1611.83L201.406 1661.6M133.919 1711.12L201.406 1661.6M201.406 1661.6V1611.83M201.406 1661.6L234.886 1686.49M201.406 1661.6L133.919 1611.57L100.176 1636.2M201.406 1661.6L133.919 1710.86M100.176 1239.53L66.696 1264.93L133.919 1314.19M100.176 1239.53L133.919 1214.9M100.176 1239.53L133.919 1264.16M100.176 1239.53L66.696 1264.68L133.919 1314.19M133.919 1314.19V1264.16M133.919 1314.19L201.406 1264.68M133.919 1214.9L201.406 1264.68M167.663 1239.53L201.406 1264.16M167.663 1239.53L133.919 1264.16M504.043 1239.53L537.523 1264.16M504.043 1239.53L470.3 1264.68M488.489 1252.49L523.024 1277.9L487.435 1251.71M523.024 1674.83L487.435 1648.9M605.01 1661.6L537.523 1611.57M605.01 1661.6L537.523 1710.86M436.82 1636.46V1686.49M436.82 1636.46L470.3 1611.83M403.076 1661.6L436.82 1686.49M403.076 1661.6V1611.57M403.076 1661.6L436.82 1686.23M436.82 1587.2L470.3 1611.83M134.183 1363.45L100.44 1338.82M134.183 1363.45V1413.49M134.183 1363.45L167.663 1338.82M100.44 1338.82V1388.6L134.183 1413.49M100.44 1338.82L134.183 1314.19L167.663 1338.82M134.183 1413.49L167.663 1388.86M134.183 1413.49L167.663 1438.12M167.663 1338.82V1388.86M167.663 1388.86L201.406 1413.49M134.183 1462.75L100.44 1438.12V1487.9L134.183 1512.53M134.183 1462.75V1512.53M134.183 1462.75L167.663 1438.12M134.183 1512.53L100.44 1537.16M134.183 1512.53L167.663 1537.16M167.663 1438.12V1537.16M167.663 1537.16L134.183 1562.05M167.663 1537.16V1587.2L201.406 1611.83M156.327 1469.49L146.837 1476.49M302.109 1289.56V1239.53M302.109 1289.56L268.63 1314.19M358.261 1271.16L348.77 1278.16M335.853 1661.09L302.109 1636.46M335.853 1661.09V1711.12L302.109 1686.49V1636.46M335.853 1661.09L369.596 1636.46M335.853 1661.09V1710.86M302.109 1636.46V1686.23M369.596 1636.46V1735.75M369.596 1636.46V1735.49M201.406 1413.49L224.341 1396.38M201.406 1413.49V1562.31L234.886 1586.94M268.63 1364.23V1314.19M268.63 1364.23L234.886 1388.86M302.109 1438.64L245.431 1396.38M302.109 1239.53L335.853 1264.16M268.63 1314.19L234.886 1289.56M234.886 1586.94L224.341 1579.16V1396.38M234.886 1586.94L245.431 1579.16V1396.38M234.886 1388.86L201.406 1363.97V1314.19L234.886 1289.56M234.886 1388.86L245.431 1396.38M234.886 1388.86L224.341 1396.38M234.886 1289.56L201.406 1264.68M234.886 1289.56V1239.53M234.886 1289.56L268.63 1264.68M224.341 1381.08V1323.27L201.406 1339.86M245.431 1381.08V1323.01L268.63 1340.12M234.886 1239.27L201.406 1214.64V1264.68M234.886 1239.27V1289.31M234.886 1239.27L268.63 1214.64V1264.68M201.406 1264.68L234.886 1289.31M201.406 1264.68V1214.9L234.886 1239.53M234.886 1289.31L268.63 1264.68M268.63 1264.68L302.109 1240.05M268.63 1264.68V1214.9L234.886 1239.53M134.183 1611.83V1562.05M134.183 1562.05L100.44 1537.16M100.44 1537.16V1587.2M201.406 1611.83V1661.86M201.406 1611.83L234.886 1636.46M201.406 1611.83L234.886 1587.2L268.63 1611.83M302.109 1636.97L268.63 1661.86M268.63 1661.86V1611.83M268.63 1661.86L234.886 1686.49M234.886 1636.46V1686.49M234.886 1636.46L268.63 1611.83M-2.88217e-05 1214.9L33.4798 1239.53M-2.88217e-05 1214.9V1264.93L33.4798 1289.56M-2.88217e-05 1214.9V1363.97L33.4798 1388.86M134.447 1363.45L100.703 1338.82M134.447 1363.45V1413.49M134.447 1363.45L167.926 1338.82M100.703 1338.82V1388.6L134.447 1413.49M100.703 1338.82L134.447 1314.19L167.926 1338.82M134.447 1413.49L167.926 1388.86V1338.82M100.703 1388.86L67.2233 1364.23M67.2233 1364.23V1264.93M67.2233 1364.23L33.4798 1388.86M100.703 1438.64L67.2233 1463.27M67.2233 1463.27V1413.49M67.2233 1463.27L33.4798 1487.9M33.4798 1438.12L-2.88217e-05 1413.49M33.4798 1438.12V1487.9M33.4798 1438.12L67.2233 1413.49M-2.88217e-05 1413.49V1463.27L33.4798 1487.9M-2.88217e-05 1413.49L33.4798 1388.86M33.4798 1388.86L67.2233 1413.49M33.4798 1239.53V1289.56M33.4798 1239.53L67.2233 1214.9V1264.93M33.4798 1289.56L67.2233 1264.93M-2.88217e-05 1611.83L33.4798 1587.2M33.4798 1587.2L67.2233 1611.83M33.4798 1587.2L67.2233 1562.57L100.703 1537.16M98.8578 1537.42L33.4798 1487.64M470.3 1264.68L504.043 1240.05V1190.27M873.903 1264.68L907.383 1240.05V1190.27M705.713 1785.53V1735.49M705.713 1785.53L672.233 1760.9M705.713 1785.53V1835.31M705.713 1735.49L739.456 1710.86M705.713 1735.49L739.456 1760.12M739.456 1710.86L772.936 1735.49M739.456 1710.86L705.713 1686.23M772.936 1735.49V1785.53L806.68 1810.16M772.936 1735.49L739.456 1760.12M739.456 1859.42L705.713 1834.79L672.233 1859.94M739.456 1859.42V1909.2M739.456 1859.42L772.936 1834.79L806.68 1810.16M739.456 1859.42V1760.12M672.233 1859.94L739.456 1909.2M672.233 1859.94L705.713 1835.31M672.233 1859.94V1958.98L638.49 1983.61M739.456 1909.2L772.936 1884.57L806.68 1859.94M739.456 1909.2L705.713 1933.83M739.456 1909.2L772.936 1933.83M689.368 1846.98L724.957 1873.16M806.68 1810.16V1859.94M806.68 1810.16L840.16 1834.79M806.68 1810.16L840.16 1785.53M806.68 1859.94L840.16 1884.57M806.68 1611.57L840.16 1636.2M806.68 1611.57V1760.64L840.16 1785.53M907.383 1735.49L941.126 1760.12V1810.16L907.383 1785.27V1735.49ZM907.383 1735.49L941.126 1710.86M941.126 1710.86L974.87 1735.49M941.126 1710.86L873.903 1661.6M907.383 1785.53L873.903 1760.9M873.903 1760.9V1661.6M873.903 1760.9L840.16 1785.53M907.383 1835.31L873.903 1859.94M873.903 1859.94V1810.16M873.903 1859.94L840.16 1884.57M840.16 1834.79V1884.57M840.16 1834.79L873.903 1810.16M840.16 1785.53L873.903 1810.16M840.16 1636.2V1686.23M840.16 1636.2L873.903 1611.57V1661.6M840.16 1686.23L873.903 1661.6M873.903 1661.6L907.383 1636.2M739.456 1958.72L705.713 1933.83M739.456 1958.72V2008.5M739.456 1958.72L772.936 1933.83M705.713 1933.83V1983.87M705.713 1983.87L739.456 2008.5M705.713 1983.87L672.233 1959.24M739.456 2008.5L772.936 1983.87M739.456 2008.5L772.936 2033.13M772.936 1933.83V1983.87M772.936 1933.83L840.16 1884.31L905.538 1934.09M772.936 1933.83L840.16 1983.87M772.936 1983.87L806.68 2008.5M806.68 2008.5V2058.53M806.68 2008.5L840.16 2033.13M806.68 2008.5V2058.27L840.16 2083.16M806.68 2008.5L840.16 1983.87M941.126 1958.72L907.383 1933.83M907.383 1933.83L941.126 1909.2M907.383 1933.83L873.903 1959.24L840.16 1983.87M907.383 1933.83V2033.64L873.903 2058.53M941.126 1909.2L974.87 1933.83M941.126 1909.2L907.383 1884.57V1834.79L941.126 1859.42V1909.2ZM537.523 2057.76L503.779 2033.13M537.523 2057.76V2107.79L470.3 2058.53M537.523 2057.76L571.003 2033.13M537.523 2057.76L504.043 2033.13M537.523 2057.76L571.266 2033.13M503.779 2033.13L470.3 2058.53M503.779 2033.13L537.523 2008.5M470.3 2058.53L504.043 2033.13M470.3 2058.53L504.043 2033.64V1933.83M470.3 2058.53V2008.5M470.3 2058.53L436.82 2083.16M604.746 2058.27L537.523 2008.5M604.746 2058.27V2008.5M604.746 2058.27L638.49 2083.16M537.523 2008.5V1958.72M537.523 2008.5L605.01 2058.27M537.523 2008.5L504.043 2033.13M503.779 1636.2L470.3 1661.6M503.779 1636.2L537.523 1611.57M470.3 1661.6L537.523 1710.86M470.3 1661.6V1611.57L436.82 1636.2M470.3 1661.6L436.82 1686.23M470.3 1661.6L504.043 1636.2M470.3 1661.6V1760.9M537.523 1710.86L504.043 1735.49M537.523 1710.86L571.266 1735.49M537.523 1611.57L504.043 1636.2M926.627 1674.57L891.829 1649.16M907.383 2033.13L941.126 2057.76V2107.79L873.903 2058.53M907.383 2033.13L873.903 2058.53M907.383 2033.13L941.126 2008.5L1008.61 2058.27M873.903 2058.53V2008.5M873.903 2058.53L840.16 2083.16M926.627 2071.5L891.038 2045.57M840.16 2033.13V2083.16M840.16 2033.13L873.903 2008.5M840.16 1983.87L873.903 2008.5M537.523 1760.12L504.043 1735.49M537.523 1760.12V1810.16M537.523 1760.12L571.266 1735.49M504.043 1735.49V1785.27L537.523 1810.16M537.523 1810.16L571.266 1785.53M537.523 1810.16L571.266 1834.79M571.266 1735.49V1785.53M571.266 1785.53L604.746 1810.16M537.523 1859.42L504.043 1834.79V1884.57L537.523 1909.2M537.523 1859.42V1909.2M537.523 1859.42L571.266 1834.79M537.523 1909.2L504.043 1933.83M537.523 1909.2L571.266 1933.83M571.266 1834.79V1933.83M571.266 1933.83L537.523 1958.72M571.266 1933.83V1983.87L604.746 2008.5M559.931 1866.16L550.44 1873.16M705.713 1686.23V1636.2M705.713 1686.23L672.233 1710.86M761.601 1667.83L752.11 1674.83M739.456 2057.76L705.713 2033.13V2083.16L739.456 2107.79V2057.76ZM739.456 2057.76L772.936 2033.13M772.936 2033.13V2132.42M604.746 1810.16L627.945 1793.05M604.746 1810.16V1958.98L638.49 1983.61M672.233 1760.9V1710.86M672.233 1760.9L638.49 1785.53M705.713 1835.31L649.034 1793.05M672.233 1710.86L638.49 1686.23L604.746 1710.86V1760.64L638.49 1785.53M638.49 1983.61L627.945 1975.83V1793.05M638.49 1983.61L649.034 1975.83V1793.05M638.49 1785.53L649.034 1793.05M638.49 1785.53L627.945 1793.05M627.945 1777.75V1719.94L605.01 1736.53M649.034 1777.75V1719.68L672.233 1736.79M638.49 1635.94L604.746 1611.31V1661.34L638.49 1685.97M638.49 1635.94V1685.97M638.49 1635.94L672.233 1611.31V1661.34L638.49 1685.97M537.523 1958.72L504.043 1933.83M504.043 1933.83L470.563 1959.24L436.82 1983.87M604.746 2008.5V2058.53M604.746 2008.5L638.49 2033.13M604.746 2008.5L638.49 1983.87L672.233 2008.5M705.713 2033.64L672.233 2058.53M672.233 2058.53V2008.5M672.233 2058.53L638.49 2083.16M638.49 2033.13V2083.16M638.49 2033.13L672.233 2008.5M302.109 1785.53V1735.49M302.109 1785.53L268.63 1760.9M302.109 1785.53V1835.31M302.109 1735.49L335.853 1710.86M302.109 1735.49L335.853 1760.12M335.853 1710.86L369.596 1735.49M335.853 1710.86L302.109 1686.23M369.596 1735.49V1785.53L403.076 1810.16M369.596 1735.49L335.853 1760.12M335.853 1859.42L302.109 1834.79L268.63 1859.94M335.853 1859.42V1909.2M335.853 1859.42L369.596 1834.79L403.076 1810.16M335.853 1859.42V1760.12M268.63 1859.94L335.853 1909.2M268.63 1859.94L302.109 1835.31M268.63 1859.94V1958.98L234.886 1983.61M335.853 1909.2L369.596 1884.57L403.076 1859.94M335.853 1909.2L302.109 1933.83M335.853 1909.2L369.596 1933.83M285.765 1846.98L321.354 1873.16M403.076 1810.16V1859.94M403.076 1810.16L436.82 1834.79M403.076 1810.16L436.82 1785.53M403.076 1859.94L436.82 1884.57M403.076 1611.57L436.82 1636.2M403.076 1611.57V1760.64L436.82 1785.53M504.043 1785.53L470.3 1760.9M470.3 1760.9L436.82 1785.53M504.043 1835.31L470.3 1859.94M470.3 1859.94V1810.16M470.3 1859.94L436.82 1884.57M436.82 1834.79V1884.57M436.82 1834.79L470.3 1810.16M436.82 1785.53L470.3 1810.16M436.82 1636.2V1686.23M335.853 1958.72L302.109 1933.83M335.853 1958.72V2008.5M335.853 1958.72L369.596 1933.83M302.109 1933.83V1983.87M302.109 1983.87L335.853 2008.5M302.109 1983.87L268.63 1959.24M335.853 2008.5L369.596 1983.87M335.853 2008.5L369.596 2033.13M369.596 1933.83V1983.87M369.596 1933.83L436.82 1884.31L502.198 1934.09M369.596 1933.83L436.82 1983.87M369.596 1983.87L403.076 2008.5M403.076 2008.5V2058.53M403.076 2008.5L436.82 2033.13M403.076 2008.5V2058.27L436.82 2083.16M403.076 2008.5L436.82 1983.87M133.919 2057.76L100.176 2033.13M133.919 2057.76V2107.79L66.696 2058.53L100.176 2033.13M133.919 2057.76L167.663 2033.13M100.176 2033.13L133.919 2008.5L201.406 2058.27M201.406 2058.27V2008.5M201.406 2058.27L234.886 2083.16M100.176 1636.2L66.696 1661.6L133.919 1710.86M523.024 1674.57L488.489 1649.16M523.024 2071.5L487.435 2045.57M436.82 2033.13V2083.16M436.82 2033.13L470.3 2008.5M436.82 1983.87L470.3 2008.5M134.183 1760.12L100.44 1735.49M134.183 1760.12V1810.16M134.183 1760.12L167.663 1735.49M100.44 1735.49V1785.27L134.183 1810.16M100.44 1735.49L134.183 1710.86L167.663 1735.49M134.183 1810.16L167.663 1785.53M134.183 1810.16L167.663 1834.79M167.663 1735.49V1785.53M167.663 1785.53L201.406 1810.16M134.183 1859.42L100.44 1834.79V1884.57L134.183 1909.2M134.183 1859.42V1909.2M134.183 1859.42L167.663 1834.79M134.183 1909.2L100.44 1933.83M134.183 1909.2L167.663 1933.83M167.663 1834.79V1933.83M167.663 1933.83L134.183 1958.72M167.663 1933.83V1983.87L201.406 2008.5M156.327 1866.16L146.837 1873.16M302.109 1686.23V1636.2M302.109 1686.23L268.63 1710.86M358.261 1667.83L348.77 1674.83M335.853 2057.76L302.109 2033.13V2083.16L335.853 2107.79V2057.76ZM335.853 2057.76L369.596 2033.13M369.596 2033.13V2132.42M201.406 1810.16L224.341 1793.05M201.406 1810.16V1958.98L234.886 1983.61M268.63 1760.9V1710.86M268.63 1760.9L234.886 1785.53M302.109 1835.31L245.431 1793.05M268.63 1710.86L234.886 1686.23L201.406 1710.86V1760.64L234.886 1785.53M234.886 1983.61L224.341 1975.83V1793.05M234.886 1983.61L245.431 1975.83V1793.05M234.886 1785.53L245.431 1793.05M234.886 1785.53L224.341 1793.05M224.341 1777.75V1719.94L201.406 1736.53M245.431 1777.75V1719.68L268.63 1736.79M234.886 1635.94L201.406 1611.31V1661.34L234.886 1685.97M234.886 1635.94V1685.97M234.886 1635.94L268.63 1611.31V1661.34L234.886 1685.97M134.183 2008.5V1958.72M134.183 1958.72L100.44 1933.83M100.44 1933.83V1983.87M201.406 2008.5V2058.53M201.406 2008.5L234.886 2033.13M201.406 2008.5L234.886 1983.87L268.63 2008.5M302.109 2033.64L268.63 2058.53M268.63 2058.53V2008.5M268.63 2058.53L234.886 2083.16M234.886 2033.13V2083.16M234.886 2033.13L268.63 2008.5M-2.88217e-05 1611.57L33.4798 1636.2M-2.88217e-05 1611.57V1661.6L33.4798 1686.23M-2.88217e-05 1611.57V1760.64L33.4798 1785.53M134.447 1760.12L100.703 1735.49M134.447 1760.12V1810.16M134.447 1760.12L167.926 1735.49M100.703 1735.49V1785.27L134.447 1810.16M100.703 1735.49L134.447 1710.86L167.926 1735.49M134.447 1810.16L167.926 1785.53V1735.49M100.703 1785.53L67.2233 1760.9M67.2233 1760.9V1661.6M67.2233 1760.9L33.4798 1785.53M100.703 1835.31L67.2233 1859.94M67.2233 1859.94V1810.16M67.2233 1859.94L33.4798 1884.57M33.4798 1834.79L-2.88217e-05 1810.16M33.4798 1834.79V1884.57M33.4798 1834.79L67.2233 1810.16M-2.88217e-05 1810.16V1859.94L33.4798 1884.57M-2.88217e-05 1810.16L33.4798 1785.53M33.4798 1785.53L67.2233 1810.16M33.4798 1636.2V1686.23M33.4798 1636.2L67.2233 1611.57V1661.6M33.4798 1686.23L67.2233 1661.6M-2.88217e-05 2008.5L33.4798 1983.87M33.4798 1983.87L67.2233 2008.5M33.4798 1983.87L67.2233 1959.24L100.703 1933.83M98.8578 1934.09L33.4798 1884.31" stroke="#C5C6E5" stroke-width="1.13451" stroke-miterlimit="10" stroke-linecap="round" stroke-linejoin="round"/>
</mask>
<g mask="url(#mask0_180_3)">
<path d="M637.761 567.732L909.689 369.794L1008.34 296.437H270.342L637.761 567.732Z" fill="#C5C6E5"/>
</g>
</svg>
