<svg width="69" height="41" viewBox="0 0 69 41" fill="none" xmlns="http://www.w3.org/2000/svg">
<path d="M23.2066 39.5706C23.0532 39.4889 22.8799 39.4524 22.7067 39.4653H22.4268V38.8735H22.0368V40.3781H22.7267C23.1566 40.3781 23.3716 40.2226 23.3716 39.9117C23.376 39.848 23.3636 39.7843 23.3355 39.727C23.3074 39.6697 23.2646 39.621 23.2116 39.5857L23.2066 39.5706ZM22.7117 40.0872H22.4368V39.7411H22.7067C22.7756 39.738 22.8443 39.7518 22.9067 39.7813C22.9285 39.7926 22.9467 39.81 22.959 39.8313C22.9714 39.8526 22.9775 39.877 22.9767 39.9016C22.9767 40.022 22.8867 40.0872 22.7117 40.0872ZM20.502 39.5857C20.4871 39.7077 20.4569 39.8273 20.412 39.9418C20.4036 39.9696 20.3873 39.9943 20.3651 40.013C20.3429 40.0317 20.3158 40.0435 20.2871 40.0471C20.2425 40.0475 20.1983 40.039 20.1571 40.022V40.343C20.2283 40.3725 20.3051 40.3862 20.382 40.3831C20.4304 40.3851 20.4785 40.3768 20.5234 40.3586C20.5682 40.3404 20.6086 40.3129 20.642 40.2778C20.7232 40.1757 20.7781 40.0551 20.802 39.9267C20.8529 39.6854 20.8864 39.4407 20.902 39.1945H21.2719V40.3781H21.6719V38.8735H20.572C20.572 39.1644 20.532 39.375 20.502 39.5606V39.5857ZM34.78 13.2199L34.82 25.332C34.82 25.4073 34.8849 25.4574 34.9349 25.4173L42.8588 19.4641C42.9092 19.422 42.9494 19.369 42.9762 19.309C43.0031 19.2491 43.0159 19.1837 43.0138 19.118V13.561C43.0138 13.4858 42.9488 13.4356 42.8938 13.4757L38.2395 16.9865C38.1895 17.0266 38.1195 16.9865 38.1245 16.9012V16.2141C38.1235 16.1819 38.1297 16.1498 38.1427 16.1203C38.1556 16.0908 38.175 16.0646 38.1995 16.0436L42.8538 12.5328C42.9042 12.4908 42.9444 12.4378 42.9712 12.3778C42.9981 12.3178 43.0109 12.2525 43.0088 12.1868V6.99086C43.0088 6.91563 42.9438 6.86548 42.8888 6.9056L34.8899 12.924C34.8391 12.9668 34.7988 13.0207 34.7719 13.0815C34.745 13.1424 34.7324 13.2086 34.735 13.2751L34.78 13.2199ZM8.61875 33.7077C8.45781 33.762 8.28858 33.7875 8.11882 33.7829C7.92017 33.79 7.72328 33.7432 7.54891 33.6475C7.39944 33.5602 7.28464 33.4238 7.22396 33.2613H10.3235C10.3235 33.0005 10.3235 32.8551 10.3235 32.83C10.3357 32.3905 10.2212 31.9569 9.99355 31.5812C9.7802 31.2376 9.47311 30.9625 9.10868 30.7887C8.71708 30.6065 8.29056 30.512 7.85886 30.512C7.42716 30.512 7.00065 30.6065 6.60904 30.7887C6.23993 30.9731 5.92859 31.256 5.70917 31.6062C5.4926 31.9656 5.37811 32.3775 5.37811 32.7974C5.37811 33.2173 5.4926 33.6292 5.70917 33.9885C5.93379 34.3665 6.26407 34.6699 6.65904 34.8612C7.10191 35.067 7.58589 35.1682 8.07383 35.1571C8.42943 35.1833 8.7865 35.1328 9.12106 35.0091C9.45562 34.8854 9.75992 34.6913 10.0135 34.4399L9.05369 33.472C8.92147 33.5761 8.77498 33.6605 8.61875 33.7227V33.7077ZM7.44392 31.9473C7.57712 31.841 7.74376 31.7859 7.91385 31.7918C8.08471 31.7864 8.25172 31.8434 8.38379 31.9523C8.51304 32.0651 8.59955 32.2193 8.62875 32.3886H7.20396C7.23126 32.2172 7.31801 32.0609 7.44892 31.9473H7.44392ZM54.1372 34.7759C54.2911 34.9112 54.4702 35.0144 54.6641 35.0799C54.858 35.1453 55.0629 35.1715 55.267 35.1571C55.6366 35.1513 55.9983 35.0494 56.3168 34.8612C56.647 34.6706 56.9172 34.3908 57.0967 34.0537C57.2858 33.6755 57.3843 33.2582 57.3843 32.835C57.3843 32.4118 57.2858 31.9945 57.0967 31.6163C56.9196 31.2762 56.6489 30.9942 56.3168 30.8038C55.9895 30.6167 55.6187 30.5198 55.242 30.5229C55.0186 30.5041 54.7937 30.5342 54.5831 30.6113C54.3724 30.6884 54.181 30.8105 54.0222 30.9693V30.6032H52.3174V36.6216H54.1522V34.7408L54.1372 34.7759ZM54.3071 32.2081C54.3728 32.135 54.453 32.0766 54.5425 32.0366C54.6321 31.9966 54.729 31.976 54.8271 31.976C54.9251 31.976 55.022 31.9966 55.1116 32.0366C55.2012 32.0766 55.2814 32.135 55.347 32.2081C55.4904 32.3919 55.5615 32.6221 55.547 32.8551C55.5622 33.0866 55.4909 33.3154 55.347 33.497C55.2805 33.5687 55.2001 33.6259 55.1106 33.665C55.0212 33.7041 54.9246 33.7243 54.8271 33.7243C54.7295 33.7243 54.6329 33.7041 54.5435 33.665C54.454 33.6259 54.3736 33.5687 54.3071 33.497C54.1614 33.3162 54.0883 33.0872 54.1022 32.8551C54.0885 32.6214 54.1615 32.391 54.3071 32.2081ZM26.4162 39.5907C26.2631 39.5081 26.0895 39.4716 25.9162 39.4854H25.7263V38.8735H25.3213V40.3781H25.9262C26.1009 40.3946 26.2763 40.3542 26.4262 40.2627C26.4798 40.2221 26.5225 40.1688 26.5504 40.1075C26.5783 40.0462 26.5906 39.9789 26.5861 39.9117C26.5901 39.8481 26.5774 39.7845 26.5493 39.7274C26.5213 39.6702 26.4788 39.6213 26.4262 39.5857L26.4162 39.5907ZM25.9262 40.0872H25.7413V39.7411H25.9212C25.9902 39.738 26.0588 39.7518 26.1212 39.7813C26.143 39.7926 26.1612 39.81 26.1736 39.8313C26.186 39.8526 26.1921 39.877 26.1912 39.9016C26.1912 40.022 26.1012 40.0872 25.9262 40.0872ZM24.5864 39.4653H24.0315V38.8735H23.6366V40.3781H24.0315V39.7763H24.5864V40.3781H24.9864V38.8735H24.5864V39.4352V39.4653ZM26.8011 40.3631H27.1961V38.8735H26.8011V40.3781V40.3631ZM14.2579 38.8584C14.1652 38.8541 14.0725 38.8698 13.9863 38.9044C13.9001 38.939 13.8222 38.9917 13.758 39.0591C13.6265 39.2174 13.5604 39.4201 13.573 39.6258C13.5669 39.7266 13.5815 39.8276 13.6159 39.9225C13.6503 40.0174 13.7038 40.1042 13.773 40.1775C13.847 40.2453 13.9338 40.2975 14.0282 40.3311C14.1227 40.3647 14.2229 40.379 14.3229 40.3731C14.4202 40.3749 14.5174 40.3665 14.6129 40.348C14.6908 40.3327 14.7664 40.3074 14.8379 40.2728V39.9668C14.7594 40.0038 14.6773 40.0324 14.5929 40.0521C14.5108 40.07 14.4269 40.0784 14.3429 40.0772C14.2946 40.0803 14.2462 40.0734 14.2006 40.057C14.1551 40.0406 14.1133 40.0151 14.078 39.9819C14.0117 39.9095 13.9759 39.8143 13.978 39.7161H14.9178V39.5205C14.9252 39.4297 14.9138 39.3383 14.8846 39.2521C14.8554 39.1658 14.8088 39.0865 14.7479 39.0189C14.6819 38.9556 14.6031 38.9071 14.5169 38.8768C14.4306 38.8466 14.3389 38.8352 14.2479 38.8434L14.2579 38.8584ZM13.968 39.4352C13.9683 39.3515 13.9965 39.2703 14.048 39.2045C14.0732 39.177 14.1043 39.1556 14.1389 39.1417C14.1735 39.1278 14.2107 39.1218 14.2479 39.1243C14.285 39.1225 14.3221 39.1288 14.3566 39.1426C14.3911 39.1565 14.4222 39.1776 14.4479 39.2045C14.5007 39.2694 14.5274 39.3516 14.5229 39.4352H13.963H13.968ZM15.4378 35.0317L15.7127 34.4048L14.4979 32.7397L16.1327 30.5731H14.1929L13.528 31.516L12.8931 30.5731H10.8234L12.4582 32.8551L10.7784 35.0618H12.7782L13.463 34.1089L14.073 35.0618H15.4478L15.4378 35.0317ZM11.9383 40.333H12.3332V39.1694H12.8581V40.3781H13.2581V38.8735H11.9533V40.3781L11.9383 40.333ZM19.8421 38.9688C19.7117 38.8744 19.5527 38.8283 19.3922 38.8384C19.1977 38.8349 19.0053 38.8797 18.8323 38.9688L18.9623 39.2396C19.0902 39.1766 19.2298 39.1407 19.3722 39.1343C19.4022 39.1303 19.4328 39.1332 19.4616 39.1428C19.4903 39.1524 19.5165 39.1685 19.5382 39.1897C19.5598 39.211 19.5764 39.2369 19.5866 39.2655C19.5969 39.2942 19.6005 39.3247 19.5972 39.355V39.4202H19.3422C19.1676 39.4126 18.9944 39.4543 18.8423 39.5405C18.7879 39.5784 18.7441 39.6296 18.7152 39.6894C18.6863 39.7491 18.6732 39.8153 18.6773 39.8816C18.6734 39.9436 18.682 40.0058 18.7026 40.0644C18.7232 40.123 18.7554 40.1768 18.7973 40.2226C18.8414 40.2639 18.8934 40.2957 18.9501 40.3164C19.0068 40.3371 19.067 40.3461 19.1272 40.343C19.2214 40.346 19.3151 40.3289 19.4022 40.2928C19.4832 40.2511 19.5534 40.191 19.6072 40.1173L19.6821 40.3179H19.9621V39.375C19.9683 39.3022 19.9575 39.229 19.9306 39.1611C19.9037 39.0932 19.8614 39.0325 19.8071 38.9838L19.8421 38.9688ZM19.5672 39.7913C19.5684 39.8304 19.5615 39.8694 19.5469 39.9056C19.5322 39.9419 19.5102 39.9747 19.4822 40.0019C19.4526 40.0292 19.4179 40.0503 19.3802 40.0641C19.3424 40.0779 19.3023 40.084 19.2622 40.0822C19.2376 40.0878 19.2121 40.0875 19.1876 40.0814C19.1631 40.0752 19.1405 40.0633 19.1215 40.0467C19.1025 40.0301 19.0876 40.0092 19.0782 39.9857C19.0688 39.9622 19.065 39.9369 19.0672 39.9117C19.0648 39.8775 19.0714 39.8433 19.0864 39.8125C19.1013 39.7817 19.124 39.7554 19.1522 39.7361C19.2318 39.6928 19.3217 39.672 19.4122 39.676H19.5672V39.7963V39.7913ZM16.5376 38.8735H16.1377V40.0371H15.5577V38.8735H15.1628V40.3781H16.3926V40.8796H16.7476V40.0621H16.5376V38.8735ZM11.1484 38.7331C11.2201 38.7346 11.2911 38.7482 11.3584 38.7732L11.5733 38.8735L11.7033 38.5425C11.5309 38.456 11.3412 38.4097 11.1484 38.4071C10.9821 38.4031 10.8179 38.4447 10.6735 38.5274C10.5385 38.6075 10.4305 38.7263 10.3635 38.8685C10.2908 39.0256 10.2533 39.1968 10.2535 39.37C10.236 39.6312 10.3142 39.8899 10.4735 40.0972C10.5543 40.1834 10.6532 40.2506 10.7629 40.2939C10.8727 40.3373 10.9907 40.3558 11.1084 40.348C11.2799 40.3466 11.4495 40.3126 11.6083 40.2477V39.9067C11.4486 39.9685 11.2795 40.0024 11.1084 40.007C10.7751 40.007 10.6085 39.7946 10.6085 39.37C10.5938 39.1936 10.6378 39.0173 10.7334 38.8685C10.7736 38.8125 10.8272 38.7675 10.8892 38.7377C10.9512 38.7079 11.0197 38.6942 11.0884 38.698L11.1484 38.7331ZM30.0856 9.03211C30.1081 9.05088 30.1364 9.06116 30.1656 9.06116C30.1949 9.06116 30.2232 9.05088 30.2456 9.03211L31.8404 7.83344C31.8904 7.79332 31.9604 7.83344 31.9604 7.9187V10.316C31.9586 10.3491 31.9644 10.3821 31.9774 10.4126C31.9904 10.443 32.0103 10.4701 32.0354 10.4916L34.24 12.1517C34.285 12.1871 34.3404 12.2063 34.3975 12.2063C34.4546 12.2063 34.5101 12.1871 34.555 12.1517L36.7647 10.4916C36.7898 10.4701 36.8096 10.443 36.8226 10.4126C36.8356 10.3821 36.8414 10.3491 36.8397 10.316V7.97889C36.8397 7.90365 36.9047 7.8535 36.9596 7.89362L38.5444 9.09229C38.5669 9.11106 38.5952 9.12134 38.6244 9.12134C38.6536 9.12134 38.6819 9.11106 38.7044 9.09229L42.5238 6.2185C42.5365 6.20767 42.5467 6.19422 42.5536 6.17906C42.5606 6.16391 42.5642 6.14742 42.5642 6.13073C42.5642 6.11404 42.5606 6.09755 42.5536 6.0824C42.5467 6.06725 42.5365 6.05379 42.5238 6.04296L34.555 0.0546259C34.5101 0.0192394 34.4546 0 34.3975 0C34.3404 0 34.285 0.0192394 34.24 0.0546259L26.3212 6.04296C26.3085 6.05379 26.2984 6.06725 26.2914 6.0824C26.2844 6.09755 26.2808 6.11404 26.2808 6.13073C26.2808 6.14742 26.2844 6.16391 26.2914 6.17906C26.2984 6.19422 26.3085 6.20767 26.3212 6.2185L30.0856 9.03211ZM24.3715 35.0568H26.1962V32.0476H27.551V30.6132H23.0117V32.0476H24.3665V35.0568H24.3715ZM21.007 35.0568H23.0067L20.507 29.3543H18.6223L16.1227 35.0568H18.0724L18.4523 34.0537H20.612L21.007 35.0568ZM19.0072 32.6795L19.5622 31.2451L20.1121 32.6795H18.9922H19.0072ZM0.00999878 30.8489H1.67476V35.0618H3.55949V30.8489H5.22425V29.3443H0V30.8489H0.00999878ZM17.3075 39.9267C17.3075 39.691 17.3375 39.5405 17.3375 39.4804V38.8735H16.9425V40.3781H17.4425L18.1124 39.375C18.1124 39.5656 18.0874 39.7111 18.0874 39.8164V40.3781H18.4723V38.8735H17.9724L17.3075 39.9267ZM67.8302 29.3945V27.94L66.5604 28.6723L65.2955 27.94V29.4095L66.5604 30.1418L67.8302 29.3945ZM50.6427 38.8735C50.5606 38.869 50.4788 38.8866 50.4059 38.9245C50.3329 38.9624 50.2714 39.0193 50.2277 39.0891L50.1727 38.8986H49.8178V41H50.2127V40.4082C50.2127 40.4082 50.2127 40.3179 50.2127 40.1975C50.2613 40.2578 50.3232 40.3058 50.3935 40.338C50.4637 40.3702 50.5405 40.3857 50.6177 40.3831C50.723 40.385 50.8262 40.3534 50.9126 40.2928C51.0015 40.2267 51.0692 40.1361 51.1076 40.032C51.1563 39.9023 51.18 39.7644 51.1776 39.6258C51.1896 39.4295 51.1388 39.2344 51.0326 39.0691C50.9873 39.0042 50.9265 38.9518 50.8557 38.9168C50.785 38.8817 50.7065 38.8651 50.6277 38.8685L50.6427 38.8735ZM50.5077 40.0621C50.4656 40.0654 50.4233 40.058 50.3848 40.0404C50.3464 40.0229 50.3129 39.9958 50.2877 39.9618C50.2334 39.8586 50.2092 39.7422 50.2177 39.6258V39.5807C50.2089 39.4755 50.2334 39.3702 50.2877 39.2797C50.3135 39.2483 50.3466 39.2237 50.3841 39.2079C50.4215 39.1922 50.4622 39.1859 50.5027 39.1895C50.5431 39.1869 50.5835 39.1953 50.6196 39.2138C50.6557 39.2324 50.6861 39.2603 50.7077 39.2948C50.7579 39.3957 50.7804 39.5082 50.7726 39.6208C50.7726 39.915 50.6843 40.0621 50.5077 40.0621ZM48.268 38.8735C48.1752 38.8692 48.0826 38.8848 47.9964 38.9194C47.9101 38.954 47.8323 39.0068 47.7681 39.0741C47.637 39.2327 47.5709 39.4352 47.5831 39.6408C47.577 39.7416 47.5916 39.8426 47.626 39.9375C47.6604 40.0324 47.7139 40.1192 47.7831 40.1925C47.8571 40.2603 47.9439 40.3126 48.0383 40.3462C48.1328 40.3798 48.233 40.394 48.333 40.3881C48.4303 40.3899 48.5274 40.3815 48.623 40.3631C48.7008 40.3477 48.7764 40.3224 48.8479 40.2878V39.9819C48.7695 40.0189 48.6874 40.0475 48.603 40.0672C48.5209 40.085 48.437 40.0934 48.353 40.0922C48.3047 40.0953 48.2563 40.0884 48.2107 40.0721C48.1651 40.0557 48.1234 40.0301 48.088 39.9969C48.0222 39.9243 47.9865 39.8293 47.988 39.7311H48.9279V39.5355C48.9352 39.4447 48.9239 39.3534 48.8947 39.2671C48.8654 39.1808 48.8189 39.1015 48.7579 39.034C48.6919 38.9706 48.6132 38.9222 48.5269 38.8919C48.4407 38.8616 48.349 38.8502 48.258 38.8584L48.268 38.8735ZM47.9831 39.4503C47.9834 39.3666 48.0115 39.2854 48.063 39.2196C48.0883 39.1921 48.1194 39.1706 48.154 39.1567C48.1886 39.1428 48.2258 39.1369 48.263 39.1393C48.3001 39.1376 48.3372 39.1438 48.3717 39.1577C48.4062 39.1715 48.4373 39.1926 48.463 39.2196C48.5162 39.2842 48.543 39.3666 48.538 39.4503H47.9831ZM52.4824 38.9838C52.352 38.8894 52.193 38.8434 52.0325 38.8534C51.8396 38.8508 51.6491 38.8955 51.4775 38.9838L51.6075 39.2547C51.7355 39.1916 51.875 39.1557 52.0175 39.1493C52.0475 39.1454 52.0781 39.1483 52.1068 39.1579C52.1356 39.1675 52.1618 39.1835 52.1834 39.2048C52.2051 39.226 52.2217 39.252 52.2319 39.2806C52.2421 39.3092 52.2457 39.3398 52.2424 39.37V39.4352H51.9875C51.8129 39.4279 51.6398 39.4696 51.4875 39.5556C51.4341 39.594 51.3913 39.6455 51.3633 39.7052C51.3353 39.7649 51.323 39.8308 51.3276 39.8966C51.3236 39.9586 51.3322 40.0208 51.3529 40.0794C51.3735 40.138 51.4057 40.1919 51.4475 40.2377C51.4917 40.2789 51.5437 40.3108 51.6003 40.3315C51.657 40.3521 51.7173 40.3612 51.7775 40.358C51.8716 40.3609 51.9653 40.3438 52.0525 40.3079C52.1335 40.2662 52.2037 40.2061 52.2574 40.1323L52.3324 40.333H52.6074V39.375C52.6135 39.3022 52.6027 39.229 52.5758 39.1611C52.5489 39.0932 52.5067 39.0325 52.4524 38.9838H52.4824ZM52.2124 39.7913C52.2137 39.8304 52.2068 39.8694 52.1921 39.9056C52.1775 39.9419 52.1555 39.9747 52.1274 40.0019C52.0979 40.0292 52.0632 40.0503 52.0254 40.0641C51.9877 40.0779 51.9476 40.084 51.9075 40.0822C51.8832 40.0869 51.8583 40.086 51.8345 40.0794C51.8106 40.0728 51.7887 40.0608 51.7703 40.0443C51.7519 40.0277 51.7376 40.0072 51.7284 39.9842C51.7192 39.9612 51.7155 39.9364 51.7175 39.9117C51.7151 39.8775 51.7217 39.8433 51.7366 39.8125C51.7515 39.7817 51.7743 39.7554 51.8025 39.7361C51.8821 39.6928 51.972 39.672 52.0625 39.676H52.2174V39.7963L52.2124 39.7913ZM48.178 35.0468H50.0028V32.0376H51.3576V30.6032H46.8182V32.0376H48.173V35.0468H48.178ZM46.4783 39.5606C46.3252 39.478 46.1516 39.4415 45.9783 39.4553H45.7884V38.8735H45.3934V40.3781H45.9983C46.173 40.3946 46.3483 40.3542 46.4983 40.2627C46.5522 40.2224 46.5951 40.1691 46.6231 40.1078C46.6511 40.0464 46.6631 39.979 46.6582 39.9117C46.6627 39.848 46.6502 39.7843 46.6221 39.727C46.594 39.6697 46.5513 39.621 46.4983 39.5857L46.4783 39.5606ZM45.9983 40.0872H45.8134V39.7411H45.9933C46.0622 39.7382 46.1308 39.752 46.1933 39.7813C46.2142 39.7933 46.2313 39.811 46.2428 39.8322C46.2543 39.8535 46.2597 39.8775 46.2583 39.9016C46.2583 40.0254 46.17 40.0872 45.9933 40.0872H45.9983ZM46.4433 34.0688L45.2334 32.9855C45.0934 33.1876 44.9075 33.3534 44.6911 33.4694C44.4747 33.5853 44.2339 33.6481 43.9886 33.6525C43.8098 33.66 43.6313 33.6295 43.465 33.5629C43.2988 33.4964 43.1484 33.3953 43.0238 33.2663C42.7876 32.9722 42.6588 32.6058 42.6588 32.2281C42.6588 31.8504 42.7876 31.4841 43.0238 31.19C43.1484 31.061 43.2988 30.9599 43.465 30.8934C43.6313 30.8268 43.8098 30.7963 43.9886 30.8038C44.2339 30.8082 44.4747 30.8709 44.6911 30.9869C44.9075 31.1029 45.0934 31.2687 45.2334 31.4708L46.4433 30.3875C46.1632 30.0194 45.7953 29.7279 45.3734 29.5399C44.9003 29.3355 44.3886 29.2363 43.8736 29.249C43.3092 29.2412 42.7514 29.372 42.2489 29.6302C41.7815 29.8707 41.3903 30.2371 41.119 30.6884C40.8497 31.1584 40.708 31.691 40.708 32.2332C40.708 32.7753 40.8497 33.3079 41.119 33.7779C41.4128 34.2298 41.829 34.5883 42.3189 34.8111C42.8213 35.0692 43.3792 35.2001 43.9436 35.1922C44.459 35.2035 44.9707 35.1026 45.4434 34.8963C45.8655 34.7087 46.2335 34.4172 46.5133 34.0487L46.4433 34.0688ZM46.9082 40.3781H47.3181V38.8735H46.9232V40.3781H46.9082ZM53.5073 38.8334C53.5829 38.7907 53.6661 38.7635 53.7522 38.7531L54.3521 38.6679L54.3071 38.3218L53.7172 38.4071C53.6012 38.4201 53.4889 38.4561 53.3868 38.5129C53.2847 38.5697 53.1948 38.6463 53.1223 38.7381C52.9811 38.966 52.9147 39.2326 52.9323 39.5004C52.918 39.7357 52.9832 39.9689 53.1173 40.1624C53.1766 40.2385 53.2525 40.2997 53.3392 40.3415C53.4259 40.3832 53.5211 40.4043 53.6172 40.4032C53.7093 40.4054 53.8009 40.3893 53.8868 40.3557C53.9726 40.3222 54.0509 40.2718 54.1172 40.2076C54.1834 40.1326 54.2343 40.0454 54.2669 39.9507C54.2995 39.856 54.3131 39.7559 54.3071 39.6559C54.3182 39.4854 54.2646 39.317 54.1572 39.1844C54.0708 39.1001 53.9608 39.0444 53.842 39.0246C53.7231 39.0049 53.6011 39.0222 53.4923 39.0741C53.4186 39.1122 53.3565 39.1693 53.3123 39.2396C53.3151 39.1522 53.332 39.0658 53.3623 38.9838C53.386 38.9225 53.4278 38.87 53.4823 38.8334H53.5073ZM53.3973 39.4302C53.4359 39.3952 53.4798 39.3664 53.5272 39.3449C53.5706 39.3227 53.6185 39.3107 53.6672 39.3098C53.8372 39.3098 53.9222 39.4369 53.9222 39.691C53.9222 39.9451 53.8272 40.0755 53.6372 40.0822C53.5882 40.0834 53.5398 40.0709 53.4974 40.0461C53.4551 40.0213 53.4204 39.9852 53.3973 39.9418C53.3335 39.8163 53.3041 39.6761 53.3123 39.5355C53.3343 39.4957 53.363 39.4601 53.3973 39.4302ZM55.5919 38.9838C55.4787 38.9217 55.3511 38.8905 55.222 38.8936C55.1295 38.8914 55.0375 38.908 54.9516 38.9425C54.8656 38.977 54.7876 39.0286 54.7221 39.0942C54.5908 39.2486 54.5244 39.4483 54.5371 39.6509C54.534 39.7894 54.5631 39.9268 54.6221 40.0521C54.6751 40.1635 54.7605 40.2561 54.8671 40.3179C54.9802 40.3803 55.1079 40.4115 55.237 40.4082C55.3296 40.4107 55.4216 40.3941 55.5076 40.3596C55.5936 40.3251 55.6716 40.2734 55.7369 40.2076C55.87 40.0539 55.9382 39.8542 55.9269 39.6509C55.9306 39.5123 55.9014 39.3748 55.8419 39.2496C55.7883 39.14 55.7029 39.0491 55.5969 38.9888L55.5919 38.9838ZM55.452 39.9919C55.427 40.0293 55.3925 40.0593 55.3521 40.0787C55.3116 40.0981 55.2667 40.1063 55.222 40.1023C55.1774 40.1057 55.1327 40.0974 55.0923 40.078C55.0519 40.0586 55.0173 40.0289 54.992 39.9919C54.9391 39.8918 54.9148 39.779 54.922 39.6659C54.9143 39.5528 54.9386 39.4398 54.992 39.3399C55.0202 39.3062 55.0554 39.2791 55.0951 39.2605C55.1348 39.2418 55.1782 39.2322 55.222 39.2322C55.2659 39.2322 55.3092 39.2418 55.3489 39.2605C55.3886 39.2791 55.4238 39.3062 55.452 39.3399C55.5054 39.4398 55.5297 39.5528 55.522 39.6659C55.5286 39.7789 55.5044 39.8917 55.452 39.9919ZM67.3152 30.6032L65.7805 32.6093V30.6032H63.9557V35.0618H65.6505L67.1753 33.0557V35.0618H69V30.6032H67.3152ZM59.1014 40.3781H59.4964V38.8735H59.1014V40.3781ZM61.976 30.8489C61.5582 30.6559 61.1037 30.5559 60.6437 30.5559C60.1837 30.5559 59.7292 30.6559 59.3114 30.8489C58.9353 31.0307 58.6168 31.3137 58.3915 31.6664C58.174 32.0263 58.059 32.4392 58.059 32.8601C58.059 33.281 58.174 33.6938 58.3915 34.0537C58.6207 34.4024 58.9405 34.6816 59.3164 34.8612C59.7335 35.0569 60.1883 35.1583 60.6487 35.1583C61.1091 35.1583 61.564 35.0569 61.981 34.8612C62.358 34.6783 62.6765 34.3934 62.9009 34.0387C63.1163 33.678 63.2301 33.2655 63.2301 32.845C63.2301 32.4246 63.1163 32.012 62.9009 31.6514C62.6771 31.2975 62.3582 31.0141 61.981 30.8339L61.976 30.8489ZM61.1661 33.492C61.1005 33.5651 61.0203 33.6235 60.9308 33.6635C60.8412 33.7035 60.7443 33.7241 60.6462 33.7241C60.5482 33.7241 60.4512 33.7035 60.3617 33.6635C60.2721 33.6235 60.1919 33.5651 60.1263 33.492C59.9807 33.3091 59.9077 33.0787 59.9213 32.845C59.9075 32.6129 59.9806 32.3839 60.1263 32.2031C60.1923 32.1307 60.2727 32.0729 60.3622 32.0334C60.4517 31.9938 60.5484 31.9734 60.6462 31.9734C60.744 31.9734 60.8407 31.9938 60.9303 32.0334C61.0198 32.0729 61.1001 32.1307 61.1661 32.2031C61.3118 32.3839 61.3849 32.6129 61.3711 32.845C61.3848 33.0787 61.3117 33.3091 61.1661 33.492ZM58.7365 39.5857C58.5834 39.5031 58.4098 39.4666 58.2366 39.4804H58.0466V38.8735H57.6516V40.3781H58.2566C58.4312 40.3946 58.6066 40.3542 58.7565 40.2627C58.8101 40.2221 58.8528 40.1688 58.8807 40.1075C58.9086 40.0462 58.9209 39.9789 58.9165 39.9117C58.9204 39.8481 58.9077 39.7845 58.8796 39.7274C58.8516 39.6702 58.8091 39.6213 58.7565 39.5857H58.7365ZM58.2566 40.0872H58.0716V39.7411H58.2516C58.3205 39.738 58.3891 39.7518 58.4515 39.7813C58.4734 39.7926 58.4915 39.81 58.5039 39.8313C58.5163 39.8526 58.5224 39.877 58.5215 39.9016C58.5215 40.022 58.4315 40.0872 58.2566 40.0872ZM56.1069 39.1995H56.6068V40.3781H57.0017V39.2145H57.5017V38.8735H56.1519V39.1744L56.1069 39.1995ZM40.6541 39.5907C40.6392 39.7127 40.609 39.8324 40.5641 39.9468C40.5557 39.9746 40.5393 39.9993 40.5172 40.018C40.495 40.0367 40.4679 40.0485 40.4391 40.0521C40.3946 40.0526 40.3504 40.0441 40.3092 40.027V40.348C40.3804 40.3775 40.4571 40.3912 40.5341 40.3881C40.5824 40.3901 40.6306 40.3818 40.6754 40.3636C40.7203 40.3454 40.7607 40.3179 40.7941 40.2828C40.8753 40.1807 40.9302 40.0601 40.9541 39.9317C41.0048 39.6904 41.0382 39.4456 41.0541 39.1995H41.419V40.3781H41.8189V38.8735H40.7191C40.7191 39.1644 40.6791 39.375 40.6491 39.5606L40.6541 39.5907ZM44.7185 39.4352H44.1636V38.8735H43.7637V40.3781H44.1636V39.7763H44.7185V40.3781H45.1185V38.8735H44.7185V39.4352ZM33.2552 38.8735C33.1731 38.869 33.0914 38.8866 33.0184 38.9245C32.9454 38.9624 32.8839 39.0193 32.8402 39.0891L32.7703 38.8735H32.4453V40.9749H32.8202V40.3831C32.8202 40.3831 32.8202 40.2928 32.8202 40.1725C32.8683 40.232 32.9294 40.2797 32.9987 40.3118C33.0681 40.344 33.1438 40.3598 33.2202 40.358C33.3255 40.3599 33.4288 40.3283 33.5151 40.2678C33.6042 40.2019 33.672 40.1112 33.7101 40.007C33.7588 39.8772 33.7825 39.7393 33.7801 39.6007C33.7918 39.4044 33.741 39.2095 33.6351 39.044C33.5881 38.981 33.5269 38.9301 33.4565 38.8952C33.3862 38.8604 33.3086 38.8426 33.2302 38.8434L33.2552 38.8735ZM33.1102 40.0371C33.0681 40.0404 33.0258 40.0329 32.9873 40.0153C32.9489 39.9978 32.9155 39.9708 32.8902 39.9367C32.8357 39.8336 32.8114 39.7171 32.8202 39.6007V39.5556C32.8114 39.4504 32.8359 39.3451 32.8902 39.2547C32.9163 39.2236 32.9495 39.1991 32.9868 39.1834C33.0242 39.1677 33.0648 39.1612 33.1052 39.1644C33.1457 39.1618 33.1861 39.1702 33.2221 39.1887C33.2582 39.2073 33.2886 39.2352 33.3102 39.2697C33.3605 39.3706 33.3829 39.4832 33.3752 39.5957C33.3752 39.8899 33.2852 40.0371 33.1052 40.0371H33.1102ZM34.0951 25.332L34.1501 13.2601C34.153 13.1935 34.1405 13.1272 34.1137 13.0663C34.0868 13.0054 34.0462 12.9515 33.9951 12.909L25.9962 6.89055C25.9462 6.85043 25.8763 6.89055 25.8763 6.97581V19.1431C25.8741 19.2088 25.8869 19.2741 25.9138 19.3341C25.9406 19.3941 25.9808 19.4471 26.0312 19.4891L28.6808 21.4953C28.7308 21.5354 28.8008 21.4953 28.8008 21.41V20.4069C28.8008 20.3618 28.8408 20.3317 28.8708 20.3568L30.8205 21.8213C30.8453 21.843 30.865 21.8701 30.8779 21.9005C30.8909 21.9309 30.8969 21.9638 30.8955 21.9968V22.9196C30.8934 22.9854 30.9062 23.0507 30.9331 23.1107C30.9599 23.1707 31.0001 23.2237 31.0505 23.2657L33.9701 25.4123C34.0201 25.4524 34.0851 25.4123 34.0851 25.327L34.0951 25.332ZM30.8905 16.4498C30.8905 16.5251 30.8255 16.5752 30.7705 16.5351L28.8858 15.1157C28.8607 15.0942 28.8409 15.0672 28.8279 15.0368C28.8149 15.0063 28.8091 14.9733 28.8108 14.9402V14.213C28.8108 14.1678 28.8508 14.1377 28.8808 14.1628L30.8205 15.6022C30.8465 15.6233 30.8673 15.6501 30.8812 15.6805C30.8951 15.711 30.9017 15.7443 30.9005 15.7778V16.4448L30.8905 16.4498ZM30.8905 39.1995H31.3905V40.3781H31.7854V39.2145H32.2853V38.8735H30.9355V39.1744L30.8905 39.1995ZM30.3456 39.1995C30.3987 39.1919 30.4525 39.1919 30.5056 39.1995L30.6806 39.2597L30.7955 38.9537C30.6461 38.8886 30.4831 38.861 30.3206 38.8735C30.2236 38.8671 30.1262 38.8812 30.035 38.9149C29.9437 38.9486 29.8605 39.0011 29.7907 39.0691C29.6583 39.2269 29.592 39.43 29.6057 39.6358C29.5869 39.7352 29.5922 39.8376 29.6211 39.9345C29.6499 40.0314 29.7016 40.1199 29.7716 40.1926C29.8416 40.2654 29.9281 40.3202 30.0236 40.3524C30.1191 40.3847 30.221 40.3935 30.3206 40.3781C30.4037 40.3876 30.4875 40.3876 30.5706 40.3781C30.6398 40.3608 30.7057 40.332 30.7655 40.2928V39.9518C30.7054 39.9927 30.6397 40.0248 30.5706 40.0471C30.5025 40.0677 30.4317 40.0778 30.3606 40.0772C30.154 40.0772 30.0506 39.9351 30.0506 39.6509C30.0506 39.3667 30.154 39.2196 30.3606 39.2095L30.3456 39.1995ZM31.9204 34.8612C32.2972 34.678 32.6157 34.3932 32.8402 34.0387C33.0557 33.678 33.1695 33.2655 33.1695 32.845C33.1695 32.4246 33.0557 32.012 32.8402 31.6514C32.6162 31.2976 32.2974 31.0143 31.9204 30.8339C31.5026 30.6408 31.0481 30.5408 30.5881 30.5408C30.1281 30.5408 29.6736 30.6408 29.2558 30.8339C28.8795 31.0154 28.5609 31.2985 28.3359 31.6514C28.1178 32.0111 28.0025 32.424 28.0025 32.845C28.0025 33.2661 28.1178 33.679 28.3359 34.0387C28.5614 34.3924 28.8797 34.6769 29.2558 34.8612C29.6728 35.0569 30.1276 35.1583 30.5881 35.1583C31.0485 35.1583 31.5033 35.0569 31.9204 34.8612ZM30.0656 33.492C29.92 33.3091 29.847 33.0787 29.8607 32.845C29.8468 32.6129 29.9199 32.3839 30.0656 32.2031C30.1317 32.1307 30.212 32.0729 30.3015 32.0334C30.391 31.9938 30.4878 31.9734 30.5856 31.9734C30.6834 31.9734 30.7801 31.9938 30.8696 32.0334C30.9591 32.0729 31.0395 32.1307 31.1055 32.2031C31.2512 32.3839 31.3243 32.6129 31.3105 32.845C31.3236 33.0786 31.2507 33.3089 31.1055 33.492C31.0399 33.5651 30.9597 33.6235 30.8701 33.6635C30.7805 33.7035 30.6836 33.7241 30.5856 33.7241C30.4875 33.7241 30.3906 33.7035 30.301 33.6635C30.2115 33.6235 30.1313 33.5651 30.0656 33.492ZM35.0999 38.9788C34.9866 38.9169 34.859 38.8857 34.73 38.8885C34.6375 38.8864 34.5455 38.903 34.4595 38.9375C34.3736 38.972 34.2955 39.0236 34.23 39.0891C34.0987 39.2436 34.0324 39.4432 34.0451 39.6459C34.042 39.7844 34.0711 39.9218 34.1301 40.0471C34.1831 40.1584 34.2685 40.2511 34.375 40.3129C34.4881 40.3755 34.6158 40.4067 34.745 40.4032C34.8375 40.4056 34.9296 40.3891 35.0156 40.3546C35.1015 40.3201 35.1796 40.2684 35.2449 40.2026C35.378 40.0489 35.4462 39.8492 35.4349 39.6459C35.4385 39.5073 35.4094 39.3698 35.3499 39.2446C35.296 39.1351 35.2107 39.0443 35.1049 38.9838L35.0999 38.9788ZM34.9599 39.9869C34.935 40.0243 34.9005 40.0543 34.86 40.0737C34.8196 40.0931 34.7746 40.1012 34.73 40.0972C34.6854 40.1007 34.6406 40.0923 34.6003 40.073C34.5599 40.0536 34.5253 40.0239 34.5 39.9869C34.447 39.8868 34.4228 39.774 34.43 39.6609C34.4223 39.5478 34.4465 39.4348 34.5 39.3349C34.5282 39.3012 34.5633 39.2741 34.6031 39.2554C34.6428 39.2368 34.6861 39.2272 34.73 39.2272C34.7738 39.2272 34.8171 39.2368 34.8569 39.2554C34.8966 39.2741 34.9318 39.3012 34.9599 39.3349C35.0132 39.4349 35.0374 39.5478 35.0299 39.6609C35.0366 39.7739 35.0124 39.8867 34.9599 39.9869ZM28.1459 38.8735C28.0531 38.8692 27.9605 38.8848 27.8743 38.9194C27.788 38.954 27.7102 39.0068 27.646 39.0741C27.515 39.2327 27.4488 39.4352 27.461 39.6408C27.4549 39.7416 27.4695 39.8426 27.5039 39.9375C27.5383 40.0324 27.5918 40.1192 27.661 40.1925C27.735 40.2603 27.8218 40.3126 27.9162 40.3462C28.0107 40.3798 28.1109 40.394 28.2109 40.3881C28.3082 40.3899 28.4054 40.3815 28.5009 40.3631C28.5788 40.3479 28.6544 40.3226 28.7258 40.2878V39.9819C28.6474 40.0189 28.5653 40.0475 28.4809 40.0672C28.3988 40.085 28.3149 40.0934 28.2309 40.0922C28.1826 40.0956 28.1341 40.0889 28.0885 40.0725C28.0429 40.0561 28.0011 40.0304 27.966 39.9969C27.8997 39.9246 27.8639 39.8293 27.866 39.7311H28.8208V39.5355C28.8281 39.4447 28.8168 39.3534 28.7876 39.2671C28.7584 39.1808 28.7118 39.1015 28.6509 39.034C28.5848 38.9706 28.5061 38.9222 28.4198 38.8919C28.3336 38.8616 28.2419 38.8502 28.1509 38.8584L28.1459 38.8735ZM27.876 39.4503C27.8759 39.3665 27.9041 39.2852 27.9559 39.2196C27.9807 39.1927 28.0109 39.1717 28.0446 39.1578C28.0783 39.1439 28.1146 39.1376 28.1509 39.1393C28.188 39.1376 28.2251 39.1438 28.2596 39.1577C28.2941 39.1715 28.3252 39.1926 28.3509 39.2196C28.4041 39.2842 28.4309 39.3666 28.4259 39.4503H27.871H27.876ZM43.3187 39.5706C43.1653 39.4889 42.992 39.4524 42.8188 39.4653H42.5388V38.8735H42.1389V40.3781H42.8338C43.2637 40.3781 43.4787 40.2226 43.4787 39.9117C43.4831 39.848 43.4707 39.7843 43.4426 39.727C43.4145 39.6697 43.3717 39.621 43.3187 39.5857V39.5706ZM42.8188 40.0872H42.5438V39.7411H42.8188C42.8877 39.738 42.9563 39.7518 43.0188 39.7813C43.0397 39.7933 43.0568 39.811 43.0683 39.8322C43.0798 39.8535 43.0851 39.8775 43.0838 39.9016C43.0838 40.0254 42.9954 40.0872 42.8188 40.0872ZM39.5693 38.8735C39.4765 38.8692 39.3839 38.8848 39.2976 38.9194C39.2114 38.954 39.1335 39.0068 39.0693 39.0741C38.9383 39.2327 38.8722 39.4352 38.8844 39.6408C38.8783 39.7416 38.8929 39.8426 38.9273 39.9375C38.9617 40.0324 39.0151 40.1192 39.0843 40.1925C39.1583 40.2603 39.2451 40.3126 39.3396 40.3462C39.434 40.3798 39.5342 40.394 39.6343 40.3881C39.7315 40.3899 39.8287 40.3815 39.9242 40.3631C40.0021 40.3478 40.0777 40.3225 40.1492 40.2878V39.9819C40.0708 40.0189 39.9887 40.0475 39.9042 40.0672C39.8221 40.085 39.7383 40.0934 39.6543 40.0922C39.6059 40.0956 39.5574 40.0889 39.5118 40.0725C39.4662 40.0561 39.4245 40.0304 39.3893 39.9969C39.3231 39.9246 39.2872 39.8293 39.2893 39.7311H40.2292V39.5355C40.2365 39.4447 40.2252 39.3534 40.1959 39.2671C40.1667 39.1808 40.1202 39.1015 40.0592 39.034C39.9932 38.9706 39.9144 38.9222 39.8282 38.8919C39.742 38.8616 39.6503 38.8502 39.5593 38.8584L39.5693 38.8735ZM39.2793 39.4503C39.2796 39.3666 39.3078 39.2854 39.3593 39.2196C39.3846 39.1921 39.4156 39.1706 39.4502 39.1567C39.4848 39.1428 39.5221 39.1369 39.5593 39.1393C39.5964 39.1376 39.6334 39.1438 39.6679 39.1577C39.7024 39.1715 39.7336 39.1926 39.7592 39.2196C39.8125 39.2842 39.8392 39.3666 39.8342 39.4503H39.2743H39.2793ZM38.3195 35.0568H39.9692V30.5982H38.2495L37.0546 32.6745L35.9998 30.5982H34.0601V35.0568H35.7098V33.0206L36.6197 34.7057H37.3896L38.3294 33.0607L38.3195 35.0568ZM36.0148 39.9217C36.0148 39.686 36.0448 39.5355 36.0448 39.4753V38.8735H35.6598V40.3781H36.1598L36.8297 39.375C36.8297 39.5656 36.8047 39.7111 36.8047 39.8164V40.3781H37.1896V38.8735H36.6897L36.0148 39.9217ZM37.3796 39.1945H37.8795V40.3781H38.2745V39.2145H38.7744V38.8735H37.4246V39.1744L37.3796 39.1945Z" fill="white"/>
</svg>
