<svg width="165" height="27" viewBox="0 0 165 27" fill="none" xmlns="http://www.w3.org/2000/svg">
<path d="M9.52367 26.7024L9.48108 14.0276L9.43318 14.0854C9.43045 14.0158 9.44389 13.9465 9.4725 13.8828C9.5011 13.8191 9.5441 13.7627 9.5982 13.718L18.1155 7.41995C18.1741 7.37796 18.2433 7.43045 18.2433 7.50917V12.9465C18.2456 13.0152 18.2319 13.0836 18.2033 13.1464C18.1747 13.2091 18.1319 13.2646 18.0783 13.3086L13.1222 16.9824C13.0962 17.0044 13.0756 17.0318 13.0618 17.0627C13.0479 17.0936 13.0413 17.1272 13.0424 17.1609V17.8799C13.0371 17.9691 13.1116 18.0111 13.1648 17.9691L18.1208 14.2953C18.1794 14.2533 18.2486 14.3058 18.2486 14.3845V20.1997C18.2509 20.2684 18.2372 20.3368 18.2086 20.3996C18.18 20.4624 18.1373 20.5178 18.0836 20.5618L9.64611 26.7916C9.59288 26.8336 9.52367 26.7811 9.52367 26.7024Z" fill="white"/>
<path d="M4.56766 9.67564C4.53654 9.67564 4.5064 9.66489 4.48249 9.64525L0.474026 6.70093C0.460549 6.6896 0.449723 6.67552 0.442302 6.65966C0.43488 6.64381 0.431042 6.62654 0.431042 6.60908C0.431042 6.59162 0.43488 6.57437 0.442302 6.55851C0.449723 6.54265 0.460549 6.52857 0.474026 6.51723L8.90617 0.250714C8.95399 0.213683 9.01304 0.19355 9.07385 0.19355C9.13466 0.19355 9.19372 0.213683 9.24154 0.250714L17.7269 6.51723C17.7404 6.52857 17.7512 6.54265 17.7586 6.55851C17.7661 6.57437 17.7699 6.59162 17.7699 6.60908C17.7699 6.62654 17.7661 6.64381 17.7586 6.65966C17.7512 6.67552 17.7404 6.6896 17.7269 6.70093L13.6599 9.70823C13.636 9.72787 13.6058 9.73862 13.5747 9.73862C13.5436 9.73862 13.5135 9.72787 13.4895 9.70823L11.8021 8.45388C11.7435 8.41189 11.6743 8.46437 11.6743 8.5431V10.9888C11.6762 11.0234 11.67 11.058 11.6561 11.0899C11.6423 11.1217 11.6212 11.15 11.5944 11.1725L9.24154 12.9097C9.19372 12.9468 9.13466 12.9669 9.07385 12.9669C9.01304 12.9669 8.95399 12.9468 8.90617 12.9097L6.55858 11.1725C6.53186 11.15 6.51076 11.1217 6.49691 11.0899C6.48307 11.058 6.47684 11.0234 6.47873 10.9888V8.48012C6.47873 8.3909 6.40421 8.34891 6.35097 8.3909L4.65283 9.64525C4.62892 9.66489 4.59878 9.67564 4.56766 9.67564Z" fill="white"/>
<path d="M8.81035 14.0696L8.75179 26.7024L8.74115 26.6971C8.74115 26.7864 8.67194 26.8283 8.61871 26.7864L5.50989 24.5401C5.4562 24.4961 5.41343 24.4406 5.38483 24.3778C5.35622 24.3151 5.34256 24.2467 5.34487 24.1779V23.2122C5.34636 23.1777 5.33996 23.1432 5.32614 23.1114C5.31232 23.0796 5.29143 23.0513 5.26502 23.0285L3.18892 21.496C3.15698 21.4698 3.11439 21.5013 3.11439 21.5485V22.5982C3.11439 22.6874 3.03987 22.7294 2.98663 22.6874L0.165273 20.5881C0.111589 20.5441 0.0688109 20.4886 0.0402094 20.4258C0.0116079 20.3631 -0.00205963 20.2947 0.000251006 20.2259V7.49343C0.000251006 7.4042 0.0747774 7.36222 0.128011 7.40421L8.64532 13.7022C8.69974 13.7467 8.74296 13.8031 8.77159 13.8668C8.80022 13.9306 8.81349 14 8.81035 14.0696Z" fill="white"/>
<path d="M72.6517 23.9435C72.3424 23.7798 71.9929 23.7066 71.6436 23.7326H71.079V22.5472H70.2926V25.5608H71.6839C72.5509 25.5608 72.9844 25.2494 72.9844 24.6266C72.9934 24.4991 72.9682 24.3715 72.9116 24.2568C72.8549 24.1421 72.7687 24.0444 72.6618 23.9737L72.6517 23.9435ZM71.6537 24.9782H71.0992V24.2851H71.6436C71.7825 24.2789 71.921 24.3064 72.0468 24.3654C72.0908 24.3882 72.1275 24.423 72.1524 24.4656C72.1774 24.5083 72.1897 24.5572 72.188 24.6065C72.188 24.8476 72.0065 24.9782 71.6537 24.9782ZM67.1975 23.9737C67.1674 24.2181 67.1065 24.4577 67.0161 24.6869C66.999 24.7426 66.9661 24.7921 66.9214 24.8295C66.8767 24.867 66.822 24.8907 66.764 24.8978C66.6742 24.8986 66.5851 24.8816 66.5019 24.8476V25.4905C66.6456 25.5495 66.8003 25.577 66.9556 25.5709C67.053 25.5749 67.1502 25.5581 67.2406 25.5218C67.331 25.4854 67.4125 25.4302 67.4798 25.3599C67.6435 25.1554 67.7543 24.9139 67.8024 24.6568C67.9052 24.1734 67.9726 23.6832 68.0041 23.1901H68.7501V25.5608H69.5567V22.5472H67.3387C67.3387 23.1299 67.258 23.5518 67.1975 23.9234V23.9737ZM43.2334 12.2005C42.9088 12.3094 42.5675 12.3604 42.2252 12.3512C41.8246 12.3654 41.4275 12.2717 41.0759 12.0799C40.7745 11.9051 40.543 11.6319 40.4206 11.3065H46.6712C46.6712 10.7841 46.6712 10.4928 46.6712 10.4426C46.6959 9.56233 46.4648 8.69376 46.0058 7.94126C45.5756 7.25305 44.9563 6.70222 44.2214 6.35409C43.4317 5.989 42.5715 5.79986 41.701 5.79986C40.8304 5.79986 39.9703 5.989 39.1805 6.35409C38.4362 6.72345 37.8083 7.28996 37.3658 7.99148C36.9291 8.71118 36.6982 9.53621 36.6982 10.3773C36.6982 11.2183 36.9291 12.0433 37.3658 12.763C37.8188 13.52 38.4849 14.1277 39.2814 14.5109C40.1745 14.9231 41.1505 15.1258 42.1345 15.1036C42.8516 15.156 43.5717 15.0549 44.2463 14.8072C44.921 14.5594 45.5347 14.1707 46.0462 13.6671L44.1105 11.7284C43.8438 11.9369 43.5484 12.1061 43.2334 12.2306V12.2005ZM40.8642 8.67457C41.1328 8.46167 41.4688 8.35126 41.8119 8.36317C42.1564 8.35228 42.4932 8.46651 42.7595 8.68461C43.0202 8.91064 43.1947 9.21931 43.2535 9.55857H40.3803C40.4353 9.21513 40.6103 8.90207 40.8743 8.67457H40.8642ZM135.027 14.3402C135.338 14.611 135.699 14.8178 136.09 14.9489C136.481 15.0799 136.894 15.1325 137.306 15.1036C138.051 15.092 138.78 14.8878 139.423 14.5109C140.089 14.1292 140.634 13.5688 140.996 12.8936C141.377 12.136 141.575 11.3002 141.575 10.4526C141.575 9.60504 141.377 8.76918 140.996 8.01157C140.638 7.33041 140.092 6.76564 139.423 6.38423C138.763 6.00943 138.015 5.81535 137.255 5.82169C136.805 5.7839 136.351 5.84428 135.926 5.99866C135.502 6.15305 135.116 6.39775 134.795 6.71573V5.9824H131.357V18.0369H135.057V14.2698L135.027 14.3402ZM135.37 9.19693C135.502 9.0506 135.664 8.9336 135.845 8.85352C136.025 8.77344 136.221 8.73205 136.418 8.73205C136.616 8.73205 136.812 8.77344 136.992 8.85352C137.173 8.9336 137.335 9.0506 137.467 9.19693C137.756 9.5651 137.9 10.0262 137.87 10.4928C137.901 10.9564 137.757 11.4149 137.467 11.7786C137.333 11.9222 137.171 12.0367 136.99 12.1151C136.81 12.1934 136.615 12.2338 136.418 12.2338C136.222 12.2338 136.027 12.1934 135.847 12.1151C135.666 12.0367 135.504 11.9222 135.37 11.7786C135.076 11.4163 134.929 10.9577 134.957 10.4928C134.929 10.0248 135.076 9.56322 135.37 9.19693ZM79.1242 23.9837C78.8154 23.8184 78.4654 23.7451 78.116 23.7728H77.7329V22.5472H76.9163V25.5608H78.1362C78.4884 25.594 78.842 25.5129 79.1443 25.3298C79.2524 25.2484 79.3385 25.1416 79.3948 25.0188C79.4512 24.8961 79.4759 24.7613 79.467 24.6266C79.4749 24.4992 79.4493 24.372 79.3927 24.2575C79.3361 24.1429 79.2505 24.0451 79.1443 23.9737L79.1242 23.9837ZM78.1362 24.9782H77.7632V24.2851H78.1261C78.2651 24.2789 78.4035 24.3064 78.5294 24.3654C78.5734 24.3882 78.61 24.423 78.635 24.4656C78.66 24.5083 78.6723 24.5572 78.6705 24.6065C78.6705 24.8476 78.489 24.9782 78.1362 24.9782ZM75.4343 23.7326H74.3152V22.5472H73.5188V25.5608H74.3152V24.3554H75.4343V25.5608H76.2408V22.5472H75.4343V23.6723V23.7326ZM79.9005 25.5307H80.6969V22.5472H79.9005V25.5608V25.5307ZM54.6055 22.5171C54.4184 22.5084 54.2316 22.5398 54.0577 22.6091C53.8838 22.6784 53.7268 22.784 53.5974 22.9189C53.3322 23.236 53.1988 23.6421 53.2243 24.054C53.212 24.2559 53.2415 24.4582 53.3108 24.6482C53.3802 24.8383 53.488 25.0122 53.6276 25.159C53.7768 25.2949 53.9518 25.3995 54.1423 25.4668C54.3328 25.5341 54.5348 25.5626 54.7366 25.5508C54.9327 25.5544 55.1287 25.5376 55.3213 25.5006C55.4784 25.4699 55.6309 25.4193 55.775 25.3499V24.7371C55.6168 24.8111 55.4512 24.8683 55.281 24.9079C55.1154 24.9437 54.9463 24.9605 54.7769 24.9581C54.6795 24.9643 54.5818 24.9505 54.4899 24.9177C54.3981 24.8849 54.3139 24.8337 54.2426 24.7673C54.109 24.6223 54.0368 24.4316 54.0409 24.2348H55.9363V23.8431C55.951 23.6612 55.9282 23.4782 55.8693 23.3055C55.8103 23.1327 55.7165 22.9738 55.5935 22.8385C55.4604 22.7116 55.3016 22.6146 55.1277 22.5539C54.9538 22.4933 54.7688 22.4705 54.5854 22.487L54.6055 22.5171ZM54.0208 23.6723C54.0215 23.5047 54.0782 23.3421 54.1821 23.2102C54.233 23.1552 54.2957 23.1122 54.3655 23.0844C54.4352 23.0566 54.5104 23.0446 54.5854 23.0495C54.6602 23.046 54.7349 23.0586 54.8045 23.0863C54.874 23.114 54.9368 23.1563 54.9886 23.2102C55.095 23.3401 55.149 23.5049 55.1399 23.6723H54.0107H54.0208ZM56.9848 14.8525L57.5393 13.5968L55.0894 10.2617L58.3862 5.92213H54.4745L53.1336 7.81067L51.8532 5.92213H47.6794L50.9761 10.4928L47.5887 14.9127H51.6213L53.0025 13.0041L54.2325 14.9127H57.005L56.9848 14.8525ZM49.9276 25.4704H50.7241V23.1399H51.7826V25.5608H52.5892V22.5472H49.9579V25.5608L49.9276 25.4704ZM65.8668 22.7381C65.6038 22.549 65.2831 22.4567 64.9594 22.4769C64.5672 22.4699 64.1793 22.5596 63.8303 22.7381L64.0924 23.2805C64.3504 23.1542 64.6319 23.0824 64.9191 23.0696C64.9797 23.0616 65.0413 23.0675 65.0993 23.0867C65.1573 23.106 65.2101 23.1381 65.2538 23.1806C65.2975 23.2232 65.3309 23.2751 65.3515 23.3325C65.3721 23.3898 65.3794 23.4511 65.3728 23.5116V23.6422H64.8586C64.5065 23.6271 64.1573 23.7106 63.8504 23.8833C63.7407 23.959 63.6525 24.0617 63.5942 24.1813C63.5359 24.301 63.5096 24.4336 63.5177 24.5663C63.5098 24.6906 63.5272 24.8151 63.5687 24.9325C63.6103 25.0499 63.6753 25.1577 63.7597 25.2494C63.8487 25.332 63.9535 25.3959 64.0678 25.4373C64.1821 25.4787 64.3036 25.4968 64.4251 25.4905C64.615 25.4965 64.804 25.4623 64.9796 25.3901C65.143 25.3065 65.2845 25.1861 65.3929 25.0385L65.5442 25.4403H66.1087V23.5518C66.1211 23.406 66.0993 23.2593 66.0451 23.1233C65.9909 22.9873 65.9057 22.8658 65.7962 22.7682L65.8668 22.7381ZM65.3123 24.3855C65.3148 24.4639 65.3008 24.5419 65.2713 24.6145C65.2418 24.6872 65.1974 24.7529 65.1409 24.8074C65.0812 24.862 65.0113 24.9043 64.9352 24.9319C64.8591 24.9595 64.7782 24.9718 64.6973 24.9682C64.6477 24.9794 64.5962 24.9789 64.5468 24.9665C64.4975 24.9542 64.4518 24.9304 64.4135 24.8971C64.3751 24.8638 64.3453 24.8219 64.3262 24.7749C64.3072 24.7279 64.2996 24.6771 64.3041 24.6266C64.2993 24.5582 64.3126 24.4897 64.3427 24.428C64.3727 24.3663 64.4185 24.3136 64.4755 24.275C64.6361 24.1883 64.8173 24.1466 64.9997 24.1545H65.3123V24.3956V24.3855ZM59.2028 22.5472H58.3962V24.8778H57.2268V22.5472H56.4303V25.5608H58.9104V26.5654H59.6262V24.928H59.2028V22.5472ZM48.3347 22.266C48.4794 22.2691 48.6225 22.2963 48.7581 22.3463L49.1917 22.5472L49.4538 21.8842C49.106 21.711 48.7235 21.6183 48.3347 21.613C47.9994 21.6051 47.6683 21.6885 47.3769 21.8541C47.1048 22.0145 46.8871 22.2524 46.7519 22.5372C46.6054 22.8519 46.5297 23.1948 46.5301 23.5417C46.4947 24.0649 46.6525 24.5829 46.9737 24.9983C47.1367 25.1709 47.3361 25.3055 47.5574 25.3923C47.7788 25.4791 48.0167 25.5161 48.2541 25.5006C48.5998 25.4978 48.942 25.4296 49.2622 25.2997V24.6166C48.9401 24.7404 48.5992 24.8083 48.2541 24.8175C47.5819 24.8175 47.2459 24.3922 47.2459 23.5417C47.2164 23.1883 47.305 22.8352 47.4979 22.5372C47.5789 22.425 47.6869 22.3349 47.812 22.2752C47.9371 22.2155 48.0752 22.1882 48.2137 22.1956L48.3347 22.266ZM75.0008 14.9027H78.6806V8.87547H81.4127V6.0025H72.2586V8.87547H74.9907V14.9027H75.0008ZM68.2158 14.9027H72.2485L67.2076 3.48112H63.4068L58.366 14.9027H62.2978L63.0641 12.8936H67.4193L68.2158 14.9027ZM64.1831 10.1412L65.3022 7.26821L66.4112 10.1412H64.1529H64.1831ZM25.8727 6.47463H29.2299V14.9127H33.0307V6.47463H36.3879V3.46102H25.8525V6.47463H25.8727ZM60.7554 24.6568C60.7554 24.1846 60.8158 23.8833 60.8158 23.7627V22.5472H60.0194V25.5608H61.0276L62.3785 23.5518C62.3785 23.9335 62.3281 24.2248 62.3281 24.4358V25.5608H63.1044V22.5472H62.0962L60.7554 24.6568ZM162.641 3.56148V0.648314L160.08 2.11494L157.529 0.648314V3.59162L160.08 5.05823L162.641 3.56148ZM127.98 22.5472C127.815 22.5382 127.65 22.5735 127.503 22.6494C127.355 22.7254 127.231 22.8392 127.143 22.9792L127.032 22.5975H126.317V26.8065H127.113V25.6211C127.113 25.6211 127.113 25.4403 127.113 25.1992C127.211 25.3198 127.336 25.4161 127.478 25.4806C127.619 25.5451 127.774 25.576 127.93 25.5709C128.142 25.5746 128.35 25.5113 128.524 25.3901C128.704 25.2577 128.84 25.0762 128.918 24.8677C129.016 24.6078 129.064 24.3317 129.059 24.054C129.083 23.6608 128.981 23.2701 128.766 22.939C128.675 22.8091 128.552 22.7042 128.41 22.6339C128.267 22.5637 128.109 22.5304 127.95 22.5372L127.98 22.5472ZM127.708 24.928C127.623 24.9346 127.538 24.9196 127.46 24.8845C127.382 24.8493 127.315 24.7952 127.264 24.7271C127.155 24.5204 127.106 24.2871 127.123 24.054V23.9636C127.105 23.7529 127.155 23.542 127.264 23.3609C127.316 23.2979 127.383 23.2486 127.459 23.2171C127.534 23.1856 127.616 23.1729 127.698 23.1801C127.779 23.1749 127.861 23.1917 127.934 23.2289C128.006 23.266 128.068 23.322 128.111 23.391C128.213 23.5931 128.258 23.8186 128.242 24.044C128.242 24.6333 128.064 24.928 127.708 24.928ZM123.191 22.5472C123.004 22.5385 122.817 22.5699 122.643 22.6392C122.47 22.7085 122.313 22.8142 122.183 22.949C121.919 23.2666 121.786 23.6724 121.81 24.0842C121.798 24.2861 121.827 24.4883 121.897 24.6784C121.966 24.8685 122.074 25.0423 122.213 25.1892C122.363 25.325 122.538 25.4296 122.728 25.4969C122.918 25.5642 123.121 25.5928 123.322 25.5809C123.518 25.5845 123.714 25.5676 123.907 25.5307C124.064 25.5 124.217 25.4493 124.361 25.38V24.7673C124.203 24.8414 124.037 24.8986 123.867 24.938C123.701 24.9738 123.532 24.9907 123.363 24.9882C123.265 24.9944 123.168 24.9807 123.076 24.9479C122.984 24.915 122.9 24.8638 122.828 24.7974C122.696 24.6519 122.624 24.4615 122.627 24.265H124.522V23.8732C124.537 23.6913 124.514 23.5084 124.455 23.3356C124.396 23.1628 124.302 23.0039 124.179 22.8687C124.046 22.7418 123.887 22.6447 123.713 22.5841C123.539 22.5234 123.355 22.5006 123.171 22.5171L123.191 22.5472ZM122.617 23.7024C122.617 23.5348 122.674 23.3722 122.778 23.2404C122.829 23.1853 122.892 23.1423 122.961 23.1145C123.031 23.0867 123.106 23.0748 123.181 23.0796C123.256 23.0762 123.331 23.0887 123.4 23.1164C123.47 23.1441 123.533 23.1864 123.584 23.2404C123.692 23.3698 123.746 23.5349 123.736 23.7024H122.617ZM131.69 22.7682C131.427 22.5792 131.106 22.4869 130.783 22.5071C130.394 22.5017 130.01 22.5914 129.664 22.7682L129.926 23.3107C130.184 23.1844 130.465 23.1126 130.753 23.0997C130.813 23.0918 130.875 23.0976 130.933 23.1168C130.991 23.1361 131.044 23.1682 131.087 23.2108C131.131 23.2534 131.164 23.3053 131.185 23.3626C131.206 23.4199 131.213 23.4812 131.206 23.5417V23.6723H130.692C130.34 23.6577 129.991 23.7412 129.684 23.9134C129.576 23.9903 129.49 24.0935 129.433 24.2131C129.377 24.3326 129.352 24.4646 129.361 24.5965C129.353 24.7207 129.371 24.8453 129.412 24.9626C129.454 25.08 129.519 25.1878 129.603 25.2796C129.692 25.3621 129.797 25.426 129.911 25.4674C130.026 25.5089 130.147 25.527 130.269 25.5207C130.458 25.5264 130.647 25.4922 130.823 25.4202C130.986 25.3367 131.128 25.2163 131.236 25.0686L131.388 25.4704H131.942V23.5518C131.955 23.406 131.933 23.2593 131.879 23.1233C131.824 22.9873 131.739 22.8658 131.63 22.7682H131.69ZM131.146 24.3855C131.148 24.4639 131.134 24.5419 131.105 24.6145C131.075 24.6872 131.031 24.7529 130.974 24.8074C130.915 24.862 130.845 24.9043 130.769 24.9319C130.692 24.9595 130.612 24.9718 130.531 24.9682C130.482 24.9776 130.431 24.9757 130.383 24.9625C130.335 24.9493 130.291 24.9253 130.254 24.8922C130.217 24.8591 130.188 24.8179 130.17 24.7718C130.151 24.7258 130.144 24.6761 130.148 24.6266C130.143 24.5582 130.156 24.4897 130.186 24.428C130.216 24.3663 130.262 24.3136 130.319 24.275C130.48 24.1883 130.661 24.1466 130.843 24.1545H131.156V24.3956L131.146 24.3855ZM123.01 14.8826H126.69V8.85538H129.422V5.9824H120.268V8.85538H123V14.8826H123.01ZM119.582 23.9234C119.273 23.7581 118.923 23.6849 118.574 23.7125H118.191V22.5472H117.394V25.5608H118.614C118.966 25.594 119.32 25.5129 119.622 25.3298C119.731 25.2491 119.818 25.1423 119.874 25.0194C119.93 24.8965 119.955 24.7614 119.945 24.6266C119.954 24.4991 119.929 24.3715 119.872 24.2568C119.815 24.1421 119.729 24.0444 119.622 23.9737L119.582 23.9234ZM118.614 24.9782H118.241V24.2851H118.604C118.743 24.2793 118.881 24.3068 119.007 24.3654C119.049 24.3896 119.084 24.4249 119.107 24.4675C119.13 24.51 119.141 24.5582 119.138 24.6065C119.138 24.8543 118.96 24.9782 118.604 24.9782H118.614ZM119.511 12.9238L117.072 10.754C116.789 11.1587 116.414 11.4909 115.978 11.7232C115.542 11.9555 115.056 12.0812 114.561 12.09C114.201 12.105 113.841 12.0439 113.505 11.9106C113.17 11.7773 112.867 11.5748 112.616 11.3165C112.139 10.7273 111.88 9.9936 111.88 9.23711C111.88 8.48061 112.139 7.74687 112.616 7.15771C112.867 6.8994 113.17 6.69694 113.505 6.56364C113.841 6.43033 114.201 6.3692 114.561 6.38423C115.056 6.39303 115.542 6.51874 115.978 6.75101C116.414 6.98328 116.789 7.31547 117.072 7.72026L119.511 5.55046C118.947 4.81309 118.205 4.22926 117.354 3.85279C116.4 3.44339 115.368 3.24463 114.329 3.27016C113.191 3.25445 112.066 3.51657 111.053 4.03361C110.11 4.5153 109.321 5.2493 108.774 6.15317C108.231 7.09452 107.946 8.16134 107.946 9.24715C107.946 10.333 108.231 11.3998 108.774 12.3411C109.367 13.2464 110.206 13.9643 111.194 14.4105C112.207 14.9275 113.332 15.1896 114.471 15.1739C115.51 15.1966 116.542 14.9944 117.495 14.5813C118.346 14.2055 119.088 13.6216 119.653 12.8836L119.511 12.9238ZM120.449 25.5608H121.276V22.5472H120.479V25.5608H120.449ZM133.757 22.4669C133.909 22.3815 134.077 22.3268 134.251 22.3061L135.461 22.1354L135.37 21.4422L134.18 21.613C133.946 21.6392 133.72 21.7112 133.514 21.825C133.308 21.9388 133.127 22.0921 132.981 22.276C132.696 22.7326 132.562 23.2666 132.597 23.8029C132.569 24.2741 132.7 24.7413 132.97 25.1289C133.09 25.2812 133.243 25.4039 133.418 25.4875C133.593 25.5711 133.785 25.6134 133.979 25.6111C134.164 25.6156 134.349 25.5833 134.522 25.5161C134.695 25.4488 134.853 25.3479 134.987 25.2193C135.12 25.0692 135.223 24.8944 135.289 24.7048C135.354 24.5152 135.382 24.3145 135.37 24.1143C135.392 23.7728 135.284 23.4355 135.067 23.17C134.893 23.0012 134.672 22.8895 134.432 22.85C134.192 22.8105 133.946 22.845 133.727 22.949C133.578 23.0253 133.453 23.1398 133.364 23.2805C133.369 23.1055 133.403 22.9325 133.464 22.7682C133.512 22.6455 133.597 22.5403 133.706 22.4669H133.757ZM133.535 23.6623C133.613 23.5921 133.701 23.5345 133.797 23.4915C133.885 23.4469 133.981 23.4229 134.079 23.4212C134.422 23.4212 134.594 23.6757 134.594 24.1846C134.594 24.6936 134.402 24.9548 134.019 24.9682C133.92 24.9705 133.823 24.9454 133.737 24.8958C133.652 24.8461 133.582 24.7738 133.535 24.6869C133.406 24.4357 133.347 24.1548 133.364 23.8732C133.408 23.7935 133.466 23.7221 133.535 23.6623ZM137.961 22.7682C137.733 22.6437 137.475 22.5813 137.215 22.5874C137.028 22.583 136.843 22.6164 136.67 22.6855C136.496 22.7545 136.339 22.8579 136.207 22.9892C135.942 23.2986 135.808 23.6984 135.834 24.1043C135.827 24.3818 135.886 24.6569 136.005 24.9079C136.112 25.131 136.284 25.3165 136.499 25.4403C136.727 25.5653 136.985 25.6277 137.245 25.6211C137.432 25.6261 137.617 25.593 137.791 25.5239C137.964 25.4548 138.122 25.3511 138.253 25.2193C138.522 24.9115 138.659 24.5115 138.636 24.1043C138.644 23.8267 138.585 23.5513 138.465 23.3006C138.357 23.0809 138.185 22.8989 137.971 22.7783L137.961 22.7682ZM137.679 24.7873C137.628 24.8622 137.559 24.9223 137.477 24.9612C137.396 25.0001 137.305 25.0163 137.215 25.0083C137.125 25.0153 137.035 24.9985 136.953 24.9597C136.872 24.9209 136.802 24.8615 136.751 24.7873C136.644 24.5869 136.595 24.3609 136.61 24.1344C136.594 23.9078 136.643 23.6815 136.751 23.4814C136.808 23.4139 136.879 23.3596 136.959 23.3223C137.039 23.285 137.126 23.2657 137.215 23.2657C137.303 23.2657 137.391 23.285 137.471 23.3223C137.551 23.3596 137.622 23.4139 137.679 23.4814C137.786 23.6815 137.835 23.9078 137.82 24.1344C137.833 24.3608 137.784 24.5866 137.679 24.7873ZM161.602 5.9824L158.507 10.0005V5.9824H154.828V14.9127H158.245L161.32 10.8946V14.9127H165V5.9824H161.602ZM145.038 25.5608H145.835V22.5472H145.038V25.5608ZM150.835 6.47463C149.993 6.08794 149.076 5.88771 148.148 5.88771C147.221 5.88771 146.304 6.08794 145.462 6.47463C144.703 6.83876 144.061 7.40562 143.607 8.11203C143.168 8.83288 142.936 9.65978 142.936 10.5028C142.936 11.3459 143.168 12.1728 143.607 12.8936C144.069 13.592 144.714 14.1512 145.472 14.5109C146.313 14.9029 147.23 15.1061 148.159 15.1061C149.087 15.1061 150.004 14.9029 150.845 14.5109C151.605 14.1445 152.248 13.574 152.7 12.8635C153.135 12.1411 153.364 11.3148 153.364 10.4727C153.364 9.63056 153.135 8.80425 152.7 8.0819C152.249 7.37303 151.606 6.80547 150.845 6.44449L150.835 6.47463ZM149.202 11.7685C149.07 11.9149 148.908 12.0319 148.727 12.112C148.547 12.192 148.351 12.2334 148.154 12.2334C147.956 12.2334 147.76 12.192 147.58 12.112C147.399 12.0319 147.237 11.9149 147.105 11.7685C146.811 11.4023 146.664 10.9407 146.692 10.4727C146.664 10.0077 146.811 9.54916 147.105 9.18688C147.238 9.04193 147.4 8.92618 147.581 8.847C147.761 8.76781 147.956 8.7269 148.154 8.7269C148.351 8.7269 148.546 8.76781 148.726 8.847C148.907 8.92618 149.069 9.04193 149.202 9.18688C149.496 9.54916 149.643 10.0077 149.615 10.4727C149.643 10.9407 149.496 11.4023 149.202 11.7685ZM144.302 23.9737C143.994 23.8083 143.644 23.7351 143.294 23.7627H142.911V22.5472H142.115V25.5608H143.334C143.687 25.594 144.04 25.5129 144.343 25.3298C144.451 25.2484 144.537 25.1416 144.593 25.0188C144.649 24.8961 144.674 24.7613 144.665 24.6266C144.673 24.4992 144.648 24.372 144.591 24.2575C144.534 24.1429 144.449 24.0451 144.343 23.9737H144.302ZM143.334 24.9782H142.961V24.2851H143.324C143.463 24.2789 143.602 24.3064 143.728 24.3654C143.772 24.3882 143.808 24.423 143.833 24.4656C143.858 24.5083 143.871 24.5572 143.869 24.6065C143.869 24.8476 143.687 24.9782 143.334 24.9782ZM138.999 23.2002H140.008V25.5608H140.804V23.2303H141.812V22.5472H139.09V23.15L138.999 23.2002ZM107.837 23.9837C107.807 24.2281 107.746 24.4678 107.655 24.6969C107.638 24.7526 107.605 24.8021 107.561 24.8396C107.516 24.877 107.461 24.9007 107.403 24.9079C107.313 24.909 107.224 24.8919 107.141 24.8577V25.5006C107.285 25.5596 107.44 25.587 107.595 25.5809C107.692 25.5849 107.789 25.5682 107.88 25.5318C107.97 25.4954 108.052 25.4403 108.119 25.37C108.283 25.1654 108.394 24.924 108.442 24.6668C108.544 24.1834 108.611 23.6932 108.643 23.2002H109.379V25.5608H110.186V22.5472H107.968C107.968 23.1299 107.887 23.5518 107.827 23.9234L107.837 23.9837ZM116.033 23.6723H114.914V22.5472H114.108V25.5608H114.914V24.3554H116.033V25.5608H116.84V22.5472H116.033V23.6723ZM92.9159 22.5472C92.7505 22.5382 92.5855 22.5735 92.4384 22.6494C92.2912 22.7254 92.1672 22.8392 92.0792 22.9792L91.938 22.5472H91.2827V26.7562H92.0388V25.5709C92.0388 25.5709 92.0388 25.3901 92.0388 25.149C92.1358 25.2682 92.259 25.3637 92.3988 25.4281C92.5386 25.4926 92.6914 25.5242 92.8454 25.5207C93.0578 25.5244 93.266 25.4611 93.4402 25.3398C93.6198 25.2078 93.7565 25.0262 93.8334 24.8175C93.9315 24.5576 93.9794 24.2815 93.9745 24.0038C93.9981 23.6106 93.8957 23.2202 93.6821 22.8888C93.5872 22.7626 93.4638 22.6605 93.322 22.5907C93.1801 22.5209 93.0237 22.4854 92.8655 22.487L92.9159 22.5472ZM92.6236 24.8778C92.5386 24.8844 92.4534 24.8694 92.3758 24.8343C92.2982 24.7991 92.2308 24.745 92.18 24.6768C92.07 24.4703 92.021 24.2369 92.0388 24.0038V23.9134C92.021 23.7027 92.0704 23.4918 92.18 23.3107C92.2326 23.2484 92.2994 23.1995 92.3748 23.168C92.4502 23.1366 92.532 23.1235 92.6135 23.1299C92.6951 23.1247 92.7766 23.1415 92.8493 23.1786C92.9221 23.2158 92.9834 23.2718 93.0268 23.3408C93.1282 23.5429 93.1735 23.7684 93.1579 23.9938C93.1579 24.5831 92.9764 24.8778 92.6135 24.8778H92.6236ZM88.1473 23.2002H89.1555V25.5608H89.9519V23.2303H90.9601V22.5472H88.238V23.15L88.1473 23.2002ZM87.0484 23.2002C87.1554 23.1849 87.264 23.1849 87.371 23.2002L87.7239 23.3207L87.9557 22.708C87.6544 22.5774 87.3256 22.5222 86.998 22.5472C86.8023 22.5344 86.606 22.5626 86.4219 22.6301C86.2378 22.6976 86.07 22.8028 85.9293 22.939C85.6623 23.2551 85.5286 23.6619 85.5563 24.0741C85.5184 24.2731 85.5291 24.4783 85.5873 24.6723C85.6455 24.8664 85.7496 25.0437 85.8908 25.1894C86.0321 25.3351 86.2064 25.4448 86.399 25.5095C86.5917 25.5741 86.7971 25.5917 86.998 25.5608C87.1655 25.5798 87.3346 25.5798 87.5021 25.5608C87.6418 25.5262 87.7747 25.4684 87.8953 25.3901V24.707C87.774 24.7889 87.6416 24.8531 87.5021 24.8978C87.3648 24.9391 87.222 24.9594 87.0786 24.9581C86.6619 24.9581 86.4536 24.6735 86.4536 24.1043C86.4536 23.535 86.6619 23.2404 87.0786 23.2203L87.0484 23.2002ZM90.2241 14.5109C90.984 14.1441 91.6263 13.5736 92.0792 12.8635C92.5136 12.1411 92.7431 11.3148 92.7431 10.4727C92.7431 9.63056 92.5136 8.80425 92.0792 8.0819C91.6274 7.37338 90.9845 6.80592 90.2241 6.44449C89.3816 6.05781 88.465 5.85757 87.5374 5.85757C86.6097 5.85757 85.6931 6.05781 84.8506 6.44449C84.0917 6.80818 83.4494 7.37514 82.9956 8.0819C82.5558 8.80237 82.3232 9.62942 82.3232 10.4727C82.3232 11.316 82.5558 12.143 82.9956 12.8635C83.4504 13.5719 84.0922 14.1419 84.8506 14.5109C85.6917 14.9029 86.6088 15.1061 87.5374 15.1061C88.4659 15.1061 89.3831 14.9029 90.2241 14.5109ZM86.4838 11.7685C86.1902 11.4023 86.043 10.9407 86.0705 10.4727C86.0426 10.0077 86.19 9.54916 86.4838 9.18688C86.617 9.04193 86.779 8.92618 86.9595 8.847C87.14 8.76781 87.3351 8.7269 87.5323 8.7269C87.7295 8.7269 87.9246 8.76781 88.1051 8.847C88.2856 8.92618 88.4476 9.04193 88.5808 9.18688C88.8746 9.54916 89.022 10.0077 88.9942 10.4727C89.0207 10.9406 88.8736 11.4018 88.5808 11.7685C88.4485 11.9149 88.2867 12.0319 88.1061 12.112C87.9255 12.192 87.73 12.2334 87.5323 12.2334C87.3346 12.2334 87.1391 12.192 86.9585 12.112C86.7779 12.0319 86.6162 11.9149 86.4838 11.7685ZM96.6361 22.7582C96.4075 22.6341 96.1503 22.5718 95.89 22.5774C95.7035 22.573 95.5179 22.6064 95.3447 22.6754C95.1714 22.7445 95.014 22.8478 94.8819 22.9792C94.6171 23.2886 94.4833 23.6884 94.5088 24.0942C94.5026 24.3717 94.5613 24.6468 94.6802 24.8978C94.7872 25.1209 94.9594 25.3065 95.1742 25.4302C95.4023 25.5557 95.6599 25.6181 95.9203 25.6111C96.1069 25.616 96.2926 25.5829 96.466 25.5138C96.6394 25.4448 96.7967 25.3411 96.9285 25.2092C97.1969 24.9014 97.3343 24.5014 97.3116 24.0942C97.3189 23.8166 97.2602 23.5412 97.1402 23.2906C97.0315 23.0713 96.8595 22.8893 96.6462 22.7682L96.6361 22.7582ZM96.3538 24.7773C96.3035 24.8522 96.2339 24.9123 96.1523 24.9511C96.0707 24.99 95.9801 25.0063 95.89 24.9983C95.8001 25.0053 95.7099 24.9885 95.6284 24.9497C95.5471 24.9109 95.4773 24.8514 95.4263 24.7773C95.3195 24.5769 95.2706 24.3508 95.2851 24.1244C95.2695 23.8978 95.3185 23.6715 95.4263 23.4714C95.4831 23.4038 95.554 23.3495 95.6341 23.3123C95.7142 23.275 95.8016 23.2557 95.89 23.2557C95.9785 23.2557 96.0658 23.275 96.146 23.3123C96.2261 23.3495 96.297 23.4038 96.3538 23.4714C96.4611 23.6716 96.51 23.8978 96.4949 24.1244C96.5084 24.3508 96.4596 24.5765 96.3538 24.7773ZM82.6125 22.5472C82.4254 22.5385 82.2386 22.5699 82.0646 22.6392C81.8907 22.7085 81.7338 22.8142 81.6043 22.949C81.34 23.2666 81.2067 23.6724 81.2313 24.0842C81.2189 24.2861 81.2484 24.4883 81.3178 24.6784C81.3871 24.8685 81.4949 25.0423 81.6345 25.1892C81.7837 25.325 81.9587 25.4296 82.1492 25.4969C82.3397 25.5642 82.5418 25.5928 82.7435 25.5809C82.9396 25.5845 83.1356 25.5676 83.3283 25.5307C83.4854 25.5003 83.6379 25.4497 83.7819 25.38V24.7673C83.6238 24.8414 83.4582 24.8987 83.2879 24.938C83.1223 24.9737 82.9532 24.9906 82.7838 24.9882C82.6864 24.995 82.5885 24.9816 82.4966 24.9487C82.4046 24.9159 82.3205 24.8643 82.2495 24.7974C82.116 24.6525 82.0437 24.4617 82.0479 24.265H83.9735V23.8732C83.9882 23.6913 83.9654 23.5084 83.9065 23.3356C83.8475 23.1628 83.7537 23.0039 83.6307 22.8687C83.4976 22.7418 83.3387 22.6447 83.1648 22.5841C82.9909 22.5234 82.806 22.5006 82.6225 22.5171L82.6125 22.5472ZM82.068 23.7024C82.0679 23.5347 82.1248 23.3718 82.2293 23.2404C82.2792 23.1867 82.3402 23.1445 82.4081 23.1167C82.476 23.0889 82.5492 23.0763 82.6225 23.0796C82.6974 23.0762 82.7721 23.0887 82.8417 23.1164C82.9112 23.1441 82.974 23.1864 83.0258 23.2404C83.1331 23.3698 83.1871 23.5349 83.177 23.7024H82.058H82.068ZM113.21 23.9435C112.901 23.7798 112.552 23.7066 112.202 23.7326H111.638V22.5472H110.831V25.5608H112.232C113.099 25.5608 113.533 25.2494 113.533 24.6266C113.542 24.4991 113.517 24.3715 113.46 24.2568C113.403 24.1421 113.317 24.0444 113.21 23.9737V23.9435ZM112.202 24.9782H111.648V24.2851H112.202C112.341 24.2789 112.48 24.3064 112.605 24.3654C112.648 24.3896 112.682 24.4249 112.705 24.4675C112.728 24.51 112.739 24.5582 112.737 24.6065C112.737 24.8543 112.558 24.9782 112.202 24.9782ZM105.649 22.5472C105.462 22.5385 105.275 22.5699 105.101 22.6392C104.927 22.7085 104.77 22.8142 104.641 22.949C104.377 23.2666 104.243 23.6724 104.268 24.0842C104.256 24.2861 104.285 24.4883 104.354 24.6784C104.424 24.8685 104.532 25.0423 104.671 25.1892C104.82 25.325 104.995 25.4296 105.186 25.4969C105.376 25.5642 105.578 25.5928 105.78 25.5809C105.976 25.5845 106.172 25.5676 106.365 25.5307C106.522 25.5001 106.674 25.4494 106.819 25.38V24.7673C106.66 24.8414 106.495 24.8987 106.325 24.938C106.159 24.9737 105.99 24.9906 105.821 24.9882C105.723 24.995 105.625 24.9816 105.533 24.9487C105.441 24.9159 105.357 24.8643 105.286 24.7974C105.153 24.6525 105.08 24.4617 105.085 24.265H106.98V23.8732C106.995 23.6913 106.972 23.5084 106.913 23.3356C106.854 23.1628 106.76 23.0039 106.637 22.8687C106.504 22.7418 106.345 22.6447 106.171 22.5841C105.997 22.5234 105.812 22.5006 105.629 22.5171L105.649 22.5472ZM105.064 23.7024C105.065 23.5348 105.122 23.3722 105.226 23.2404C105.277 23.1853 105.339 23.1423 105.409 23.1145C105.479 23.0867 105.554 23.0748 105.629 23.0796C105.704 23.0762 105.779 23.0887 105.848 23.1164C105.918 23.1441 105.98 23.1864 106.032 23.2404C106.14 23.3698 106.194 23.5349 106.183 23.7024H105.054H105.064ZM103.129 14.9027H106.456V5.97236H102.988L100.578 10.1311L98.4508 5.97236H94.5391V14.9027H97.8661V10.8243L99.7009 14.1995H101.253L103.149 10.9046L103.129 14.9027ZM98.481 24.6467C98.481 24.1746 98.5415 23.8732 98.5415 23.7527V22.5472H97.7652V25.5608H98.7734L100.124 23.5518C100.124 23.9335 100.074 24.2248 100.074 24.4358V25.5608H100.85V22.5472H99.8421L98.481 24.6467ZM101.233 23.1901H102.242V25.5608H103.038V23.2303H104.046V22.5472H101.324V23.15L101.233 23.1901Z" fill="white"/>
</svg>
