<svg width="183" height="108" viewBox="0 0 183 108" fill="none" xmlns="http://www.w3.org/2000/svg">
<path d="M61.548 104.235C61.1412 104.019 60.6815 103.923 60.2221 103.957H59.4796V102.398H58.4455V106.362H60.2752C61.4155 106.362 61.9856 105.952 61.9856 105.133C61.9973 104.965 61.9643 104.798 61.8897 104.647C61.8152 104.496 61.7019 104.367 61.5613 104.274L61.548 104.235ZM60.2354 105.596H59.5062V104.684H60.2221C60.4049 104.676 60.587 104.712 60.7525 104.79C60.8104 104.82 60.8585 104.865 60.8914 104.921C60.9243 104.978 60.9405 105.042 60.9381 105.107C60.9381 105.424 60.6995 105.596 60.2354 105.596ZM54.375 104.274C54.3354 104.596 54.2552 104.911 54.1363 105.212C54.1138 105.286 54.0706 105.351 54.0117 105.4C53.9529 105.449 53.8811 105.48 53.8048 105.49C53.6866 105.491 53.5694 105.468 53.4601 105.424V106.269C53.649 106.347 53.8525 106.383 54.0567 106.375C54.1849 106.38 54.3126 106.358 54.4315 106.31C54.5504 106.263 54.6577 106.19 54.7462 106.098C54.9615 105.829 55.1072 105.511 55.1705 105.173C55.3056 104.537 55.3943 103.892 55.4357 103.244H56.4168V106.362H57.4775V102.398H54.5606C54.5606 103.165 54.4545 103.72 54.375 104.208V104.274ZM92.2425 34.8233L92.3486 66.7283C92.3486 66.9264 92.521 67.0585 92.6535 66.9529L113.669 51.2712C113.803 51.1605 113.909 51.0208 113.98 50.8629C114.052 50.7049 114.086 50.5327 114.08 50.3596V35.7216C114.08 35.5234 113.908 35.3913 113.762 35.497L101.418 44.7449C101.285 44.8505 101.099 44.7449 101.113 44.5203V42.7103C101.11 42.6254 101.127 42.541 101.161 42.4632C101.195 42.3855 101.247 42.3164 101.312 42.2611L113.656 33.0133C113.789 32.9026 113.896 32.763 113.967 32.605C114.038 32.447 114.073 32.2748 114.067 32.1017V18.4149C114.067 18.2168 113.894 18.0847 113.749 18.1904L92.5342 34.0438C92.3995 34.1565 92.2924 34.2984 92.2211 34.4587C92.1499 34.619 92.1164 34.7934 92.1232 34.9686L92.2425 34.8233ZM22.8584 88.7909C22.4316 88.9341 21.9827 89.0012 21.5325 88.9891C21.0057 89.0079 20.4835 88.8846 20.021 88.6324C19.6246 88.4025 19.3201 88.0431 19.1592 87.6152H27.3797C27.3797 86.9282 27.3797 86.545 27.3797 86.479C27.4122 85.3214 27.1083 84.1791 26.5046 83.1894C25.9388 82.2843 25.1243 81.5599 24.1578 81.102C23.1192 80.6219 21.988 80.3731 20.8431 80.3731C19.6981 80.3731 18.5669 80.6219 17.5283 81.102C16.5494 81.5878 15.7236 82.3329 15.1417 83.2555C14.5673 84.202 14.2637 85.287 14.2637 86.3931C14.2637 87.4992 14.5673 88.5843 15.1417 89.5308C15.7374 90.5263 16.6134 91.3256 17.6609 91.8295C18.8355 92.3715 20.1191 92.6382 21.4132 92.609C22.3563 92.6779 23.3033 92.545 24.1906 92.2191C25.0779 91.8933 25.885 91.3821 26.5577 90.7198L24.012 88.17C23.6613 88.4443 23.2728 88.6667 22.8584 88.8306V88.7909ZM19.7426 84.1538C20.0958 83.8738 20.5378 83.7286 20.9889 83.7443C21.4421 83.73 21.885 83.8802 22.2353 84.167C22.5781 84.4643 22.8075 84.8702 22.885 85.3164H19.1062C19.1786 84.8647 19.4086 84.453 19.7558 84.1538H19.7426ZM143.581 91.6049C143.989 91.9611 144.464 92.2332 144.979 92.4055C145.493 92.5778 146.036 92.647 146.578 92.609C147.558 92.5937 148.517 92.3252 149.362 91.8295C150.238 91.3274 150.954 90.5905 151.43 89.7025C151.932 88.7062 152.193 87.6069 152.193 86.4922C152.193 85.3775 151.932 84.2783 151.43 83.2819C150.961 82.3861 150.243 81.6433 149.362 81.1417C148.494 80.6488 147.51 80.3935 146.511 80.4019C145.919 80.3521 145.322 80.4316 144.764 80.6346C144.205 80.8377 143.698 81.1595 143.276 81.5777V80.6132H138.755V96.4666H143.621V91.5125L143.581 91.6049ZM144.032 84.8408C144.206 84.6484 144.419 84.4945 144.656 84.3892C144.894 84.2839 145.151 84.2294 145.411 84.2294C145.671 84.2294 145.928 84.2839 146.166 84.3892C146.403 84.4945 146.616 84.6484 146.79 84.8408C147.17 85.325 147.359 85.9314 147.32 86.5451C147.361 87.1548 147.171 87.7577 146.79 88.2361C146.614 88.4249 146.4 88.5756 146.163 88.6786C145.926 88.7816 145.67 88.8347 145.411 88.8347C145.152 88.8347 144.896 88.7816 144.659 88.6786C144.422 88.5756 144.208 88.4249 144.032 88.2361C143.646 87.7596 143.452 87.1565 143.488 86.5451C143.452 85.9296 143.646 85.3225 144.032 84.8408ZM70.0603 104.288C69.6542 104.07 69.1939 103.974 68.7344 104.01H68.2306V102.398H67.1566V106.362H68.7609C69.2242 106.405 69.6892 106.299 70.0868 106.058C70.229 105.951 70.3422 105.81 70.4162 105.649C70.4903 105.488 70.5229 105.31 70.5111 105.133C70.5215 104.966 70.4878 104.798 70.4134 104.648C70.339 104.497 70.2264 104.368 70.0868 104.274L70.0603 104.288ZM68.7609 105.596H68.2703V104.684H68.7477C68.9304 104.676 69.1125 104.712 69.278 104.79C69.3359 104.82 69.384 104.865 69.4169 104.921C69.4498 104.978 69.466 105.042 69.4636 105.107C69.4636 105.424 69.225 105.596 68.7609 105.596ZM65.2075 103.957H63.7358V102.398H62.6883V106.362H63.7358V104.776H65.2075V106.362H66.2682V102.398H65.2075V103.878V103.957ZM71.0812 106.322H72.1287V102.398H71.0812V106.362V106.322ZM37.8145 102.359C37.5685 102.347 37.3228 102.389 37.0941 102.48C36.8654 102.571 36.6589 102.71 36.4886 102.887C36.1399 103.304 35.9644 103.838 35.9981 104.38C35.9819 104.646 36.0206 104.912 36.1118 105.162C36.203 105.412 36.3448 105.64 36.5284 105.833C36.7246 106.012 36.9548 106.15 37.2053 106.238C37.4558 106.327 37.7216 106.364 37.9869 106.349C38.2448 106.353 38.5026 106.331 38.7559 106.283C38.9625 106.242 39.163 106.176 39.3526 106.084V105.279C39.1445 105.376 38.9267 105.451 38.7029 105.503C38.4851 105.55 38.2627 105.572 38.0399 105.569C37.9118 105.577 37.7834 105.559 37.6625 105.516C37.5417 105.473 37.431 105.406 37.3372 105.318C37.1616 105.128 37.0666 104.877 37.072 104.618H39.5647V104.103C39.5841 103.863 39.5541 103.623 39.4766 103.396C39.399 103.168 39.2756 102.959 39.1139 102.782C38.9388 102.615 38.7299 102.487 38.5012 102.407C38.2725 102.328 38.0293 102.298 37.788 102.319L37.8145 102.359ZM37.0455 103.878C37.0464 103.658 37.1211 103.444 37.2576 103.27C37.3246 103.198 37.407 103.141 37.4988 103.105C37.5906 103.068 37.6894 103.053 37.788 103.059C37.8864 103.054 37.9847 103.071 38.0762 103.107C38.1677 103.144 38.2503 103.199 38.3184 103.27C38.4583 103.441 38.5292 103.658 38.5173 103.878H37.0322H37.0455ZM40.9436 92.2787L41.6729 90.6273L38.451 86.2412L42.7866 80.534H37.6422L35.8787 83.0177L34.1948 80.534H28.7056L33.0413 86.5451L28.5863 92.358H33.8899L35.7064 89.8478L37.3239 92.358H40.9702L40.9436 92.2787ZM31.6624 106.243H32.7098V103.178H34.102V106.362H35.1627V102.398H31.7022V106.362L31.6624 106.243ZM52.6248 102.649C52.2789 102.401 51.8571 102.279 51.4315 102.306C50.9156 102.297 50.4055 102.415 49.9465 102.649L50.2912 103.363C50.6306 103.197 51.0007 103.102 51.3784 103.085C51.4581 103.075 51.5392 103.083 51.6154 103.108C51.6917 103.133 51.7612 103.176 51.8186 103.232C51.8761 103.287 51.9201 103.356 51.9472 103.431C51.9743 103.507 51.9838 103.587 51.9751 103.667V103.838H51.2989C50.8359 103.819 50.3765 103.928 49.973 104.156C49.8287 104.255 49.7126 104.39 49.636 104.548C49.5593 104.705 49.5247 104.879 49.5354 105.054C49.525 105.217 49.5478 105.381 49.6025 105.535C49.6572 105.69 49.7426 105.832 49.8536 105.952C49.9707 106.061 50.1085 106.145 50.2589 106.199C50.4092 106.254 50.569 106.278 50.7287 106.269C50.9785 106.277 51.227 106.232 51.458 106.137C51.6728 106.027 51.859 105.869 52.0016 105.675L52.2005 106.203H52.943V103.72C52.9593 103.528 52.9306 103.335 52.8593 103.156C52.788 102.977 52.6759 102.817 52.532 102.689L52.6248 102.649ZM51.8955 104.816C51.8988 104.919 51.8805 105.022 51.8417 105.117C51.8028 105.213 51.7444 105.299 51.6701 105.371C51.5916 105.443 51.4997 105.498 51.3996 105.535C51.2995 105.571 51.1932 105.587 51.0867 105.582C51.0215 105.597 50.9537 105.596 50.8889 105.58C50.824 105.564 50.7639 105.533 50.7135 105.489C50.6631 105.445 50.6238 105.39 50.5988 105.328C50.5738 105.266 50.5638 105.2 50.5696 105.133C50.5633 105.043 50.5808 104.953 50.6203 104.872C50.6599 104.791 50.7201 104.721 50.795 104.671C51.0062 104.557 51.2445 104.502 51.4845 104.512H51.8955V104.829V104.816ZM43.8606 102.398H42.7999V105.463H41.2619V102.398H40.2144V106.362H43.4761V107.683H44.4175V105.53H43.8606V102.398ZM29.5675 102.029C29.7577 102.033 29.9459 102.068 30.1243 102.134L30.6945 102.398L31.0392 101.527C30.5819 101.299 30.0787 101.177 29.5675 101.17C29.1265 101.159 28.691 101.269 28.3079 101.487C27.9499 101.698 27.6636 102.011 27.4858 102.385C27.2931 102.799 27.1936 103.25 27.1941 103.706C27.1476 104.394 27.3551 105.076 27.7775 105.622C27.9919 105.849 28.2541 106.026 28.5452 106.14C28.8363 106.254 29.1492 106.303 29.4614 106.283C29.9162 106.279 30.3661 106.189 30.7873 106.018V105.12C30.3637 105.283 29.9152 105.372 29.4614 105.384C28.5775 105.384 28.1355 104.825 28.1355 103.706C28.0967 103.242 28.2132 102.777 28.467 102.385C28.5735 102.238 28.7155 102.119 28.88 102.041C29.0445 101.962 29.2262 101.926 29.4083 101.936L29.5675 102.029ZM79.7924 23.7919C79.8519 23.8413 79.927 23.8684 80.0045 23.8684C80.082 23.8684 80.1571 23.8413 80.2166 23.7919L84.4463 20.6344C84.5788 20.5287 84.7645 20.6344 84.7645 20.859V27.174C84.7598 27.2611 84.7753 27.3481 84.8097 27.4283C84.8442 27.5085 84.8968 27.5797 84.9633 27.6364L90.8105 32.0093C90.9297 32.1025 91.0767 32.1531 91.2282 32.1531C91.3797 32.1531 91.5267 32.1025 91.6459 32.0093L97.5063 27.6364C97.5729 27.5797 97.6254 27.5085 97.6599 27.4283C97.6944 27.3481 97.7099 27.2611 97.7052 27.174V21.0176C97.7052 20.8194 97.8776 20.6873 98.0234 20.793L102.227 23.9504C102.286 23.9999 102.361 24.0269 102.439 24.0269C102.516 24.0269 102.591 23.9999 102.651 23.9504L112.781 16.3804C112.814 16.3519 112.841 16.3165 112.86 16.2766C112.878 16.2366 112.888 16.1932 112.888 16.1492C112.888 16.1053 112.878 16.0618 112.86 16.0219C112.841 15.982 112.814 15.9466 112.781 15.918L91.6459 0.143893C91.5267 0.0506795 91.3797 0 91.2282 0C91.0767 0 90.9297 0.0506795 90.8105 0.143893L69.8084 15.918C69.7748 15.9466 69.7478 15.982 69.7294 16.0219C69.7109 16.0618 69.7013 16.1053 69.7013 16.1492C69.7013 16.1932 69.7109 16.2366 69.7294 16.2766C69.7478 16.3165 69.7748 16.3519 69.8084 16.3804L79.7924 23.7919ZM64.6374 92.3448H69.4769V84.418H73.0701V80.6396H61.0309V84.418H64.6241V92.3448H64.6374ZM55.7141 92.3448H61.0177L54.3882 77.3236H49.3896L42.7601 92.3448H47.9311L48.9388 89.7025H54.6667L55.7141 92.3448ZM50.4105 86.0826L51.8823 82.3042L53.3408 86.0826H50.3707H50.4105ZM0.0265185 81.2606H4.44175V92.358H9.44038V81.2606H13.8556V77.2972H0V81.2606H0.0265185ZM45.9025 105.173C45.9025 104.552 45.982 104.156 45.982 103.997V102.398H44.9346V106.362H46.2605L48.0372 103.72C48.0372 104.222 47.9709 104.605 47.9709 104.882V106.362H48.9918V102.398H47.6659L45.9025 105.173ZM179.897 77.4293V73.5981L176.53 75.5269L173.175 73.5981V77.469L176.53 79.3978L179.897 77.4293ZM134.313 102.398C134.096 102.387 133.879 102.433 133.685 102.533C133.492 102.633 133.328 102.783 133.213 102.967L133.067 102.465H132.125V108H133.173V106.441C133.173 106.441 133.173 106.203 133.173 105.886C133.302 106.045 133.466 106.172 133.652 106.256C133.839 106.341 134.042 106.382 134.247 106.375C134.526 106.38 134.8 106.297 135.029 106.137C135.265 105.963 135.444 105.724 135.546 105.45C135.675 105.108 135.738 104.745 135.732 104.38C135.764 103.863 135.629 103.349 135.347 102.914C135.227 102.743 135.066 102.605 134.878 102.513C134.691 102.42 134.483 102.376 134.273 102.385L134.313 102.398ZM133.955 105.53C133.843 105.538 133.731 105.519 133.629 105.472C133.527 105.426 133.439 105.355 133.372 105.265C133.228 104.993 133.163 104.687 133.186 104.38V104.261C133.163 103.984 133.228 103.707 133.372 103.469C133.44 103.386 133.528 103.321 133.627 103.279C133.727 103.238 133.835 103.221 133.942 103.231C134.049 103.224 134.156 103.246 134.252 103.295C134.348 103.344 134.428 103.417 134.486 103.508C134.619 103.774 134.678 104.071 134.658 104.367C134.658 105.142 134.424 105.53 133.955 105.53ZM128.015 102.398C127.769 102.387 127.523 102.428 127.295 102.519C127.066 102.611 126.86 102.75 126.689 102.927C126.342 103.345 126.166 103.878 126.199 104.42C126.182 104.685 126.221 104.951 126.312 105.201C126.404 105.451 126.545 105.68 126.729 105.873C126.925 106.052 127.155 106.189 127.406 106.278C127.656 106.366 127.922 106.404 128.188 106.388C128.445 106.393 128.703 106.371 128.957 106.322C129.163 106.282 129.364 106.215 129.553 106.124V105.318C129.345 105.416 129.127 105.491 128.904 105.543C128.686 105.59 128.463 105.612 128.241 105.609C128.112 105.617 127.984 105.599 127.863 105.556C127.742 105.512 127.632 105.445 127.538 105.358C127.363 105.166 127.269 104.916 127.273 104.658H129.765V104.142C129.785 103.903 129.755 103.663 129.677 103.435C129.6 103.208 129.476 102.999 129.315 102.821C129.139 102.654 128.931 102.527 128.702 102.447C128.473 102.367 128.23 102.337 127.989 102.359L128.015 102.398ZM127.259 103.918C127.26 103.697 127.335 103.483 127.472 103.31C127.539 103.238 127.621 103.181 127.713 103.145C127.804 103.108 127.903 103.092 128.002 103.099C128.1 103.094 128.199 103.111 128.29 103.147C128.382 103.184 128.464 103.239 128.532 103.31C128.673 103.48 128.744 103.697 128.731 103.918H127.259ZM139.192 102.689C138.847 102.44 138.425 102.319 137.999 102.346C137.488 102.339 136.982 102.457 136.527 102.689L136.872 103.403C137.212 103.236 137.582 103.142 137.959 103.125C138.039 103.115 138.12 103.122 138.196 103.148C138.273 103.173 138.342 103.215 138.4 103.271C138.457 103.327 138.501 103.395 138.528 103.471C138.555 103.546 138.565 103.627 138.556 103.706V103.878H137.88C137.417 103.859 136.958 103.969 136.554 104.195C136.412 104.296 136.299 104.432 136.224 104.589C136.15 104.747 136.117 104.92 136.13 105.094C136.119 105.257 136.142 105.421 136.197 105.575C136.251 105.729 136.337 105.871 136.448 105.992C136.565 106.101 136.703 106.185 136.853 106.239C137.003 106.293 137.163 106.317 137.323 106.309C137.573 106.317 137.821 106.272 138.052 106.177C138.267 106.067 138.453 105.909 138.596 105.714L138.795 106.243H139.524V103.72C139.54 103.528 139.512 103.335 139.44 103.156C139.369 102.977 139.257 102.817 139.113 102.689H139.192ZM138.476 104.816C138.48 104.919 138.461 105.022 138.423 105.117C138.384 105.213 138.325 105.299 138.251 105.371C138.173 105.443 138.081 105.498 137.981 105.535C137.88 105.571 137.774 105.587 137.668 105.582C137.603 105.595 137.537 105.592 137.474 105.575C137.411 105.558 137.353 105.526 137.304 105.482C137.255 105.439 137.217 105.385 137.193 105.324C137.168 105.264 137.159 105.198 137.164 105.133C137.158 105.043 137.175 104.953 137.215 104.872C137.254 104.791 137.314 104.721 137.389 104.671C137.6 104.557 137.839 104.502 138.079 104.512H138.49V104.829L138.476 104.816ZM127.776 92.3183H132.616V84.3916H136.209V80.6132H124.17V84.3916H127.763V92.3183H127.776ZM123.268 104.208C122.862 103.991 122.402 103.895 121.943 103.931H121.439V102.398H120.391V106.362H121.996C122.459 106.405 122.924 106.299 123.321 106.058C123.465 105.952 123.578 105.811 123.653 105.65C123.727 105.488 123.759 105.31 123.746 105.133C123.758 104.965 123.724 104.798 123.65 104.647C123.575 104.496 123.462 104.367 123.321 104.274L123.268 104.208ZM121.996 105.596H121.505V104.684H121.982C122.165 104.676 122.347 104.713 122.513 104.79C122.568 104.821 122.614 104.868 122.644 104.924C122.674 104.98 122.689 105.043 122.685 105.107C122.685 105.433 122.451 105.596 121.982 105.596H121.996ZM123.176 89.7422L119.967 86.8885C119.596 87.4209 119.103 87.8578 118.529 88.1632C117.955 88.4687 117.316 88.634 116.665 88.6456C116.191 88.6654 115.718 88.585 115.277 88.4097C114.836 88.2344 114.437 87.9681 114.107 87.6284C113.48 86.8535 113.139 85.8886 113.139 84.8936C113.139 83.8987 113.48 82.9338 114.107 82.1589C114.437 81.8192 114.836 81.5529 115.277 81.3776C115.718 81.2023 116.191 81.1219 116.665 81.1417C117.316 81.1533 117.955 81.3186 118.529 81.6241C119.103 81.9295 119.596 82.3664 119.967 82.8988L123.176 80.0451C122.433 79.0754 121.457 78.3076 120.338 77.8125C119.083 77.274 117.726 77.0126 116.361 77.0462C114.863 77.0256 113.384 77.3703 112.051 78.0503C110.812 78.6838 109.774 79.6491 109.055 80.8378C108.341 82.0758 107.965 83.4789 107.965 84.9069C107.965 86.3349 108.341 87.7379 109.055 88.9759C109.834 90.1664 110.938 91.1106 112.237 91.6974C113.57 92.3774 115.049 92.7221 116.546 92.7015C117.913 92.7313 119.27 92.4654 120.524 91.922C121.643 91.4279 122.619 90.6599 123.361 89.6893L123.176 89.7422ZM124.409 106.362H125.496V102.398H124.449V106.362H124.409ZM141.911 102.293C142.111 102.18 142.332 102.109 142.56 102.081L144.151 101.857L144.032 100.945L142.467 101.17C142.16 101.204 141.862 101.299 141.591 101.449C141.32 101.598 141.082 101.8 140.89 102.042C140.515 102.642 140.339 103.344 140.386 104.05C140.348 104.67 140.521 105.284 140.876 105.794C141.033 105.994 141.235 106.155 141.465 106.265C141.695 106.375 141.947 106.431 142.202 106.428C142.446 106.434 142.689 106.391 142.917 106.303C143.145 106.214 143.352 106.082 143.528 105.913C143.704 105.715 143.839 105.485 143.925 105.236C144.012 104.987 144.048 104.723 144.032 104.459C144.061 104.01 143.919 103.567 143.634 103.218C143.405 102.995 143.114 102.849 142.798 102.797C142.483 102.745 142.159 102.79 141.871 102.927C141.676 103.027 141.511 103.178 141.393 103.363C141.401 103.133 141.446 102.905 141.526 102.689C141.589 102.528 141.7 102.389 141.844 102.293H141.911ZM141.619 103.865C141.721 103.773 141.838 103.697 141.964 103.64C142.079 103.582 142.206 103.55 142.335 103.548C142.786 103.548 143.011 103.883 143.011 104.552C143.011 105.221 142.759 105.565 142.255 105.582C142.125 105.585 141.997 105.552 141.885 105.487C141.772 105.422 141.68 105.327 141.619 105.212C141.45 104.882 141.372 104.513 141.393 104.142C141.452 104.038 141.528 103.944 141.619 103.865ZM147.44 102.689C147.139 102.525 146.801 102.443 146.458 102.451C146.213 102.446 145.969 102.489 145.741 102.58C145.513 102.671 145.306 102.807 145.132 102.98C144.784 103.387 144.608 103.912 144.642 104.446C144.634 104.811 144.711 105.173 144.867 105.503C145.008 105.796 145.234 106.041 145.517 106.203C145.817 106.368 146.156 106.45 146.498 106.441C146.744 106.448 146.988 106.404 147.216 106.313C147.444 106.222 147.651 106.086 147.824 105.913C148.177 105.508 148.358 104.982 148.328 104.446C148.338 104.081 148.26 103.719 148.102 103.389C147.96 103.1 147.734 102.861 147.453 102.702L147.44 102.689ZM147.068 105.345C147.002 105.443 146.911 105.522 146.803 105.573C146.696 105.624 146.577 105.646 146.458 105.635C146.34 105.644 146.221 105.622 146.114 105.571C146.007 105.52 145.916 105.442 145.848 105.345C145.708 105.081 145.644 104.784 145.663 104.486C145.642 104.188 145.707 103.89 145.848 103.627C145.923 103.538 146.016 103.467 146.122 103.418C146.227 103.369 146.342 103.343 146.458 103.343C146.575 103.343 146.69 103.369 146.795 103.418C146.9 103.467 146.994 103.538 147.068 103.627C147.21 103.89 147.274 104.188 147.254 104.486C147.272 104.784 147.207 105.08 147.068 105.345ZM178.532 80.6132L174.461 85.8977V80.6132H169.622V92.358H174.117L178.16 87.0735V92.358H183V80.6132H178.532ZM156.747 106.362H157.795V102.398H156.747V106.362ZM164.371 81.2606C163.263 80.752 162.058 80.4887 160.838 80.4887C159.618 80.4887 158.412 80.752 157.304 81.2606C156.307 81.7395 155.462 82.485 154.865 83.414C154.288 84.362 153.982 85.4495 153.982 86.5583C153.982 87.667 154.288 88.7545 154.865 89.7025C155.472 90.621 156.321 91.3564 157.317 91.8295C158.424 92.345 159.63 92.6122 160.851 92.6122C162.072 92.6122 163.278 92.345 164.384 91.8295C165.384 91.3476 166.229 90.5973 166.824 89.6629C167.395 88.7129 167.697 87.6261 167.697 86.5186C167.697 85.4111 167.395 84.3244 166.824 83.3744C166.23 82.4421 165.385 81.6957 164.384 81.2209L164.371 81.2606ZM162.223 88.2229C162.049 88.4153 161.837 88.5692 161.599 88.6745C161.361 88.7798 161.104 88.8342 160.844 88.8342C160.584 88.8342 160.327 88.7798 160.09 88.6745C159.852 88.5692 159.639 88.4153 159.465 88.2229C159.079 87.7411 158.886 87.1341 158.922 86.5186C158.885 85.9071 159.079 85.304 159.465 84.8276C159.641 84.637 159.854 84.4847 160.091 84.3806C160.328 84.2764 160.585 84.2226 160.844 84.2226C161.104 84.2226 161.36 84.2764 161.598 84.3806C161.835 84.4847 162.048 84.637 162.223 84.8276C162.61 85.304 162.804 85.9071 162.767 86.5186C162.803 87.1341 162.609 87.7411 162.223 88.2229ZM155.779 104.274C155.373 104.057 154.913 103.961 154.454 103.997H153.95V102.398H152.902V106.362H154.507C154.97 106.405 155.435 106.299 155.832 106.058C155.975 105.951 156.088 105.81 156.162 105.649C156.236 105.488 156.269 105.31 156.257 105.133C156.267 104.966 156.233 104.798 156.159 104.648C156.085 104.497 155.972 104.368 155.832 104.274H155.779ZM154.507 105.596H154.016V104.684H154.493C154.676 104.676 154.858 104.712 155.024 104.79C155.082 104.82 155.13 104.865 155.163 104.921C155.195 104.978 155.212 105.042 155.209 105.107C155.209 105.424 154.971 105.596 154.507 105.596ZM148.805 103.257H150.131V106.362H151.179V103.297H152.504V102.398H148.925V103.191L148.805 103.257ZM107.822 104.288C107.782 104.609 107.702 104.924 107.583 105.226C107.561 105.299 107.517 105.364 107.459 105.413C107.4 105.462 107.328 105.494 107.252 105.503C107.133 105.505 107.016 105.482 106.907 105.437V106.283C107.096 106.36 107.299 106.396 107.504 106.388C107.632 106.394 107.759 106.371 107.878 106.324C107.997 106.276 108.105 106.203 108.193 106.111C108.408 105.842 108.554 105.524 108.617 105.186C108.752 104.55 108.84 103.906 108.882 103.257H109.85V106.362H110.911V102.398H107.994C107.994 103.165 107.888 103.72 107.809 104.208L107.822 104.288ZM118.601 103.878H117.13V102.398H116.069V106.362H117.13V104.776H118.601V106.362H119.662V102.398H118.601V103.878ZM88.1985 102.398C87.9809 102.387 87.764 102.433 87.5705 102.533C87.3769 102.633 87.2138 102.783 87.098 102.967L86.9124 102.398H86.0506V107.934H87.045V106.375C87.045 106.375 87.045 106.137 87.045 105.82C87.1726 105.977 87.3345 106.103 87.5184 106.187C87.7023 106.272 87.9032 106.314 88.1057 106.309C88.3851 106.314 88.6589 106.231 88.888 106.071C89.1242 105.898 89.304 105.659 89.4051 105.384C89.5342 105.042 89.5972 104.679 89.5907 104.314C89.6217 103.797 89.4871 103.284 89.2062 102.848C89.0814 102.682 88.9191 102.548 88.7325 102.456C88.546 102.364 88.3403 102.317 88.1322 102.319L88.1985 102.398ZM87.814 105.463C87.7023 105.472 87.5902 105.452 87.4882 105.406C87.3861 105.36 87.2975 105.289 87.2306 105.199C87.086 104.928 87.0216 104.621 87.045 104.314V104.195C87.0216 103.918 87.0866 103.641 87.2306 103.403C87.2999 103.321 87.3877 103.256 87.4868 103.215C87.586 103.174 87.6936 103.156 87.8008 103.165C87.9081 103.158 88.0152 103.18 88.1109 103.229C88.2066 103.278 88.2873 103.351 88.3444 103.442C88.4777 103.708 88.5372 104.004 88.5167 104.301C88.5167 105.076 88.2781 105.463 87.8008 105.463H87.814ZM90.426 66.7283L90.5719 34.9289C90.5797 34.7536 90.5467 34.5789 90.4753 34.4185C90.404 34.258 90.2964 34.1162 90.1609 34.0042L68.9465 18.1507C68.8139 18.045 68.6283 18.1507 68.6283 18.3753V50.4257C68.6226 50.5988 68.6566 50.7709 68.7279 50.9289C68.7991 51.0869 68.9056 51.2266 69.0394 51.3372L76.0666 56.6217C76.1992 56.7274 76.3848 56.6217 76.3848 56.3971V53.7549C76.3848 53.636 76.4909 53.5567 76.5704 53.6228L81.7414 57.4804C81.8072 57.5377 81.8592 57.609 81.8937 57.6891C81.9281 57.7691 81.944 57.8558 81.9403 57.9428V60.3737C81.9346 60.5468 81.9686 60.7189 82.0398 60.8769C82.1111 61.0349 82.2176 61.1746 82.3513 61.2853L90.0946 66.9397C90.2272 67.0453 90.3995 66.9397 90.3995 66.7151L90.426 66.7283ZM81.927 43.3312C81.927 43.5294 81.7547 43.6615 81.6088 43.5559L76.6102 39.8171C76.5436 39.7604 76.4911 39.6892 76.4566 39.609C76.4221 39.5288 76.4066 39.4418 76.4113 39.3547V37.4391C76.4113 37.3202 76.5174 37.2409 76.597 37.3069L81.7414 41.0986C81.8104 41.1539 81.8655 41.2245 81.9023 41.3048C81.9391 41.3851 81.9567 41.4728 81.9536 41.561V43.318L81.927 43.3312ZM81.927 103.257H83.2529V106.362H84.3004V103.297H85.6263V102.398H82.0464V103.191L81.927 103.257ZM80.4818 103.257C80.6225 103.237 80.7654 103.237 80.9061 103.257L81.3702 103.416L81.6751 102.61C81.2788 102.438 80.8464 102.366 80.4155 102.398C80.1581 102.382 79.9 102.419 79.6579 102.507C79.4158 102.596 79.1951 102.735 79.0101 102.914C78.6589 103.329 78.4831 103.864 78.5195 104.407C78.4697 104.668 78.4837 104.938 78.5602 105.193C78.6368 105.449 78.7737 105.682 78.9595 105.873C79.1452 106.065 79.3744 106.209 79.6278 106.294C79.8812 106.379 80.1513 106.402 80.4155 106.362C80.6358 106.387 80.8582 106.387 81.0785 106.362C81.2622 106.316 81.437 106.24 81.5956 106.137V105.239C81.4361 105.347 81.2619 105.431 81.0785 105.49C80.8979 105.544 80.7102 105.571 80.5216 105.569C79.9736 105.569 79.6995 105.195 79.6995 104.446C79.6995 103.698 79.9736 103.31 80.5216 103.284L80.4818 103.257ZM84.6584 91.8295C85.6577 91.347 86.5025 90.5968 87.098 89.6629C87.6694 88.7129 87.9712 87.6261 87.9712 86.5186C87.9712 85.4111 87.6694 84.3244 87.098 83.3744C86.5039 82.4426 85.6584 81.6963 84.6584 81.2209C83.5503 80.7124 82.3448 80.449 81.1249 80.449C79.9049 80.449 78.6994 80.7124 77.5914 81.2209C76.5933 81.6992 75.7486 82.4449 75.1517 83.3744C74.5733 84.3219 74.2674 85.4096 74.2674 86.5186C74.2674 87.6276 74.5733 88.7154 75.1517 89.6629C75.7499 90.5946 76.594 91.3441 77.5914 91.8295C78.6975 92.345 79.9037 92.6122 81.1249 92.6122C82.346 92.6122 83.5523 92.345 84.6584 91.8295ZM79.7393 88.2229C79.3532 87.7411 79.1595 87.1341 79.1957 86.5186C79.159 85.9071 79.3529 85.304 79.7393 84.8276C79.9145 84.637 80.1275 84.4847 80.3649 84.3806C80.6023 84.2764 80.8589 84.2226 81.1183 84.2226C81.3776 84.2226 81.6342 84.2764 81.8716 84.3806C82.109 84.4847 82.322 84.637 82.4972 84.8276C82.8836 85.304 83.0775 85.9071 83.0408 86.5186C83.0757 87.1339 82.8822 87.7406 82.4972 88.2229C82.3231 88.4153 82.1104 88.5692 81.8729 88.6745C81.6354 88.7798 81.3783 88.8342 81.1183 88.8342C80.8583 88.8342 80.6012 88.7798 80.3636 88.6745C80.1261 88.5692 79.9134 88.4153 79.7393 88.2229ZM93.0911 102.676C92.7905 102.513 92.4522 102.431 92.1099 102.438C91.8646 102.432 91.6206 102.476 91.3927 102.567C91.1648 102.658 90.9577 102.794 90.784 102.967C90.4358 103.373 90.2598 103.899 90.2934 104.433C90.2852 104.798 90.3624 105.16 90.5189 105.49C90.6596 105.783 90.8861 106.027 91.1685 106.19C91.4685 106.355 91.8072 106.437 92.1497 106.428C92.3952 106.434 92.6394 106.391 92.8674 106.3C93.0954 106.209 93.3023 106.073 93.4756 105.899C93.8287 105.495 94.0094 104.969 93.9794 104.433C93.9891 104.068 93.9119 103.706 93.754 103.376C93.6111 103.088 93.3849 102.848 93.1043 102.689L93.0911 102.676ZM92.7198 105.331C92.6537 105.43 92.5622 105.509 92.4549 105.56C92.3475 105.611 92.2284 105.633 92.1099 105.622C91.9916 105.631 91.873 105.609 91.7659 105.558C91.6588 105.507 91.5671 105.429 91.5 105.331C91.3595 105.068 91.2953 104.77 91.3144 104.473C91.2939 104.175 91.3582 103.877 91.5 103.614C91.5747 103.525 91.668 103.454 91.7734 103.405C91.8787 103.356 91.9936 103.33 92.1099 103.33C92.2262 103.33 92.3411 103.356 92.4465 103.405C92.5519 103.454 92.6452 103.525 92.7198 103.614C92.861 103.877 92.9253 104.175 92.9055 104.473C92.9232 104.77 92.859 105.067 92.7198 105.331ZM74.6479 102.398C74.4018 102.387 74.1562 102.428 73.9274 102.519C73.6987 102.611 73.4923 102.75 73.322 102.927C72.9745 103.345 72.7991 103.878 72.8314 104.42C72.8152 104.685 72.8539 104.951 72.9452 105.201C73.0364 105.451 73.1782 105.68 73.3618 105.873C73.558 106.052 73.7882 106.189 74.0387 106.278C74.2892 106.366 74.5549 106.404 74.8203 106.388C75.0782 106.393 75.3359 106.371 75.5893 106.322C75.7959 106.282 75.9965 106.216 76.1859 106.124V105.318C75.9779 105.416 75.7602 105.491 75.5362 105.543C75.3185 105.59 75.0961 105.612 74.8733 105.609C74.7451 105.618 74.6164 105.6 74.4955 105.557C74.3745 105.514 74.2639 105.446 74.1706 105.358C73.9949 105.167 73.8999 104.916 73.9054 104.658H76.4378V104.142C76.4572 103.903 76.4272 103.663 76.3497 103.435C76.2722 103.208 76.1488 102.999 75.987 102.821C75.812 102.654 75.6031 102.527 75.3744 102.447C75.1457 102.367 74.9025 102.337 74.6611 102.359L74.6479 102.398ZM73.9319 103.918C73.9318 103.697 74.0065 103.483 74.144 103.31C74.2096 103.239 74.2898 103.184 74.3791 103.147C74.4685 103.111 74.5647 103.094 74.6611 103.099C74.7596 103.094 74.8578 103.111 74.9493 103.147C75.0408 103.184 75.1234 103.239 75.1915 103.31C75.3326 103.48 75.4037 103.697 75.3904 103.918H73.9186H73.9319ZM114.889 104.235C114.482 104.019 114.022 103.923 113.563 103.957H112.82V102.398H111.76V106.362H113.603C114.743 106.362 115.313 105.952 115.313 105.133C115.325 104.965 115.292 104.798 115.217 104.647C115.143 104.496 115.029 104.367 114.889 104.274V104.235ZM113.563 105.596H112.834V104.684H113.563C113.746 104.676 113.928 104.712 114.093 104.79C114.149 104.821 114.194 104.868 114.225 104.924C114.255 104.98 114.269 105.043 114.266 105.107C114.266 105.433 114.031 105.596 113.563 105.596ZM104.945 102.398C104.699 102.387 104.453 102.428 104.224 102.519C103.995 102.611 103.789 102.75 103.619 102.927C103.271 103.345 103.096 103.878 103.128 104.42C103.112 104.685 103.151 104.951 103.242 105.201C103.333 105.451 103.475 105.68 103.658 105.873C103.855 106.052 104.085 106.189 104.335 106.278C104.586 106.366 104.852 106.404 105.117 106.388C105.375 106.393 105.633 106.371 105.886 106.322C106.093 106.282 106.293 106.215 106.483 106.124V105.318C106.275 105.416 106.057 105.491 105.833 105.543C105.615 105.59 105.393 105.612 105.17 105.609C105.042 105.618 104.913 105.6 104.792 105.557C104.671 105.514 104.561 105.446 104.467 105.358C104.292 105.167 104.197 104.916 104.202 104.658H106.695V104.142C106.714 103.903 106.684 103.663 106.607 103.435C106.529 103.208 106.406 102.999 106.244 102.821C106.069 102.654 105.86 102.527 105.631 102.447C105.403 102.367 105.159 102.337 104.918 102.359L104.945 102.398ZM104.176 103.918C104.176 103.697 104.251 103.483 104.388 103.31C104.455 103.238 104.537 103.181 104.629 103.145C104.721 103.108 104.819 103.092 104.918 103.099C105.016 103.094 105.115 103.111 105.206 103.147C105.298 103.184 105.38 103.239 105.448 103.31C105.59 103.48 105.661 103.697 105.647 103.918H104.162H104.176ZM101.63 92.3448H106.005V80.6H101.444L98.2753 86.0694L95.4777 80.6H90.3332V92.3448H94.7087V86.981L97.1218 91.42H99.1637L101.656 87.0867L101.63 92.3448ZM95.5175 105.16C95.5175 104.539 95.597 104.142 95.597 103.984V102.398H94.5761V106.362H95.902L97.6787 103.72C97.6787 104.222 97.6124 104.605 97.6124 104.882V106.362H98.6333V102.398H97.3074L95.5175 105.16ZM99.1372 103.244H100.463V106.362H101.511V103.297H102.836V102.398H99.2565V103.191L99.1372 103.244Z" fill="white"/>
</svg>
