<svg width="55" height="51" viewBox="0 0 55 51" fill="none" xmlns="http://www.w3.org/2000/svg">
<path d="M3.37723 31.7185V30.7185H2.37723V31.7185H3.37723ZM40.5271 31.7185H41.5271V30.7185H40.5271V31.7185ZM31.5211 18.2094V17.2094C30.9688 17.2094 30.5211 17.6571 30.5211 18.2094H31.5211ZM45.0302 18.2094H46.0302C46.0302 17.6571 45.5824 17.2094 45.0302 17.2094V18.2094ZM51.7847 48.6048H52.7847C52.7847 48.5067 52.7702 48.4091 52.7418 48.3152L51.7847 48.6048ZM36.0242 5.8261L36.4651 4.92857L36.4651 4.92856L36.0242 5.8261ZM11.2576 3.9202L11.8932 4.69221L11.8933 4.69214L11.2576 3.9202ZM14.6349 10.3291H15.6349V9.32912H14.6349V10.3291ZM7.88038 10.3291V9.32912H6.88038V10.3291H7.88038ZM21.3894 21.5867H22.3894V20.5867H21.3894V21.5867ZM29.2695 42.976V41.976H28.2695V42.976H29.2695ZM34.8983 42.976H35.8983V41.976H34.8983V42.976ZM4.37723 49.7305V31.7185H2.37723V49.7305H4.37723ZM3.37723 32.7185H40.5271V30.7185H3.37723V32.7185ZM39.5271 31.7185V49.7305H41.5271V31.7185H39.5271ZM0 50.7305H54.0362V48.7305H0V50.7305ZM30.2759 31.9467C31.4974 26.7362 32.5211 21.4361 32.5211 18.2094H30.5211C30.5211 21.1699 29.5568 26.2515 28.3287 31.4902L30.2759 31.9467ZM31.5211 19.2094H45.0302V17.2094H31.5211V19.2094ZM44.0302 18.2094C44.0302 20.33 44.4696 23.3194 45.1043 26.5545C45.7426 29.8081 46.5919 33.3756 47.4387 36.6805C48.2859 39.9869 49.1328 43.0391 49.7677 45.2643C50.0852 46.3771 50.3499 47.2837 50.5353 47.9125C50.628 48.2268 50.7009 48.4718 50.7507 48.6384C50.7756 48.7217 50.7947 48.7855 50.8077 48.8285C50.8141 48.85 50.8191 48.8663 50.8224 48.8773C50.8241 48.8829 50.8253 48.887 50.8262 48.8899C50.8266 48.8913 50.8269 48.8924 50.8272 48.8931C50.8273 48.8935 50.8274 48.8938 50.8274 48.894C50.8275 48.8942 50.8275 48.8943 51.7847 48.6048C52.7418 48.3152 52.7418 48.3152 52.7418 48.3151C52.7417 48.3149 52.7417 48.3147 52.7416 48.3144C52.7414 48.3138 52.7411 48.3128 52.7407 48.3115C52.7399 48.3089 52.7388 48.305 52.7372 48.2998C52.734 48.2893 52.7292 48.2734 52.7229 48.2525C52.7103 48.2105 52.6915 48.1478 52.6669 48.0657C52.6178 47.9013 52.5456 47.6586 52.4536 47.3467C52.2696 46.7229 52.0066 45.822 51.6909 44.7156C51.0593 42.5021 50.2176 39.4681 49.3761 36.1841C48.5343 32.8984 47.695 29.3713 47.0668 26.1695C46.4351 22.9492 46.0302 20.1223 46.0302 18.2094H44.0302ZM50.7847 48.6048V49.7305H52.7847V48.6048H50.7847ZM41.5272 14.8321C41.5272 12.896 41.4081 10.969 40.7049 9.2508C39.9811 7.48238 38.6733 6.01344 36.4651 4.92857L35.5832 6.72362C37.385 7.60882 38.3287 8.72517 38.854 10.0084C39.3997 11.3419 39.5272 12.9328 39.5272 14.8321H41.5272ZM36.4651 4.92856C35.3309 4.37132 34.1251 4.30887 32.9882 4.41392C31.8737 4.51691 30.6929 4.79899 29.6531 5.00814C27.4487 5.45151 25.7191 5.59528 24.2912 4.37298L22.9906 5.89235C25.2214 7.8019 27.8777 7.40529 30.0475 6.96887C31.1947 6.73812 32.198 6.49545 33.1723 6.40544C34.1242 6.31748 34.9118 6.39378 35.5833 6.72363L36.4651 4.92856ZM24.2912 4.37298C22.3646 2.72379 20.0975 1.48965 17.7209 1.13211C15.3115 0.769633 12.8426 1.31956 10.6219 3.14826L11.8933 4.69214C13.6589 3.23814 15.5523 2.82838 17.4233 3.10985C19.3271 3.39626 21.2585 4.4097 22.9906 5.89235L24.2912 4.37298ZM10.622 3.1482C9.72302 3.88834 8.36021 3.87442 6.59418 3.17364C4.87598 2.49185 3.10246 1.27888 1.74134 0.212751L0.508072 1.78725C1.92082 2.89382 3.8724 4.24532 5.85652 5.03264C7.7928 5.80097 10.1095 6.16079 11.8932 4.69221L10.622 3.1482ZM15.6349 31.7185V10.3291H13.6349V31.7185H15.6349ZM14.6349 9.32912H7.88038V11.3291H14.6349V9.32912ZM6.88038 10.3291V31.7185H8.88038V10.3291H6.88038ZM22.3894 31.7185V21.5867H20.3894V31.7185H22.3894ZM21.3894 20.5867H14.6348V22.5867H21.3894V20.5867ZM7.88038 45.1016H12.3834V43.1016H7.88038V45.1016ZM14.6348 45.1016H19.1379V43.1016H14.6348V45.1016ZM21.3893 45.1016H25.8923V43.1016H21.3893V45.1016ZM30.2695 49.7305V42.976H28.2695V49.7305H30.2695ZM29.2695 43.976H34.8983V41.976H29.2695V43.976ZM33.8983 42.976V49.7305H35.8983V42.976H33.8983Z" fill="#C5C6E5"/>
</svg>
