<svg width="1571" height="577" viewBox="0 0 1571 577" fill="none" xmlns="http://www.w3.org/2000/svg">
<g clip-path="url(#clip0_214_7)">
<mask id="mask0_214_7" style="mask-type:alpha" maskUnits="userSpaceOnUse" x="-575" y="-3583" width="2150" height="4543">
<path d="M1143.95 906.873V800.863L1215.25 747.858M1143.95 906.873L1215.25 854.42M1143.95 906.873V800.311L1215.25 747.858M1143.95 906.873V589.394L1215.25 536.389M570.739 801.967L498.877 854.42M570.739 801.967V695.405M570.739 801.967L642.04 854.42L570.739 801.415M570.739 801.967L499.439 854.42M570.739 801.967L642.601 854.42M498.877 854.42L427.577 800.863M498.877 854.42L570.739 906.873M498.877 854.42L570.739 801.415M498.877 854.42L427.577 800.311M427.577 800.863L570.739 695.405M427.577 800.863L499.439 854.42M427.577 800.863L499.439 853.316V959.326M427.577 800.863V906.873M427.577 800.863L356.276 747.858M570.739 695.405L713.902 800.863M570.739 695.405L714.463 800.863L570.739 906.873M570.739 695.405L427.577 800.311M570.739 695.405V801.415M570.739 695.405L713.902 800.311L570.739 906.873M570.739 695.405L499.439 642.952M570.739 695.405L642.601 642.952M570.739 695.405L714.463 800.311L570.739 906.873M713.902 800.863L570.739 906.873M713.902 800.863V906.873L785.764 854.42M713.902 800.863L785.764 747.858M713.902 800.863V907.425L785.764 854.972M713.902 800.863L785.764 748.41M570.739 906.873L499.439 854.42M1358.41 854.42L1430.28 801.967V695.405M1358.41 854.42L1287.11 800.863M1358.41 854.42L1430.28 906.873M1358.41 854.42L1430.28 801.415V695.405M1358.41 854.42L1287.11 800.311M1287.11 800.863L1430.28 695.405M1287.11 800.863L1358.41 853.316V959.326M1287.11 800.863V906.873M1287.11 800.863L1215.25 747.858M1430.28 695.405L1358.41 642.952M1430.28 695.405L1502.14 642.952M1430.28 695.405L1287.11 800.311M1323.61 828.47L1399.4 772.704L1325.29 826.813M1574 800.863L1430.28 906.873M1430.28 906.873L1574 800.311M1215.25 854.42V747.858M1215.25 854.42L1287.11 906.873M1215.25 747.858L1287.11 800.311M1287.11 906.873V800.311M1000.79 801.967L928.926 854.42M1000.79 801.967V695.405M1000.79 801.967L1072.09 854.42V642.952M928.926 854.42V748.41L1000.79 695.405M928.926 854.42V747.858M1000.79 695.405L928.926 642.952M1000.79 695.405L1072.09 642.952M1000.79 695.405L928.926 747.858M1000.79 695.405V801.415L928.926 853.868V747.858M1072.09 642.952V536.389L1143.95 483.936M1072.09 642.952V853.868M1072.09 642.952L1000.79 590.499M928.926 853.316L857.626 800.863M857.626 800.863V906.873L785.764 854.42M857.626 800.863L785.764 747.858M857.626 800.863V907.425L785.764 854.972M857.626 800.863L785.764 748.41M785.764 854.42V747.858M785.764 747.858L857.626 695.405M785.764 747.858L713.902 695.405V589.394L785.764 536.389M284.414 906.873V800.863L356.276 747.858M284.414 906.873L356.276 854.42M284.414 906.873V800.311L356.276 747.858M284.414 906.873V589.394L356.276 536.389M-288.797 801.967L-360.659 854.42M-288.797 801.967V695.405M-288.797 801.967L-216.935 854.42M-360.659 854.42L-431.96 800.863L-288.797 695.405M-360.659 854.42L-288.797 906.873M-360.659 854.42L-288.797 801.415M-360.659 854.42L-431.96 800.311L-288.797 695.405M-288.797 695.405L-145.073 800.863M-288.797 695.405V801.415M-288.797 695.405L-145.073 800.311L-288.797 906.873M-145.073 800.863L-288.797 906.873M-145.073 800.863V906.873L-73.7728 854.42M-145.073 800.863L-73.7728 747.858M-145.073 800.863V907.425L-73.7728 854.972M-145.073 800.863L-73.7728 748.41M-216.935 854.42L-288.797 801.415M-216.935 854.42L-145.073 801.967M499.439 854.42L570.739 801.415M499.439 854.42L427.577 800.311M464.069 828.47L539.861 772.704L466.315 826.813M642.601 854.42L713.902 801.967M642.601 854.42L570.739 801.415M356.276 854.42V747.858M356.276 854.42L427.577 906.873M356.276 747.858L427.577 800.311M427.577 906.873V800.311M141.252 801.967L69.3898 854.42M141.252 801.967V695.405M141.252 801.967L213.114 854.42V642.952M69.3898 854.42V748.41L141.252 695.405M69.3898 854.42V747.858M141.252 695.405L69.3898 642.952M141.252 695.405L213.114 642.952M141.252 695.405L69.3898 747.858M141.252 695.405V801.415L69.3898 853.868V747.858M213.114 642.952V536.389L284.414 483.936M213.114 642.952V853.868M213.114 642.952L141.252 590.499M69.3898 853.316L-1.91086 800.863M-1.91086 800.863V906.873L-73.7728 854.42M-1.91086 800.863L-73.7728 747.858M-1.91086 800.863V907.425L-73.7728 854.972M-1.91086 800.863L-73.7728 748.41M-73.7728 854.42V747.858M-73.7728 747.858L-1.91086 695.405M-73.7728 747.858L-145.073 695.405V589.394L-73.7728 536.389M928.926 536.389V642.952M928.926 536.389L857.626 588.842M928.926 536.389V430.379M928.926 642.952L1000.79 590.499M1000.79 379.03L928.926 431.483L857.626 377.926M1000.79 379.03V273.02M1000.79 379.03L1072.09 431.483L1143.95 483.936M1000.79 379.03V590.499M857.626 377.926L1000.79 273.02M857.626 377.926L928.926 430.379M857.626 377.926V167.01L785.764 114.557M1000.79 273.02L1072.09 325.473L1143.95 377.926M1000.79 273.02L928.926 220.567M1000.79 273.02L1072.09 220.567M894.118 405.533L969.91 349.767M1143.95 483.936V377.926M1143.95 483.936L1215.25 431.483M1143.95 483.936L1215.25 536.389M1143.95 377.926L1215.25 325.473M1358.41 642.952L1430.28 590.499V483.936L1358.41 536.941V642.952ZM1358.41 536.389L1287.11 588.842M1287.11 588.842V800.311M1287.11 588.842L1215.25 536.389M1358.41 430.379L1287.11 377.926M1287.11 377.926V483.936M1287.11 377.926L1215.25 325.473M1215.25 431.483V325.473M1215.25 431.483L1287.11 483.936M1215.25 536.389L1287.11 483.936M1000.79 167.562L928.926 220.567M1000.79 167.562V61.5515M1000.79 167.562L1072.09 220.567M928.926 220.567V114.005M928.926 114.005L1000.79 61.5515M928.926 114.005L857.626 166.458M1000.79 61.5515L1072.09 114.005M1000.79 61.5515L1072.09 9.09854M1072.09 220.567V114.005M1072.09 220.567L1215.25 326.025L1354.48 220.015M1072.09 220.567L1215.25 114.005M1072.09 114.005L1143.95 61.5515M1143.95 61.5515V-45.0108M1143.95 61.5515L1215.25 9.09854M1143.95 61.5515V-44.4586M1143.95 61.5515L1215.25 114.005M1430.28 167.562L1358.41 220.567M1358.41 220.567L1430.28 273.02M1358.41 220.567L1287.11 166.458L1215.25 114.005M1358.41 220.567V7.99436L1287.11 -45.0108M1430.28 273.02L1502.14 220.567M1430.28 273.02L1358.41 325.473V431.483L1430.28 379.03V273.02ZM570.739 -43.3545L498.877 9.09854M570.739 -43.3545V-149.917M570.739 -43.3545L642.04 9.09854M570.739 -43.3545L499.439 9.09854M570.739 -43.3545L642.601 9.09854M570.739 -43.3545L498.877 9.65071M570.739 -43.3545V-149.365M570.739 -43.3545L642.04 9.65071M570.739 -43.3545L499.439 9.65071M570.739 -43.3545L642.601 9.65071L713.902 -42.8023M498.877 9.09854L427.577 -45.0108M498.877 9.09854L570.739 61.5515M427.577 -45.0108L570.739 -149.917M427.577 -45.0108L499.439 9.09854M427.577 -45.0108L499.439 7.99436V220.567M427.577 -45.0108V61.5515M427.577 -45.0108L356.276 -97.4638M570.739 -149.917L713.902 -44.4586M570.739 -149.917L714.463 -44.4586M713.902 -44.4586L570.739 61.5515M713.902 -44.4586V61.5515M713.902 -44.4586L785.764 -97.4638M713.902 -44.4586L570.739 62.1037M713.902 -44.4586L570.739 -149.365M570.739 61.5515V167.562M570.739 61.5515L714.463 -44.4586M570.739 61.5515L499.439 9.09854M427.577 800.311V588.842M1430.28 -43.3545L1358.41 9.09854M1430.28 -43.3545V-149.917L1287.11 -45.0108M1430.28 -43.3545L1358.41 9.65071M1430.28 -43.3545V-149.365M1358.41 9.09854L1287.11 -45.0108M1358.41 9.09854L1430.28 61.5515L1574 -44.4586L1430.28 62.1037L1358.41 9.65071M1287.11 -45.0108V61.5515M1287.11 -45.0108L1215.25 -97.4638M1399.4 -72.6177L1323.61 -17.404M1215.25 9.09854V-97.4638M1215.25 9.09854L1287.11 61.5515M1143.95 -44.4586L1215.25 -97.4638M1143.95 -44.4586V62.1037M1143.95 -44.4586L1215.25 -96.9116M1215.25 114.005L1287.11 61.5515M570.739 590.499L499.439 642.952M570.739 590.499V483.936M570.739 590.499L642.601 642.952M499.439 642.952V536.941L570.739 483.936M570.739 483.936L642.601 536.389M570.739 483.936L642.601 431.483M642.601 642.952V536.389M642.601 536.389L713.902 483.936M570.739 379.03L499.439 431.483V325.473L570.739 273.02M570.739 379.03V273.02M570.739 379.03L642.601 431.483M570.739 273.02L499.439 220.567M570.739 273.02L642.601 220.567M642.601 431.483V220.567M642.601 220.567L570.739 167.562M642.601 220.567V114.005L713.902 61.5515M618.46 364.675L598.249 349.767M928.926 747.858L857.626 695.405M1047.95 787.059L1027.74 772.152M1000.79 -43.3545L928.926 9.09854M1000.79 -43.3545V-149.917L928.926 -97.4638V9.09854M1000.79 -43.3545L1072.09 9.09854M1000.79 -43.3545V-149.365M928.926 9.09854V-96.9116M1072.09 9.09854V-202.37M1072.09 9.09854V-201.818M713.902 483.936L763.307 520.377M713.902 483.936V167.01L785.764 114.557M857.626 588.842V695.405M857.626 588.842L785.764 536.389M928.926 430.379L808.221 520.377M785.764 114.557L763.307 131.121V520.377M785.764 114.557L808.221 131.121V520.377M785.764 536.389L808.221 520.377M785.764 536.389L763.307 520.377M763.307 552.953V676.08L714.463 640.743M808.221 552.953V676.632L857.626 640.191M785.764 854.972V748.41M570.739 167.562L499.439 220.567M499.439 220.567L428.138 166.458L356.276 114.005M713.902 61.5515V-45.0108M713.902 61.5515L785.764 9.09854M713.902 61.5515L785.764 114.005L857.626 61.5515M928.926 7.99436L857.626 -45.0108M857.626 -45.0108V61.5515M857.626 -45.0108L785.764 -97.4638M785.764 9.09854V-97.4638M785.764 9.09854L857.626 61.5515M69.3898 536.389V642.952M69.3898 536.389L-1.91086 588.842M69.3898 536.389V430.379M69.3898 642.952L141.252 590.499M141.252 379.03L69.3898 431.483L-1.91086 377.926M141.252 379.03V273.02M141.252 379.03L213.114 431.483L284.414 483.936M141.252 379.03V590.499M-1.91086 377.926L141.252 273.02M-1.91086 377.926L69.3898 430.379M-1.91086 377.926V167.01L-73.7728 114.557M141.252 273.02L213.114 325.473L284.414 377.926M141.252 273.02L69.3898 220.567M141.252 273.02L213.114 220.567M34.5816 405.533L110.373 349.767M284.414 483.936V377.926M284.414 483.936L356.276 431.483M284.414 483.936L356.276 536.389M284.414 377.926L356.276 325.473M499.439 536.389L427.577 588.842M427.577 588.842L356.276 536.389M499.439 430.379L427.577 377.926M427.577 377.926V483.936M427.577 377.926L356.276 325.473M356.276 431.483V325.473M356.276 431.483L427.577 483.936M356.276 536.389L427.577 483.936M141.252 167.562L69.3898 220.567M141.252 167.562V61.5515M141.252 167.562L213.114 220.567M69.3898 220.567V114.005M69.3898 114.005L141.252 61.5515M69.3898 114.005L-1.91086 166.458M141.252 61.5515L213.114 114.005M141.252 61.5515L213.114 9.09854M213.114 220.567V114.005M213.114 220.567L356.276 326.025L495.509 220.015M213.114 220.567L356.276 114.005M213.114 114.005L284.414 61.5515M284.414 61.5515V-45.0108M284.414 61.5515L356.276 9.09854M284.414 61.5515V-44.4586M284.414 61.5515L356.276 114.005M-288.797 -43.3545L-360.659 9.09854M-288.797 -43.3545V-149.917M-288.797 -43.3545L-216.935 9.09854M-288.797 -43.3545L-360.659 9.65071M-288.797 -43.3545V-149.365M-288.797 -43.3545L-216.935 9.65071L-145.073 -42.8023M-360.659 9.09854L-431.96 -45.0108L-288.797 -149.917M-360.659 9.09854L-288.797 61.5515L-145.073 -44.4586M-288.797 -149.917L-145.073 -44.4586M-145.073 -44.4586V61.5515M-145.073 -44.4586L-73.7728 -97.4638M-145.073 -44.4586L-288.797 62.1037L-360.659 9.65071M-145.073 -44.4586L-288.797 -149.365M539.861 -72.6177L464.069 -17.404M714.463 -44.4586L570.739 62.1037M714.463 -44.4586L570.739 -149.365M356.276 9.09854V-97.4638M356.276 9.09854L427.577 61.5515M284.414 -44.4586L356.276 -97.4638M284.414 -44.4586V62.1037M284.414 -44.4586L356.276 -96.9116M356.276 114.005L427.577 61.5515M-288.236 590.499L-360.098 642.952M-288.236 590.499V483.936M-288.236 590.499L-216.935 642.952M-360.098 642.952V536.941L-288.236 483.936M-360.098 642.952L-288.236 695.405L-216.935 642.952M-288.236 483.936L-216.935 536.389M-288.236 483.936L-216.935 431.483M-216.935 642.952V536.389M-216.935 536.389L-145.073 483.936M-288.236 379.03L-360.098 431.483V325.473L-288.236 273.02M-288.236 379.03V273.02M-288.236 379.03L-216.935 431.483M-288.236 273.02L-360.098 220.567M-288.236 273.02L-216.935 220.567M-216.935 431.483V220.567M-216.935 220.567L-288.236 167.562M-216.935 220.567V114.005L-145.073 61.5515M-241.077 364.675L-261.288 349.767M69.3898 747.858L-1.91086 695.405M188.973 787.059L168.761 772.152M141.252 -43.3545L69.3898 9.09854M141.252 -43.3545V-149.917L69.3898 -97.4638V9.09854M141.252 -43.3545L213.114 9.09854M141.252 -43.3545V-149.365M69.3898 9.09854V-96.9116M213.114 9.09854V-202.37M213.114 9.09854V-201.818M-145.073 483.936L-96.2296 520.377M-145.073 483.936V167.01L-73.7728 114.557M-1.91086 588.842V695.405M-1.91086 588.842L-73.7728 536.389M69.3898 430.379L-51.3159 520.377M-73.7728 114.557L-96.2296 131.121V520.377M-73.7728 114.557L-51.3159 131.121V520.377M-73.7728 536.389L-51.3159 520.377M-73.7728 536.389L-96.2296 520.377M-96.2296 552.953V676.08L-145.073 640.743M-51.3159 552.953V676.632L-1.91086 640.191M-73.7728 854.972V748.41M-288.236 61.5515V167.562M-288.236 167.562L-360.098 220.567M-360.098 220.567V114.005M-145.073 61.5515V-45.0108M-145.073 61.5515L-73.7728 9.09854M-145.073 61.5515L-73.7728 114.005L-1.91086 61.5515M69.3898 7.99436L-1.91086 -45.0108M-1.91086 -45.0108V61.5515M-1.91086 -45.0108L-73.7728 -97.4638M-73.7728 9.09854V-97.4638M-73.7728 9.09854L-1.91086 61.5515M-574 906.873L-502.699 854.42M-574 906.873V800.311L-502.699 747.858M-574 906.873V589.394L-502.699 536.389M-287.674 590.499L-359.536 642.952M-287.674 590.499V483.936M-287.674 590.499L-216.374 642.952M-359.536 642.952V536.941L-287.674 483.936M-359.536 642.952L-287.674 695.405L-216.374 642.952M-287.674 483.936L-216.374 536.389V642.952M-359.536 536.389L-430.837 588.842M-430.837 588.842V800.311M-430.837 588.842L-502.699 536.389M-359.536 430.379L-430.837 377.926M-430.837 377.926V483.936M-430.837 377.926L-502.699 325.473M-502.699 431.483L-574 483.936M-502.699 431.483V325.473M-502.699 431.483L-430.837 483.936M-574 483.936V377.926L-502.699 325.473M-574 483.936L-502.699 536.389M-502.699 536.389L-430.837 483.936M-502.699 854.42V747.858M-502.699 854.42L-430.837 906.873V800.311M-502.699 747.858L-430.837 800.311M-574 61.5515L-502.699 114.005M-502.699 114.005L-430.837 61.5515M-502.699 114.005L-430.837 166.458L-359.536 220.567M-363.466 220.015L-502.699 326.025M928.926 -308.38V-201.818M928.926 -308.38L857.626 -255.927M928.926 -308.38V-414.391M928.926 -201.818L1000.79 -149.365M928.926 -201.818L1000.79 -254.271M1000.79 -149.365L1072.09 -201.818M1000.79 -149.365L928.926 -96.9116M1072.09 -201.818V-308.38L1143.95 -360.833M1072.09 -201.818L1000.79 -254.271M1000.79 -465.739L928.926 -413.286L857.626 -466.844M1000.79 -465.739V-571.75M1000.79 -465.739L1072.09 -413.286L1143.95 -360.833M1000.79 -465.739V-254.271M857.626 -466.844L1000.79 -571.75M857.626 -466.844L928.926 -414.391M857.626 -466.844V-677.76L785.764 -730.213M1000.79 -571.75L1072.09 -519.297L1143.95 -466.844M1000.79 -571.75L928.926 -624.203M1000.79 -571.75L1072.09 -624.203M894.118 -439.237L969.91 -495.002M1143.95 -360.833V-466.844M1143.95 -360.833L1215.25 -413.286M1143.95 -360.833L1215.25 -308.38M1143.95 -466.844L1215.25 -519.297M1143.95 62.1037L1215.25 9.65071M1143.95 62.1037V-255.375L1215.25 -308.38M1358.41 -201.818L1430.28 -254.271V-360.833L1358.41 -307.828V-201.818ZM1358.41 -201.818L1430.28 -149.365M1430.28 -149.365L1502.14 -201.818M1430.28 -149.365L1287.11 -44.4586M1358.41 -308.38L1287.11 -255.927M1287.11 -255.927V-44.4586M1287.11 -255.927L1215.25 -308.38M1358.41 -414.391L1287.11 -466.844M1287.11 -466.844V-360.833M1287.11 -466.844L1215.25 -519.297M1215.25 -413.286V-519.297M1215.25 -413.286L1287.11 -360.833M1215.25 -308.38L1287.11 -360.833M1215.25 9.65071V-96.9116M1215.25 9.65071L1287.11 62.1037V-44.4586M1215.25 -96.9116L1287.11 -44.4586M1287.11 -44.4586L1358.41 9.65071M1000.79 -677.208L928.926 -624.203M1000.79 -677.208V-783.218M1000.79 -677.208L1072.09 -624.203M928.926 -624.203V-730.765M928.926 -730.765L1000.79 -783.218M928.926 -730.765L857.626 -678.312M1000.79 -783.218L1072.09 -730.765M1000.79 -783.218L1072.09 -835.671M1072.09 -624.203V-730.765M1072.09 -624.203L1215.25 -518.744L1354.48 -624.755M1072.09 -624.203L1215.25 -730.765M1072.09 -730.765L1143.95 -783.218M1143.95 -783.218V-889.78L1215.25 -942.233M1143.95 -783.218L1215.25 -835.671M1143.95 -783.218V-889.228L1215.25 -942.233M1143.95 -783.218L1215.25 -730.765M1143.95 -783.218V-1100.7L1215.25 -1153.7M1430.28 -677.208L1358.41 -624.203M1358.41 -624.203L1430.28 -571.75M1358.41 -624.203L1287.11 -678.312L1215.25 -730.765M1358.41 -624.203V-836.775M1430.28 -571.75L1502.14 -624.203M1430.28 -571.75L1358.41 -519.297V-413.286L1430.28 -465.739V-571.75ZM570.739 -888.124L498.877 -835.671M570.739 -888.124V-994.686M570.739 -888.124L642.04 -835.671L570.739 -888.676M570.739 -888.124L499.439 -835.671M570.739 -888.124L642.601 -835.671M498.877 -835.671L427.577 -889.78M498.877 -835.671L570.739 -783.218M498.877 -835.671L427.577 -889.228M498.877 -835.671L570.739 -888.676M427.577 -889.78L570.739 -994.686M427.577 -889.78L499.439 -835.671M427.577 -889.78L499.439 -836.775M427.577 -889.78V-783.218M427.577 -889.78L356.276 -942.233M427.577 -889.78V-1101.25M570.739 -994.686L427.577 -889.228M570.739 -994.686L713.902 -889.228M570.739 -994.686L714.463 -889.228L570.739 -783.218M570.739 -994.686V-888.676M570.739 -994.686L713.902 -889.78M570.739 -994.686L499.439 -1047.14M570.739 -994.686L642.601 -1047.14M570.739 -994.686L714.463 -889.78L570.739 -783.218M713.902 -889.228L570.739 -783.218M713.902 -889.228V-783.218M713.902 -889.228L785.764 -942.233M713.902 -889.228V-782.666L785.764 -835.119M713.902 -889.228L785.764 -941.681M570.739 -783.218V-677.208M570.739 -783.218L499.439 -835.671M570.739 -783.218L713.902 -889.78M498.877 9.65071L427.577 -44.4586M498.877 9.65071L570.739 62.1037M427.577 -44.4586L570.739 -149.365M427.577 -44.4586V62.1037L356.276 9.65071M427.577 -44.4586L356.276 -96.9116M427.577 -44.4586L499.439 9.65071M427.577 -44.4586V-255.927M570.739 -149.365L499.439 -201.818M570.739 -149.365L642.601 -201.818M570.739 62.1037L499.439 9.65071M1399.4 -72.0655L1325.29 -17.9561M1358.41 -835.671L1430.28 -888.124V-994.686M1358.41 -835.671L1287.11 -889.78M1358.41 -835.671L1430.28 -783.218M1358.41 -835.671L1287.11 -889.228M1358.41 -835.671L1430.28 -888.676V-994.686M1287.11 -889.78L1430.28 -994.686M1287.11 -889.78L1358.41 -836.775M1287.11 -889.78V-783.218M1287.11 -889.78L1215.25 -942.233M1287.11 -889.78V-1101.25M1430.28 -994.686L1287.11 -889.228M1430.28 -994.686L1358.41 -1047.14M1430.28 -994.686L1502.14 -1047.14M1399.4 -917.387L1323.61 -862.173M1399.4 -917.387L1323.61 -861.621M1399.4 -917.387L1325.29 -863.278M1574 -889.228L1430.28 -783.218M1430.28 -783.218L1574 -889.78M1358.41 -836.775V-730.765M1358.41 -836.775L1287.11 -889.228M1215.25 -835.671V-942.233M1215.25 -835.671L1287.11 -783.218M1215.25 -942.233L1287.11 -889.228M1215.25 -730.765L1287.11 -783.218M1287.11 -783.218V-889.228M570.739 -254.271L499.439 -201.818M570.739 -254.271V-360.833M570.739 -254.271L642.601 -201.818M499.439 -201.818V-307.828L570.739 -360.833M570.739 -360.833L642.601 -308.38M570.739 -360.833L642.601 -413.286M642.601 -201.818V-308.38M642.601 -308.38L713.902 -360.833M570.739 -465.739L499.439 -413.286V-519.297L570.739 -571.75M570.739 -465.739V-571.75M570.739 -465.739L642.601 -413.286M570.739 -571.75L499.439 -624.203M570.739 -571.75L642.601 -624.203M642.601 -413.286V-624.203M642.601 -624.203L570.739 -677.208M642.601 -624.203V-730.765L713.902 -783.218M618.46 -480.095L598.249 -495.002M928.926 -96.9116V9.65071M928.926 -96.9116L857.626 -149.365M1047.95 -57.7101L1027.74 -72.6177M1000.79 -888.124L928.926 -835.671M1000.79 -888.124V-994.686M1000.79 -888.124L1072.09 -835.671M928.926 -835.671V-942.233M928.926 -835.671V-941.681L1000.79 -994.686M928.926 -942.233L1000.79 -994.686M928.926 -942.233V-836.223L1000.79 -888.676V-994.686M928.926 -942.233L857.626 -994.686M1000.79 -994.686L928.926 -1047.14M1000.79 -994.686L1072.09 -1047.14M1072.09 -835.671V-1047.14M1072.09 -1047.14V-1153.7L1143.95 -1206.15M1072.09 -1047.14V-836.223M1072.09 -1047.14L1000.79 -1099.59M713.902 -360.833L763.307 -324.392M713.902 -360.833V-677.76L785.764 -730.213M857.626 -255.927V-149.365M857.626 -255.927L785.764 -308.38M928.926 -414.391L808.221 -324.392M857.626 -149.365L785.764 -96.9116L713.902 -149.365V-255.375L785.764 -308.38M785.764 -730.213L763.307 -713.648V-324.392M785.764 -730.213L808.221 -713.648V-324.392M785.764 -308.38L808.221 -324.392M785.764 -308.38L763.307 -324.392M763.307 -291.816V-168.69L714.463 -204.026M808.221 -291.816V-168.137L857.626 -204.579M785.764 10.2029L713.902 62.6559V-43.9066L785.764 -96.3596M785.764 10.2029V-96.3596M785.764 10.2029L857.626 62.6559V-43.9066L785.764 -96.3596M570.739 -677.208L499.439 -624.203M499.439 -624.203L428.138 -678.312L356.276 -730.765M499.439 -624.203V-836.775M713.902 -783.218V-889.78M713.902 -783.218L785.764 -835.671M713.902 -783.218L785.764 -730.765L857.626 -783.218M857.626 -889.78L928.926 -836.775L857.626 -889.228M857.626 -889.78V-783.218M857.626 -889.78L785.764 -942.233M785.764 -835.671V-942.233M785.764 -835.671L857.626 -783.218M785.764 -942.233L857.626 -889.228M785.764 -942.233L857.626 -994.686M785.764 -942.233L713.902 -994.686V-1100.7L785.764 -1153.7M857.626 -783.218V-889.228M69.3898 -308.38V-201.818M69.3898 -308.38L-1.91086 -255.927M69.3898 -308.38V-414.391M69.3898 -201.818L141.252 -149.365M69.3898 -201.818L141.252 -254.271M141.252 -149.365L213.114 -201.818M141.252 -149.365L69.3898 -96.9116M213.114 -201.818V-308.38L284.414 -360.833M213.114 -201.818L141.252 -254.271M141.252 -465.739L69.3898 -413.286L-1.91086 -466.844M141.252 -465.739V-571.75M141.252 -465.739L213.114 -413.286L284.414 -360.833M141.252 -465.739V-254.271M-1.91086 -466.844L141.252 -571.75M-1.91086 -466.844L69.3898 -414.391M-1.91086 -466.844V-677.76L-73.7728 -730.213M141.252 -571.75L213.114 -519.297L284.414 -466.844M141.252 -571.75L69.3898 -624.203M141.252 -571.75L213.114 -624.203M34.5816 -439.237L110.373 -495.002M284.414 -360.833V-466.844M284.414 -360.833L356.276 -413.286M284.414 -360.833L356.276 -308.38M284.414 -466.844L356.276 -519.297M284.414 62.1037L356.276 9.65071M284.414 62.1037V-255.375L356.276 -308.38M499.439 -308.38L427.577 -255.927M427.577 -255.927L356.276 -308.38M499.439 -414.391L427.577 -466.844M427.577 -466.844V-360.833M427.577 -466.844L356.276 -519.297M356.276 -413.286V-519.297M356.276 -413.286L427.577 -360.833M356.276 -308.38L427.577 -360.833M356.276 9.65071V-96.9116M141.252 -677.208L69.3898 -624.203M141.252 -677.208V-783.218M141.252 -677.208L213.114 -624.203M69.3898 -624.203V-730.765M69.3898 -730.765L141.252 -783.218M69.3898 -730.765L-1.91086 -678.312M141.252 -783.218L213.114 -730.765M141.252 -783.218L213.114 -835.671M213.114 -624.203V-730.765M213.114 -624.203L356.276 -518.744L495.509 -624.755M213.114 -624.203L356.276 -730.765M213.114 -730.765L284.414 -783.218M284.414 -783.218V-889.78L356.276 -942.233M284.414 -783.218L356.276 -835.671M284.414 -783.218V-889.228L356.276 -942.233M284.414 -783.218L356.276 -730.765M284.414 -783.218V-1100.7L356.276 -1153.7M-288.797 -888.124L-360.659 -835.671M-288.797 -888.124V-994.686M-288.797 -888.124L-216.935 -835.671M-360.659 -835.671L-431.96 -889.78L-288.797 -994.686M-360.659 -835.671L-288.797 -783.218M-360.659 -835.671L-431.96 -889.228L-288.797 -994.686M-360.659 -835.671L-288.797 -888.676M-288.797 -994.686L-145.073 -889.228M-288.797 -994.686V-888.676M-288.797 -994.686L-145.073 -889.78M-145.073 -889.228L-288.797 -783.218M-145.073 -889.228V-783.218M-145.073 -889.228L-73.7728 -942.233M-145.073 -889.228V-782.666L-73.7728 -835.119M-145.073 -889.228L-73.7728 -941.681M-288.797 -783.218L-145.073 -889.78M-216.935 -835.671L-288.797 -888.676M-216.935 -835.671L-145.073 -888.124M-360.659 9.65071L-431.96 -44.4586L-288.797 -149.365M539.861 -72.0655L466.315 -17.9561M499.439 -835.671L427.577 -889.228M499.439 -835.671L570.739 -888.676M539.861 -917.387L464.069 -862.173M539.861 -917.387L464.069 -861.621M539.861 -917.387L466.315 -863.278M642.601 -835.671L713.902 -888.124M642.601 -835.671L570.739 -888.676M499.439 -836.775V-730.765M499.439 -836.775L427.577 -889.228M356.276 -835.671V-942.233M356.276 -835.671L427.577 -783.218M356.276 -942.233L427.577 -889.228M356.276 -730.765L427.577 -783.218M427.577 -783.218V-889.228M-288.236 -254.271L-360.098 -201.818M-288.236 -254.271V-360.833M-288.236 -254.271L-216.935 -201.818M-360.098 -201.818V-307.828L-288.236 -360.833M-360.098 -201.818L-288.236 -149.365L-216.935 -201.818M-288.236 -360.833L-216.935 -308.38M-288.236 -360.833L-216.935 -413.286M-216.935 -201.818V-308.38M-216.935 -308.38L-145.073 -360.833M-288.236 -465.739L-360.098 -413.286V-519.297L-288.236 -571.75M-288.236 -465.739V-571.75M-288.236 -465.739L-216.935 -413.286M-288.236 -571.75L-360.098 -624.203M-288.236 -571.75L-216.935 -624.203M-216.935 -413.286V-624.203M-216.935 -624.203L-288.236 -677.208M-216.935 -624.203V-730.765L-145.073 -783.218M-241.077 -480.095L-261.288 -495.002M69.3898 -96.9116V9.65071M69.3898 -96.9116L-1.91086 -149.365M188.973 -57.7101L168.761 -72.6177M141.252 -888.124L69.3898 -835.671M141.252 -888.124V-994.686M141.252 -888.124L213.114 -835.671M69.3898 -835.671V-942.233M69.3898 -835.671V-941.681L141.252 -994.686M69.3898 -942.233L141.252 -994.686M69.3898 -942.233V-836.223L141.252 -888.676V-994.686M69.3898 -942.233L-1.91086 -994.686M141.252 -994.686L69.3898 -1047.14M141.252 -994.686L213.114 -1047.14M213.114 -835.671V-1047.14M213.114 -1047.14V-1153.7L284.414 -1206.15M213.114 -1047.14V-836.223M213.114 -1047.14L141.252 -1099.59M-145.073 -360.833L-96.2296 -324.392M-145.073 -360.833V-677.76L-73.7728 -730.213M-1.91086 -255.927V-149.365M-1.91086 -255.927L-73.7728 -308.38M69.3898 -414.391L-51.3159 -324.392M-1.91086 -149.365L-73.7728 -96.9116L-145.073 -149.365V-255.375L-73.7728 -308.38M-73.7728 -730.213L-96.2296 -713.648V-324.392M-73.7728 -730.213L-51.3159 -713.648V-324.392M-73.7728 -308.38L-51.3159 -324.392M-73.7728 -308.38L-96.2296 -324.392M-96.2296 -291.816V-168.69L-145.073 -204.026M-51.3159 -291.816V-168.137L-1.91086 -204.579M-73.7728 10.2029L-145.073 62.6559V-43.9066L-73.7728 -96.3596M-73.7728 10.2029V-96.3596M-73.7728 10.2029L-1.91086 62.6559V-43.9066L-73.7728 -96.3596M-288.236 -783.218V-677.208M-288.236 -677.208L-360.098 -624.203M-360.098 -624.203V-730.765M-145.073 -783.218V-889.78M-145.073 -783.218L-73.7728 -835.671M-145.073 -783.218L-73.7728 -730.765L-1.91086 -783.218M-1.91086 -889.78L69.3898 -836.775L-1.91086 -889.228M-1.91086 -889.78V-783.218M-1.91086 -889.78L-73.7728 -942.233M-73.7728 -835.671V-942.233M-73.7728 -835.671L-1.91086 -783.218M-73.7728 -942.233L-1.91086 -889.228M-73.7728 -942.233L-1.91086 -994.686M-73.7728 -942.233L-145.073 -994.686V-1100.7L-73.7728 -1153.7M-1.91086 -783.218V-889.228M-574 62.1037L-502.699 9.65071M-574 62.1037V-44.4586L-502.699 -96.9116M-574 62.1037V-255.375L-502.699 -308.38M-287.674 -254.271L-359.536 -201.818M-287.674 -254.271V-360.833M-287.674 -254.271L-216.374 -201.818M-359.536 -201.818V-307.828L-287.674 -360.833M-359.536 -201.818L-287.674 -149.365L-216.374 -201.818M-287.674 -360.833L-216.374 -308.38V-201.818M-359.536 -308.38L-430.837 -255.927M-430.837 -255.927V-44.4586M-430.837 -255.927L-502.699 -308.38M-359.536 -414.391L-430.837 -466.844M-430.837 -466.844V-360.833M-430.837 -466.844L-502.699 -519.297M-502.699 -413.286L-574 -360.833M-502.699 -413.286V-519.297M-502.699 -413.286L-430.837 -360.833M-574 -360.833V-466.844L-502.699 -519.297M-574 -360.833L-502.699 -308.38M-502.699 -308.38L-430.837 -360.833M-502.699 9.65071V-96.9116M-502.699 9.65071L-430.837 62.1037V-44.4586M-502.699 -96.9116L-430.837 -44.4586M-574 -783.218L-502.699 -730.765M-574 -783.218L-502.699 -835.671M-574 -783.218V-889.78L-502.699 -942.233M-574 -783.218V-1100.7L-502.699 -1153.7M-502.699 -730.765L-430.837 -783.218M-502.699 -730.765L-430.837 -678.312L-359.536 -624.203M-430.837 -783.218L-502.699 -835.671M-430.837 -783.218V-889.78M-363.466 -624.755L-502.699 -518.744M857.626 -889.228V-782.666L785.764 -835.119M857.626 -889.228L785.764 -941.681M-1.91086 -889.228V-782.666L-73.7728 -835.119M-1.91086 -889.228L-73.7728 -941.681M928.926 -1153.7V-1047.14M928.926 -1153.7L857.626 -1101.25M928.926 -1153.7V-1259.71M928.926 -1047.14L1000.79 -1099.59M1000.79 -1311.06L928.926 -1258.61L857.626 -1312.16M1000.79 -1311.06V-1417.07M1000.79 -1311.06L1072.09 -1258.61L1143.95 -1206.15M1000.79 -1311.06V-1099.59M857.626 -1312.16L1000.79 -1417.07M857.626 -1312.16L928.926 -1259.71M857.626 -1312.16V-1523.08L785.764 -1575.53M1000.79 -1417.07L1072.09 -1364.62L1143.95 -1312.16M1000.79 -1417.07L928.926 -1469.52M1000.79 -1417.07L1072.09 -1469.52M894.118 -1284.56L969.91 -1340.32M1143.95 -1206.15V-1312.16M1143.95 -1206.15L1215.25 -1258.61M1143.95 -1206.15L1215.25 -1153.7M1143.95 -1312.16L1215.25 -1364.62M1358.41 -1047.14L1430.28 -1099.59V-1206.15L1358.41 -1153.15V-1047.14ZM1358.41 -1153.7L1287.11 -1101.25M1287.11 -1101.25L1215.25 -1153.7M1358.41 -1259.71L1287.11 -1312.16M1287.11 -1312.16V-1206.15M1287.11 -1312.16L1215.25 -1364.62M1215.25 -1258.61V-1364.62M1215.25 -1258.61L1287.11 -1206.15M1215.25 -1153.7L1287.11 -1206.15M1000.79 -1522.53L928.926 -1469.52M1000.79 -1522.53V-1628.54M1000.79 -1522.53L1072.09 -1469.52M928.926 -1469.52V-1576.09M928.926 -1576.09L1000.79 -1628.54M928.926 -1576.09L857.626 -1523.63M1000.79 -1628.54L1072.09 -1576.09M1000.79 -1628.54L1072.09 -1680.99M1072.09 -1469.52V-1576.09M1072.09 -1469.52L1215.25 -1364.07L1354.48 -1470.08M1072.09 -1469.52L1215.25 -1576.09M1072.09 -1576.09L1143.95 -1628.54M1143.95 -1628.54V-1735.1M1143.95 -1628.54L1215.25 -1680.99M1143.95 -1628.54V-1734.55M1143.95 -1628.54L1215.25 -1576.09M1430.28 -1522.53L1358.41 -1469.52M1358.41 -1469.52L1430.28 -1417.07M1358.41 -1469.52L1287.11 -1523.63L1215.25 -1576.09M1358.41 -1469.52V-1682.1L1287.11 -1735.1M1430.28 -1417.07L1502.14 -1469.52M1430.28 -1417.07L1358.41 -1364.62V-1258.61L1430.28 -1311.06V-1417.07ZM570.739 -1733.45L498.877 -1680.99M570.739 -1733.45V-1840.01M570.739 -1733.45L642.04 -1680.99M570.739 -1733.45L499.439 -1680.99M570.739 -1733.45L642.601 -1680.99M570.739 -1733.45L498.877 -1680.44M570.739 -1733.45V-1839.46M570.739 -1733.45L642.04 -1680.44L570.739 -1732.89M570.739 -1733.45L499.439 -1680.44M570.739 -1733.45L642.601 -1680.44M498.877 -1680.99L427.577 -1735.1M498.877 -1680.99L570.739 -1628.54M427.577 -1735.1L570.739 -1840.01M427.577 -1735.1L499.439 -1680.99M427.577 -1735.1L499.439 -1682.1V-1469.52M427.577 -1735.1V-1628.54M427.577 -1735.1L356.276 -1787.55M570.739 -1840.01L713.902 -1734.55M570.739 -1840.01L714.463 -1734.55M713.902 -1734.55L570.739 -1628.54M713.902 -1734.55V-1628.54M713.902 -1734.55L785.764 -1787.55M713.902 -1734.55L570.739 -1627.99M713.902 -1734.55L570.739 -1839.46M570.739 -1628.54V-1522.53M570.739 -1628.54L714.463 -1734.55M570.739 -1628.54L499.439 -1680.99M1430.28 -1733.45L1358.41 -1680.99M1430.28 -1733.45V-1840.01L1287.11 -1735.1M1430.28 -1733.45L1358.41 -1680.44M1430.28 -1733.45V-1839.46M1358.41 -1680.99L1287.11 -1735.1M1358.41 -1680.99L1430.28 -1628.54L1574 -1734.55L1430.28 -1627.99M1287.11 -1735.1V-1628.54M1287.11 -1735.1L1215.25 -1787.55M1399.4 -1762.71L1323.61 -1707.5M1215.25 -1680.99V-1787.55M1215.25 -1680.99L1287.11 -1628.54M1143.95 -1734.55L1215.25 -1787.55M1143.95 -1734.55V-1627.99M1143.95 -1734.55L1215.25 -1787M1215.25 -1576.09L1287.11 -1628.54M570.739 -1099.59L499.439 -1047.14M570.739 -1099.59V-1206.15M570.739 -1099.59L642.601 -1047.14M499.439 -1047.14V-1153.15L570.739 -1206.15M570.739 -1206.15L642.601 -1153.7M570.739 -1206.15L642.601 -1258.61M642.601 -1047.14V-1153.7M642.601 -1153.7L713.902 -1206.15M570.739 -1311.06L499.439 -1258.61V-1364.62L570.739 -1417.07M570.739 -1311.06V-1417.07M570.739 -1311.06L642.601 -1258.61M570.739 -1417.07L499.439 -1469.52M570.739 -1417.07L642.601 -1469.52M642.601 -1258.61V-1469.52M642.601 -1469.52L570.739 -1522.53M642.601 -1469.52V-1576.09L713.902 -1628.54M618.46 -1325.42L598.249 -1340.32M1047.95 -903.032L1027.74 -917.939M1000.79 -1733.45L928.926 -1680.99M1000.79 -1733.45V-1840.01L928.926 -1787.55V-1680.99M1000.79 -1733.45L1072.09 -1680.99M1000.79 -1733.45V-1839.46M928.926 -1680.99V-1787M1072.09 -1680.99V-1892.46M1072.09 -1680.99V-1891.91M713.902 -1206.15L763.307 -1169.71M713.902 -1206.15V-1523.08L785.764 -1575.53M857.626 -1101.25V-994.686M857.626 -1101.25L785.764 -1153.7M928.926 -1259.71L808.221 -1169.71M785.764 -1575.53L763.307 -1558.97V-1169.71M785.764 -1575.53L808.221 -1558.97V-1169.71M785.764 -1153.7L808.221 -1169.71M785.764 -1153.7L763.307 -1169.71M763.307 -1137.14V-1014.01L714.463 -1049.35M808.221 -1137.14V-1013.46L857.626 -1049.9M785.764 -835.119V-941.681M570.739 -1522.53L499.439 -1469.52M499.439 -1469.52L428.138 -1523.63L356.276 -1576.09M713.902 -1628.54V-1735.1M713.902 -1628.54L785.764 -1680.99M713.902 -1628.54L785.764 -1576.09L857.626 -1628.54M928.926 -1682.1L857.626 -1735.1M857.626 -1735.1V-1628.54M857.626 -1735.1L785.764 -1787.55M785.764 -1680.99V-1787.55M785.764 -1680.99L857.626 -1628.54M69.3898 -1153.7V-1047.14M69.3898 -1153.7L-1.91086 -1101.25M69.3898 -1153.7V-1259.71M69.3898 -1047.14L141.252 -1099.59M141.252 -1311.06L69.3898 -1258.61L-1.91086 -1312.16M141.252 -1311.06V-1417.07M141.252 -1311.06L213.114 -1258.61L284.414 -1206.15M141.252 -1311.06V-1099.59M-1.91086 -1312.16L141.252 -1417.07M-1.91086 -1312.16L69.3898 -1259.71M-1.91086 -1312.16V-1523.08L-73.7728 -1575.53M141.252 -1417.07L213.114 -1364.62L284.414 -1312.16M141.252 -1417.07L69.3898 -1469.52M141.252 -1417.07L213.114 -1469.52M34.5816 -1284.56L110.373 -1340.32M284.414 -1206.15V-1312.16M284.414 -1206.15L356.276 -1258.61M284.414 -1206.15L356.276 -1153.7M284.414 -1312.16L356.276 -1364.62M499.439 -1153.7L427.577 -1101.25M427.577 -1101.25L356.276 -1153.7M499.439 -1259.71L427.577 -1312.16M427.577 -1312.16V-1206.15M427.577 -1312.16L356.276 -1364.62M356.276 -1258.61V-1364.62M356.276 -1258.61L427.577 -1206.15M356.276 -1153.7L427.577 -1206.15M141.252 -1522.53L69.3898 -1469.52M141.252 -1522.53V-1628.54M141.252 -1522.53L213.114 -1469.52M69.3898 -1469.52V-1576.09M69.3898 -1576.09L141.252 -1628.54M69.3898 -1576.09L-1.91086 -1523.63M141.252 -1628.54L213.114 -1576.09M141.252 -1628.54L213.114 -1680.99M213.114 -1469.52V-1576.09M213.114 -1469.52L356.276 -1364.07L495.509 -1470.08M213.114 -1469.52L356.276 -1576.09M213.114 -1576.09L284.414 -1628.54M284.414 -1628.54V-1735.1M284.414 -1628.54L356.276 -1680.99M284.414 -1628.54V-1734.55M284.414 -1628.54L356.276 -1576.09M-288.797 -1733.45L-360.659 -1680.99M-288.797 -1733.45V-1840.01M-288.797 -1733.45L-216.935 -1680.99M-288.797 -1733.45L-360.659 -1680.44M-288.797 -1733.45V-1839.46M-288.797 -1733.45L-216.935 -1680.44M-360.659 -1680.99L-431.96 -1735.1L-288.797 -1840.01M-360.659 -1680.99L-288.797 -1628.54L-145.073 -1734.55M-288.797 -1840.01L-145.073 -1734.55M-145.073 -1734.55V-1628.54M-145.073 -1734.55L-73.7728 -1787.55M-145.073 -1734.55L-288.797 -1627.99M-145.073 -1734.55L-288.797 -1839.46M539.861 -1762.71L464.069 -1707.5M714.463 -1734.55L570.739 -1627.99M714.463 -1734.55L570.739 -1839.46M356.276 -1680.99V-1787.55M356.276 -1680.99L427.577 -1628.54M284.414 -1734.55L356.276 -1787.55M284.414 -1734.55V-1627.99M284.414 -1734.55L356.276 -1787M356.276 -1576.09L427.577 -1628.54M-288.236 -1099.59L-360.098 -1047.14M-288.236 -1099.59V-1206.15M-288.236 -1099.59L-216.935 -1047.14M-360.098 -1047.14V-1153.15L-288.236 -1206.15M-360.098 -1047.14L-288.236 -994.686L-216.935 -1047.14M-288.236 -1206.15L-216.935 -1153.7M-288.236 -1206.15L-216.935 -1258.61M-216.935 -1047.14V-1153.7M-216.935 -1153.7L-145.073 -1206.15M-288.236 -1311.06L-360.098 -1258.61V-1364.62L-288.236 -1417.07M-288.236 -1311.06V-1417.07M-288.236 -1311.06L-216.935 -1258.61M-288.236 -1417.07L-360.098 -1469.52M-288.236 -1417.07L-216.935 -1469.52M-216.935 -1258.61V-1469.52M-216.935 -1469.52L-288.236 -1522.53M-216.935 -1469.52V-1576.09L-145.073 -1628.54M-241.077 -1325.42L-261.288 -1340.32M188.973 -903.032L168.761 -917.939M141.252 -1733.45L69.3898 -1680.99M141.252 -1733.45V-1840.01L69.3898 -1787.55V-1680.99M141.252 -1733.45L213.114 -1680.99M141.252 -1733.45V-1839.46M69.3898 -1680.99V-1787M213.114 -1680.99V-1892.46M213.114 -1680.99V-1891.91M-145.073 -1206.15L-96.2296 -1169.71M-145.073 -1206.15V-1523.08L-73.7728 -1575.53M-1.91086 -1101.25V-994.686M-1.91086 -1101.25L-73.7728 -1153.7M69.3898 -1259.71L-51.3159 -1169.71M-73.7728 -1575.53L-96.2296 -1558.97V-1169.71M-73.7728 -1575.53L-51.3159 -1558.97V-1169.71M-73.7728 -1153.7L-51.3159 -1169.71M-73.7728 -1153.7L-96.2296 -1169.71M-96.2296 -1137.14V-1014.01L-145.073 -1049.35M-51.3159 -1137.14V-1013.46L-1.91086 -1049.9M-73.7728 -835.119V-941.681M-288.236 -1628.54V-1522.53M-288.236 -1522.53L-360.098 -1469.52M-360.098 -1469.52V-1576.09M-145.073 -1628.54V-1735.1M-145.073 -1628.54L-73.7728 -1680.99M-145.073 -1628.54L-73.7728 -1576.09L-1.91086 -1628.54M69.3898 -1682.1L-1.91086 -1735.1M-1.91086 -1735.1V-1628.54M-1.91086 -1735.1L-73.7728 -1787.55M-73.7728 -1680.99V-1787.55M-73.7728 -1680.99L-1.91086 -1628.54M-287.674 -1099.59L-359.536 -1047.14M-287.674 -1099.59V-1206.15M-287.674 -1099.59L-216.374 -1047.14M-359.536 -1047.14V-1153.15L-287.674 -1206.15M-359.536 -1047.14L-287.674 -994.686L-216.374 -1047.14M-287.674 -1206.15L-216.374 -1153.7V-1047.14M-359.536 -1153.7L-430.837 -1101.25M-430.837 -1101.25V-889.78M-430.837 -1101.25L-502.699 -1153.7M-359.536 -1259.71L-430.837 -1312.16M-430.837 -1312.16V-1206.15M-430.837 -1312.16L-502.699 -1364.62M-502.699 -1258.61L-574 -1206.15M-502.699 -1258.61V-1364.62M-502.699 -1258.61L-430.837 -1206.15M-574 -1206.15V-1312.16L-502.699 -1364.62M-574 -1206.15L-502.699 -1153.7M-502.699 -1153.7L-430.837 -1206.15M-502.699 -835.671V-942.233M-502.699 -942.233L-430.837 -889.78M-574 -1628.54L-502.699 -1576.09M-502.699 -1576.09L-430.837 -1628.54M-502.699 -1576.09L-430.837 -1523.63L-359.536 -1469.52M-363.466 -1470.08L-502.699 -1364.07M928.926 -1998.47V-1891.91M928.926 -1998.47L857.626 -1946.02M928.926 -1998.47V-2104.48M928.926 -1891.91L1000.79 -1839.46M928.926 -1891.91L1000.79 -1944.36M1000.79 -1839.46L1072.09 -1891.91M1000.79 -1839.46L928.926 -1787M1000.79 -1839.46L928.926 -1786.45V-1680.44M1000.79 -1839.46V-1732.89M1072.09 -1891.91V-1998.47L1143.95 -2050.92M1072.09 -1891.91L1000.79 -1944.36M1072.09 -1891.91V-1680.44L1000.79 -1732.89M1000.79 -2155.83L928.926 -2103.38L857.626 -2156.93M1000.79 -2155.83V-2261.84M1000.79 -2155.83L1072.09 -2103.38L1143.95 -2050.92M1000.79 -2155.83V-1944.36M857.626 -2156.93L1000.79 -2261.84M857.626 -2156.93L928.926 -2104.48M857.626 -2156.93V-2367.85L785.764 -2420.3M1000.79 -2261.84L1072.09 -2209.39L1143.95 -2156.93M1000.79 -2261.84L928.926 -2314.29M1000.79 -2261.84L1072.09 -2314.29M894.118 -2129.33L969.91 -2185.09M1143.95 -2050.92V-2156.93M1143.95 -2050.92L1215.25 -2103.38M1143.95 -2050.92L1215.25 -1998.47M1143.95 -2156.93L1215.25 -2209.39M1143.95 -1627.99L1215.25 -1680.44M1143.95 -1627.99V-1945.47L1215.25 -1998.47M1143.95 -1627.99V-1734L1215.25 -1787M1358.41 -1891.91L1430.28 -1944.36V-2050.92L1358.41 -1997.92V-1891.91ZM1358.41 -1891.91L1430.28 -1839.46M1430.28 -1839.46L1502.14 -1891.91M1430.28 -1839.46L1287.11 -1734.55M1430.28 -1839.46L1287.11 -1734M1430.28 -1839.46V-1732.89L1358.41 -1680.44M1358.41 -1998.47L1287.11 -1946.02M1287.11 -1946.02V-1734.55M1287.11 -1946.02L1215.25 -1998.47M1358.41 -2104.48L1287.11 -2156.93M1287.11 -2156.93V-2050.92M1287.11 -2156.93L1215.25 -2209.39M1215.25 -2103.38V-2209.39M1215.25 -2103.38L1287.11 -2050.92M1215.25 -1998.47L1287.11 -2050.92M1215.25 -1680.44V-1787M1215.25 -1680.44L1287.11 -1627.99M1215.25 -1787L1287.11 -1734.55M1215.25 -1787L1287.11 -1734M1287.11 -1627.99V-1734.55M1287.11 -1627.99V-1734M1287.11 -1734.55L1358.41 -1680.44M1000.79 -2367.3L928.926 -2314.29M1000.79 -2367.3V-2473.31M1000.79 -2367.3L1072.09 -2314.29M928.926 -2314.29V-2420.86M928.926 -2420.86L1000.79 -2473.31M928.926 -2420.86L857.626 -2368.4M1000.79 -2473.31L1072.09 -2420.86M1000.79 -2473.31L1072.09 -2525.76M1072.09 -2314.29V-2420.86M1072.09 -2314.29L1215.25 -2208.84L1354.48 -2314.85M1072.09 -2314.29L1215.25 -2420.86M1072.09 -2420.86L1143.95 -2473.31M1143.95 -2473.31V-2579.87M1143.95 -2473.31L1215.25 -2525.76M1143.95 -2473.31V-2579.32M1143.95 -2473.31L1215.25 -2420.86M1430.28 -2367.3L1358.41 -2314.29M1358.41 -2314.29L1430.28 -2261.84M1358.41 -2314.29L1287.11 -2368.4L1215.25 -2420.86M1358.41 -2314.29V-2526.87L1287.11 -2579.87M1430.28 -2261.84L1502.14 -2314.29M1430.28 -2261.84L1358.41 -2209.39V-2103.38L1430.28 -2155.83V-2261.84ZM570.739 -2578.22L498.877 -2525.76M570.739 -2578.22V-2684.78M570.739 -2578.22L642.04 -2525.76M570.739 -2578.22L499.439 -2525.76M570.739 -2578.22L642.601 -2525.76M570.739 -2578.22L498.877 -2525.21M570.739 -2578.22V-2684.23M570.739 -2578.22L642.04 -2525.21M570.739 -2578.22L499.439 -2525.21M570.739 -2578.22L642.601 -2525.21L713.902 -2577.66M498.877 -2525.76L427.577 -2579.87M498.877 -2525.76L570.739 -2473.31M427.577 -2579.87L570.739 -2684.78M427.577 -2579.87L499.439 -2525.76M427.577 -2579.87L499.439 -2526.87V-2314.29M427.577 -2579.87V-2473.31M427.577 -2579.87L356.276 -2632.32M570.739 -2684.78L713.902 -2579.32M570.739 -2684.78L714.463 -2579.32M713.902 -2579.32L570.739 -2473.31M713.902 -2579.32V-2473.31M713.902 -2579.32L785.764 -2632.32M713.902 -2579.32L570.739 -2472.76M713.902 -2579.32L570.739 -2684.23M570.739 -2473.31V-2367.3M570.739 -2473.31L714.463 -2579.32M570.739 -2473.31L499.439 -2525.76M498.877 -1680.44L427.577 -1734.55M498.877 -1680.44L570.739 -1627.99M498.877 -1680.44L570.739 -1732.89M498.877 -1680.44L427.577 -1734M427.577 -1734.55L570.739 -1839.46M427.577 -1734.55V-1627.99M427.577 -1734.55L356.276 -1787M427.577 -1734.55L499.439 -1680.44M427.577 -1734.55V-1946.02M570.739 -1839.46L499.439 -1891.91M570.739 -1839.46L642.601 -1891.91M570.739 -1839.46L427.577 -1734M570.739 -1839.46V-1732.89M570.739 -1839.46L713.902 -1734M570.739 -1839.46L714.463 -1734L570.739 -1627.99M570.739 -1627.99L499.439 -1680.44M570.739 -1627.99L713.902 -1734M1358.41 -1680.44L1430.28 -1627.99M1358.41 -1680.44L1287.11 -1734M1325.29 -1708.05L1399.4 -1762.16L1323.61 -1706.39M1430.28 -1627.99L1574 -1734M1430.28 -2578.22L1358.41 -2525.76M1430.28 -2578.22V-2684.78L1287.11 -2579.87M1430.28 -2578.22L1358.41 -2525.21M1430.28 -2578.22V-2684.23M1358.41 -2525.76L1287.11 -2579.87M1358.41 -2525.76L1430.28 -2473.31L1574 -2579.32L1430.28 -2472.76L1358.41 -2525.21M1287.11 -2579.87V-2473.31M1287.11 -2579.87L1215.25 -2632.32M1399.4 -2607.48L1323.61 -2552.26M1215.25 -2525.76V-2632.32M1215.25 -2525.76L1287.11 -2473.31M1143.95 -2579.32L1215.25 -2632.32M1143.95 -2579.32V-2472.76M1143.95 -2579.32L1215.25 -2631.77M1215.25 -2420.86L1287.11 -2473.31M570.739 -1944.36L499.439 -1891.91M570.739 -1944.36V-2050.92M570.739 -1944.36L642.601 -1891.91M499.439 -1891.91V-1997.92L570.739 -2050.92M570.739 -2050.92L642.601 -1998.47M570.739 -2050.92L642.601 -2103.38M642.601 -1891.91V-1998.47M642.601 -1998.47L713.902 -2050.92M570.739 -2155.83L499.439 -2103.38V-2209.39L570.739 -2261.84M570.739 -2155.83V-2261.84M570.739 -2155.83L642.601 -2103.38M570.739 -2261.84L499.439 -2314.29M570.739 -2261.84L642.601 -2314.29M642.601 -2103.38V-2314.29M642.601 -2314.29L570.739 -2367.3M642.601 -2314.29V-2420.86L713.902 -2473.31M618.46 -2170.19L598.249 -2185.09M928.926 -1787V-1680.44M928.926 -1787L857.626 -1839.46M1047.95 -1747.8L1027.74 -1762.71M1000.79 -2578.22L928.926 -2525.76M1000.79 -2578.22V-2684.78L928.926 -2632.32V-2525.76M1000.79 -2578.22L1072.09 -2525.76M1000.79 -2578.22V-2684.23M928.926 -2525.76V-2631.77M1072.09 -2525.76V-2737.23M1072.09 -2525.76V-2736.68M713.902 -2050.92L763.307 -2014.48M713.902 -2050.92V-2367.85L785.764 -2420.3M713.902 -1732.89L642.601 -1680.44M642.601 -1680.44L570.739 -1732.89M857.626 -1946.02V-1839.46M857.626 -1946.02L785.764 -1998.47M928.926 -2104.48L808.221 -2014.48M928.926 -1680.44L1000.79 -1732.89M857.626 -1839.46L785.764 -1787M785.764 -2420.3L763.307 -2403.74V-2014.48M785.764 -2420.3L808.221 -2403.74V-2014.48M785.764 -1998.47L713.902 -1945.47V-1839.46L785.764 -1787M785.764 -1998.47L808.221 -2014.48M785.764 -1998.47L763.307 -2014.48M785.764 -1787L713.902 -1734M785.764 -1787V-1680.44M785.764 -1787L857.626 -1734M763.307 -1981.91V-1858.78L714.463 -1894.12M808.221 -1981.91V-1858.23L857.626 -1894.67M785.764 -1679.89L713.902 -1627.44V-1734M785.764 -1679.89V-1786.45M785.764 -1679.89L857.626 -1627.44V-1734M713.902 -1734L785.764 -1786.45M713.902 -1734V-1627.99L785.764 -1680.44M785.764 -1786.45L857.626 -1734M857.626 -1734L928.926 -1681.54M857.626 -1734V-1627.99L785.764 -1680.44M570.739 -2367.3L499.439 -2314.29M499.439 -2314.29L428.138 -2368.4L356.276 -2420.86M713.902 -2473.31V-2579.87M713.902 -2473.31L785.764 -2525.76M713.902 -2473.31L785.764 -2420.86L857.626 -2473.31M928.926 -2526.87L857.626 -2579.87M857.626 -2579.87V-2473.31M857.626 -2579.87L785.764 -2632.32M785.764 -2525.76V-2632.32M785.764 -2525.76L857.626 -2473.31M69.3898 -1998.47V-1891.91M69.3898 -1998.47L-1.91086 -1946.02M69.3898 -1998.47V-2104.48M69.3898 -1891.91L141.252 -1839.46M69.3898 -1891.91L141.252 -1944.36M141.252 -1839.46L213.114 -1891.91M141.252 -1839.46L69.3898 -1787M141.252 -1839.46L69.3898 -1786.45V-1680.44M141.252 -1839.46V-1732.89M213.114 -1891.91V-1998.47L284.414 -2050.92M213.114 -1891.91L141.252 -1944.36M213.114 -1891.91V-1680.44L141.252 -1732.89M141.252 -2155.83L69.3898 -2103.38L-1.91086 -2156.93M141.252 -2155.83V-2261.84M141.252 -2155.83L213.114 -2103.38L284.414 -2050.92M141.252 -2155.83V-1944.36M-1.91086 -2156.93L141.252 -2261.84M-1.91086 -2156.93L69.3898 -2104.48M-1.91086 -2156.93V-2367.85L-73.7728 -2420.3M141.252 -2261.84L213.114 -2209.39L284.414 -2156.93M141.252 -2261.84L69.3898 -2314.29M141.252 -2261.84L213.114 -2314.29M34.5816 -2129.33L110.373 -2185.09M284.414 -2050.92V-2156.93M284.414 -2050.92L356.276 -2103.38M284.414 -2050.92L356.276 -1998.47M284.414 -2156.93L356.276 -2209.39M284.414 -1627.99L356.276 -1680.44M284.414 -1627.99V-1945.47L356.276 -1998.47M284.414 -1627.99V-1734L356.276 -1787M499.439 -1998.47L427.577 -1946.02M427.577 -1946.02L356.276 -1998.47M499.439 -2104.48L427.577 -2156.93M427.577 -2156.93V-2050.92M427.577 -2156.93L356.276 -2209.39M356.276 -2103.38V-2209.39M356.276 -2103.38L427.577 -2050.92M356.276 -1998.47L427.577 -2050.92M356.276 -1680.44V-1787M356.276 -1680.44L427.577 -1627.99M356.276 -1787L427.577 -1734M427.577 -1627.99V-1734M141.252 -2367.3L69.3898 -2314.29M141.252 -2367.3V-2473.31M141.252 -2367.3L213.114 -2314.29M69.3898 -2314.29V-2420.86M69.3898 -2420.86L141.252 -2473.31M69.3898 -2420.86L-1.91086 -2368.4M141.252 -2473.31L213.114 -2420.86M141.252 -2473.31L213.114 -2525.76M213.114 -2314.29V-2420.86M213.114 -2314.29L356.276 -2208.84L495.509 -2314.85M213.114 -2314.29L356.276 -2420.86M213.114 -2420.86L284.414 -2473.31M284.414 -2473.31V-2579.87M284.414 -2473.31L356.276 -2525.76M284.414 -2473.31V-2579.32M284.414 -2473.31L356.276 -2420.86M-288.797 -2578.22L-360.659 -2525.76M-288.797 -2578.22V-2684.78M-288.797 -2578.22L-216.935 -2525.76M-288.797 -2578.22L-360.659 -2525.21M-288.797 -2578.22V-2684.23M-288.797 -2578.22L-216.935 -2525.21L-145.073 -2577.66M-360.659 -2525.76L-431.96 -2579.87L-288.797 -2684.78M-360.659 -2525.76L-288.797 -2473.31L-145.073 -2579.32M-288.797 -2684.78L-145.073 -2579.32M-145.073 -2579.32V-2473.31M-145.073 -2579.32L-73.7728 -2632.32M-145.073 -2579.32L-288.797 -2472.76L-360.659 -2525.21M-145.073 -2579.32L-288.797 -2684.23M-360.659 -1680.44L-431.96 -1734.55L-288.797 -1839.46M-360.659 -1680.44L-288.797 -1627.99M-360.659 -1680.44L-288.797 -1732.89M-360.659 -1680.44L-431.96 -1734L-288.797 -1839.46M-288.797 -1839.46V-1732.89M-288.797 -1839.46L-145.073 -1734M-288.797 -1627.99L-145.073 -1734M-216.935 -1680.44L-145.073 -1732.89M-216.935 -1680.44L-288.797 -1732.89M499.439 -1680.44L570.739 -1732.89M499.439 -1680.44L427.577 -1734M466.315 -1708.05L539.861 -1762.16L464.069 -1706.39M539.861 -2607.48L464.069 -2552.26M714.463 -2579.32L570.739 -2472.76M714.463 -2579.32L570.739 -2684.23M356.276 -2525.76V-2632.32M356.276 -2525.76L427.577 -2473.31M284.414 -2579.32L356.276 -2632.32M284.414 -2579.32V-2472.76M284.414 -2579.32L356.276 -2631.77M356.276 -2420.86L427.577 -2473.31M-288.236 -1944.36L-360.098 -1891.91M-288.236 -1944.36V-2050.92M-288.236 -1944.36L-216.935 -1891.91M-360.098 -1891.91V-1997.92L-288.236 -2050.92M-360.098 -1891.91L-288.236 -1839.46L-216.935 -1891.91M-288.236 -2050.92L-216.935 -1998.47M-288.236 -2050.92L-216.935 -2103.38M-216.935 -1891.91V-1998.47M-216.935 -1998.47L-145.073 -2050.92M-288.236 -2155.83L-360.098 -2103.38V-2209.39L-288.236 -2261.84M-288.236 -2155.83V-2261.84M-288.236 -2155.83L-216.935 -2103.38M-288.236 -2261.84L-360.098 -2314.29M-288.236 -2261.84L-216.935 -2314.29M-216.935 -2103.38V-2314.29M-216.935 -2314.29L-288.236 -2367.3M-216.935 -2314.29V-2420.86L-145.073 -2473.31M-241.077 -2170.19L-261.288 -2185.09M69.3898 -1787V-1680.44M69.3898 -1787L-1.91086 -1839.46M188.973 -1747.8L168.761 -1762.71M141.252 -2578.22L69.3898 -2525.76M141.252 -2578.22V-2684.78L69.3898 -2632.32V-2525.76M141.252 -2578.22L213.114 -2525.76M141.252 -2578.22V-2684.23M69.3898 -2525.76V-2631.77M213.114 -2525.76V-2737.23M213.114 -2525.76V-2736.68M-145.073 -2050.92L-96.2296 -2014.48M-145.073 -2050.92V-2367.85L-73.7728 -2420.3M-1.91086 -1946.02V-1839.46M-1.91086 -1946.02L-73.7728 -1998.47M69.3898 -2104.48L-51.3159 -2014.48M69.3898 -1680.44L141.252 -1732.89M-1.91086 -1839.46L-73.7728 -1787M-73.7728 -2420.3L-96.2296 -2403.74V-2014.48M-73.7728 -2420.3L-51.3159 -2403.74V-2014.48M-73.7728 -1998.47L-145.073 -1945.47V-1839.46L-73.7728 -1787M-73.7728 -1998.47L-51.3159 -2014.48M-73.7728 -1998.47L-96.2296 -2014.48M-73.7728 -1787L-145.073 -1734M-73.7728 -1787V-1680.44M-73.7728 -1787L-1.91086 -1734M-96.2296 -1981.91V-1858.78L-145.073 -1894.12M-51.3159 -1981.91V-1858.23L-1.91086 -1894.67M-73.7728 -1679.89L-145.073 -1627.44V-1734M-73.7728 -1679.89V-1786.45M-73.7728 -1679.89L-1.91086 -1627.44V-1734M-145.073 -1734L-73.7728 -1786.45M-145.073 -1734V-1627.99L-73.7728 -1680.44M-73.7728 -1786.45L-1.91086 -1734M-1.91086 -1734L69.3898 -1681.54M-1.91086 -1734V-1627.99L-73.7728 -1680.44M-288.236 -2473.31V-2367.3M-288.236 -2367.3L-360.098 -2314.29M-360.098 -2314.29V-2420.86M-145.073 -2473.31V-2579.87M-145.073 -2473.31L-73.7728 -2525.76M-145.073 -2473.31L-73.7728 -2420.86L-1.91086 -2473.31M69.3898 -2526.87L-1.91086 -2579.87M-1.91086 -2579.87V-2473.31M-1.91086 -2579.87L-73.7728 -2632.32M-73.7728 -2525.76V-2632.32M-73.7728 -2525.76L-1.91086 -2473.31M-574 -1627.99L-502.699 -1680.44M-574 -1627.99V-1734.55L-502.699 -1787M-574 -1627.99V-1945.47L-502.699 -1998.47M-287.674 -1944.36L-359.536 -1891.91M-287.674 -1944.36V-2050.92M-287.674 -1944.36L-216.374 -1891.91M-359.536 -1891.91V-1997.92L-287.674 -2050.92M-359.536 -1891.91L-287.674 -1839.46L-216.374 -1891.91M-287.674 -2050.92L-216.374 -1998.47V-1891.91M-359.536 -1998.47L-430.837 -1946.02M-430.837 -1946.02V-1734.55M-430.837 -1946.02L-502.699 -1998.47M-359.536 -2104.48L-430.837 -2156.93M-430.837 -2156.93V-2050.92M-430.837 -2156.93L-502.699 -2209.39M-502.699 -2103.38L-574 -2050.92M-502.699 -2103.38V-2209.39M-502.699 -2103.38L-430.837 -2050.92M-574 -2050.92V-2156.93L-502.699 -2209.39M-574 -2050.92L-502.699 -1998.47M-502.699 -1998.47L-430.837 -2050.92M-502.699 -1680.44V-1787M-502.699 -1680.44L-430.837 -1627.99V-1734.55M-502.699 -1787L-430.837 -1734.55M-574 -2473.31L-502.699 -2420.86M-502.699 -2420.86L-430.837 -2473.31M-502.699 -2420.86L-430.837 -2368.4L-359.536 -2314.29M-363.466 -2314.85L-502.699 -2208.84M427.577 -1734L499.439 -1681.54V-1575.53M1287.11 -1734L1358.41 -1681.54V-1575.53M928.926 -2843.24V-2736.68M928.926 -2843.24L857.626 -2790.79M928.926 -2843.24V-2949.25M928.926 -2736.68L1000.79 -2684.23M928.926 -2736.68L1000.79 -2789.13M1000.79 -2684.23L1072.09 -2736.68M1000.79 -2684.23L928.926 -2631.77M1072.09 -2736.68V-2843.24L1143.95 -2895.69M1072.09 -2736.68L1000.79 -2789.13M1000.79 -3000.6L928.926 -2948.15L857.626 -3001.7M1000.79 -3000.6V-3106.61M1000.79 -3000.6L1072.09 -2948.15L1143.95 -2895.69M1000.79 -3000.6V-2789.13M857.626 -3001.7L1000.79 -3106.61M857.626 -3001.7L928.926 -2949.25M857.626 -3001.7V-3212.62L785.764 -3265.07M1000.79 -3106.61L1072.09 -3054.16L1143.95 -3001.7M1000.79 -3106.61L928.926 -3159.06M1000.79 -3106.61L1072.09 -3159.06M894.118 -2974.1L969.91 -3029.86M1143.95 -2895.69V-3001.7M1143.95 -2895.69L1215.25 -2948.15M1143.95 -2895.69L1215.25 -2843.24M1143.95 -3001.7L1215.25 -3054.16M1143.95 -2472.76L1215.25 -2525.21M1143.95 -2472.76V-2790.24L1215.25 -2843.24M1358.41 -2736.68L1430.28 -2789.13V-2895.69L1358.41 -2842.69V-2736.68ZM1358.41 -2736.68L1430.28 -2684.23M1430.28 -2684.23L1502.14 -2736.68M1430.28 -2684.23L1287.11 -2579.32M1358.41 -2843.24L1287.11 -2790.79M1287.11 -2790.79V-2579.32M1287.11 -2790.79L1215.25 -2843.24M1358.41 -2949.25L1287.11 -3001.7M1287.11 -3001.7V-2895.69M1287.11 -3001.7L1215.25 -3054.16M1215.25 -2948.15V-3054.16M1215.25 -2948.15L1287.11 -2895.69M1215.25 -2843.24L1287.11 -2895.69M1215.25 -2525.21V-2631.77M1215.25 -2525.21L1287.11 -2472.76V-2579.32M1215.25 -2631.77L1287.11 -2579.32M1287.11 -2579.32L1358.41 -2525.21M1000.79 -3212.07L928.926 -3159.06M1000.79 -3212.07V-3318.08M1000.79 -3212.07L1072.09 -3159.06M928.926 -3159.06V-3265.63M928.926 -3265.63L1000.79 -3318.08M928.926 -3265.63L857.626 -3213.17M1000.79 -3318.08L1072.09 -3265.63M1000.79 -3318.08L1072.09 -3370.53M1072.09 -3159.06V-3265.63M1072.09 -3159.06L1215.25 -3053.6L1354.48 -3159.62M1072.09 -3159.06L1215.25 -3265.63M1072.09 -3265.63L1143.95 -3318.08M1143.95 -3318.08V-3424.64M1143.95 -3318.08L1215.25 -3370.53M1143.95 -3318.08V-3424.09L1215.25 -3477.09M1143.95 -3318.08L1215.25 -3265.63M1430.28 -3212.07L1358.41 -3159.06M1358.41 -3159.06L1430.28 -3106.61M1358.41 -3159.06L1287.11 -3213.17L1215.25 -3265.63M1358.41 -3159.06V-3371.64L1287.11 -3424.64M1430.28 -3106.61L1502.14 -3159.06M1430.28 -3106.61L1358.41 -3054.16V-2948.15L1430.28 -3000.6V-3106.61ZM570.739 -3422.98L498.877 -3370.53M570.739 -3422.98V-3529.55L427.577 -3424.64M570.739 -3422.98L642.04 -3370.53M570.739 -3422.98L499.439 -3370.53M570.739 -3422.98L642.601 -3370.53M498.877 -3370.53L427.577 -3424.64M498.877 -3370.53L570.739 -3318.08M427.577 -3424.64L499.439 -3370.53M427.577 -3424.64L499.439 -3371.64V-3159.06M427.577 -3424.64V-3318.08M427.577 -3424.64L356.276 -3477.09M713.902 -3424.09L570.739 -3318.08M713.902 -3424.09V-3318.08M713.902 -3424.09L785.764 -3477.09M570.739 -3318.08V-3212.07M570.739 -3318.08L714.463 -3424.09M570.739 -3318.08L499.439 -3370.53M498.877 -2525.21L427.577 -2579.32M498.877 -2525.21L570.739 -2472.76M427.577 -2579.32L570.739 -2684.23M427.577 -2579.32V-2472.76L356.276 -2525.21M427.577 -2579.32L356.276 -2631.77M427.577 -2579.32L499.439 -2525.21M427.577 -2579.32V-2790.79M570.739 -2684.23L499.439 -2736.68M570.739 -2684.23L642.601 -2736.68M570.739 -2472.76L499.439 -2525.21M1399.4 -2606.93L1325.29 -2552.82M1358.41 -3370.53L1430.28 -3422.98V-3529.55L1287.11 -3424.64M1358.41 -3370.53L1287.11 -3424.64M1358.41 -3370.53L1430.28 -3318.08L1574 -3424.09M1287.11 -3424.64V-3318.08M1287.11 -3424.64L1215.25 -3477.09M1399.4 -3452.25L1323.61 -3397.03M1215.25 -3370.53V-3477.09M1215.25 -3370.53L1287.11 -3318.08M1215.25 -3265.63L1287.11 -3318.08M570.739 -2789.13L499.439 -2736.68M570.739 -2789.13V-2895.69M570.739 -2789.13L642.601 -2736.68M499.439 -2736.68V-2842.69L570.739 -2895.69M570.739 -2895.69L642.601 -2843.24M570.739 -2895.69L642.601 -2948.15M642.601 -2736.68V-2843.24M642.601 -2843.24L713.902 -2895.69M570.739 -3000.6L499.439 -2948.15V-3054.16L570.739 -3106.61M570.739 -3000.6V-3106.61M570.739 -3000.6L642.601 -2948.15M570.739 -3106.61L499.439 -3159.06M570.739 -3106.61L642.601 -3159.06M642.601 -2948.15V-3159.06M642.601 -3159.06L570.739 -3212.07M642.601 -3159.06V-3265.63L713.902 -3318.08M618.46 -3014.96L598.249 -3029.86M928.926 -2631.77V-2525.21M928.926 -2631.77L857.626 -2684.23M1047.95 -2592.57L1027.74 -2607.48M1000.79 -3422.98L928.926 -3370.53V-3477.09L1000.79 -3529.55V-3422.98ZM1000.79 -3422.98L1072.09 -3370.53M1072.09 -3370.53V-3582M713.902 -2895.69L763.307 -2859.25M713.902 -2895.69V-3212.62L785.764 -3265.07M857.626 -2790.79V-2684.23M857.626 -2790.79L785.764 -2843.24M928.926 -2949.25L808.221 -2859.25M857.626 -2684.23L785.764 -2631.77L713.902 -2684.23V-2790.24L785.764 -2843.24M785.764 -3265.07L763.307 -3248.51V-2859.25M785.764 -3265.07L808.221 -3248.51V-2859.25M785.764 -2843.24L808.221 -2859.25M785.764 -2843.24L763.307 -2859.25M763.307 -2826.68V-2703.55L714.463 -2738.89M808.221 -2826.68V-2703L857.626 -2739.44M785.764 -2524.66L713.902 -2472.2V-2578.77L785.764 -2631.22M785.764 -2524.66V-2631.22M785.764 -2524.66L857.626 -2472.2V-2578.77L785.764 -2631.22M570.739 -3212.07L499.439 -3159.06M499.439 -3159.06L428.138 -3213.17L356.276 -3265.63M713.902 -3318.08V-3424.64M713.902 -3318.08L785.764 -3370.53M713.902 -3318.08L785.764 -3265.63L857.626 -3318.08M928.926 -3371.64L857.626 -3424.64M857.626 -3424.64V-3318.08M857.626 -3424.64L785.764 -3477.09M785.764 -3370.53V-3477.09M785.764 -3370.53L857.626 -3318.08M69.3898 -2843.24V-2736.68M69.3898 -2843.24L-1.91086 -2790.79M69.3898 -2843.24V-2949.25M69.3898 -2736.68L141.252 -2684.23M69.3898 -2736.68L141.252 -2789.13M141.252 -2684.23L213.114 -2736.68M141.252 -2684.23L69.3898 -2631.77M213.114 -2736.68V-2843.24L284.414 -2895.69M213.114 -2736.68L141.252 -2789.13M141.252 -3000.6L69.3898 -2948.15L-1.91086 -3001.7M141.252 -3000.6V-3106.61M141.252 -3000.6L213.114 -2948.15L284.414 -2895.69M141.252 -3000.6V-2789.13M-1.91086 -3001.7L141.252 -3106.61M-1.91086 -3001.7L69.3898 -2949.25M-1.91086 -3001.7V-3212.62L-73.7728 -3265.07M141.252 -3106.61L213.114 -3054.16L284.414 -3001.7M141.252 -3106.61L69.3898 -3159.06M141.252 -3106.61L213.114 -3159.06M34.5816 -2974.1L110.373 -3029.86M284.414 -2895.69V-3001.7M284.414 -2895.69L356.276 -2948.15M284.414 -2895.69L356.276 -2843.24M284.414 -3001.7L356.276 -3054.16M284.414 -2472.76L356.276 -2525.21M284.414 -2472.76V-2790.24L356.276 -2843.24M499.439 -2843.24L427.577 -2790.79M427.577 -2790.79L356.276 -2843.24M499.439 -2949.25L427.577 -3001.7M427.577 -3001.7V-2895.69M427.577 -3001.7L356.276 -3054.16M356.276 -2948.15V-3054.16M356.276 -2948.15L427.577 -2895.69M356.276 -2843.24L427.577 -2895.69M356.276 -2525.21V-2631.77M141.252 -3212.07L69.3898 -3159.06M141.252 -3212.07V-3318.08M141.252 -3212.07L213.114 -3159.06M69.3898 -3159.06V-3265.63M69.3898 -3265.63L141.252 -3318.08M69.3898 -3265.63L-1.91086 -3213.17M141.252 -3318.08L213.114 -3265.63M141.252 -3318.08L213.114 -3370.53M213.114 -3159.06V-3265.63M213.114 -3159.06L356.276 -3053.6L495.509 -3159.62M213.114 -3159.06L356.276 -3265.63M213.114 -3265.63L284.414 -3318.08M284.414 -3318.08V-3424.64M284.414 -3318.08L356.276 -3370.53M284.414 -3318.08V-3424.09L356.276 -3477.09M284.414 -3318.08L356.276 -3265.63M-288.797 -3422.98L-360.659 -3370.53M-288.797 -3422.98V-3529.55L-431.96 -3424.64L-360.659 -3370.53M-288.797 -3422.98L-216.935 -3370.53M-360.659 -3370.53L-288.797 -3318.08L-145.073 -3424.09M-145.073 -3424.09V-3318.08M-145.073 -3424.09L-73.7728 -3477.09M-360.659 -2525.21L-431.96 -2579.32L-288.797 -2684.23M539.861 -2606.93L466.315 -2552.82M539.861 -3452.25L464.069 -3397.03M356.276 -3370.53V-3477.09M356.276 -3370.53L427.577 -3318.08M356.276 -3265.63L427.577 -3318.08M-288.236 -2789.13L-360.098 -2736.68M-288.236 -2789.13V-2895.69M-288.236 -2789.13L-216.935 -2736.68M-360.098 -2736.68V-2842.69L-288.236 -2895.69M-360.098 -2736.68L-288.236 -2684.23L-216.935 -2736.68M-288.236 -2895.69L-216.935 -2843.24M-288.236 -2895.69L-216.935 -2948.15M-216.935 -2736.68V-2843.24M-216.935 -2843.24L-145.073 -2895.69M-288.236 -3000.6L-360.098 -2948.15V-3054.16L-288.236 -3106.61M-288.236 -3000.6V-3106.61M-288.236 -3000.6L-216.935 -2948.15M-288.236 -3106.61L-360.098 -3159.06M-288.236 -3106.61L-216.935 -3159.06M-216.935 -2948.15V-3159.06M-216.935 -3159.06L-288.236 -3212.07M-216.935 -3159.06V-3265.63L-145.073 -3318.08M-241.077 -3014.96L-261.288 -3029.86M69.3898 -2631.77V-2525.21M69.3898 -2631.77L-1.91086 -2684.23M188.973 -2592.57L168.761 -2607.48M141.252 -3422.98L69.3898 -3370.53V-3477.09L141.252 -3529.55V-3422.98ZM141.252 -3422.98L213.114 -3370.53M213.114 -3370.53V-3582M-145.073 -2895.69L-96.2296 -2859.25M-145.073 -2895.69V-3212.62L-73.7728 -3265.07M-1.91086 -2790.79V-2684.23M-1.91086 -2790.79L-73.7728 -2843.24M69.3898 -2949.25L-51.3159 -2859.25M-1.91086 -2684.23L-73.7728 -2631.77L-145.073 -2684.23V-2790.24L-73.7728 -2843.24M-73.7728 -3265.07L-96.2296 -3248.51V-2859.25M-73.7728 -3265.07L-51.3159 -3248.51V-2859.25M-73.7728 -2843.24L-51.3159 -2859.25M-73.7728 -2843.24L-96.2296 -2859.25M-96.2296 -2826.68V-2703.55L-145.073 -2738.89M-51.3159 -2826.68V-2703L-1.91086 -2739.44M-73.7728 -2524.66L-145.073 -2472.2V-2578.77L-73.7728 -2631.22M-73.7728 -2524.66V-2631.22M-73.7728 -2524.66L-1.91086 -2472.2V-2578.77L-73.7728 -2631.22M-288.236 -3318.08V-3212.07M-288.236 -3212.07L-360.098 -3159.06M-360.098 -3159.06V-3265.63M-145.073 -3318.08V-3424.64M-145.073 -3318.08L-73.7728 -3370.53M-145.073 -3318.08L-73.7728 -3265.63L-1.91086 -3318.08M69.3898 -3371.64L-1.91086 -3424.64M-1.91086 -3424.64V-3318.08M-1.91086 -3424.64L-73.7728 -3477.09M-73.7728 -3370.53V-3477.09M-73.7728 -3370.53L-1.91086 -3318.08M-574 -2472.76L-502.699 -2525.21M-574 -2472.76V-2579.32L-502.699 -2631.77M-574 -2472.76V-2790.24L-502.699 -2843.24M-287.674 -2789.13L-359.536 -2736.68M-287.674 -2789.13V-2895.69M-287.674 -2789.13L-216.374 -2736.68M-359.536 -2736.68V-2842.69L-287.674 -2895.69M-359.536 -2736.68L-287.674 -2684.23L-216.374 -2736.68M-287.674 -2895.69L-216.374 -2843.24V-2736.68M-359.536 -2843.24L-430.837 -2790.79M-430.837 -2790.79V-2579.32M-430.837 -2790.79L-502.699 -2843.24M-359.536 -2949.25L-430.837 -3001.7M-430.837 -3001.7V-2895.69M-430.837 -3001.7L-502.699 -3054.16M-502.699 -2948.15L-574 -2895.69M-502.699 -2948.15V-3054.16M-502.699 -2948.15L-430.837 -2895.69M-574 -2895.69V-3001.7L-502.699 -3054.16M-574 -2895.69L-502.699 -2843.24M-502.699 -2843.24L-430.837 -2895.69M-502.699 -2525.21V-2631.77M-502.699 -2525.21L-430.837 -2472.76V-2579.32M-502.699 -2631.77L-430.837 -2579.32M-574 -3318.08L-502.699 -3265.63M-502.699 -3265.63L-430.837 -3318.08M-502.699 -3265.63L-430.837 -3213.17L-359.536 -3159.06M-363.466 -3159.62L-502.699 -3053.6" stroke="#C5C6E5" stroke-width="0.670889" stroke-miterlimit="10" stroke-linecap="round" stroke-linejoin="round"/>
</mask>
<g mask="url(#mask0_214_7)">
<path d="M784.214 5.80988L1363.33 427.35L1573.42 583.576H1.73718L784.214 5.80988Z" fill="white" fill-opacity="0.5"/>
</g>
</g>
<defs>
<clipPath id="clip0_214_7">
<rect width="1571" height="577" fill="white"/>
</clipPath>
</defs>
</svg>
