<svg width="78" height="78" viewBox="0 0 78 78" fill="none" xmlns="http://www.w3.org/2000/svg">
<rect x="39" width="55.1543" height="55.1543" transform="rotate(45 39 0)" fill="#6A65A4"/>
<path d="M39.5237 52.5088L39.4811 39.8341L39.4332 39.8918C39.4304 39.8222 39.4439 39.7529 39.4725 39.6893C39.5011 39.6256 39.5441 39.5692 39.5982 39.5244L48.1155 33.2264C48.1741 33.1844 48.2433 33.2369 48.2433 33.3156V38.7529C48.2456 38.8217 48.2319 38.8901 48.2033 38.9528C48.1747 39.0156 48.1319 39.0711 48.0783 39.115L43.1222 42.7889C43.0962 42.8109 43.0756 42.8383 43.0618 42.8692C43.0479 42.9001 43.0413 42.9336 43.0424 42.9673V43.6864C43.0371 43.7756 43.1116 43.8176 43.1648 43.7756L48.1208 40.1017C48.1794 40.0598 48.2486 40.1122 48.2486 40.191V46.0061C48.2509 46.0749 48.2372 46.1433 48.2086 46.206C48.18 46.2688 48.1373 46.3243 48.0836 46.3683L39.6461 52.5981C39.5929 52.64 39.5237 52.5876 39.5237 52.5088Z" fill="white"/>
<path d="M34.5677 35.4821C34.5365 35.4821 34.5064 35.4713 34.4825 35.4517L30.474 32.5074C30.4605 32.496 30.4497 32.482 30.4423 32.4661C30.4349 32.4503 30.431 32.433 30.431 32.4155C30.431 32.3981 30.4349 32.3808 30.4423 32.365C30.4497 32.3491 30.4605 32.335 30.474 32.3237L38.9062 26.0572C38.954 26.0201 39.013 26 39.0739 26C39.1347 26 39.1937 26.0201 39.2415 26.0572L47.7269 32.3237C47.7404 32.335 47.7512 32.3491 47.7586 32.365C47.7661 32.3808 47.7699 32.3981 47.7699 32.4155C47.7699 32.433 47.7661 32.4503 47.7586 32.4661C47.7512 32.482 47.7404 32.496 47.7269 32.5074L43.6599 35.5147C43.636 35.5343 43.6058 35.5451 43.5747 35.5451C43.5436 35.5451 43.5135 35.5343 43.4895 35.5147L41.8021 34.2603C41.7435 34.2183 41.6743 34.2708 41.6743 34.3495V36.7953C41.6762 36.8299 41.67 36.8645 41.6561 36.8963C41.6423 36.9282 41.6212 36.9565 41.5944 36.979L39.2415 38.7162C39.1937 38.7532 39.1347 38.7733 39.0739 38.7733C39.013 38.7733 38.954 38.7532 38.9062 38.7162L36.5586 36.979C36.5319 36.9565 36.5108 36.9282 36.4969 36.8963C36.4831 36.8645 36.4768 36.8299 36.4787 36.7953V34.2866C36.4787 34.1973 36.4042 34.1554 36.351 34.1973L34.6528 35.4517C34.6289 35.4713 34.5988 35.4821 34.5677 35.4821Z" fill="white"/>
<path d="M38.8104 39.8761L38.7518 52.5088L38.7411 52.5036C38.7411 52.5928 38.6719 52.6348 38.6187 52.5928L35.5099 50.3465C35.4562 50.3025 35.4134 50.2471 35.3848 50.1843C35.3562 50.1215 35.3426 50.0531 35.3449 49.9844V49.0187C35.3464 48.9841 35.34 48.9497 35.3261 48.9179C35.3123 48.8861 35.2914 48.8578 35.265 48.835L33.1889 47.3025C33.157 47.2762 33.1144 47.3077 33.1144 47.3549V48.4046C33.1144 48.4938 33.0399 48.5358 32.9866 48.4938L30.1653 46.3945C30.1116 46.3505 30.0688 46.295 30.0402 46.2323C30.0116 46.1695 29.9979 46.1011 30.0003 46.0324V33.2999C30.0003 33.2107 30.0748 33.1687 30.128 33.2107L38.6453 39.5087C38.6997 39.5532 38.743 39.6095 38.7716 39.6733C38.8002 39.737 38.8135 39.8064 38.8104 39.8761Z" fill="white"/>
</svg>
