<svg width="738" height="271" viewBox="0 0 738 271" fill="none" xmlns="http://www.w3.org/2000/svg">
<g clip-path="url(#clip0_194_8)">
<mask id="mask0_194_8" style="mask-type:alpha" maskUnits="userSpaceOnUse" x="-16" y="-292" width="1011" height="2134">
<path d="M186.934 -266.37V-216.592L153.454 -191.703M186.934 -266.37L153.454 -241.74M186.934 -266.37V-216.333L153.454 -191.703M186.934 -266.37V-117.295L153.454 -92.406M456.09 -217.111L489.834 -241.74M456.09 -217.111V-167.073M456.09 -217.111L422.611 -241.74L456.09 -216.851M456.09 -217.111L489.57 -241.74M456.09 -217.111L422.347 -241.74M489.834 -241.74L523.314 -216.592M489.834 -241.74L456.09 -266.37M489.834 -241.74L456.09 -216.851M489.834 -241.74L523.314 -216.333M523.314 -216.592L456.09 -167.073M523.314 -216.592L489.57 -241.74M523.314 -216.592L489.57 -241.222V-291M523.314 -216.592V-266.37M523.314 -216.592L556.794 -191.703M456.09 -167.073L388.867 -216.592M456.09 -167.073L388.604 -216.592L456.09 -266.37M456.09 -167.073L523.314 -216.333M456.09 -167.073V-216.851M456.09 -167.073L388.867 -216.333L456.09 -266.37M456.09 -167.073L489.57 -142.443M456.09 -167.073L422.347 -142.443M456.09 -167.073L388.604 -216.333L456.09 -266.37M388.867 -216.592L456.09 -266.37M388.867 -216.592V-266.37L355.124 -241.74M388.867 -216.592L355.124 -191.703M388.867 -216.592V-266.629L355.124 -242M388.867 -216.592L355.124 -191.962M456.09 -266.37L489.57 -241.74M86.2304 -241.74L52.4869 -217.111V-167.073M86.2304 -241.74L119.71 -216.592M86.2304 -241.74L52.4869 -266.37M86.2304 -241.74L52.4869 -216.851V-167.073M86.2304 -241.74L119.71 -216.333M119.71 -216.592L52.4869 -167.073M119.71 -216.592L86.2304 -241.222V-291M119.71 -216.592V-266.37M119.71 -216.592L153.454 -191.703M52.4869 -167.073L86.2304 -142.443M52.4869 -167.073L18.7435 -142.443M52.4869 -167.073L119.71 -216.333M102.575 -229.555L66.9861 -203.37L101.784 -228.777M-15 -216.592L52.4869 -266.37M52.4869 -266.37L-15 -216.333M153.454 -241.74V-191.703M153.454 -241.74L119.71 -266.37M153.454 -191.703L119.71 -216.333M119.71 -266.37V-216.333M254.157 -217.111L287.9 -241.74M254.157 -217.111V-167.073M254.157 -217.111L220.677 -241.74V-142.443M287.9 -241.74V-191.962L254.157 -167.073M287.9 -241.74V-191.703M254.157 -167.073L287.9 -142.443M254.157 -167.073L220.677 -142.443M254.157 -167.073L287.9 -191.703M254.157 -167.073V-216.851L287.9 -241.481V-191.703M220.677 -142.443V-92.406L186.934 -67.7762M220.677 -142.443V-241.481M220.677 -142.443L254.157 -117.814M287.9 -241.222L321.38 -216.592M321.38 -216.592V-266.37L355.124 -241.74M321.38 -216.592L355.124 -191.703M321.38 -216.592V-266.629L355.124 -242M321.38 -216.592L355.124 -191.962M355.124 -241.74V-191.703M355.124 -191.703L321.38 -167.073M355.124 -191.703L388.867 -167.073V-117.295L355.124 -92.406M590.537 -266.37V-216.592L556.794 -191.703M590.537 -266.37L556.794 -241.74M590.537 -266.37V-216.333L556.794 -191.703M590.537 -266.37V-117.295L556.794 -92.406M859.694 -217.111L893.437 -241.74M859.694 -217.111V-167.073M859.694 -217.111L825.95 -241.74M893.437 -241.74L926.917 -216.592L859.694 -167.073M893.437 -241.74L859.694 -266.37M893.437 -241.74L859.694 -216.851M893.437 -241.74L926.917 -216.333L859.694 -167.073M859.694 -167.073L792.207 -216.592M859.694 -167.073V-216.851M859.694 -167.073L792.207 -216.333L859.694 -266.37M792.207 -216.592L859.694 -266.37M792.207 -216.592V-266.37L758.727 -241.74M792.207 -216.592L758.727 -191.703M792.207 -216.592V-266.629L758.727 -242M792.207 -216.592L758.727 -191.962M825.95 -241.74L859.694 -216.851M825.95 -241.74L792.207 -217.111M489.57 -241.74L456.09 -216.851M489.57 -241.74L523.314 -216.333M506.178 -229.555L470.59 -203.37L505.124 -228.777M422.347 -241.74L388.867 -217.111M422.347 -241.74L456.09 -216.851M556.794 -241.74V-191.703M556.794 -241.74L523.314 -266.37M556.794 -191.703L523.314 -216.333M523.314 -266.37V-216.333M657.76 -217.111L691.504 -241.74M657.76 -217.111V-167.073M657.76 -217.111L624.017 -241.74V-142.443M691.504 -241.74V-191.962L657.76 -167.073M691.504 -241.74V-191.703M657.76 -167.073L691.504 -142.443M657.76 -167.073L624.017 -142.443M657.76 -167.073L691.504 -191.703M657.76 -167.073V-216.851L691.504 -241.481V-191.703M624.017 -142.443V-92.406L590.537 -67.7762M624.017 -142.443V-241.481M624.017 -142.443L657.76 -117.814M691.504 -241.222L724.984 -216.592M724.984 -216.592V-266.37L758.727 -241.74M724.984 -216.592L758.727 -191.703M724.984 -216.592V-266.629L758.727 -242M724.984 -216.592L758.727 -191.962M758.727 -241.74V-191.703M758.727 -191.703L724.984 -167.073M758.727 -191.703L792.207 -167.073V-117.295L758.727 -92.406M287.9 -92.406V-142.443M287.9 -92.406L321.38 -117.036M287.9 -92.406V-42.6279M287.9 -142.443L254.157 -117.814M254.157 -18.5166L287.9 -43.1464L321.38 -17.9981M254.157 -18.5166V31.2615M254.157 -18.5166L220.677 -43.1464L186.934 -67.7762M254.157 -18.5166V-117.814M321.38 -17.9981L254.157 31.2615M321.38 -17.9981L287.9 -42.6279M321.38 -17.9981V81.0396L355.124 105.669M254.157 31.2615L220.677 6.63168L186.934 -17.9981M254.157 31.2615L287.9 55.8913M254.157 31.2615L220.677 55.8913M304.245 -30.9612L268.656 -4.77579M186.934 -67.7762V-17.9981M186.934 -67.7762L153.454 -43.1464M186.934 -67.7762L153.454 -92.406M186.934 -17.9981L153.454 6.63168M86.2304 -142.443L52.4869 -117.814V-67.7762L86.2304 -92.6653V-142.443ZM86.2304 -92.406L119.71 -117.036M119.71 -117.036V-216.333M119.71 -117.036L153.454 -92.406M86.2304 -42.6279L119.71 -17.9981M119.71 -17.9981V-67.7762M119.71 -17.9981L153.454 6.63168M153.454 -43.1464V6.63168M153.454 -43.1464L119.71 -67.7762M153.454 -92.406L119.71 -67.7762M254.157 80.7803L287.9 55.8913M254.157 80.7803V130.558M254.157 80.7803L220.677 55.8913M287.9 55.8913V105.929M287.9 105.929L254.157 130.558M287.9 105.929L321.38 81.2989M254.157 130.558L220.677 105.929M254.157 130.558L220.677 155.188M220.677 55.8913V105.929M220.677 55.8913L153.454 6.37245L88.0757 56.1505M220.677 55.8913L153.454 105.929M220.677 105.929L186.934 130.558M186.934 130.558V180.596M186.934 130.558L153.454 155.188M186.934 130.558V180.337M186.934 130.558L153.454 105.929M52.4869 80.7803L86.2304 55.8913M86.2304 55.8913L52.4869 31.2615M86.2304 55.8913L119.71 81.2989L153.454 105.929M86.2304 55.8913V155.707L119.71 180.596M52.4869 31.2615L18.7435 55.8913M52.4869 31.2615L86.2304 6.63168V-43.1464L52.4869 -18.5166V31.2615ZM456.09 179.818L489.834 155.188M456.09 179.818V229.855M456.09 179.818L422.611 155.188M456.09 179.818L489.57 155.188M456.09 179.818L422.347 155.188M456.09 179.818L489.834 154.929M456.09 179.818V229.596M456.09 179.818L422.611 154.929M456.09 179.818L489.57 154.929M456.09 179.818L422.347 154.929L388.867 179.559M489.834 155.188L523.314 180.596M489.834 155.188L456.09 130.558M523.314 180.596L456.09 229.855M523.314 180.596L489.57 155.188M523.314 180.596L489.57 155.707V55.8913M523.314 180.596V130.558M523.314 180.596L556.794 205.226M456.09 229.855L388.867 180.337M456.09 229.855L388.604 180.337M388.867 180.337L456.09 130.558M388.867 180.337V130.558M388.867 180.337L355.124 205.226M388.867 180.337L456.09 130.299M388.867 180.337L456.09 229.596M456.09 130.558V80.7803M456.09 130.558L388.604 180.337M456.09 130.558L489.57 155.188M523.314 -216.333V-117.036M52.4869 179.818L86.2304 155.188M52.4869 179.818V229.855L119.71 180.596M52.4869 179.818L86.2304 154.929M52.4869 179.818V229.596M86.2304 155.188L119.71 180.596M86.2304 155.188L52.4869 130.558L-15 180.337L52.4869 130.299L86.2304 154.929M119.71 180.596V130.558M119.71 180.596L153.454 205.226M66.9861 193.559L102.575 167.633M153.454 155.188V205.226M153.454 155.188L119.71 130.558M186.934 180.337L153.454 205.226M186.934 180.337V130.299M186.934 180.337L153.454 204.966M153.454 105.929L119.71 130.558M456.09 -117.814L489.57 -142.443M456.09 -117.814V-67.7762M456.09 -117.814L422.347 -142.443M489.57 -142.443V-92.6653L456.09 -67.7762M456.09 -67.7762L422.347 -92.406M456.09 -67.7762L422.347 -43.1464M422.347 -142.443V-92.406M422.347 -92.406L388.867 -67.7762M456.09 -18.5166L489.57 -43.1464V6.63168L456.09 31.2615M456.09 -18.5166V31.2615M456.09 -18.5166L422.347 -43.1464M456.09 31.2615L489.57 55.8913M456.09 31.2615L422.347 55.8913M422.347 -43.1464V55.8913M422.347 55.8913L456.09 80.7803M422.347 55.8913V105.929L388.867 130.558M433.683 -11.7758L443.173 -4.77579M287.9 -191.703L321.38 -167.073M232.013 -210.111L241.503 -203.11M254.157 179.818L287.9 155.188M254.157 179.818V229.855L287.9 205.226V155.188M254.157 179.818L220.677 155.188M254.157 179.818V229.596M287.9 155.188V204.966M220.677 155.188V254.485M220.677 155.188V254.226M388.867 -67.7762L365.668 -84.8875M388.867 -67.7762V81.0396L355.124 105.669M321.38 -117.036V-167.073M321.38 -117.036L355.124 -92.406M287.9 -42.6279L344.579 -84.8875M355.124 105.669L365.668 97.8916V-84.8875M355.124 105.669L344.579 97.8916V-84.8875M355.124 -92.406L344.579 -84.8875M355.124 -92.406L365.668 -84.8875M365.668 -100.184V-157.999L388.604 -141.406M344.579 -100.184V-158.258L321.38 -141.147M355.124 -242V-191.962M456.09 80.7803L489.57 55.8913M489.57 55.8913L523.05 81.2989L556.794 105.929M388.867 130.558V180.596M388.867 130.558L355.124 155.188M388.867 130.558L355.124 105.929L321.38 130.558M287.9 155.707L321.38 180.596M321.38 180.596V130.558M321.38 180.596L355.124 205.226M355.124 155.188V205.226M355.124 155.188L321.38 130.558M691.504 -92.406V-142.443M691.504 -92.406L724.984 -117.036M691.504 -92.406V-42.6279M691.504 -142.443L657.76 -117.814M657.76 -18.5166L691.504 -43.1464L724.984 -17.9981M657.76 -18.5166V31.2615M657.76 -18.5166L624.017 -43.1464L590.537 -67.7762M657.76 -18.5166V-117.814M724.984 -17.9981L657.76 31.2615M724.984 -17.9981L691.504 -42.6279M724.984 -17.9981V81.0396L758.727 105.669M657.76 31.2615L624.017 6.63168L590.537 -17.9981M657.76 31.2615L691.504 55.8913M657.76 31.2615L624.017 55.8913M707.848 -30.9612L672.26 -4.77579M590.537 -67.7762V-17.9981M590.537 -67.7762L556.794 -43.1464M590.537 -67.7762L556.794 -92.406M590.537 -17.9981L556.794 6.63168M489.57 -92.406L523.314 -117.036M523.314 -117.036L556.794 -92.406M489.57 -42.6279L523.314 -17.9981M523.314 -17.9981V-67.7762M523.314 -17.9981L556.794 6.63168M556.794 -43.1464V6.63168M556.794 -43.1464L523.314 -67.7762M556.794 -92.406L523.314 -67.7762M657.76 80.7803L691.504 55.8913M657.76 80.7803V130.558M657.76 80.7803L624.017 55.8913M691.504 55.8913V105.929M691.504 105.929L657.76 130.558M691.504 105.929L724.984 81.2989M657.76 130.558L624.017 105.929M657.76 130.558L624.017 155.188M624.017 55.8913V105.929M624.017 55.8913L556.794 6.37245L491.416 56.1505M624.017 55.8913L556.794 105.929M624.017 105.929L590.537 130.558M590.537 130.558V180.596M590.537 130.558L556.794 155.188M590.537 130.558V180.337M590.537 130.558L556.794 105.929M859.694 179.818L893.437 155.188M859.694 179.818V229.855M859.694 179.818L825.95 155.188M859.694 179.818L893.437 154.929M859.694 179.818V229.596M859.694 179.818L825.95 154.929L792.207 179.559M893.437 155.188L926.917 180.596L859.694 229.855M893.437 155.188L859.694 130.558L792.207 180.337M859.694 229.855L792.207 180.337M792.207 180.337V130.558M792.207 180.337L758.727 205.226M792.207 180.337L859.694 130.299L893.437 154.929M792.207 180.337L859.694 229.596M470.59 193.559L506.178 167.633M388.604 180.337L456.09 130.299M388.604 180.337L456.09 229.596M556.794 155.188V205.226M556.794 155.188L523.314 130.558M590.537 180.337L556.794 205.226M590.537 180.337V130.299M590.537 180.337L556.794 204.966M556.794 105.929L523.314 130.558M859.43 -117.814L893.174 -142.443M859.43 -117.814V-67.7762M859.43 -117.814L825.95 -142.443M893.174 -142.443V-92.6653L859.43 -67.7762M893.174 -142.443L859.43 -167.073L825.95 -142.443M859.43 -67.7762L825.95 -92.406M859.43 -67.7762L825.95 -43.1464M825.95 -142.443V-92.406M825.95 -92.406L792.207 -67.7762M859.43 -18.5166L893.174 -43.1464V6.63168L859.43 31.2615M859.43 -18.5166V31.2615M859.43 -18.5166L825.95 -43.1464M859.43 31.2615L893.174 55.8913M859.43 31.2615L825.95 55.8913M825.95 -43.1464V55.8913M825.95 55.8913L859.43 80.7803M825.95 55.8913V105.929L792.207 130.558M837.286 -11.7758L846.776 -4.77579M691.504 -191.703L724.984 -167.073M635.353 -210.111L644.843 -203.11M657.76 179.818L691.504 155.188M657.76 179.818V229.855L691.504 205.226V155.188M657.76 179.818L624.017 155.188M657.76 179.818V229.596M691.504 155.188V204.966M624.017 155.188V254.485M624.017 155.188V254.226M792.207 -67.7762L769.272 -84.8875M792.207 -67.7762V81.0396L758.727 105.669M724.984 -117.036V-167.073M724.984 -117.036L758.727 -92.406M691.504 -42.6279L748.182 -84.8875M758.727 105.669L769.272 97.8916V-84.8875M758.727 105.669L748.182 97.8916V-84.8875M758.727 -92.406L748.182 -84.8875M758.727 -92.406L769.272 -84.8875M769.272 -100.184V-157.999L792.207 -141.406M748.182 -100.184V-158.258L724.984 -141.147M758.727 -242V-191.962M859.43 130.558V80.7803M859.43 80.7803L893.174 55.8913M893.174 55.8913V105.929M792.207 130.558V180.596M792.207 130.558L758.727 155.188M792.207 130.558L758.727 105.929L724.984 130.558M691.504 155.707L724.984 180.596M724.984 180.596V130.558M724.984 180.596L758.727 205.226M758.727 155.188V205.226M758.727 155.188L724.984 130.558M993.613 -266.37L960.133 -241.74M993.613 -266.37V-216.333L960.133 -191.703M993.613 -266.37V-117.295L960.133 -92.406M859.167 -117.814L892.91 -142.443M859.167 -117.814V-67.7762M859.167 -117.814L825.687 -142.443M892.91 -142.443V-92.6653L859.167 -67.7762M892.91 -142.443L859.167 -167.073L825.687 -142.443M859.167 -67.7762L825.687 -92.406V-142.443M892.91 -92.406L926.39 -117.036M926.39 -117.036V-216.333M926.39 -117.036L960.133 -92.406M892.91 -42.6279L926.39 -17.9981M926.39 -17.9981V-67.7762M926.39 -17.9981L960.133 6.63168M960.133 -43.1464L993.613 -67.7762M960.133 -43.1464V6.63168M960.133 -43.1464L926.39 -67.7762M993.613 -67.7762V-17.9981L960.133 6.63168M993.613 -67.7762L960.133 -92.406M960.133 -92.406L926.39 -67.7762M960.133 -241.74V-191.703M960.133 -241.74L926.39 -266.37V-216.333M960.133 -191.703L926.39 -216.333M993.613 130.558L960.133 105.929M960.133 105.929L926.39 130.558M960.133 105.929L926.39 81.2989L892.91 55.8913M894.755 56.1505L960.133 6.37245M287.9 304.263V254.226M287.9 304.263L321.38 279.634M287.9 304.263V354.042M287.9 254.226L254.157 229.596M287.9 254.226L254.157 278.856M254.157 229.596L220.677 254.226M254.157 229.596L287.9 204.966M220.677 254.226V304.263L186.934 328.893M220.677 254.226L254.157 278.856M254.157 378.153L287.9 353.523L321.38 378.671M254.157 378.153V427.931M254.157 378.153L220.677 353.523L186.934 328.893M254.157 378.153V278.856M321.38 378.671L254.157 427.931M321.38 378.671L287.9 354.042M321.38 378.671V477.709L355.124 502.339M254.157 427.931L220.677 403.301L186.934 378.671M254.157 427.931L287.9 452.561M254.157 427.931L220.677 452.561M304.245 365.708L268.656 391.894M186.934 328.893V378.671M186.934 328.893L153.454 353.523M186.934 328.893L153.454 304.263M186.934 378.671L153.454 403.301M186.934 130.299L153.454 154.929M186.934 130.299V279.374L153.454 304.263M86.2304 254.226L52.4869 278.856V328.893L86.2304 304.004V254.226ZM86.2304 254.226L52.4869 229.596M52.4869 229.596L18.7435 254.226M52.4869 229.596L119.71 180.337M86.2304 304.263L119.71 279.634M119.71 279.634V180.337M119.71 279.634L153.454 304.263M86.2304 354.042L119.71 378.671M119.71 378.671V328.893M119.71 378.671L153.454 403.301M153.454 353.523V403.301M153.454 353.523L119.71 328.893M153.454 304.263L119.71 328.893M153.454 154.929V204.966M153.454 154.929L119.71 130.299V180.337M153.454 204.966L119.71 180.337M119.71 180.337L86.2304 154.929M254.157 477.45L287.9 452.561M254.157 477.45V527.228M254.157 477.45L220.677 452.561M287.9 452.561V502.598M287.9 502.598L254.157 527.228M287.9 502.598L321.38 477.968M254.157 527.228L220.677 502.598M254.157 527.228L220.677 551.858M220.677 452.561V502.598M220.677 452.561L153.454 403.042L88.0757 452.82M220.677 452.561L153.454 502.598M220.677 502.598L186.934 527.228M186.934 527.228V577.265L153.454 601.895M186.934 527.228L153.454 551.858M186.934 527.228V577.006L153.454 601.895M186.934 527.228L153.454 502.598M186.934 527.228V676.303L153.454 701.192M52.4869 477.45L86.2304 452.561M86.2304 452.561L52.4869 427.931M86.2304 452.561L119.71 477.968L153.454 502.598M86.2304 452.561V552.376M52.4869 427.931L18.7435 452.561M52.4869 427.931L86.2304 403.301V353.523L52.4869 378.153V427.931ZM456.09 576.488L489.834 551.858M456.09 576.488V626.525M456.09 576.488L422.611 551.858L456.09 576.747M456.09 576.488L489.57 551.858M456.09 576.488L422.347 551.858M489.834 551.858L523.314 577.265M489.834 551.858L456.09 527.228M489.834 551.858L523.314 577.006M489.834 551.858L456.09 576.747M523.314 577.265L456.09 626.525M523.314 577.265L489.57 551.858M523.314 577.265L489.57 552.376M523.314 577.265V527.228M523.314 577.265L556.794 601.895M523.314 577.265V676.562M456.09 626.525L523.314 577.006M456.09 626.525L388.867 577.006M456.09 626.525L388.604 577.006L456.09 527.228M456.09 626.525V576.747M456.09 626.525L388.867 577.265M456.09 626.525L489.57 651.155M456.09 626.525L422.347 651.155M456.09 626.525L388.604 577.265L456.09 527.228M388.867 577.006L456.09 527.228M388.867 577.006V527.228M388.867 577.006L355.124 601.895M388.867 577.006V526.969L355.124 551.598M388.867 577.006L355.124 601.636M456.09 527.228V477.45M456.09 527.228L489.57 551.858M456.09 527.228L388.867 577.265M489.834 154.929L523.314 180.337M489.834 154.929L456.09 130.299M523.314 180.337L456.09 229.596M523.314 180.337V130.299L556.794 154.929M523.314 180.337L556.794 204.966M523.314 180.337L489.57 154.929M523.314 180.337V279.634M456.09 229.596L489.57 254.226M456.09 229.596L422.347 254.226M456.09 130.299L489.57 154.929M66.9861 193.3L101.784 167.892M86.2304 551.858L52.4869 576.488V626.525M86.2304 551.858L119.71 577.265M86.2304 551.858L52.4869 527.228M86.2304 551.858L119.71 577.006M86.2304 551.858L52.4869 576.747V626.525M119.71 577.265L52.4869 626.525M119.71 577.265L86.2304 552.376M119.71 577.265V527.228M119.71 577.265L153.454 601.895M119.71 577.265V676.562M52.4869 626.525L119.71 577.006M52.4869 626.525L86.2304 651.155M52.4869 626.525L18.7435 651.155M66.9861 590.228L102.575 564.302M66.9861 590.228L102.575 564.043M66.9861 590.228L101.784 564.821M-15 577.006L52.4869 527.228M52.4869 527.228L-15 577.265M86.2304 552.376V502.598M86.2304 552.376L119.71 577.006M153.454 551.858V601.895M153.454 551.858L119.71 527.228M153.454 601.895L119.71 577.006M153.454 502.598L119.71 527.228M119.71 527.228V577.006M456.09 278.856L489.57 254.226M456.09 278.856V328.893M456.09 278.856L422.347 254.226M489.57 254.226V304.004L456.09 328.893M456.09 328.893L422.347 304.263M456.09 328.893L422.347 353.523M422.347 254.226V304.263M422.347 304.263L388.867 328.893M456.09 378.153L489.57 353.523V403.301L456.09 427.931M456.09 378.153V427.931M456.09 378.153L422.347 353.523M456.09 427.931L489.57 452.561M456.09 427.931L422.347 452.561M422.347 353.523V452.561M422.347 452.561L456.09 477.45M422.347 452.561V502.598L388.867 527.228M433.683 384.894L443.173 391.894M287.9 204.966V154.929M287.9 204.966L321.38 229.596M232.013 186.559L241.503 193.559M254.157 576.488L287.9 551.858M254.157 576.488V626.525M254.157 576.488L220.677 551.858M287.9 551.858V601.895M287.9 551.858V601.636L254.157 626.525M287.9 601.895L254.157 626.525M287.9 601.895V552.117L254.157 576.747V626.525M287.9 601.895L321.38 626.525M254.157 626.525L287.9 651.155M254.157 626.525L220.677 651.155M220.677 551.858V651.155M220.677 651.155V701.192L186.934 725.822M220.677 651.155V552.117M220.677 651.155L254.157 675.784M388.867 328.893L365.668 311.782M388.867 328.893V477.709L355.124 502.339M321.38 279.634V229.596M321.38 279.634L355.124 304.263M287.9 354.042L344.579 311.782M321.38 229.596L355.124 204.966L388.867 229.596V279.374L355.124 304.263M355.124 502.339L365.668 494.561V311.782M355.124 502.339L344.579 494.561V311.782M355.124 304.263L344.579 311.782M355.124 304.263L365.668 311.782M365.668 296.486V238.67L388.604 255.263M344.579 296.486V238.411L321.38 255.522M355.124 154.67L388.867 130.04V180.077L355.124 204.707M355.124 154.67V204.707M355.124 154.67L321.38 130.04V180.077L355.124 204.707M456.09 477.45L489.57 452.561M489.57 452.561L523.05 477.968L556.794 502.598M489.57 452.561V552.376M388.867 527.228V577.265M388.867 527.228L355.124 551.858M388.867 527.228L355.124 502.598L321.38 527.228M321.38 577.265L287.9 552.376L321.38 577.006M321.38 577.265V527.228M321.38 577.265L355.124 601.895M355.124 551.858V601.895M355.124 551.858L321.38 527.228M355.124 601.895L321.38 577.006M355.124 601.895L321.38 626.525M355.124 601.895L388.867 626.525V676.303L355.124 701.192M321.38 527.228V577.006M691.504 304.263V254.226M691.504 304.263L724.984 279.634M691.504 304.263V354.042M691.504 254.226L657.76 229.596M691.504 254.226L657.76 278.856M657.76 229.596L624.017 254.226M657.76 229.596L691.504 204.966M624.017 254.226V304.263L590.537 328.893M624.017 254.226L657.76 278.856M657.76 378.153L691.504 353.523L724.984 378.671M657.76 378.153V427.931M657.76 378.153L624.017 353.523L590.537 328.893M657.76 378.153V278.856M724.984 378.671L657.76 427.931M724.984 378.671L691.504 354.042M724.984 378.671V477.709L758.727 502.339M657.76 427.931L624.017 403.301L590.537 378.671M657.76 427.931L691.504 452.561M657.76 427.931L624.017 452.561M707.848 365.708L672.26 391.894M590.537 328.893V378.671M590.537 328.893L556.794 353.523M590.537 328.893L556.794 304.263M590.537 378.671L556.794 403.301M590.537 130.299L556.794 154.929M590.537 130.299V279.374L556.794 304.263M489.57 304.263L523.314 279.634M523.314 279.634L556.794 304.263M489.57 354.042L523.314 378.671M523.314 378.671V328.893M523.314 378.671L556.794 403.301M556.794 353.523V403.301M556.794 353.523L523.314 328.893M556.794 304.263L523.314 328.893M556.794 154.929V204.966M657.76 477.45L691.504 452.561M657.76 477.45V527.228M657.76 477.45L624.017 452.561M691.504 452.561V502.598M691.504 502.598L657.76 527.228M691.504 502.598L724.984 477.968M657.76 527.228L624.017 502.598M657.76 527.228L624.017 551.858M624.017 452.561V502.598M624.017 452.561L556.794 403.042L491.416 452.82M624.017 452.561L556.794 502.598M624.017 502.598L590.537 527.228M590.537 527.228V577.265L556.794 601.895M590.537 527.228L556.794 551.858M590.537 527.228V577.006L556.794 601.895M590.537 527.228L556.794 502.598M590.537 527.228V676.303L556.794 701.192M859.694 576.488L893.437 551.858M859.694 576.488V626.525M859.694 576.488L825.95 551.858M893.437 551.858L926.917 577.265L859.694 626.525M893.437 551.858L859.694 527.228M893.437 551.858L926.917 577.006L859.694 626.525M893.437 551.858L859.694 576.747M859.694 626.525L792.207 577.006M859.694 626.525V576.747M859.694 626.525L792.207 577.265M792.207 577.006L859.694 527.228M792.207 577.006V527.228M792.207 577.006L758.727 601.895M792.207 577.006V526.969L758.727 551.598M792.207 577.006L758.727 601.636M859.694 527.228L792.207 577.265M825.95 551.858L859.694 576.747M825.95 551.858L792.207 576.488M893.437 154.929L926.917 180.337L859.694 229.596M470.59 193.3L505.124 167.892M489.57 551.858L523.314 577.006M489.57 551.858L456.09 576.747M470.59 590.228L506.178 564.302M470.59 590.228L506.178 564.043M470.59 590.228L505.124 564.821M422.347 551.858L388.867 576.488M422.347 551.858L456.09 576.747M489.57 552.376V502.598M489.57 552.376L523.314 577.006M556.794 551.858V601.895M556.794 551.858L523.314 527.228M556.794 601.895L523.314 577.006M556.794 502.598L523.314 527.228M523.314 527.228V577.006M859.43 278.856L893.174 254.226M859.43 278.856V328.893M859.43 278.856L825.95 254.226M893.174 254.226V304.004L859.43 328.893M893.174 254.226L859.43 229.596L825.95 254.226M859.43 328.893L825.95 304.263M859.43 328.893L825.95 353.523M825.95 254.226V304.263M825.95 304.263L792.207 328.893M859.43 378.153L893.174 353.523V403.301L859.43 427.931M859.43 378.153V427.931M859.43 378.153L825.95 353.523M859.43 427.931L893.174 452.561M859.43 427.931L825.95 452.561M825.95 353.523V452.561M825.95 452.561L859.43 477.45M825.95 452.561V502.598L792.207 527.228M837.286 384.894L846.776 391.894M691.504 204.966V154.929M691.504 204.966L724.984 229.596M635.353 186.559L644.843 193.559M657.76 576.488L691.504 551.858M657.76 576.488V626.525M657.76 576.488L624.017 551.858M691.504 551.858V601.895M691.504 551.858V601.636L657.76 626.525M691.504 601.895L657.76 626.525M691.504 601.895V552.117L657.76 576.747V626.525M691.504 601.895L724.984 626.525M657.76 626.525L691.504 651.155M657.76 626.525L624.017 651.155M624.017 551.858V651.155M624.017 651.155V701.192L590.537 725.822M624.017 651.155V552.117M624.017 651.155L657.76 675.784M792.207 328.893L769.272 311.782M792.207 328.893V477.709L758.727 502.339M724.984 279.634V229.596M724.984 279.634L758.727 304.263M691.504 354.042L748.182 311.782M724.984 229.596L758.727 204.966L792.207 229.596V279.374L758.727 304.263M758.727 502.339L769.272 494.561V311.782M758.727 502.339L748.182 494.561V311.782M758.727 304.263L748.182 311.782M758.727 304.263L769.272 311.782M769.272 296.486V238.67L792.207 255.263M748.182 296.486V238.411L724.984 255.522M758.727 154.67L792.207 130.04V180.077L758.727 204.707M758.727 154.67V204.707M758.727 154.67L724.984 130.04V180.077L758.727 204.707M859.43 527.228V477.45M859.43 477.45L893.174 452.561M893.174 452.561V502.598M792.207 527.228V577.265M792.207 527.228L758.727 551.858M792.207 527.228L758.727 502.598L724.984 527.228M724.984 577.265L691.504 552.376L724.984 577.006M724.984 577.265V527.228M724.984 577.265L758.727 601.895M758.727 551.858V601.895M758.727 551.858L724.984 527.228M758.727 601.895L724.984 577.006M758.727 601.895L724.984 626.525M758.727 601.895L792.207 626.525V676.303L758.727 701.192M724.984 527.228V577.006M993.613 130.299L960.133 154.929M993.613 130.299V180.337L960.133 204.966M993.613 130.299V279.374L960.133 304.263M859.167 278.856L892.91 254.226M859.167 278.856V328.893M859.167 278.856L825.687 254.226M892.91 254.226V304.004L859.167 328.893M892.91 254.226L859.167 229.596L825.687 254.226M859.167 328.893L825.687 304.263V254.226M892.91 304.263L926.39 279.634M926.39 279.634V180.337M926.39 279.634L960.133 304.263M892.91 354.042L926.39 378.671M926.39 378.671V328.893M926.39 378.671L960.133 403.301M960.133 353.523L993.613 328.893M960.133 353.523V403.301M960.133 353.523L926.39 328.893M993.613 328.893V378.671L960.133 403.301M993.613 328.893L960.133 304.263M960.133 304.263L926.39 328.893M960.133 154.929V204.966M960.133 154.929L926.39 130.299V180.337M960.133 204.966L926.39 180.337M993.613 527.228L960.133 502.598M993.613 527.228L960.133 551.858M993.613 527.228V577.265L960.133 601.895M993.613 527.228V676.303L960.133 701.192M960.133 502.598L926.39 527.228M960.133 502.598L926.39 477.968L892.91 452.561M926.39 527.228L960.133 551.858M926.39 527.228V577.265M894.755 452.82L960.133 403.042M321.38 577.006V526.969L355.124 551.598M321.38 577.006L355.124 601.636M724.984 577.006V526.969L758.727 551.598M724.984 577.006L758.727 601.636M287.9 701.192V651.155M287.9 701.192L321.38 676.562M287.9 701.192V750.97M287.9 651.155L254.157 675.784M254.157 775.082L287.9 750.452L321.38 775.6M254.157 775.082V824.86M254.157 775.082L220.677 750.452L186.934 725.822M254.157 775.082V675.784M321.38 775.6L254.157 824.86M321.38 775.6L287.9 750.97M321.38 775.6V874.638L355.124 899.268M254.157 824.86L220.677 800.23L186.934 775.6M254.157 824.86L287.9 849.489M254.157 824.86L220.677 849.489M304.245 762.637L268.656 788.822M186.934 725.822V775.6M186.934 725.822L153.454 750.452M186.934 725.822L153.454 701.192M186.934 775.6L153.454 800.23M86.2304 651.155L52.4869 675.784V725.822L86.2304 700.933V651.155ZM86.2304 701.192L119.71 676.562M119.71 676.562L153.454 701.192M86.2304 750.97L119.71 775.6M119.71 775.6V725.822M119.71 775.6L153.454 800.23M153.454 750.452V800.23M153.454 750.452L119.71 725.822M153.454 701.192L119.71 725.822M254.157 874.378L287.9 849.489M254.157 874.378V924.157M254.157 874.378L220.677 849.489M287.9 849.489V899.527M287.9 899.527L254.157 924.157M287.9 899.527L321.38 874.897M254.157 924.157L220.677 899.527M254.157 924.157L220.677 948.786M220.677 849.489V899.527M220.677 849.489L153.454 799.971L88.0757 849.749M220.677 849.489L153.454 899.527M220.677 899.527L186.934 924.157M186.934 924.157V974.194M186.934 924.157L153.454 948.786M186.934 924.157V973.935M186.934 924.157L153.454 899.527M52.4869 874.378L86.2304 849.489M86.2304 849.489L52.4869 824.86M86.2304 849.489L119.71 874.897L153.454 899.527M86.2304 849.489V949.305L119.71 974.194M52.4869 824.86L18.7435 849.489M52.4869 824.86L86.2304 800.23V750.452L52.4869 775.082V824.86ZM456.09 973.416L489.834 948.786M456.09 973.416V1023.45M456.09 973.416L422.611 948.786M456.09 973.416L489.57 948.786M456.09 973.416L422.347 948.786M456.09 973.416L489.834 948.527M456.09 973.416V1023.19M456.09 973.416L422.611 948.527L456.09 973.157M456.09 973.416L489.57 948.527M456.09 973.416L422.347 948.527M489.834 948.786L523.314 974.194M489.834 948.786L456.09 924.157M523.314 974.194L456.09 1023.45M523.314 974.194L489.57 948.786M523.314 974.194L489.57 949.305V849.489M523.314 974.194V924.157M523.314 974.194L556.794 998.824M456.09 1023.45L388.867 973.935M456.09 1023.45L388.604 973.935M388.867 973.935L456.09 924.157M388.867 973.935V924.157M388.867 973.935L355.124 998.824M388.867 973.935L456.09 923.897M388.867 973.935L456.09 1023.19M456.09 924.157V874.378M456.09 924.157L388.604 973.935M456.09 924.157L489.57 948.786M52.4869 973.416L86.2304 948.786M52.4869 973.416V1023.45L119.71 974.194M52.4869 973.416L86.2304 948.527M52.4869 973.416V1023.19M86.2304 948.786L119.71 974.194M86.2304 948.786L52.4869 924.157L-15 973.935L52.4869 923.897M119.71 974.194V924.157M119.71 974.194L153.454 998.824M66.9861 987.157L102.575 961.231M153.454 948.786V998.824M153.454 948.786L119.71 924.157M186.934 973.935L153.454 998.824M186.934 973.935V923.897M186.934 973.935L153.454 998.564M153.454 899.527L119.71 924.157M456.09 675.784L489.57 651.155M456.09 675.784V725.822M456.09 675.784L422.347 651.155M489.57 651.155V700.933L456.09 725.822M456.09 725.822L422.347 701.192M456.09 725.822L422.347 750.452M422.347 651.155V701.192M422.347 701.192L388.867 725.822M456.09 775.082L489.57 750.452V800.23L456.09 824.86M456.09 775.082V824.86M456.09 775.082L422.347 750.452M456.09 824.86L489.57 849.489M456.09 824.86L422.347 849.489M422.347 750.452V849.489M422.347 849.489L456.09 874.378M422.347 849.489V899.527L388.867 924.157M433.683 781.822L443.173 788.822M232.013 583.488L241.503 590.488M254.157 973.416L287.9 948.786M254.157 973.416V1023.45L287.9 998.824V948.786M254.157 973.416L220.677 948.786M254.157 973.416V1023.19M287.9 948.786V998.564M220.677 948.786V1048.08M220.677 948.786V1047.82M388.867 725.822L365.668 708.711M388.867 725.822V874.638L355.124 899.268M321.38 676.562V626.525M321.38 676.562L355.124 701.192M287.9 750.97L344.579 708.711M355.124 899.268L365.668 891.49V708.711M355.124 899.268L344.579 891.49V708.711M355.124 701.192L344.579 708.711M355.124 701.192L365.668 708.711M365.668 693.414V635.599L388.604 652.192M344.579 693.414V635.34L321.38 652.451M355.124 551.598V601.636M456.09 874.378L489.57 849.489M489.57 849.489L523.05 874.897L556.794 899.527M388.867 924.157V974.194M388.867 924.157L355.124 948.786M388.867 924.157L355.124 899.527L321.38 924.157M287.9 949.305L321.38 974.194M321.38 974.194V924.157M321.38 974.194L355.124 998.824M355.124 948.786V998.824M355.124 948.786L321.38 924.157M691.504 701.192V651.155M691.504 701.192L724.984 676.562M691.504 701.192V750.97M691.504 651.155L657.76 675.784M657.76 775.082L691.504 750.452L724.984 775.6M657.76 775.082V824.86M657.76 775.082L624.017 750.452L590.537 725.822M657.76 775.082V675.784M724.984 775.6L657.76 824.86M724.984 775.6L691.504 750.97M724.984 775.6V874.638L758.727 899.268M657.76 824.86L624.017 800.23L590.537 775.6M657.76 824.86L691.504 849.489M657.76 824.86L624.017 849.489M707.848 762.637L672.26 788.822M590.537 725.822V775.6M590.537 725.822L556.794 750.452M590.537 725.822L556.794 701.192M590.537 775.6L556.794 800.23M489.57 701.192L523.314 676.562M523.314 676.562L556.794 701.192M489.57 750.97L523.314 775.6M523.314 775.6V725.822M523.314 775.6L556.794 800.23M556.794 750.452V800.23M556.794 750.452L523.314 725.822M556.794 701.192L523.314 725.822M657.76 874.378L691.504 849.489M657.76 874.378V924.157M657.76 874.378L624.017 849.489M691.504 849.489V899.527M691.504 899.527L657.76 924.157M691.504 899.527L724.984 874.897M657.76 924.157L624.017 899.527M657.76 924.157L624.017 948.786M624.017 849.489V899.527M624.017 849.489L556.794 799.971L491.416 849.749M624.017 849.489L556.794 899.527M624.017 899.527L590.537 924.157M590.537 924.157V974.194M590.537 924.157L556.794 948.786M590.537 924.157V973.935M590.537 924.157L556.794 899.527M859.694 973.416L893.437 948.786M859.694 973.416V1023.45M859.694 973.416L825.95 948.786M859.694 973.416L893.437 948.527M859.694 973.416V1023.19M859.694 973.416L825.95 948.527M893.437 948.786L926.917 974.194L859.694 1023.45M893.437 948.786L859.694 924.157L792.207 973.935M859.694 1023.45L792.207 973.935M792.207 973.935V924.157M792.207 973.935L758.727 998.824M792.207 973.935L859.694 923.897M792.207 973.935L859.694 1023.19M470.59 987.157L506.178 961.231M388.604 973.935L456.09 923.897M388.604 973.935L456.09 1023.19M556.794 948.786V998.824M556.794 948.786L523.314 924.157M590.537 973.935L556.794 998.824M590.537 973.935V923.897M590.537 973.935L556.794 998.564M556.794 899.527L523.314 924.157M859.43 675.784L893.174 651.155M859.43 675.784V725.822M859.43 675.784L825.95 651.155M893.174 651.155V700.933L859.43 725.822M893.174 651.155L859.43 626.525L825.95 651.155M859.43 725.822L825.95 701.192M859.43 725.822L825.95 750.452M825.95 651.155V701.192M825.95 701.192L792.207 725.822M859.43 775.082L893.174 750.452V800.23L859.43 824.86M859.43 775.082V824.86M859.43 775.082L825.95 750.452M859.43 824.86L893.174 849.489M859.43 824.86L825.95 849.489M825.95 750.452V849.489M825.95 849.489L859.43 874.378M825.95 849.489V899.527L792.207 924.157M837.286 781.822L846.776 788.822M635.353 583.488L644.843 590.488M657.76 973.416L691.504 948.786M657.76 973.416V1023.45L691.504 998.824V948.786M657.76 973.416L624.017 948.786M657.76 973.416V1023.19M691.504 948.786V998.564M624.017 948.786V1048.08M624.017 948.786V1047.82M792.207 725.822L769.272 708.711M792.207 725.822V874.638L758.727 899.268M724.984 676.562V626.525M724.984 676.562L758.727 701.192M691.504 750.97L748.182 708.711M758.727 899.268L769.272 891.49V708.711M758.727 899.268L748.182 891.49V708.711M758.727 701.192L748.182 708.711M758.727 701.192L769.272 708.711M769.272 693.414V635.599L792.207 652.192M748.182 693.414V635.34L724.984 652.451M758.727 551.598V601.636M859.43 924.157V874.378M859.43 874.378L893.174 849.489M893.174 849.489V899.527M792.207 924.157V974.194M792.207 924.157L758.727 948.786M792.207 924.157L758.727 899.527L724.984 924.157M691.504 949.305L724.984 974.194M724.984 974.194V924.157M724.984 974.194L758.727 998.824M758.727 948.786V998.824M758.727 948.786L724.984 924.157M859.167 675.784L892.91 651.155M859.167 675.784V725.822M859.167 675.784L825.687 651.155M892.91 651.155V700.933L859.167 725.822M892.91 651.155L859.167 626.525L825.687 651.155M859.167 725.822L825.687 701.192V651.155M892.91 701.192L926.39 676.562M926.39 676.562V577.265M926.39 676.562L960.133 701.192M892.91 750.97L926.39 775.6M926.39 775.6V725.822M926.39 775.6L960.133 800.23M960.133 750.452L993.613 725.822M960.133 750.452V800.23M960.133 750.452L926.39 725.822M993.613 725.822V775.6L960.133 800.23M993.613 725.822L960.133 701.192M960.133 701.192L926.39 725.822M960.133 551.858V601.895M960.133 601.895L926.39 577.265M993.613 924.157L960.133 899.527M960.133 899.527L926.39 924.157M960.133 899.527L926.39 874.897L892.91 849.489M894.755 849.749L960.133 799.971M287.9 1097.86V1047.82M287.9 1097.86L321.38 1073.23M287.9 1097.86V1147.64M287.9 1047.82L254.157 1023.19M287.9 1047.82L254.157 1072.45M254.157 1023.19L220.677 1047.82M254.157 1023.19L287.9 998.564M254.157 1023.19L287.9 998.305V948.527M254.157 1023.19V973.157M220.677 1047.82V1097.86L186.934 1122.49M220.677 1047.82L254.157 1072.45M220.677 1047.82V948.527L254.157 973.157M254.157 1171.75L287.9 1147.12L321.38 1172.27M254.157 1171.75V1221.53M254.157 1171.75L220.677 1147.12L186.934 1122.49M254.157 1171.75V1072.45M321.38 1172.27L254.157 1221.53M321.38 1172.27L287.9 1147.64M321.38 1172.27V1271.31L355.124 1295.94M254.157 1221.53L220.677 1196.9L186.934 1172.27M254.157 1221.53L287.9 1246.16M254.157 1221.53L220.677 1246.16M304.245 1159.31L268.656 1185.49M186.934 1122.49V1172.27M186.934 1122.49L153.454 1147.12M186.934 1122.49L153.454 1097.86M186.934 1172.27L153.454 1196.9M186.934 923.897L153.454 948.527M186.934 923.897V1072.97L153.454 1097.86M186.934 923.897V973.675L153.454 998.564M86.2304 1047.82L52.4869 1072.45V1122.49L86.2304 1097.6V1047.82ZM86.2304 1047.82L52.4869 1023.19M52.4869 1023.19L18.7435 1047.82M52.4869 1023.19L119.71 973.935M52.4869 1023.19L119.71 973.675M52.4869 1023.19V973.157L86.2304 948.527M86.2304 1097.86L119.71 1073.23M119.71 1073.23V973.935M119.71 1073.23L153.454 1097.86M86.2304 1147.64L119.71 1172.27M119.71 1172.27V1122.49M119.71 1172.27L153.454 1196.9M153.454 1147.12V1196.9M153.454 1147.12L119.71 1122.49M153.454 1097.86L119.71 1122.49M153.454 948.527V998.564M153.454 948.527L119.71 923.897M153.454 998.564L119.71 973.935M153.454 998.564L119.71 973.675M119.71 923.897V973.935M119.71 923.897V973.675M119.71 973.935L86.2304 948.527M254.157 1271.05L287.9 1246.16M254.157 1271.05V1320.83M254.157 1271.05L220.677 1246.16M287.9 1246.16V1296.2M287.9 1296.2L254.157 1320.83M287.9 1296.2L321.38 1271.57M254.157 1320.83L220.677 1296.2M254.157 1320.83L220.677 1345.46M220.677 1246.16V1296.2M220.677 1246.16L153.454 1196.64L88.0757 1246.42M220.677 1246.16L153.454 1296.2M220.677 1296.2L186.934 1320.83M186.934 1320.83V1370.86M186.934 1320.83L153.454 1345.46M186.934 1320.83V1370.6M186.934 1320.83L153.454 1296.2M52.4869 1271.05L86.2304 1246.16M86.2304 1246.16L52.4869 1221.53M86.2304 1246.16L119.71 1271.57L153.454 1296.2M86.2304 1246.16V1345.97L119.71 1370.86M52.4869 1221.53L18.7435 1246.16M52.4869 1221.53L86.2304 1196.9V1147.12L52.4869 1171.75V1221.53ZM456.09 1370.09L489.834 1345.46M456.09 1370.09V1420.12M456.09 1370.09L422.611 1345.46M456.09 1370.09L489.57 1345.46M456.09 1370.09L422.347 1345.46M456.09 1370.09L489.834 1345.2M456.09 1370.09V1419.86M456.09 1370.09L422.611 1345.2M456.09 1370.09L489.57 1345.2M456.09 1370.09L422.347 1345.2L388.867 1369.83M489.834 1345.46L523.314 1370.86M489.834 1345.46L456.09 1320.83M523.314 1370.86L456.09 1420.12M523.314 1370.86L489.57 1345.46M523.314 1370.86L489.57 1345.97V1246.16M523.314 1370.86V1320.83M523.314 1370.86L556.794 1395.49M456.09 1420.12L388.867 1370.6M456.09 1420.12L388.604 1370.6M388.867 1370.6L456.09 1320.83M388.867 1370.6V1320.83M388.867 1370.6L355.124 1395.49M388.867 1370.6L456.09 1320.57M388.867 1370.6L456.09 1419.86M456.09 1320.83V1271.05M456.09 1320.83L388.604 1370.6M456.09 1320.83L489.57 1345.46M489.834 948.527L523.314 973.935M489.834 948.527L456.09 923.897M489.834 948.527L456.09 973.157M489.834 948.527L523.314 973.675M523.314 973.935L456.09 1023.19M523.314 973.935V923.897M523.314 973.935L556.794 998.564M523.314 973.935L489.57 948.527M523.314 973.935V1073.23M456.09 1023.19L489.57 1047.82M456.09 1023.19L422.347 1047.82M456.09 1023.19L523.314 973.675M456.09 1023.19V973.157M456.09 1023.19L388.867 973.675M456.09 1023.19L388.604 973.675L456.09 923.897M456.09 923.897L489.57 948.527M456.09 923.897L388.867 973.675M86.2304 948.527L52.4869 923.897M86.2304 948.527L119.71 973.675M101.784 961.49L66.9861 986.898L102.575 960.712M52.4869 923.897L-15 973.675M52.4869 1370.09L86.2304 1345.46M52.4869 1370.09V1420.12L119.71 1370.86M52.4869 1370.09L86.2304 1345.2M52.4869 1370.09V1419.86M86.2304 1345.46L119.71 1370.86M86.2304 1345.46L52.4869 1320.83L-15 1370.6L52.4869 1320.57L86.2304 1345.2M119.71 1370.86V1320.83M119.71 1370.86L153.454 1395.49M66.9861 1383.83L102.575 1357.9M153.454 1345.46V1395.49M153.454 1345.46L119.71 1320.83M186.934 1370.6L153.454 1395.49M186.934 1370.6V1320.57M186.934 1370.6L153.454 1395.23M153.454 1296.2L119.71 1320.83M456.09 1072.45L489.57 1047.82M456.09 1072.45V1122.49M456.09 1072.45L422.347 1047.82M489.57 1047.82V1097.6L456.09 1122.49M456.09 1122.49L422.347 1097.86M456.09 1122.49L422.347 1147.12M422.347 1047.82V1097.86M422.347 1097.86L388.867 1122.49M456.09 1171.75L489.57 1147.12V1196.9L456.09 1221.53M456.09 1171.75V1221.53M456.09 1171.75L422.347 1147.12M456.09 1221.53L489.57 1246.16M456.09 1221.53L422.347 1246.16M422.347 1147.12V1246.16M422.347 1246.16L456.09 1271.05M422.347 1246.16V1296.2L388.867 1320.83M433.683 1178.49L443.173 1185.49M287.9 998.564V948.527M287.9 998.564L321.38 1023.19M232.013 980.157L241.503 987.157M254.157 1370.09L287.9 1345.46M254.157 1370.09V1420.12L287.9 1395.49V1345.46M254.157 1370.09L220.677 1345.46M254.157 1370.09V1419.86M287.9 1345.46V1395.23M220.677 1345.46V1444.75M220.677 1345.46V1444.49M388.867 1122.49L365.668 1105.38M388.867 1122.49V1271.31L355.124 1295.94M388.867 973.157L422.347 948.527M422.347 948.527L456.09 973.157M321.38 1073.23V1023.19M321.38 1073.23L355.124 1097.86M287.9 1147.64L344.579 1105.38M287.9 948.527L254.157 973.157M321.38 1023.19L355.124 998.564M355.124 1295.94L365.668 1288.16V1105.38M355.124 1295.94L344.579 1288.16V1105.38M355.124 1097.86L388.867 1072.97V1023.19L355.124 998.564M355.124 1097.86L344.579 1105.38M355.124 1097.86L365.668 1105.38M355.124 998.564L388.867 973.675M355.124 998.564V948.527M355.124 998.564L321.38 973.675M365.668 1090.08V1032.27L388.604 1048.86M344.579 1090.08V1032.01L321.38 1049.12M355.124 948.268L388.867 923.638V973.675M355.124 948.268V998.305M355.124 948.268L321.38 923.638V973.675M388.867 973.675L355.124 998.305M388.867 973.675V923.897L355.124 948.527M355.124 998.305L321.38 973.675M321.38 973.675L287.9 949.046M321.38 973.675V923.897L355.124 948.527M456.09 1271.05L489.57 1246.16M489.57 1246.16L523.05 1271.57L556.794 1296.2M388.867 1320.83V1370.86M388.867 1320.83L355.124 1345.46M388.867 1320.83L355.124 1296.2L321.38 1320.83M287.9 1345.97L321.38 1370.86M321.38 1370.86V1320.83M321.38 1370.86L355.124 1395.49M355.124 1345.46V1395.49M355.124 1345.46L321.38 1320.83M691.504 1097.86V1047.82M691.504 1097.86L724.984 1073.23M691.504 1097.86V1147.64M691.504 1047.82L657.76 1023.19M691.504 1047.82L657.76 1072.45M657.76 1023.19L624.017 1047.82M657.76 1023.19L691.504 998.564M657.76 1023.19L691.504 998.305V948.527M657.76 1023.19V973.157M624.017 1047.82V1097.86L590.537 1122.49M624.017 1047.82L657.76 1072.45M624.017 1047.82V948.527L657.76 973.157M657.76 1171.75L691.504 1147.12L724.984 1172.27M657.76 1171.75V1221.53M657.76 1171.75L624.017 1147.12L590.537 1122.49M657.76 1171.75V1072.45M724.984 1172.27L657.76 1221.53M724.984 1172.27L691.504 1147.64M724.984 1172.27V1271.31L758.727 1295.94M657.76 1221.53L624.017 1196.9L590.537 1172.27M657.76 1221.53L691.504 1246.16M657.76 1221.53L624.017 1246.16M707.848 1159.31L672.26 1185.49M590.537 1122.49V1172.27M590.537 1122.49L556.794 1147.12M590.537 1122.49L556.794 1097.86M590.537 1172.27L556.794 1196.9M590.537 923.897L556.794 948.527M590.537 923.897V1072.97L556.794 1097.86M590.537 923.897V973.675L556.794 998.564M489.57 1097.86L523.314 1073.23M523.314 1073.23L556.794 1097.86M489.57 1147.64L523.314 1172.27M523.314 1172.27V1122.49M523.314 1172.27L556.794 1196.9M556.794 1147.12V1196.9M556.794 1147.12L523.314 1122.49M556.794 1097.86L523.314 1122.49M556.794 948.527V998.564M556.794 948.527L523.314 923.897M556.794 998.564L523.314 973.675M523.314 923.897V973.675M657.76 1271.05L691.504 1246.16M657.76 1271.05V1320.83M657.76 1271.05L624.017 1246.16M691.504 1246.16V1296.2M691.504 1296.2L657.76 1320.83M691.504 1296.2L724.984 1271.57M657.76 1320.83L624.017 1296.2M657.76 1320.83L624.017 1345.46M624.017 1246.16V1296.2M624.017 1246.16L556.794 1196.64L491.416 1246.42M624.017 1246.16L556.794 1296.2M624.017 1296.2L590.537 1320.83M590.537 1320.83V1370.86M590.537 1320.83L556.794 1345.46M590.537 1320.83V1370.6M590.537 1320.83L556.794 1296.2M859.694 1370.09L893.437 1345.46M859.694 1370.09V1420.12M859.694 1370.09L825.95 1345.46M859.694 1370.09L893.437 1345.2M859.694 1370.09V1419.86M859.694 1370.09L825.95 1345.2L792.207 1369.83M893.437 1345.46L926.917 1370.86L859.694 1420.12M893.437 1345.46L859.694 1320.83L792.207 1370.6M859.694 1420.12L792.207 1370.6M792.207 1370.6V1320.83M792.207 1370.6L758.727 1395.49M792.207 1370.6L859.694 1320.57L893.437 1345.2M792.207 1370.6L859.694 1419.86M893.437 948.527L926.917 973.935L859.694 1023.19M893.437 948.527L859.694 923.897M893.437 948.527L859.694 973.157M893.437 948.527L926.917 973.675L859.694 1023.19M859.694 1023.19V973.157M859.694 1023.19L792.207 973.675M859.694 923.897L792.207 973.675M825.95 948.527L792.207 973.157M825.95 948.527L859.694 973.157M489.57 948.527L456.09 973.157M489.57 948.527L523.314 973.675M505.124 961.49L470.59 986.898L506.178 960.712M470.59 1383.83L506.178 1357.9M388.604 1370.6L456.09 1320.57M388.604 1370.6L456.09 1419.86M556.794 1345.46V1395.49M556.794 1345.46L523.314 1320.83M590.537 1370.6L556.794 1395.49M590.537 1370.6V1320.57M590.537 1370.6L556.794 1395.23M556.794 1296.2L523.314 1320.83M859.43 1072.45L893.174 1047.82M859.43 1072.45V1122.49M859.43 1072.45L825.95 1047.82M893.174 1047.82V1097.6L859.43 1122.49M893.174 1047.82L859.43 1023.19L825.95 1047.82M859.43 1122.49L825.95 1097.86M859.43 1122.49L825.95 1147.12M825.95 1047.82V1097.86M825.95 1097.86L792.207 1122.49M859.43 1171.75L893.174 1147.12V1196.9L859.43 1221.53M859.43 1171.75V1221.53M859.43 1171.75L825.95 1147.12M859.43 1221.53L893.174 1246.16M859.43 1221.53L825.95 1246.16M825.95 1147.12V1246.16M825.95 1246.16L859.43 1271.05M825.95 1246.16V1296.2L792.207 1320.83M837.286 1178.49L846.776 1185.49M691.504 998.564V948.527M691.504 998.564L724.984 1023.19M635.353 980.157L644.843 987.157M657.76 1370.09L691.504 1345.46M657.76 1370.09V1420.12L691.504 1395.49V1345.46M657.76 1370.09L624.017 1345.46M657.76 1370.09V1419.86M691.504 1345.46V1395.23M624.017 1345.46V1444.75M624.017 1345.46V1444.49M792.207 1122.49L769.272 1105.38M792.207 1122.49V1271.31L758.727 1295.94M724.984 1073.23V1023.19M724.984 1073.23L758.727 1097.86M691.504 1147.64L748.182 1105.38M691.504 948.527L657.76 973.157M724.984 1023.19L758.727 998.564M758.727 1295.94L769.272 1288.16V1105.38M758.727 1295.94L748.182 1288.16V1105.38M758.727 1097.86L792.207 1072.97V1023.19L758.727 998.564M758.727 1097.86L748.182 1105.38M758.727 1097.86L769.272 1105.38M758.727 998.564L792.207 973.675M758.727 998.564V948.527M758.727 998.564L724.984 973.675M769.272 1090.08V1032.27L792.207 1048.86M748.182 1090.08V1032.01L724.984 1049.12M758.727 948.268L792.207 923.638V973.675M758.727 948.268V998.305M758.727 948.268L724.984 923.638V973.675M792.207 973.675L758.727 998.305M792.207 973.675V923.897L758.727 948.527M758.727 998.305L724.984 973.675M724.984 973.675L691.504 949.046M724.984 973.675V923.897L758.727 948.527M859.43 1320.83V1271.05M859.43 1271.05L893.174 1246.16M893.174 1246.16V1296.2M792.207 1320.83V1370.86M792.207 1320.83L758.727 1345.46M792.207 1320.83L758.727 1296.2L724.984 1320.83M691.504 1345.97L724.984 1370.86M724.984 1370.86V1320.83M724.984 1370.86L758.727 1395.49M758.727 1345.46V1395.49M758.727 1345.46L724.984 1320.83M993.613 923.897L960.133 948.527M993.613 923.897V973.935L960.133 998.564M993.613 923.897V1072.97L960.133 1097.86M859.167 1072.45L892.91 1047.82M859.167 1072.45V1122.49M859.167 1072.45L825.687 1047.82M892.91 1047.82V1097.6L859.167 1122.49M892.91 1047.82L859.167 1023.19L825.687 1047.82M859.167 1122.49L825.687 1097.86V1047.82M892.91 1097.86L926.39 1073.23M926.39 1073.23V973.935M926.39 1073.23L960.133 1097.86M892.91 1147.64L926.39 1172.27M926.39 1172.27V1122.49M926.39 1172.27L960.133 1196.9M960.133 1147.12L993.613 1122.49M960.133 1147.12V1196.9M960.133 1147.12L926.39 1122.49M993.613 1122.49V1172.27L960.133 1196.9M993.613 1122.49L960.133 1097.86M960.133 1097.86L926.39 1122.49M960.133 948.527V998.564M960.133 948.527L926.39 923.897V973.935M960.133 998.564L926.39 973.935M993.613 1320.83L960.133 1296.2M960.133 1296.2L926.39 1320.83M960.133 1296.2L926.39 1271.57L892.91 1246.16M894.755 1246.42L960.133 1196.64M523.314 973.675L489.57 949.046V899.268M119.71 973.675L86.2304 949.046V899.268M287.9 1494.53V1444.49M287.9 1494.53L321.38 1469.9M287.9 1494.53V1544.31M287.9 1444.49L254.157 1419.86M287.9 1444.49L254.157 1469.12M254.157 1419.86L220.677 1444.49M254.157 1419.86L287.9 1395.23M220.677 1444.49V1494.53L186.934 1519.16M220.677 1444.49L254.157 1469.12M254.157 1568.42L287.9 1543.79L321.38 1568.94M254.157 1568.42V1618.2M254.157 1568.42L220.677 1543.79L186.934 1519.16M254.157 1568.42V1469.12M321.38 1568.94L254.157 1618.2M321.38 1568.94L287.9 1544.31M321.38 1568.94V1667.98L355.124 1692.61M254.157 1618.2L220.677 1593.57L186.934 1568.94M254.157 1618.2L287.9 1642.83M254.157 1618.2L220.677 1642.83M304.245 1555.98L268.656 1582.16M186.934 1519.16V1568.94M186.934 1519.16L153.454 1543.79M186.934 1519.16L153.454 1494.53M186.934 1568.94L153.454 1593.57M186.934 1320.57L153.454 1345.2M186.934 1320.57V1469.64L153.454 1494.53M86.2304 1444.49L52.4869 1469.12V1519.16L86.2304 1494.27V1444.49ZM86.2304 1444.49L52.4869 1419.86M52.4869 1419.86L18.7435 1444.49M52.4869 1419.86L119.71 1370.6M86.2304 1494.53L119.71 1469.9M119.71 1469.9V1370.6M119.71 1469.9L153.454 1494.53M86.2304 1544.31L119.71 1568.94M119.71 1568.94V1519.16M119.71 1568.94L153.454 1593.57M153.454 1543.79V1593.57M153.454 1543.79L119.71 1519.16M153.454 1494.53L119.71 1519.16M153.454 1345.2V1395.23M153.454 1345.2L119.71 1320.57V1370.6M153.454 1395.23L119.71 1370.6M119.71 1370.6L86.2304 1345.2M254.157 1667.72L287.9 1642.83M254.157 1667.72V1717.5M254.157 1667.72L220.677 1642.83M287.9 1642.83V1692.87M287.9 1692.87L254.157 1717.5M287.9 1692.87L321.38 1668.24M254.157 1717.5L220.677 1692.87M254.157 1717.5L220.677 1742.13M220.677 1642.83V1692.87M220.677 1642.83L153.454 1593.31L88.0757 1643.09M220.677 1642.83L153.454 1692.87M220.677 1692.87L186.934 1717.5M186.934 1717.5V1767.53M186.934 1717.5L153.454 1742.13M186.934 1717.5V1767.27L153.454 1792.16M186.934 1717.5L153.454 1692.87M52.4869 1667.72L86.2304 1642.83M86.2304 1642.83L52.4869 1618.2M86.2304 1642.83L119.71 1668.24L153.454 1692.87M86.2304 1642.83V1742.64L119.71 1767.53M52.4869 1618.2L18.7435 1642.83M52.4869 1618.2L86.2304 1593.57V1543.79L52.4869 1568.42V1618.2ZM456.09 1766.76L489.834 1742.13M456.09 1766.76V1816.79L523.314 1767.53M456.09 1766.76L422.611 1742.13M456.09 1766.76L489.57 1742.13M456.09 1766.76L422.347 1742.13M489.834 1742.13L523.314 1767.53M489.834 1742.13L456.09 1717.5M523.314 1767.53L489.57 1742.13M523.314 1767.53L489.57 1742.64V1642.83M523.314 1767.53V1717.5M523.314 1767.53L556.794 1792.16M388.867 1767.27L456.09 1717.5M388.867 1767.27V1717.5M388.867 1767.27L355.124 1792.16M456.09 1717.5V1667.72M456.09 1717.5L388.604 1767.27M456.09 1717.5L489.57 1742.13M489.834 1345.2L523.314 1370.6M489.834 1345.2L456.09 1320.57M523.314 1370.6L456.09 1419.86M523.314 1370.6V1320.57L556.794 1345.2M523.314 1370.6L556.794 1395.23M523.314 1370.6L489.57 1345.2M523.314 1370.6V1469.9M456.09 1419.86L489.57 1444.49M456.09 1419.86L422.347 1444.49M456.09 1320.57L489.57 1345.2M66.9861 1383.57L101.784 1358.16M86.2304 1742.13L52.4869 1766.76V1816.79L119.71 1767.53M86.2304 1742.13L119.71 1767.53M86.2304 1742.13L52.4869 1717.5L-15 1767.27M119.71 1767.53V1717.5M119.71 1767.53L153.454 1792.16M66.9861 1780.5L102.575 1754.57M153.454 1742.13V1792.16M153.454 1742.13L119.71 1717.5M153.454 1692.87L119.71 1717.5M456.09 1469.12L489.57 1444.49M456.09 1469.12V1519.16M456.09 1469.12L422.347 1444.49M489.57 1444.49V1494.27L456.09 1519.16M456.09 1519.16L422.347 1494.53M456.09 1519.16L422.347 1543.79M422.347 1444.49V1494.53M422.347 1494.53L388.867 1519.16M456.09 1568.42L489.57 1543.79V1593.57L456.09 1618.2M456.09 1568.42V1618.2M456.09 1568.42L422.347 1543.79M456.09 1618.2L489.57 1642.83M456.09 1618.2L422.347 1642.83M422.347 1543.79V1642.83M422.347 1642.83L456.09 1667.72M422.347 1642.83V1692.87L388.867 1717.5M433.683 1575.16L443.173 1582.16M287.9 1395.23V1345.2M287.9 1395.23L321.38 1419.86M232.013 1376.83L241.503 1383.83M254.157 1766.76L287.9 1742.13V1792.16L254.157 1816.79V1766.76ZM254.157 1766.76L220.677 1742.13M220.677 1742.13V1841.42M388.867 1519.16L365.668 1502.05M388.867 1519.16V1667.98L355.124 1692.61M321.38 1469.9V1419.86M321.38 1469.9L355.124 1494.53M287.9 1544.31L344.579 1502.05M321.38 1419.86L355.124 1395.23L388.867 1419.86V1469.64L355.124 1494.53M355.124 1692.61L365.668 1684.83V1502.05M355.124 1692.61L344.579 1684.83V1502.05M355.124 1494.53L344.579 1502.05M355.124 1494.53L365.668 1502.05M365.668 1486.75V1428.94L388.604 1445.53M344.579 1486.75V1428.68L321.38 1445.79M355.124 1344.94L388.867 1320.31V1370.34L355.124 1394.97M355.124 1344.94V1394.97M355.124 1344.94L321.38 1320.31V1370.34L355.124 1394.97M456.09 1667.72L489.57 1642.83M489.57 1642.83L523.05 1668.24L556.794 1692.87M388.867 1717.5V1767.53M388.867 1717.5L355.124 1742.13M388.867 1717.5L355.124 1692.87L321.38 1717.5M287.9 1742.64L321.38 1767.53M321.38 1767.53V1717.5M321.38 1767.53L355.124 1792.16M355.124 1742.13V1792.16M355.124 1742.13L321.38 1717.5M691.504 1494.53V1444.49M691.504 1494.53L724.984 1469.9M691.504 1494.53V1544.31M691.504 1444.49L657.76 1419.86M691.504 1444.49L657.76 1469.12M657.76 1419.86L624.017 1444.49M657.76 1419.86L691.504 1395.23M624.017 1444.49V1494.53L590.537 1519.16M624.017 1444.49L657.76 1469.12M657.76 1568.42L691.504 1543.79L724.984 1568.94M657.76 1568.42V1618.2M657.76 1568.42L624.017 1543.79L590.537 1519.16M657.76 1568.42V1469.12M724.984 1568.94L657.76 1618.2M724.984 1568.94L691.504 1544.31M724.984 1568.94V1667.98L758.727 1692.61M657.76 1618.2L624.017 1593.57L590.537 1568.94M657.76 1618.2L691.504 1642.83M657.76 1618.2L624.017 1642.83M707.848 1555.98L672.26 1582.16M590.537 1519.16V1568.94M590.537 1519.16L556.794 1543.79M590.537 1519.16L556.794 1494.53M590.537 1568.94L556.794 1593.57M590.537 1320.57L556.794 1345.2M590.537 1320.57V1469.64L556.794 1494.53M489.57 1494.53L523.314 1469.9M523.314 1469.9L556.794 1494.53M489.57 1544.31L523.314 1568.94M523.314 1568.94V1519.16M523.314 1568.94L556.794 1593.57M556.794 1543.79V1593.57M556.794 1543.79L523.314 1519.16M556.794 1494.53L523.314 1519.16M556.794 1345.2V1395.23M657.76 1667.72L691.504 1642.83M657.76 1667.72V1717.5M657.76 1667.72L624.017 1642.83M691.504 1642.83V1692.87M691.504 1692.87L657.76 1717.5M691.504 1692.87L724.984 1668.24M657.76 1717.5L624.017 1692.87M657.76 1717.5L624.017 1742.13M624.017 1642.83V1692.87M624.017 1642.83L556.794 1593.31L491.416 1643.09M624.017 1642.83L556.794 1692.87M624.017 1692.87L590.537 1717.5M590.537 1717.5V1767.53M590.537 1717.5L556.794 1742.13M590.537 1717.5V1767.27L556.794 1792.16M590.537 1717.5L556.794 1692.87M859.694 1766.76L893.437 1742.13M859.694 1766.76V1816.79L926.917 1767.53L893.437 1742.13M859.694 1766.76L825.95 1742.13M893.437 1742.13L859.694 1717.5L792.207 1767.27M792.207 1767.27V1717.5M792.207 1767.27L758.727 1792.16M893.437 1345.2L926.917 1370.6L859.694 1419.86M470.59 1383.57L505.124 1358.16M470.59 1780.5L506.178 1754.57M556.794 1742.13V1792.16M556.794 1742.13L523.314 1717.5M556.794 1692.87L523.314 1717.5M859.43 1469.12L893.174 1444.49M859.43 1469.12V1519.16M859.43 1469.12L825.95 1444.49M893.174 1444.49V1494.27L859.43 1519.16M893.174 1444.49L859.43 1419.86L825.95 1444.49M859.43 1519.16L825.95 1494.53M859.43 1519.16L825.95 1543.79M825.95 1444.49V1494.53M825.95 1494.53L792.207 1519.16M859.43 1568.42L893.174 1543.79V1593.57L859.43 1618.2M859.43 1568.42V1618.2M859.43 1568.42L825.95 1543.79M859.43 1618.2L893.174 1642.83M859.43 1618.2L825.95 1642.83M825.95 1543.79V1642.83M825.95 1642.83L859.43 1667.72M825.95 1642.83V1692.87L792.207 1717.5M837.286 1575.16L846.776 1582.16M691.504 1395.23V1345.2M691.504 1395.23L724.984 1419.86M635.353 1376.83L644.843 1383.83M657.76 1766.76L691.504 1742.13V1792.16L657.76 1816.79V1766.76ZM657.76 1766.76L624.017 1742.13M624.017 1742.13V1841.42M792.207 1519.16L769.272 1502.05M792.207 1519.16V1667.98L758.727 1692.61M724.984 1469.9V1419.86M724.984 1469.9L758.727 1494.53M691.504 1544.31L748.182 1502.05M724.984 1419.86L758.727 1395.23L792.207 1419.86V1469.64L758.727 1494.53M758.727 1692.61L769.272 1684.83V1502.05M758.727 1692.61L748.182 1684.83V1502.05M758.727 1494.53L748.182 1502.05M758.727 1494.53L769.272 1502.05M769.272 1486.75V1428.94L792.207 1445.53M748.182 1486.75V1428.68L724.984 1445.79M758.727 1344.94L792.207 1320.31V1370.34L758.727 1394.97M758.727 1344.94V1394.97M758.727 1344.94L724.984 1320.31V1370.34L758.727 1394.97M859.43 1717.5V1667.72M859.43 1667.72L893.174 1642.83M893.174 1642.83V1692.87M792.207 1717.5V1767.53M792.207 1717.5L758.727 1742.13M792.207 1717.5L758.727 1692.87L724.984 1717.5M691.504 1742.64L724.984 1767.53M724.984 1767.53V1717.5M724.984 1767.53L758.727 1792.16M758.727 1742.13V1792.16M758.727 1742.13L724.984 1717.5M993.613 1320.57L960.133 1345.2M993.613 1320.57V1370.6L960.133 1395.23M993.613 1320.57V1469.64L960.133 1494.53M859.167 1469.12L892.91 1444.49M859.167 1469.12V1519.16M859.167 1469.12L825.687 1444.49M892.91 1444.49V1494.27L859.167 1519.16M892.91 1444.49L859.167 1419.86L825.687 1444.49M859.167 1519.16L825.687 1494.53V1444.49M892.91 1494.53L926.39 1469.9M926.39 1469.9V1370.6M926.39 1469.9L960.133 1494.53M892.91 1544.31L926.39 1568.94M926.39 1568.94V1519.16M926.39 1568.94L960.133 1593.57M960.133 1543.79L993.613 1519.16M960.133 1543.79V1593.57M960.133 1543.79L926.39 1519.16M993.613 1519.16V1568.94L960.133 1593.57M993.613 1519.16L960.133 1494.53M960.133 1494.53L926.39 1519.16M960.133 1345.2V1395.23M960.133 1345.2L926.39 1320.57V1370.6M960.133 1395.23L926.39 1370.6M993.613 1717.5L960.133 1692.87M960.133 1692.87L926.39 1717.5M960.133 1692.87L926.39 1668.24L892.91 1642.83M894.755 1643.09L960.133 1593.31" stroke="#C5C6E5" stroke-width="1.13451" stroke-miterlimit="10" stroke-linecap="round" stroke-linejoin="round"/>
</mask>
<g mask="url(#mask0_194_8)">
<path d="M355.852 276.732L83.924 78.794L-14.729 5.43671H723.271L355.852 276.732Z" fill="#fff"/>
</g>
</g>
<defs>
<clipPath id="clip0_194_8">
<rect width="738" height="271" fill="white"/>
</clipPath>
</defs>
</svg>
