<svg width="103" height="743" viewBox="0 0 103 743" fill="none" xmlns="http://www.w3.org/2000/svg">
<path d="M2.02516 651.925L101 651.925L101 674.83L60.4203 674.83L60.4203 719.793L101 719.793L101 742.699L2.02516 742.699L2.02516 719.793L41.0495 719.793L41.0495 674.83L2.02516 674.83L2.02516 651.925ZM102.697 579.902C102.697 590.176 100.482 599.461 96.0513 607.756C91.621 615.957 85.5411 622.414 77.8116 627.127C69.9879 631.746 61.2215 634.055 51.5126 634.055C41.8036 634.055 33.0844 631.746 25.3549 627.127C17.5312 622.414 11.4042 615.957 6.9739 607.756C2.5436 599.461 0.328452 590.176 0.328452 579.902C0.328452 569.627 2.5436 560.39 6.9739 552.189C11.4042 543.988 17.5312 537.531 25.3549 532.818C33.0844 528.105 41.8036 525.748 51.5126 525.748C61.2215 525.748 69.9879 528.105 77.8116 532.818C85.5411 537.531 91.621 543.988 96.0513 552.189C100.482 560.39 102.697 569.627 102.697 579.902ZM83.1845 579.902C83.1845 574.058 81.8649 568.779 79.2255 564.066C76.4919 559.353 72.7215 555.677 67.9141 553.037C63.1068 550.304 57.6396 548.937 51.5126 548.937C45.3856 548.937 39.9184 550.304 35.111 553.037C30.3037 555.677 26.5803 559.353 23.941 564.066C21.2074 568.779 19.8406 574.058 19.8406 579.902C19.8406 585.746 21.2074 591.025 23.941 595.738C26.5803 600.451 30.3037 604.174 35.111 606.908C39.9184 609.547 45.3856 610.867 51.5126 610.867C57.6396 610.867 63.1068 609.547 67.9141 606.908C72.7215 604.174 76.4919 600.451 79.2255 595.738C81.8649 591.025 83.1845 585.746 83.1845 579.902ZM49.3917 439.528C51.1827 433.495 54.1048 428.876 58.158 425.671C62.2113 422.466 67.2072 420.864 73.1457 420.864C81.912 420.864 88.746 424.21 93.6476 430.903C98.5492 437.501 101 446.974 101 459.323L101 508.103L2.02516 508.103L2.02516 462.009C2.02516 450.509 4.24031 441.554 8.67061 435.144C13.1009 428.735 19.4165 425.53 27.6172 425.53C32.5188 425.53 36.8549 426.755 40.6254 429.206C44.3016 431.657 47.2237 435.097 49.3917 439.528ZM43.029 485.339L43.029 463.989C43.029 458.993 42.0393 455.222 40.0598 452.677C37.986 450.132 34.9696 448.86 31.0106 448.86C27.1459 448.86 24.1767 450.179 22.1029 452.819C20.0292 455.364 18.9923 459.087 18.9923 463.989L18.9923 485.339L43.029 485.339ZM84.0329 460.171C84.0329 449.425 79.7911 444.052 71.3076 444.052C63.1068 444.052 59.0064 449.425 59.0064 460.171L59.0064 485.339L84.0329 485.339L84.0329 460.171ZM102.697 355.524C102.697 365.798 100.482 375.083 96.0513 383.378C91.621 391.579 85.5411 398.036 77.8116 402.749C69.9879 407.368 61.2215 409.677 51.5126 409.677C41.8036 409.677 33.0844 407.368 25.3549 402.749C17.5312 398.036 11.4042 391.579 6.97391 383.378C2.54361 375.083 0.328455 365.798 0.328455 355.524C0.328455 345.249 2.54361 336.012 6.97391 327.811C11.4042 319.61 17.5312 313.153 25.3549 308.44C33.0844 303.727 41.8036 301.37 51.5126 301.37C61.2215 301.37 69.9879 303.727 77.8116 308.44C85.5411 313.153 91.621 319.61 96.0513 327.811C100.482 336.012 102.697 345.249 102.697 355.524ZM83.1845 355.524C83.1845 349.68 81.8649 344.401 79.2255 339.688C76.4919 334.975 72.7215 331.299 67.9141 328.659C63.1068 325.926 57.6396 324.559 51.5126 324.559C45.3856 324.559 39.9184 325.926 35.111 328.659C30.3037 331.299 26.5804 334.975 23.941 339.688C21.2074 344.401 19.8406 349.68 19.8406 355.524C19.8406 361.368 21.2074 366.647 23.941 371.36C26.5804 376.073 30.3037 379.796 35.111 382.53C39.9184 385.169 45.3856 386.489 51.5126 386.489C57.6396 386.489 63.1068 385.169 67.9141 382.53C72.7215 379.796 76.4919 376.073 79.2255 371.36C81.8649 366.647 83.1845 361.368 83.1845 355.524ZM102.697 236.924C102.697 247.01 100.529 256.154 96.1927 264.354C91.7624 272.461 85.6825 278.871 77.953 283.584C70.1293 288.203 61.3158 290.512 51.5126 290.512C41.7094 290.512 32.943 288.203 25.2136 283.584C17.3898 278.871 11.3099 272.461 6.97391 264.354C2.54361 256.154 0.328456 246.963 0.328456 236.783C0.328456 228.205 1.83664 220.475 4.85302 213.594C7.8694 206.619 12.2054 200.775 17.8611 196.062L31.4348 210.767C23.7054 217.459 19.8406 225.754 19.8406 235.652C19.8406 241.779 21.2074 247.246 23.941 252.053C26.5804 256.861 30.3037 260.631 35.111 263.365C39.9184 266.004 45.3856 267.324 51.5126 267.324C57.6396 267.324 63.1068 266.004 67.9141 263.365C72.7215 260.631 76.4919 256.861 79.2255 252.053C81.8649 247.246 83.1845 241.779 83.1845 235.652C83.1845 225.754 79.2727 217.459 71.4489 210.767L85.0226 196.062C90.7726 200.775 95.1558 206.619 98.1722 213.594C101.189 220.57 102.697 228.346 102.697 236.924ZM20.689 106.454L20.689 138.126L101 138.126L101 160.749L20.689 160.749L20.689 192.279L2.02516 192.279L2.02516 106.454L20.689 106.454ZM2.02516 92.0718L2.02516 69.3076L66.5002 69.3076L2.02517 22.0825L2.02517 0.590797L101 0.590798L101 23.2136L36.6664 23.2136L101 70.4388L101 92.0718L2.02516 92.0718Z" fill="white" fill-opacity="0.2"/>
</svg>
