<svg width="96" height="150" viewBox="0 0 96 150" fill="none" xmlns="http://www.w3.org/2000/svg">
<g clip-path="url(#clip0_36_104)">
<path fill-rule="evenodd" clip-rule="evenodd" d="M64.9131 0.421326L13.4613 30.3371L0.417969 53.0899V147.051L64.9131 109.551V0.421326Z" fill="#EFF1F9"/>
<path fill-rule="evenodd" clip-rule="evenodd" d="M65.3319 0.421357C65.3319 0.273885 65.2482 0.126413 65.1227 0.0526774C64.9972 -0.0210585 64.8298 -0.0210585 64.7043 0.0526774L13.2526 29.9684C13.1898 30.0105 13.1375 30.0632 13.0957 30.1264L0.052299 52.8792C0.0104598 52.9424 0 53.0162 0 53.0899V147.051C0 147.198 0.0836784 147.335 0.209196 147.419C0.334713 147.493 0.50207 147.493 0.627588 147.419L65.1227 109.919C65.2482 109.846 65.3319 109.709 65.3319 109.551V0.421357ZM64.4951 1.14818V109.308C60.7296 111.499 7.24864 142.595 0.836784 146.324V53.2058L13.7651 30.6531L64.4951 1.14818Z" fill="#6A65A4"/>
<path d="M69.2646 2.94946L17.8129 32.8652L4.76953 55.618V149.579L69.2646 112.079V2.94946Z" fill="#F9FAF9"/>
<path fill-rule="evenodd" clip-rule="evenodd" d="M66.0537 70.9656C78.2185 63.8975 88.082 69.6384 88.082 83.7746C88.082 97.9109 78.208 115.133 66.0537 122.202C53.889 129.27 44.0254 123.529 44.0254 109.393C44.0254 95.2564 53.889 78.0338 66.0537 70.9656Z" fill="#C5C6E5"/>
<path fill-rule="evenodd" clip-rule="evenodd" d="M69.6834 2.94943C69.6834 2.80196 69.5998 2.65449 69.4742 2.58075C69.3487 2.50702 69.1814 2.50702 69.0559 2.58075L17.6041 32.4965C17.5414 32.5386 17.4891 32.5913 17.4472 32.6545L4.40386 55.4073C4.36202 55.4705 4.35156 55.5442 4.35156 55.618V149.579C4.35156 149.726 4.43524 149.863 4.56076 149.947C4.68628 150.021 4.85363 150.021 4.97915 149.947L69.4742 112.447C69.5998 112.374 69.6834 112.237 69.6834 112.079V2.94943ZM68.8467 3.67626C68.8467 3.67626 68.8467 106.169 68.8467 111.836L5.18835 148.852V55.7338L18.1167 33.1812L68.8467 3.67626Z" fill="#6A65A4"/>
<path fill-rule="evenodd" clip-rule="evenodd" d="M59.4746 50.1405C59.4746 50.014 59.4014 49.8876 59.2968 49.8244C59.1818 49.7612 59.0458 49.7612 58.9307 49.8244C54.1715 52.5948 19.832 72.5562 15.0937 75.316C14.759 75.5162 14.5498 75.8743 14.5498 76.264C14.5498 76.9593 14.5498 78.0864 14.5498 78.7921C14.5498 78.9185 14.623 79.0449 14.7276 79.1081C14.8427 79.1714 14.9787 79.1714 15.0937 79.1081C19.8529 76.3378 54.1924 56.3764 58.9307 53.6166C59.2654 53.4164 59.4746 53.0583 59.4746 52.6685C59.4746 51.9733 59.4746 50.8462 59.4746 50.1405Z" fill="#C5C6E5"/>
<path fill-rule="evenodd" clip-rule="evenodd" d="M37.3417 52.9003C37.3417 52.7739 37.2685 52.6475 37.1639 52.5843C37.0488 52.5211 36.9128 52.5211 36.7978 52.5843C33.6808 54.3961 18.2003 63.4024 15.0937 65.2036C14.759 65.4038 14.5498 65.7619 14.5498 66.1517C14.5498 66.8469 14.5498 67.974 14.5498 68.6798C14.5498 68.8062 14.623 68.9326 14.7276 68.9958C14.8427 69.059 14.9787 69.059 15.0937 68.9958C18.2107 67.184 33.6912 58.1882 36.7978 56.3764C37.1325 56.1763 37.3417 55.8181 37.3417 55.4284C37.3417 54.7331 37.3417 53.606 37.3417 52.9003Z" fill="#C5C6E5"/>
<path fill-rule="evenodd" clip-rule="evenodd" d="M45.5938 72.5457C45.5938 72.4193 45.5206 72.2929 45.416 72.2297C45.3009 72.1665 45.1649 72.1665 45.0499 72.2297C41.253 74.4417 18.8795 87.4403 15.1035 89.6419C14.7688 89.842 14.5596 90.2002 14.5596 90.5899C14.5596 91.2851 14.5596 92.4122 14.5596 93.118C14.5596 93.2444 14.6328 93.3708 14.7374 93.434C14.8524 93.4972 14.9884 93.4972 15.1035 93.434C18.9004 91.2219 41.2739 78.2128 45.0499 76.0218C45.3846 75.8216 45.5938 75.4635 45.5938 75.0738C45.5938 74.368 45.5938 73.2514 45.5938 72.5457Z" fill="#D9D9D9"/>
<path fill-rule="evenodd" clip-rule="evenodd" d="M37.3417 87.4508C37.3417 87.3244 37.2685 87.198 37.1639 87.1348C37.0488 87.0716 36.9128 87.0716 36.7978 87.1348C33.6808 88.9466 18.2003 97.9529 15.0937 99.7542C14.759 99.9543 14.5498 100.312 14.5498 100.702C14.5498 101.397 14.5498 102.525 14.5498 103.23C14.5498 103.357 14.623 103.483 14.7276 103.546C14.8427 103.61 14.9787 103.61 15.0937 103.546C18.2107 101.735 33.6912 92.7387 36.7978 90.9269C37.1325 90.7268 37.3417 90.3687 37.3417 89.9789C37.3417 89.2837 37.3417 88.1566 37.3417 87.4508Z" fill="#D9D9D9"/>
<path fill-rule="evenodd" clip-rule="evenodd" d="M37.3417 97.5632C37.3417 97.4368 37.2685 97.3104 37.1639 97.2472C37.0488 97.184 36.9128 97.184 36.7978 97.2472C33.6808 99.059 18.2003 108.065 15.0937 109.867C14.759 110.067 14.5498 110.425 14.5498 110.815C14.5498 111.51 14.5498 112.637 14.5498 113.343C14.5498 113.469 14.623 113.595 14.7276 113.659C14.8427 113.722 14.9787 113.722 15.0937 113.659C18.2107 111.847 33.6912 102.851 36.7978 101.039C37.1325 100.839 37.3417 100.481 37.3417 100.091C37.3417 99.396 37.3417 98.2689 37.3417 97.5632Z" fill="#D9D9D9"/>
<path fill-rule="evenodd" clip-rule="evenodd" d="M88.5314 75.0421C88.5314 75.0421 88.1653 75.158 88.3013 75.3581C90.048 77.8968 91.0417 81.4361 91.0417 85.8181C91.0417 99.2697 81.6488 115.66 70.0803 122.391C66.6704 124.371 63.4488 125.298 60.5933 125.267L60.0389 126.647L55.4366 123.971C51.5351 121.812 49.1084 117.04 49.1084 110.204C49.1084 96.7521 58.5013 80.3616 70.0698 73.6306C75.8646 70.2598 81.1154 69.9543 84.9123 72.1664L89.3995 74.7788L88.5314 75.0421Z" fill="#5B568F"/>
<path fill-rule="evenodd" clip-rule="evenodd" d="M55.4373 124.382C55.3641 124.382 55.2908 124.361 55.2281 124.329L59.8304 127.005C59.935 127.068 60.0605 127.079 60.1756 127.037C60.2906 126.994 60.3848 126.91 60.4266 126.794L60.8764 125.678C63.7214 125.646 66.9117 124.709 70.2902 122.739C81.9738 115.945 91.4608 99.3961 91.4608 85.8076C91.4608 81.4783 90.4985 77.96 88.8249 75.3792L89.5258 75.1686C89.6827 75.1159 89.8082 74.979 89.8186 74.8104C89.8395 74.6419 89.7559 74.4839 89.6094 74.3996L85.1222 71.7872C81.2207 69.512 75.8234 69.7858 69.8613 73.2514C58.1882 80.0562 48.7012 96.6152 48.7012 110.204C48.7012 117.23 51.2324 122.117 55.2385 124.34C55.3013 124.372 55.3641 124.382 55.4373 124.382ZM84.7142 72.5351L88.3647 74.6629C88.2915 74.6945 88.1346 74.7683 88.03 74.8736C87.9254 74.9895 87.8626 75.1264 87.8626 75.2739C87.8626 75.3792 87.8836 75.4846 87.9672 75.6004C89.6722 78.0864 90.6345 81.5415 90.6345 85.8181C90.6345 99.1433 81.3357 115.365 69.8823 122.022C66.5456 123.961 63.3972 124.877 60.6149 124.846C60.4475 124.846 60.2906 124.951 60.2279 125.109L59.8513 126.036L55.6988 123.624C55.6883 123.613 55.6674 123.603 55.6569 123.592C51.8705 121.496 49.5484 116.84 49.5484 110.193C49.5484 96.868 58.8472 80.6461 70.3006 73.9888C75.928 70.7233 81.0219 70.3757 84.7142 72.5351ZM55.4373 124.382C55.4268 124.329 55.3431 123.529 55.2281 123.603C54.7992 123.855 55.3954 124.35 55.4373 124.382ZM84.9234 72.5667V72.5878V72.5667ZM84.9234 72.5878C84.9234 72.5773 84.8293 71.7346 84.7142 71.8083C84.2645 72.0717 84.913 72.5878 84.9234 72.5878Z" fill="#2648FF"/>
<path fill-rule="evenodd" clip-rule="evenodd" d="M74.6099 76.264C86.1784 69.533 95.5713 75 95.5713 88.4515C95.5713 101.903 86.1784 118.294 74.6099 125.025C63.0413 131.756 53.6484 126.289 53.6484 112.837C53.6484 99.375 63.0413 82.9951 74.6099 76.264Z" fill="#6A65A4"/>
<path fill-rule="evenodd" clip-rule="evenodd" d="M74.4001 75.9059C62.7165 82.7002 53.2295 99.2486 53.2295 112.837C53.2295 119.758 55.6771 124.593 59.5786 126.868C63.4801 129.133 68.8669 128.848 74.8185 125.393C86.5021 118.599 95.9891 102.051 95.9891 88.4621C95.9891 81.5414 93.5415 76.7065 89.64 74.4312C85.749 72.1559 80.3517 72.4403 74.4001 75.9059ZM74.8185 76.6327C80.4459 73.3673 85.5293 73.0091 89.2216 75.158C92.914 77.3069 95.1524 81.9207 95.1524 88.4516C95.1524 101.777 85.8536 117.999 74.4001 124.656C68.7727 127.921 63.6893 128.28 59.997 126.131C56.3047 123.982 54.0663 119.368 54.0663 112.837C54.0663 99.5119 63.365 83.29 74.8185 76.6327Z" fill="#2648FF"/>
<path fill-rule="evenodd" clip-rule="evenodd" d="M67.6012 104.989C67.528 104.947 67.4757 104.874 67.4548 104.8C67.4339 104.716 67.4443 104.631 67.4862 104.558C67.7477 104.105 68.2602 103.22 68.4903 102.83C68.5531 102.725 68.6891 102.683 68.7936 102.746C69.7664 103.304 74.034 105.78 74.034 105.78C74.034 105.78 78.7095 97.6159 79.5254 96.1939C79.5568 96.1412 79.6091 96.099 79.6718 96.078C79.7346 96.0569 79.7974 96.0674 79.8497 96.099C80.2053 96.3097 80.9479 96.7416 81.2826 96.9312C81.3768 96.9839 81.4082 97.1103 81.3559 97.2051C80.5923 98.5323 75.7494 106.991 74.8813 108.497C74.7976 108.645 74.6511 108.75 74.4942 108.782C74.4838 108.782 74.4733 108.782 74.4524 108.792C74.2955 108.824 74.1281 108.792 73.9817 108.708C72.988 108.129 68.7309 105.643 67.6012 104.989Z" fill="#F9FAF9"/>
<path fill-rule="evenodd" clip-rule="evenodd" d="M84.4834 107.022C84.4834 106.938 84.4415 106.854 84.3578 106.812C84.2846 106.77 84.1905 106.77 84.1173 106.812C81.6488 108.244 67.4757 116.492 65.2164 117.798C65.0281 117.904 64.9131 118.104 64.9131 118.325C64.9131 118.441 64.9131 118.588 64.9131 118.736C64.9131 119.01 65.0595 119.273 65.3001 119.41C65.5407 119.547 65.8336 119.547 66.0741 119.41C69.7037 117.293 80.812 110.846 83.7616 109.129C84.2114 108.866 84.4834 108.381 84.4834 107.865C84.4834 107.581 84.4834 107.265 84.4834 107.022Z" fill="#F9FAF9"/>
<path fill-rule="evenodd" clip-rule="evenodd" d="M66.7226 115.66C66.7226 115.576 66.6808 115.492 66.5971 115.449C66.5239 115.407 66.4298 115.407 66.3565 115.449C66.0218 115.65 65.5302 115.934 65.2164 116.113C65.0281 116.218 64.9131 116.419 64.9131 116.64C64.9131 117.061 64.9131 117.809 64.9131 118.504C64.9131 118.831 65.0909 119.136 65.3629 119.294C65.6453 119.452 65.9904 119.452 66.2729 119.294C66.3252 119.263 66.3775 119.231 66.4193 119.21C66.6076 119.105 66.7226 118.904 66.7226 118.683C66.7226 117.978 66.7226 116.419 66.7226 115.66Z" fill="#F9FAF9"/>
<path fill-rule="evenodd" clip-rule="evenodd" d="M84.4834 105.337C84.4834 105.253 84.4415 105.169 84.3579 105.126C84.2846 105.084 84.1905 105.084 84.1173 105.126C83.7826 105.327 83.291 105.611 82.9772 105.79C82.7889 105.895 82.6738 106.095 82.6738 106.317C82.6738 107.012 82.6738 108.571 82.6738 109.329C82.6738 109.414 82.7157 109.498 82.7993 109.54C82.8726 109.582 82.9667 109.582 83.0399 109.54C83.1968 109.445 83.3956 109.329 83.5943 109.224C84.1487 108.897 84.4938 108.308 84.4938 107.665C84.4834 106.896 84.4834 105.895 84.4834 105.337Z" fill="#F9FAF9"/>
<path fill-rule="evenodd" clip-rule="evenodd" d="M75.3104 85.3968C75.3104 85.3125 75.2686 85.2282 75.1849 85.1861C75.1117 85.1439 75.0175 85.1439 74.9443 85.1861C74.5259 85.4284 73.8356 85.8286 73.4381 86.0604C73.2498 86.1657 73.1348 86.3659 73.1348 86.5871C73.1348 89.1152 73.1348 104.526 73.1348 107.296C73.1348 107.381 73.1766 107.465 73.2603 107.507C73.3335 107.549 73.4276 107.549 73.5009 107.507C73.9193 107.265 74.6096 106.864 75.0071 106.633C75.1953 106.527 75.3104 106.327 75.3104 106.106C75.3104 103.578 75.3104 88.1671 75.3104 85.3968Z" fill="#F9FAF9"/>
</g>
<defs>
<clipPath id="clip0_36_104">
<rect width="96" height="150" fill="white"/>
</clipPath>
</defs>
</svg>
