<svg width="18" height="18" viewBox="0 0 18 18" fill="none" xmlns="http://www.w3.org/2000/svg">
<path fill-rule="evenodd" clip-rule="evenodd" d="M17.8158 1.16136L15.4008 15.6557C15.3688 15.8369 15.2686 15.9797 15.0981 16.0799C15.0107 16.1289 14.9127 16.1545 14.8061 16.1545C14.7379 16.1545 14.6612 16.1396 14.5802 16.1076L10.3065 14.3619L8.02149 17.1456C7.90852 17.2906 7.75502 17.363 7.55892 17.363C7.47793 17.363 7.40975 17.3502 7.3522 17.3247C7.23283 17.2799 7.13689 17.2074 7.06442 17.103C6.99195 16.9985 6.95572 16.8835 6.95572 16.7577V13.4666L15.1088 3.47398L5.0224 12.2005L1.29438 10.6722C1.06205 10.5848 0.936285 10.4122 0.917101 10.1542C0.904312 9.90273 1.00449 9.71732 1.21977 9.59795L16.9206 0.538975C17.0144 0.483555 17.1145 0.45363 17.2211 0.45363C17.3469 0.45363 17.4598 0.487759 17.5621 0.5581C17.7689 0.709438 17.8542 0.909843 17.8158 1.16136Z" fill="white"/>
</svg>
