<svg width="20" height="12" viewBox="0 0 20 12" fill="none" xmlns="http://www.w3.org/2000/svg">
<path fill-rule="evenodd" clip-rule="evenodd" d="M10.5809 11.0032C10.5809 11.0032 10.9262 10.9649 11.1052 10.7795C11.2672 10.6068 11.2608 10.2827 11.2608 10.2827C11.2608 10.2827 11.2396 8.77157 11.9558 8.54776C12.6592 8.32821 13.565 10.01 14.5242 10.6559C15.2511 11.1461 15.801 11.0395 15.801 11.0395L18.3674 11.0032C18.3674 11.0032 19.7102 10.9223 19.0729 9.88634C19.0217 9.80108 18.702 9.11893 17.1652 7.71852C15.5559 6.25416 15.7712 6.49078 17.7108 3.95427C18.8896 2.41104 19.3628 1.46687 19.2136 1.06401C19.0751 0.678205 18.2054 0.780528 18.2054 0.780528L15.3172 0.799653C15.3172 0.799653 15.104 0.769744 14.9442 0.863531C14.7886 0.955186 14.6883 1.16835 14.6883 1.16835C14.6883 1.16835 14.2322 2.36211 13.6226 3.37884C12.3351 5.52316 11.8214 5.63602 11.6104 5.50386C11.1202 5.19266 11.2438 4.25698 11.2438 3.59194C11.2438 1.51371 11.5657 0.646179 10.6193 0.422369C10.3038 0.347766 10.0736 0.298716 9.27002 0.29019C8.23837 0.279531 7.36657 0.294532 6.87206 0.531131C6.5438 0.688864 6.29019 1.04048 6.44579 1.0618C6.6355 1.08738 7.06817 1.17695 7.29624 1.48176C7.59253 1.87822 7.58402 2.76491 7.58402 2.76491C7.58402 2.76491 7.75239 5.21185 7.1854 5.51453C6.79533 5.72342 6.26243 5.29929 5.11567 3.35321C4.52737 2.35779 4.08406 1.25578 4.08406 1.25578C4.08406 1.25578 3.9988 1.04905 3.84533 0.938207C3.65989 0.806052 3.40196 0.763355 3.40196 0.763355L0.656568 0.780528C0.656568 0.780528 0.245168 0.793215 0.0938298 0.967999C-0.0404562 1.1236 0.0831618 1.44767 0.0831618 1.44767C0.0831618 1.44767 2.23172 6.38422 4.66592 8.87171C6.89763 11.1524 9.432 11.0032 9.432 11.0032H10.5809Z" fill="white"/>
</svg>
